M48
; DRILL file {KiCad 9.0.4-9.0.4-0~ubuntu22.04.1} date 2025-08-28T19:05:07+0800
; FORMAT={-:-/ absolute / inch / decimal}
; #@! TF.CreationDate,2025-08-28T19:05:07+08:00
; #@! TF.GenerationSoftware,Kicad,Pcbnew,9.0.4-9.0.4-0~ubuntu22.04.1
; #@! TF.FileFunction,Plated,1,4,PTH
FMAT,2
INCH
; #@! TA.AperFunction,Plated,PTH,ViaDrill
T1C0.0118
; #@! TA.AperFunction,Plated,PTH,ComponentDrill
T2C0.0315
%
G90
G05
T1
X5.8098Y-3.472
X5.8098Y-3.5028
X5.8098Y-3.574
X5.8098Y-3.6138
X5.8098Y-3.6528
X5.8098Y-3.6925
X5.8098Y-3.7315
X5.8098Y-3.7705
X5.8098Y-3.8102
X5.8098Y-3.8496
X5.8098Y-3.889
X5.8098Y-3.9283
X5.8098Y-3.9677
X5.8098Y-4.0071
X5.8098Y-4.0465
X5.8098Y-4.0854
X5.8098Y-4.1268
X5.8098Y-4.1646
X5.8098Y-4.2039
X5.8098Y-4.2449
X5.8098Y-4.2827
X5.8098Y-4.3512
X5.8098Y-4.4126
X5.8098Y-4.4815
X5.8102Y-3.5406
X5.8453Y-3.6512
X5.8476Y-3.5035
X5.8476Y-3.5748
X5.8476Y-3.6142
X5.848Y-3.5402
X5.8488Y-3.4717
X5.8488Y-3.9394
X5.8492Y-3.9043
X5.8496Y-3.763
X5.8496Y-3.7965
X5.8496Y-3.8311
X5.8496Y-3.8646
X5.8496Y-3.9693
X5.85Y-4.1996
X5.8504Y-3.7248
X5.8528Y-4.0461
X5.8531Y-4.1169
X5.8531Y-4.2827
X5.8535Y-4.0138
X5.8535Y-4.0791
X5.8567Y-4.2252
X5.8657Y-3.6929
X5.8705Y-4.3138
X5.8732Y-3.9909
X5.8756Y-3.8811
X5.8795Y-3.9106
X5.8799Y-3.9587
X5.885Y-3.6118
X5.885Y-3.835
X5.8866Y-3.9343
X5.8886Y-3.4717
X5.8886Y-3.5047
X5.8886Y-3.6713
X5.889Y-3.5413
X5.889Y-3.5748
X5.889Y-4.0181
X5.889Y-4.2827
X5.8952Y-4.1671
X5.8976Y-3.8008
X5.9039Y-3.7441
X5.9044Y-3.7195
X5.9049Y-4.1452
X5.9051Y-3.6976
X5.9059Y-3.7677
X5.9067Y-4.3
X5.9071Y-3.6504
X5.9087Y-3.6224
X5.9134Y-4.0181
X5.914Y-3.9191
X5.9189Y-3.9547
X5.9189Y-4.0472
X5.9209Y-4.1803
X5.9217Y-4.1247
X5.9232Y-4.398
X5.9232Y-4.4795
X5.9246Y-4.0961
X5.9256Y-4.1533
X5.926Y-3.5409
X5.9264Y-3.5047
X5.928Y-3.4717
X5.928Y-4.2827
X5.9295Y-3.5807
X5.9307Y-3.6929
X5.9327Y-4.0059
X5.9429Y-4.3232
X5.9445Y-4.0433
X5.9527Y-4.0955
X5.9535Y-3.7
X5.963Y-4.1732
X5.9661Y-3.5409
X5.9665Y-3.5047
X5.9673Y-3.4717
X5.9673Y-4.2827
X5.9689Y-3.5839
X5.9717Y-4.216
X5.9741Y-4.1936
X5.9827Y-3.6953
X5.9827Y-3.8169
X5.9909Y-3.5626
X5.9961Y-3.7835
X6.0047Y-3.6441
X6.0059Y-3.5402
X6.0059Y-4.4799
X6.0067Y-3.4717
X6.0071Y-4.2827
X6.0075Y-3.5043
X6.0091Y-4.0902
X6.01Y-4.1159
X6.0142Y-3.8106
X6.0228Y-3.6252
X6.0307Y-3.835
X6.0315Y-3.7874
X6.037Y-3.6516
X6.037Y-3.7024
X6.0386Y-3.8768
X6.0394Y-3.5213
X6.0398Y-3.7626
X6.0425Y-3.9976
X6.0437Y-3.7311
X6.0441Y-4.0543
X6.0457Y-3.4717
X6.0457Y-4.2827
X6.0516Y-3.6252
X6.0528Y-3.8213
X6.0539Y-4.216
X6.0543Y-3.8524
X6.0543Y-4.0276
X6.0551Y-4.1724
X6.061Y-3.7965
X6.0634Y-4.2441
X6.0638Y-3.985
X6.0642Y-4.1323
X6.0646Y-3.7425
X6.0646Y-4.0772
X6.0657Y-3.4937
X6.0693Y-3.6441
X6.0736Y-4.0484
X6.0744Y-4.0075
X6.0748Y-3.5213
X6.0807Y-3.7776
X6.0819Y-4.4016
X6.0819Y-4.4394
X6.0819Y-4.4815
X6.0854Y-3.472
X6.0854Y-4.2827
X6.0867Y-4.2445
X6.0882Y-3.6783
X6.089Y-3.5776
X6.0938Y-3.9882
X6.0938Y-4.0264
X6.0938Y-4.0665
X6.1114Y-4.2445
X6.1142Y-4.0075
X6.1154Y-4.0492
X6.1181Y-3.7098
X6.1193Y-3.472
X6.1197Y-3.6807
X6.1236Y-3.9764
X6.1252Y-4.2827
X6.126Y-3.7417
X6.1287Y-3.7764
X6.1319Y-4.0268
X6.1327Y-4.0657
X6.137Y-3.8201
X6.137Y-3.9976
X6.1449Y-3.8559
X6.1453Y-3.8827
X6.1469Y-3.6709
X6.1476Y-4.4815
X6.148Y-3.9128
X6.1492Y-3.713
X6.1531Y-3.4717
X6.1539Y-3.7394
X6.1547Y-3.7756
X6.1563Y-4.4008
X6.1618Y-3.5965
X6.1626Y-4.1276
X6.1642Y-4.1016
X6.1657Y-3.5701
X6.1673Y-3.6197
X6.1728Y-3.5236
X6.1752Y-3.6421
X6.1768Y-4.1732
X6.1768Y-4.4681
X6.1803Y-4.2
X6.1847Y-4.1331
X6.1854Y-4.2827
X6.1917Y-3.4713
X6.1917Y-3.5114
X6.1917Y-3.5835
X6.1917Y-3.6193
X6.1917Y-3.6626
X6.1954Y-4.1564
X6.1992Y-3.8335
X6.1992Y-3.8626
X6.1996Y-3.702
X6.2Y-3.7512
X6.2004Y-3.8004
X6.2244Y-3.5843
X6.2252Y-3.5079
X6.2291Y-3.4705
X6.2291Y-4.1421
X6.2311Y-3.6209
X6.2315Y-3.6626
X6.2343Y-3.7012
X6.2346Y-3.7504
X6.235Y-3.7996
X6.2354Y-3.8488
X6.2364Y-4.4165
X6.2386Y-4.4394
X6.2386Y-4.465
X6.2398Y-4.3366
X6.2531Y-4.1756
X6.2722Y-4.1333
X6.2726Y-3.4772
X6.2726Y-3.4992
X6.2726Y-3.5937
X6.2726Y-3.6177
X6.2756Y-3.7
X6.276Y-3.7492
X6.2764Y-3.6626
X6.2764Y-3.7984
X6.2768Y-3.8476
X6.2787Y-4.1748
X6.2823Y-4.024
X6.2854Y-4.2803
X6.2953Y-3.965
X6.2969Y-3.9209
X6.3056Y-3.4772
X6.3056Y-3.5937
X6.3056Y-3.6177
X6.3059Y-3.4992
X6.3098Y-3.8929
X6.3146Y-4.4685
X6.315Y-4.4181
X6.3189Y-4.002
X6.3193Y-3.9449
X6.3209Y-3.7
X6.3213Y-3.7492
X6.3217Y-3.6626
X6.3217Y-3.7984
X6.3217Y-4.2827
X6.322Y-3.8476
X6.3232Y-4.248
X6.3386Y-3.4772
X6.3386Y-3.4992
X6.3386Y-3.5937
X6.3386Y-3.6177
X6.361Y-3.6626
X6.361Y-3.8102
X6.361Y-3.9283
X6.361Y-3.9673
X6.361Y-4.0094
X6.361Y-4.0469
X6.361Y-4.0854
X6.361Y-4.1252
X6.361Y-4.2035
X6.361Y-4.2441
X6.3614Y-3.702
X6.3614Y-3.7346
X6.3614Y-3.7705
X6.3614Y-3.8492
X6.3614Y-3.889
X6.3614Y-4.165
X6.3614Y-4.2827
X6.3626Y-4.3512
X6.3626Y-4.4126
X6.3626Y-4.4815
T2
X5.885Y-4.3606
X5.885Y-4.4394
X5.9638Y-4.3606
X5.9638Y-4.4394
X6.0425Y-4.3606
X6.0425Y-4.4394
X6.1213Y-4.3606
X6.1213Y-4.4394
X6.2Y-4.3606
X6.2Y-4.4394
X6.2787Y-4.3606
X6.2787Y-4.4394
M30
