%TF.GenerationSoftware,KiCad,Pcbnew,9.0.4-9.0.4-0~ubuntu22.04.1*%
%TF.CreationDate,2025-08-28T19:05:07+08:00*%
%TF.ProjectId,LoRa-TW,4c6f5261-2d54-4572-9e6b-696361645f70,0.1*%
%TF.SameCoordinates,Original*%
%TF.FileFunction,Copper,L3,Inr*%
%TF.FilePolarity,Positive*%
%FSLAX46Y46*%
G04 Gerber Fmt 4.6, Leading zero omitted, Abs format (unit mm)*
G04 Created by KiCad (PCBNEW 9.0.4-9.0.4-0~ubuntu22.04.1) date 2025-08-28 19:05:07*
%MOMM*%
%LPD*%
G01*
G04 APERTURE LIST*
%TA.AperFunction,ComponentPad*%
%ADD10R,1.350000X1.350000*%
%TD*%
%TA.AperFunction,ComponentPad*%
%ADD11C,1.350000*%
%TD*%
%TA.AperFunction,ViaPad*%
%ADD12C,0.500000*%
%TD*%
%TA.AperFunction,ViaPad*%
%ADD13C,0.480000*%
%TD*%
%TA.AperFunction,Conductor*%
%ADD14C,0.152400*%
%TD*%
%TA.AperFunction,Conductor*%
%ADD15C,0.200000*%
%TD*%
%TA.AperFunction,Conductor*%
%ADD16C,0.263400*%
%TD*%
%TA.AperFunction,Conductor*%
%ADD17C,0.230000*%
%TD*%
%TA.AperFunction,Conductor*%
%ADD18C,0.500000*%
%TD*%
G04 APERTURE END LIST*
D10*
%TO.N,VDD*%
%TO.C,J2*%
X159480000Y-112760000D03*
D11*
%TO.N,Net-(J2-Pin_2)*%
X159480000Y-110760000D03*
%TO.N,VDD*%
X157480000Y-112760000D03*
%TO.N,Net-(J2-Pin_4)*%
X157480000Y-110760000D03*
%TO.N,GND*%
X155480000Y-112760000D03*
%TO.N,Net-(J2-Pin_6)*%
X155480000Y-110760000D03*
%TO.N,GND*%
X153480000Y-112760000D03*
%TO.N,Net-(J2-Pin_8)*%
X153480000Y-110760000D03*
%TO.N,Net-(J2-Pin_9)*%
X151480000Y-112760000D03*
%TO.N,Net-(J2-Pin_10)*%
X151480000Y-110760000D03*
%TO.N,/MCU_ANT_{SW}*%
X149480000Y-112760000D03*
%TO.N,Net-(J2-Pin_12)*%
X149480000Y-110760000D03*
%TD*%
D12*
%TO.N,GND*%
X154450000Y-95950000D03*
X161570000Y-96780000D03*
X147570000Y-96780000D03*
X160550000Y-93980000D03*
X152570000Y-88180000D03*
X147570000Y-113830000D03*
X154270000Y-102830000D03*
X157470000Y-94030000D03*
X157270000Y-88170000D03*
X161000000Y-91890000D03*
X152980000Y-92080000D03*
X152580000Y-108780000D03*
X157090251Y-104979765D03*
X153800000Y-105980000D03*
X159325000Y-88320000D03*
X161580000Y-108780000D03*
X158220000Y-88150000D03*
X154160000Y-92560000D03*
X148580000Y-100820000D03*
X160580000Y-97730000D03*
X154640000Y-93430000D03*
X148580000Y-95580000D03*
X147570000Y-98780000D03*
X150520000Y-89940000D03*
X156090000Y-98620000D03*
X160500000Y-101650000D03*
X148670000Y-104570000D03*
X148670000Y-108780000D03*
X149580000Y-89950000D03*
X148760000Y-107320000D03*
X158280000Y-93030000D03*
X154030000Y-104960000D03*
X151570000Y-108780000D03*
X150610000Y-90950000D03*
X150340000Y-100450000D03*
X150010000Y-95700000D03*
X148990000Y-93800000D03*
X156190000Y-94310000D03*
X153340000Y-92750000D03*
X147570000Y-94780000D03*
X155330000Y-102850000D03*
X161570000Y-101840000D03*
X157110000Y-108780000D03*
X160170000Y-88880000D03*
X154070000Y-88740000D03*
X155540000Y-101000000D03*
X149570000Y-89020000D03*
X153380000Y-98470000D03*
X147570000Y-95770000D03*
X158830000Y-106060000D03*
X154782500Y-103290000D03*
X158370000Y-96510000D03*
X149520000Y-99930000D03*
X156310000Y-94980000D03*
X150215000Y-99545000D03*
X147570000Y-108780000D03*
X156150000Y-113830000D03*
X159420000Y-96480000D03*
X154480000Y-112760000D03*
X149972752Y-94475128D03*
X147570000Y-91790000D03*
X148540000Y-89920000D03*
X161580000Y-95770000D03*
X151741887Y-106517996D03*
X148660000Y-102770000D03*
X158380000Y-97760000D03*
X153400000Y-89440000D03*
X149110000Y-109570000D03*
X154782500Y-102270125D03*
X149580000Y-108780000D03*
X149580000Y-90800000D03*
X154480000Y-113830000D03*
X150030000Y-109220000D03*
X147570000Y-93790000D03*
X153180000Y-97410000D03*
X158100000Y-91040000D03*
X151680000Y-107087600D03*
X151460000Y-106000000D03*
X157460000Y-97370000D03*
X154300000Y-89440000D03*
X154040000Y-103560000D03*
X151610000Y-91030000D03*
X158220000Y-105210000D03*
X150485033Y-104040000D03*
X148530000Y-90800000D03*
X159325000Y-91890000D03*
X154040000Y-95060000D03*
X156530000Y-104840000D03*
X157270000Y-89190000D03*
X159325000Y-88880000D03*
X155880000Y-101540000D03*
X149350000Y-100550000D03*
X156610000Y-90680000D03*
X160510000Y-100200000D03*
X154782500Y-101300000D03*
X161570000Y-102790000D03*
X148600000Y-94610000D03*
X153340000Y-94040000D03*
X152520000Y-92560000D03*
X161570000Y-100770000D03*
X147570000Y-103770000D03*
X149570000Y-88180000D03*
X149800000Y-96540000D03*
X150530000Y-89020000D03*
X160162500Y-88320000D03*
X153768683Y-107087600D03*
X149985165Y-105287015D03*
X158120000Y-89100000D03*
X153520000Y-102980000D03*
X161570000Y-106770000D03*
X153740000Y-97060000D03*
X149990000Y-93920000D03*
X153780000Y-102300000D03*
X147570000Y-110520000D03*
X154290000Y-101790000D03*
X159325000Y-91280000D03*
X155400000Y-94230000D03*
X158490000Y-110150000D03*
X160570000Y-108780000D03*
X155580000Y-108780000D03*
X161000000Y-88320000D03*
X160560000Y-95230000D03*
X150450000Y-111710000D03*
X161610000Y-113830000D03*
X147570000Y-92780000D03*
X150450000Y-113780000D03*
X147570000Y-99780000D03*
X147570000Y-106780000D03*
X152550000Y-113790000D03*
X147570000Y-100780000D03*
X160162500Y-91890000D03*
X156510000Y-91350000D03*
X147570000Y-97780000D03*
X154570000Y-88190000D03*
X161610000Y-110520000D03*
X159420000Y-93030000D03*
X155440000Y-93490000D03*
X153780000Y-97850000D03*
X161570000Y-93030000D03*
X155770000Y-103270000D03*
X155430000Y-88190000D03*
X151960000Y-96950000D03*
X159430000Y-97730000D03*
X156080000Y-97940000D03*
X150510436Y-105492721D03*
X152590000Y-89010000D03*
X149570000Y-93250000D03*
X161570000Y-99780000D03*
X147570000Y-105780000D03*
X148530000Y-91800000D03*
X157270000Y-93030000D03*
X158270000Y-91970000D03*
X148560000Y-88180000D03*
X149240000Y-98580000D03*
X150340000Y-102800000D03*
X147570000Y-102780000D03*
X150570000Y-88180000D03*
X152550000Y-89920000D03*
X151570000Y-88180000D03*
X161000000Y-91280000D03*
X153560000Y-88180000D03*
X152653422Y-104543422D03*
X161580000Y-105790000D03*
X148570000Y-99170000D03*
X157460000Y-98110000D03*
X156290000Y-88180000D03*
X148560000Y-100060000D03*
X148680000Y-103610000D03*
X150570000Y-108780000D03*
X147580000Y-89930000D03*
X153510000Y-94770000D03*
X156650000Y-91940000D03*
X155600000Y-95040000D03*
X156370000Y-111780000D03*
X149480000Y-91740000D03*
X154660000Y-90870000D03*
X148470000Y-92740000D03*
X154480000Y-111800000D03*
X156850000Y-92510000D03*
X147570000Y-90780000D03*
X151198231Y-104025341D03*
X148580000Y-98160000D03*
X151540000Y-89940000D03*
X151220000Y-93980000D03*
X147570000Y-112080000D03*
X150990000Y-102700000D03*
X149340000Y-99330000D03*
X155670000Y-95920000D03*
X156330000Y-95900000D03*
X147570000Y-107820000D03*
X159650000Y-108720000D03*
X148580000Y-96430000D03*
X161570000Y-104780000D03*
X147570000Y-101780000D03*
X149960000Y-95100000D03*
X150410557Y-104768432D03*
X152760000Y-96790000D03*
X148590000Y-106670000D03*
X161580000Y-97770000D03*
X157480000Y-95280000D03*
X157270000Y-91020000D03*
X147570000Y-104820000D03*
X152300000Y-96100000D03*
X153410000Y-95570000D03*
X151960000Y-93860000D03*
X160270000Y-98880000D03*
X161570000Y-103770000D03*
X147570000Y-88970000D03*
X159410000Y-95230000D03*
X149480000Y-97410000D03*
X149739000Y-105845538D03*
X161610000Y-112080000D03*
X153560000Y-108780000D03*
X161570000Y-107800000D03*
X148580000Y-97310000D03*
X149180000Y-101370000D03*
X156160000Y-99384413D03*
X158350000Y-94010000D03*
X154020000Y-101220000D03*
X153480000Y-101540000D03*
X155750000Y-102280000D03*
X155300000Y-101790000D03*
X152170000Y-90490000D03*
X160570000Y-96480000D03*
X151550000Y-89020000D03*
X147570000Y-88190000D03*
X156790000Y-89500000D03*
X159400000Y-93980000D03*
X161580000Y-94030000D03*
X160570000Y-93030000D03*
X153950000Y-96430000D03*
X150080000Y-92010000D03*
X150950000Y-109810000D03*
X157270000Y-91930000D03*
X150640000Y-93800000D03*
X153200000Y-96200000D03*
X160162500Y-91280000D03*
X160610000Y-107900000D03*
X158360000Y-95260000D03*
X148530000Y-88990000D03*
X161580000Y-94860000D03*
X155880000Y-97030000D03*
X157490000Y-96530000D03*
X161580000Y-98780000D03*
X154570000Y-108780000D03*
X148680000Y-101950000D03*
X153710000Y-92080000D03*
X161000000Y-88880000D03*
%TO.N,VDD*%
X149580000Y-102060000D03*
X159570000Y-102210000D03*
X158403354Y-112178315D03*
X156890000Y-106000000D03*
X156980000Y-106680000D03*
X158460000Y-112760000D03*
X160390000Y-113500000D03*
X154602433Y-107811400D03*
X155230000Y-107811400D03*
X158460000Y-113410003D03*
X150690000Y-101750000D03*
X156890000Y-113490000D03*
X150200000Y-102060000D03*
X154010000Y-107800000D03*
X157364189Y-105571867D03*
X160400000Y-112220000D03*
%TO.N,/DIO2_ANT_{SW}*%
X156570000Y-104180000D03*
X156130000Y-93240000D03*
D13*
%TO.N,/DIO3_CLK_{EN}*%
X150390000Y-106180000D03*
X152630000Y-103890000D03*
D12*
%TO.N,/MCU_ANT_{SW}*%
X150040000Y-92720000D03*
%TO.N,Net-(J2-Pin_6)*%
X159900000Y-100710000D03*
D13*
%TO.N,Net-(J2-Pin_12)*%
X159313422Y-104986578D03*
%TO.N,Net-(J2-Pin_9)*%
X159480000Y-106040000D03*
D12*
%TO.N,Net-(J2-Pin_4)*%
X159940000Y-99590000D03*
%TD*%
D14*
%TO.N,GND*%
X157395302Y-109565400D02*
X157435324Y-109565400D01*
X157435324Y-109565400D02*
X157895400Y-109105323D01*
X157110000Y-108780000D02*
X157110000Y-108743768D01*
D15*
X158710723Y-106060000D02*
X158710723Y-106099277D01*
D14*
X160706666Y-101856666D02*
X160706666Y-106653334D01*
X159425400Y-107934600D02*
X159324677Y-107934600D01*
X160305800Y-101650000D02*
X160500000Y-101650000D01*
D16*
X155580000Y-108780000D02*
X155640000Y-108780000D01*
D14*
X160415800Y-101863333D02*
X160305800Y-101753334D01*
X156384600Y-110576102D02*
X157395302Y-109565400D01*
X160415800Y-103056666D02*
X160415800Y-101863333D01*
D15*
X158710723Y-106099277D02*
X156830000Y-107980000D01*
D14*
X158830000Y-106060000D02*
X158710723Y-106060000D01*
X160500000Y-101650000D02*
X160738900Y-101888900D01*
X160305800Y-103166667D02*
X160415800Y-103056666D01*
X160305800Y-106366666D02*
X160305800Y-103166667D01*
D16*
X155640000Y-108780000D02*
X156380000Y-108040000D01*
D14*
X158553767Y-108843767D02*
X157542133Y-109855400D01*
X157895400Y-108823300D02*
X160296800Y-106421901D01*
X160296800Y-106421901D02*
X160296800Y-106375667D01*
D15*
X156830000Y-107980000D02*
X156790723Y-107980000D01*
D14*
X160296800Y-106375667D02*
X160305800Y-106366666D01*
X157895400Y-109105323D02*
X157895400Y-108823300D01*
X160305800Y-101753334D02*
X160305800Y-101650000D01*
X156380000Y-107980000D02*
X156790723Y-107980000D01*
X160706666Y-106653334D02*
X159425400Y-107934600D01*
X156370000Y-111780000D02*
X156384600Y-111765400D01*
D17*
X157110000Y-108780000D02*
X157110000Y-108688896D01*
D14*
X157542133Y-109855400D02*
X157105302Y-109855400D01*
X157105302Y-109855400D02*
X156995351Y-109965351D01*
X160500000Y-101650000D02*
X160706666Y-101856666D01*
X158553767Y-108705510D02*
X158553767Y-108843767D01*
X159324677Y-107934600D02*
X158553767Y-108705510D01*
X156384600Y-111765400D02*
X156384600Y-110576102D01*
D18*
%TO.N,VDD*%
X150380000Y-102060000D02*
X150690000Y-101750000D01*
X149440000Y-102200000D02*
X149580000Y-102060000D01*
X149086600Y-105232185D02*
X149430000Y-104888785D01*
X149430000Y-104888785D02*
X149430000Y-104880000D01*
D15*
X157520000Y-105416056D02*
X157520000Y-105240000D01*
D18*
X150745952Y-107800000D02*
X149086600Y-106140648D01*
X157364189Y-105635811D02*
X156880000Y-106120000D01*
X149438785Y-104880000D02*
X149440000Y-104878785D01*
D15*
X158204261Y-104555739D02*
X158204261Y-103505739D01*
D18*
X155230000Y-107811400D02*
X155218600Y-107800000D01*
D15*
X157716600Y-105043400D02*
X157716600Y-105001484D01*
D18*
X155218600Y-107800000D02*
X150745952Y-107800000D01*
X156880000Y-106010000D02*
X156890000Y-106000000D01*
D15*
X158011484Y-104706600D02*
X158053400Y-104706600D01*
D18*
X149086600Y-106140648D02*
X149086600Y-105232185D01*
D15*
X157716600Y-105001484D02*
X158011484Y-104706600D01*
X158053400Y-104706600D02*
X158204261Y-104555739D01*
D14*
X150270000Y-102060000D02*
X150380000Y-102060000D01*
D18*
X157364189Y-105571867D02*
X157364189Y-105635811D01*
D15*
X157364189Y-105571867D02*
X157520000Y-105416056D01*
X158204261Y-103505739D02*
X159500000Y-102210000D01*
D18*
X149430000Y-104880000D02*
X149438785Y-104880000D01*
X156880000Y-106470000D02*
X156880000Y-106010000D01*
X149440000Y-104878785D02*
X149440000Y-102200000D01*
D15*
X157520000Y-105240000D02*
X157716600Y-105043400D01*
X159500000Y-102210000D02*
X159570000Y-102210000D01*
D18*
X150200000Y-102060000D02*
X149580000Y-102060000D01*
D15*
%TO.N,/DIO2_ANT_{SW}*%
X156890000Y-103160000D02*
X156890000Y-94360000D01*
X156570000Y-103780000D02*
X156570000Y-104180000D01*
X156676065Y-103523933D02*
X156783933Y-103416066D01*
X156783933Y-94103933D02*
X156130000Y-93450000D01*
X156130000Y-93320000D02*
X156130000Y-93450000D01*
X156890000Y-103160000D02*
G75*
G02*
X156783927Y-103416060I-362100J0D01*
G01*
X156676065Y-103523933D02*
G75*
G03*
X156569989Y-103780000I256035J-256067D01*
G01*
X156890000Y-94360000D02*
G75*
G03*
X156783926Y-94103939I-362100J0D01*
G01*
D14*
%TO.N,/DIO3_CLK_{EN}*%
X150520000Y-106160000D02*
X150300000Y-106160000D01*
X152155000Y-104365000D02*
X152155000Y-104525000D01*
X152630000Y-103890000D02*
X152155000Y-104365000D01*
X152155000Y-104525000D02*
X150520000Y-106160000D01*
%TO.N,/MCU_ANT_{SW}*%
X149290000Y-92720000D02*
X148050000Y-93960000D01*
X148050000Y-93960000D02*
X148050000Y-111540000D01*
X148050000Y-111540000D02*
X149290000Y-112780000D01*
X150040000Y-92720000D02*
X149290000Y-92720000D01*
X149290000Y-112780000D02*
X149100000Y-112590000D01*
%TO.N,Net-(J2-Pin_6)*%
X159900000Y-104730000D02*
X159305000Y-104135000D01*
X159305000Y-104135000D02*
X159305000Y-103395000D01*
X157308657Y-109259600D02*
X157589600Y-108978657D01*
X156495000Y-110005000D02*
X156495000Y-109505000D01*
X159991000Y-106295235D02*
X159991000Y-105761000D01*
X156495000Y-109505000D02*
X156740400Y-109259600D01*
X159756066Y-101636066D02*
X160003933Y-101883933D01*
X159830000Y-105600000D02*
X159830000Y-105148257D01*
X159991000Y-105761000D02*
X159830000Y-105600000D01*
X159830000Y-105148257D02*
X159900000Y-105078257D01*
X157589600Y-108978657D02*
X157589600Y-108696634D01*
X160110000Y-102140000D02*
X160110000Y-102290000D01*
X157589600Y-108696634D02*
X159991000Y-106295235D01*
X156410000Y-110090000D02*
X156265882Y-110234118D01*
X156265882Y-110234118D02*
X156005882Y-110234118D01*
X156420000Y-110080000D02*
X156495000Y-110005000D01*
X160003933Y-102546065D02*
X159411066Y-103138933D01*
X155560000Y-110440000D02*
X155560000Y-110680000D01*
X159770000Y-100710000D02*
X159900000Y-100710000D01*
X156005882Y-110234118D02*
X155480000Y-110760000D01*
X159900000Y-105078257D02*
X159900000Y-104730000D01*
X156740400Y-109259600D02*
X157308657Y-109259600D01*
X159650000Y-100980000D02*
X159650000Y-101380000D01*
X159756066Y-100723933D02*
X159770000Y-100710000D01*
X159650000Y-100980000D02*
G75*
G02*
X159756073Y-100723940I362100J0D01*
G01*
X160003933Y-102546065D02*
G75*
G03*
X160110008Y-102290000I-256033J256065D01*
G01*
X159756066Y-101636066D02*
G75*
G02*
X159649991Y-101380000I256034J256066D01*
G01*
X160110000Y-102140000D02*
G75*
G03*
X160003926Y-101883939I-362100J0D01*
G01*
X159305000Y-103395000D02*
G75*
G02*
X159411073Y-103138940I362100J0D01*
G01*
%TO.N,Net-(J2-Pin_12)*%
X149480000Y-110544863D02*
X149480000Y-110760000D01*
X157178657Y-107159600D02*
X157160400Y-107159600D01*
X155360000Y-108290000D02*
X154531743Y-108290000D01*
X150638796Y-109386066D02*
X149480000Y-110544863D01*
X157459600Y-106878657D02*
X157178657Y-107159600D01*
X157560000Y-106760000D02*
X157459600Y-106860400D01*
X159143422Y-104986578D02*
X157560000Y-106570000D01*
X157459600Y-106860400D02*
X157459600Y-106878657D01*
X154090400Y-108731343D02*
X154090400Y-108777857D01*
X156831527Y-107488473D02*
X156461527Y-107488473D01*
X153844322Y-109173933D02*
X153984333Y-109033923D01*
X157160400Y-107159600D02*
X156831527Y-107488473D01*
X159313422Y-104986578D02*
X159143422Y-104986578D01*
X150894863Y-109280000D02*
X153588257Y-109280000D01*
X156205460Y-107594538D02*
X155616066Y-108183933D01*
X154196465Y-108475276D02*
X154275676Y-108396066D01*
X157560000Y-106570000D02*
X157560000Y-106760000D01*
X156205460Y-107594538D02*
G75*
G02*
X156461527Y-107488489I256040J-256062D01*
G01*
X153844322Y-109173933D02*
G75*
G02*
X153588257Y-109279978I-256022J256033D01*
G01*
X154090400Y-108777857D02*
G75*
G02*
X153984348Y-109033938I-362100J-43D01*
G01*
X155360000Y-108290000D02*
G75*
G03*
X155616060Y-108183927I0J362100D01*
G01*
X150894863Y-109280000D02*
G75*
G03*
X150638822Y-109386092I37J-362100D01*
G01*
X154275676Y-108396066D02*
G75*
G02*
X154531743Y-108290020I256024J-256034D01*
G01*
X154090400Y-108731343D02*
G75*
G02*
X154196451Y-108475262I362100J43D01*
G01*
%TO.N,Net-(J2-Pin_9)*%
X155370000Y-109380000D02*
X155508257Y-109380000D01*
X154480000Y-110956615D02*
X154480000Y-110270000D01*
X154586065Y-110013933D02*
X155113933Y-109486066D01*
X158720000Y-106730000D02*
X158727978Y-106730000D01*
X157096465Y-108203533D02*
X158463933Y-106836066D01*
X153884880Y-111701733D02*
X154373933Y-111212681D01*
X158984044Y-106623933D02*
X159511400Y-106096578D01*
X152582200Y-111807800D02*
X153628815Y-111807800D01*
X155764322Y-109273933D02*
X156622591Y-108415665D01*
X152326133Y-111913866D02*
X151480000Y-112760000D01*
X158984044Y-106623933D02*
G75*
G02*
X158727977Y-106729993I-256044J256033D01*
G01*
X158720000Y-106730000D02*
G75*
G03*
X158463940Y-106836073I0J-362100D01*
G01*
X155764322Y-109273933D02*
G75*
G02*
X155508257Y-109379978I-256022J256033D01*
G01*
X155370000Y-109380000D02*
G75*
G03*
X155113940Y-109486073I0J-362100D01*
G01*
X157096465Y-108203533D02*
G75*
G02*
X156840399Y-108309608I-256065J256033D01*
G01*
X152582200Y-111807800D02*
G75*
G03*
X152326140Y-111913873I0J-362100D01*
G01*
X154586065Y-110013933D02*
G75*
G03*
X154479989Y-110270000I256035J-256067D01*
G01*
X153884880Y-111701733D02*
G75*
G02*
X153628815Y-111807819I-256080J256033D01*
G01*
X156878658Y-108309600D02*
G75*
G03*
X156622620Y-108415694I42J-362100D01*
G01*
X154480000Y-110956615D02*
G75*
G02*
X154373919Y-111212667I-362100J15D01*
G01*
%TO.N,Net-(J2-Pin_4)*%
X161050000Y-106630000D02*
X161050000Y-100040000D01*
X159451343Y-108240400D02*
X159170400Y-108521343D01*
X160600000Y-99590000D02*
X159940000Y-99590000D01*
X159170400Y-108521343D02*
X159170400Y-108659600D01*
X159170400Y-108659600D02*
X157750000Y-110080000D01*
X157750000Y-110490000D02*
X157480000Y-110760000D01*
X161050000Y-100040000D02*
X160600000Y-99590000D01*
X159589600Y-108240400D02*
X159451343Y-108240400D01*
X157750000Y-110080000D02*
X157750000Y-110490000D01*
X160943933Y-106886066D02*
X159589600Y-108240400D01*
X161050000Y-106630000D02*
G75*
G02*
X160943927Y-106886060I-362100J0D01*
G01*
%TD*%
%TA.AperFunction,Conductor*%
%TO.N,GND*%
G36*
X161842638Y-87918093D02*
G01*
X161868358Y-87962642D01*
X161869500Y-87975700D01*
X161869500Y-114024300D01*
X161851907Y-114072638D01*
X161807358Y-114098358D01*
X161794300Y-114099500D01*
X160552956Y-114099500D01*
X160504618Y-114081907D01*
X160478898Y-114037358D01*
X160487831Y-113986700D01*
X160524620Y-113955474D01*
X160524434Y-113955100D01*
X160525953Y-113954343D01*
X160526442Y-113953929D01*
X160527852Y-113953397D01*
X160527860Y-113953395D01*
X160573908Y-113930468D01*
X160631303Y-113888047D01*
X160638894Y-113880055D01*
X160655816Y-113866722D01*
X160666613Y-113860489D01*
X160750489Y-113776613D01*
X160766672Y-113748582D01*
X160777292Y-113734375D01*
X160778307Y-113733307D01*
X160782582Y-113728666D01*
X160785669Y-113725210D01*
X160825515Y-113658595D01*
X160843108Y-113610257D01*
X160855500Y-113539974D01*
X160855500Y-112129822D01*
X160855417Y-112123969D01*
X160855295Y-112119687D01*
X160838669Y-112044372D01*
X160818351Y-111997114D01*
X160779205Y-111937439D01*
X160661913Y-111812817D01*
X160661901Y-111812804D01*
X160653407Y-111804295D01*
X160653406Y-111804294D01*
X160653391Y-111804279D01*
X160646969Y-111798212D01*
X160576129Y-111754485D01*
X160576128Y-111754484D01*
X160576124Y-111754482D01*
X160527793Y-111736892D01*
X160457508Y-111724500D01*
X159817340Y-111724500D01*
X159769002Y-111706907D01*
X159743282Y-111662358D01*
X159752215Y-111611700D01*
X159788562Y-111579824D01*
X159806683Y-111572317D01*
X159894705Y-111535858D01*
X160038099Y-111440045D01*
X160160045Y-111318099D01*
X160255858Y-111174705D01*
X160321855Y-111015374D01*
X160355500Y-110846229D01*
X160355500Y-110673771D01*
X160321855Y-110504626D01*
X160255858Y-110345295D01*
X160160045Y-110201901D01*
X160160042Y-110201898D01*
X160160040Y-110201895D01*
X160038104Y-110079959D01*
X160038101Y-110079957D01*
X160038100Y-110079956D01*
X160038099Y-110079955D01*
X159894705Y-109984142D01*
X159894703Y-109984141D01*
X159735377Y-109918146D01*
X159735376Y-109918145D01*
X159566230Y-109884500D01*
X159566229Y-109884500D01*
X159393771Y-109884500D01*
X159393770Y-109884500D01*
X159224623Y-109918145D01*
X159224622Y-109918146D01*
X159065296Y-109984141D01*
X158921898Y-110079957D01*
X158921895Y-110079959D01*
X158799959Y-110201895D01*
X158799957Y-110201898D01*
X158704141Y-110345296D01*
X158638146Y-110504622D01*
X158638145Y-110504623D01*
X158604500Y-110673770D01*
X158604500Y-110846229D01*
X158638145Y-111015376D01*
X158638146Y-111015377D01*
X158704142Y-111174705D01*
X158799955Y-111318099D01*
X158799957Y-111318101D01*
X158799959Y-111318104D01*
X158921895Y-111440040D01*
X158921898Y-111440042D01*
X158921901Y-111440045D01*
X159065295Y-111535858D01*
X159140480Y-111567000D01*
X159171438Y-111579824D01*
X159209363Y-111614577D01*
X159216077Y-111665576D01*
X159188439Y-111708960D01*
X159142660Y-111724500D01*
X157817340Y-111724500D01*
X157769002Y-111706907D01*
X157743282Y-111662358D01*
X157752215Y-111611700D01*
X157788562Y-111579824D01*
X157806683Y-111572317D01*
X157894705Y-111535858D01*
X158038099Y-111440045D01*
X158160045Y-111318099D01*
X158255858Y-111174705D01*
X158321855Y-111015374D01*
X158355500Y-110846229D01*
X158355500Y-110673771D01*
X158321855Y-110504626D01*
X158255858Y-110345295D01*
X158160045Y-110201901D01*
X158160042Y-110201898D01*
X158160040Y-110201895D01*
X158142902Y-110184757D01*
X158121162Y-110138137D01*
X158134476Y-110088450D01*
X158142896Y-110078415D01*
X159391815Y-108829498D01*
X159428244Y-108766403D01*
X159447100Y-108696028D01*
X159447100Y-108667104D01*
X159452715Y-108651676D01*
X159454146Y-108635323D01*
X159463560Y-108621878D01*
X159464693Y-108618766D01*
X159469126Y-108613930D01*
X159543930Y-108539126D01*
X159590550Y-108517386D01*
X159597104Y-108517100D01*
X159626027Y-108517100D01*
X159626028Y-108517100D01*
X159696403Y-108498244D01*
X159759498Y-108461815D01*
X161165348Y-107055964D01*
X161168918Y-107052394D01*
X161168980Y-107052321D01*
X161184065Y-107037239D01*
X161253985Y-106932608D01*
X161302147Y-106816346D01*
X161326700Y-106692921D01*
X161326700Y-106630000D01*
X161326700Y-106581210D01*
X161326700Y-100003572D01*
X161307844Y-99933197D01*
X161271415Y-99870102D01*
X160769898Y-99368585D01*
X160706803Y-99332156D01*
X160706800Y-99332155D01*
X160706801Y-99332155D01*
X160662183Y-99320200D01*
X160636428Y-99313300D01*
X160636427Y-99313300D01*
X160331550Y-99313300D01*
X160283212Y-99295707D01*
X160278386Y-99291284D01*
X160216613Y-99229511D01*
X160216612Y-99229510D01*
X160216611Y-99229509D01*
X160113886Y-99170201D01*
X159999309Y-99139500D01*
X159880691Y-99139500D01*
X159766114Y-99170201D01*
X159766112Y-99170201D01*
X159663386Y-99229510D01*
X159579510Y-99313386D01*
X159520201Y-99416112D01*
X159520201Y-99416114D01*
X159489500Y-99530691D01*
X159489500Y-99649309D01*
X159520201Y-99763885D01*
X159520201Y-99763887D01*
X159579510Y-99866613D01*
X159663386Y-99950489D01*
X159722696Y-99984731D01*
X159766114Y-100009799D01*
X159880691Y-100040500D01*
X159880694Y-100040500D01*
X159999306Y-100040500D01*
X159999309Y-100040500D01*
X160113886Y-100009799D01*
X160216613Y-99950489D01*
X160278376Y-99888725D01*
X160293254Y-99881787D01*
X160305830Y-99871235D01*
X160321995Y-99868384D01*
X160324995Y-99866986D01*
X160331550Y-99866700D01*
X160454239Y-99866700D01*
X160502577Y-99884293D01*
X160507413Y-99888726D01*
X160751274Y-100132587D01*
X160773014Y-100179207D01*
X160773300Y-100185761D01*
X160773300Y-106625069D01*
X160772656Y-106634890D01*
X160771681Y-106642292D01*
X160766598Y-106661255D01*
X160765643Y-106663560D01*
X160755825Y-106680562D01*
X160751246Y-106686528D01*
X160744763Y-106693919D01*
X160709923Y-106728755D01*
X160709886Y-106728798D01*
X159497013Y-107941674D01*
X159450393Y-107963414D01*
X159443839Y-107963700D01*
X159414915Y-107963700D01*
X159396060Y-107968752D01*
X159344542Y-107982555D01*
X159344533Y-107982559D01*
X159291269Y-108013311D01*
X159291270Y-108013312D01*
X159281444Y-108018985D01*
X158948986Y-108351443D01*
X158912556Y-108414540D01*
X158902846Y-108450781D01*
X158893700Y-108484916D01*
X158893700Y-108513839D01*
X158876107Y-108562177D01*
X158871674Y-108567013D01*
X157576213Y-109862474D01*
X157529593Y-109884214D01*
X157523039Y-109884500D01*
X157393770Y-109884500D01*
X157224623Y-109918145D01*
X157224622Y-109918146D01*
X157065296Y-109984141D01*
X156921899Y-110079956D01*
X156899731Y-110102124D01*
X156853111Y-110123862D01*
X156803424Y-110110547D01*
X156773920Y-110068410D01*
X156772479Y-110046357D01*
X156771700Y-110046357D01*
X156771700Y-109650761D01*
X156777315Y-109635333D01*
X156778746Y-109618980D01*
X156788160Y-109605535D01*
X156789293Y-109602423D01*
X156793726Y-109597587D01*
X156832987Y-109558326D01*
X156879607Y-109536586D01*
X156886161Y-109536300D01*
X157345084Y-109536300D01*
X157345085Y-109536300D01*
X157415460Y-109517444D01*
X157478555Y-109481015D01*
X157811015Y-109148555D01*
X157837147Y-109103293D01*
X157847444Y-109085459D01*
X157866300Y-109015085D01*
X157866300Y-108842395D01*
X157883893Y-108794057D01*
X157888326Y-108789221D01*
X159032386Y-107645161D01*
X160212415Y-106465133D01*
X160248844Y-106402038D01*
X160267700Y-106331663D01*
X160267700Y-106258807D01*
X160267700Y-105724572D01*
X160248844Y-105654198D01*
X160212415Y-105591102D01*
X160160898Y-105539585D01*
X160128726Y-105507413D01*
X160106986Y-105460793D01*
X160106700Y-105454239D01*
X160106700Y-105292858D01*
X160120185Y-105253136D01*
X160118950Y-105252423D01*
X160121412Y-105248157D01*
X160121415Y-105248155D01*
X160157844Y-105185060D01*
X160176700Y-105114685D01*
X160176700Y-105041829D01*
X160176700Y-104693572D01*
X160170847Y-104671727D01*
X160157844Y-104623197D01*
X160121415Y-104560102D01*
X159603726Y-104042413D01*
X159581986Y-103995793D01*
X159581700Y-103989239D01*
X159581700Y-103399930D01*
X159582343Y-103390119D01*
X159583317Y-103382717D01*
X159588401Y-103363744D01*
X159589356Y-103361439D01*
X159599166Y-103344447D01*
X159603781Y-103338434D01*
X159610245Y-103331064D01*
X159620090Y-103321221D01*
X159641211Y-103300104D01*
X159641211Y-103300102D01*
X159647387Y-103293928D01*
X159647401Y-103293909D01*
X160225348Y-102715963D01*
X160225349Y-102715960D01*
X160229166Y-102712144D01*
X160229223Y-102712077D01*
X160244065Y-102697238D01*
X160313985Y-102592607D01*
X160362146Y-102476345D01*
X160386699Y-102352921D01*
X160386699Y-102332496D01*
X160386700Y-102332483D01*
X160386700Y-102171159D01*
X160386710Y-102171131D01*
X160386710Y-102077076D01*
X160376571Y-102026113D01*
X160362156Y-101953650D01*
X160334179Y-101886115D01*
X160313995Y-101837390D01*
X160313994Y-101837388D01*
X160313993Y-101837386D01*
X160244072Y-101732753D01*
X160199576Y-101688262D01*
X160192675Y-101681362D01*
X160192675Y-101681361D01*
X160192671Y-101681358D01*
X159991120Y-101479807D01*
X159986216Y-101474903D01*
X159986212Y-101474894D01*
X159955189Y-101443875D01*
X159948710Y-101436487D01*
X159944159Y-101430558D01*
X159934345Y-101413559D01*
X159933389Y-101411251D01*
X159928309Y-101392291D01*
X159927342Y-101384948D01*
X159926700Y-101375141D01*
X159926700Y-101226940D01*
X159944293Y-101178602D01*
X159982434Y-101154303D01*
X160073886Y-101129799D01*
X160176613Y-101070489D01*
X160260489Y-100986613D01*
X160319799Y-100883886D01*
X160350500Y-100769309D01*
X160350500Y-100650691D01*
X160319799Y-100536114D01*
X160319798Y-100536112D01*
X160260489Y-100433386D01*
X160176613Y-100349510D01*
X160073886Y-100290201D01*
X159959309Y-100259500D01*
X159840691Y-100259500D01*
X159726114Y-100290201D01*
X159726112Y-100290201D01*
X159623386Y-100349510D01*
X159539510Y-100433386D01*
X159480201Y-100536112D01*
X159480201Y-100536114D01*
X159449500Y-100650691D01*
X159449500Y-100650693D01*
X159449500Y-100654020D01*
X159443775Y-100682800D01*
X159397853Y-100793652D01*
X159397853Y-100793653D01*
X159397853Y-100793654D01*
X159373300Y-100917079D01*
X159373300Y-100943572D01*
X159373300Y-101331207D01*
X159373299Y-101331210D01*
X159373299Y-101348846D01*
X159373291Y-101348867D01*
X159373291Y-101442922D01*
X159397844Y-101566348D01*
X159397844Y-101566349D01*
X159447421Y-101686026D01*
X159446119Y-101686565D01*
X159452665Y-101732382D01*
X159425505Y-101776067D01*
X159398537Y-101789551D01*
X159396121Y-101790198D01*
X159396112Y-101790201D01*
X159293386Y-101849510D01*
X159209510Y-101933386D01*
X159150201Y-102036112D01*
X159150201Y-102036114D01*
X159119284Y-102151497D01*
X159099820Y-102185208D01*
X158358447Y-102926582D01*
X158019750Y-103265279D01*
X157991775Y-103293253D01*
X157963801Y-103321227D01*
X157963800Y-103321229D01*
X157924240Y-103389748D01*
X157924141Y-103390119D01*
X157903777Y-103466120D01*
X157903761Y-103466178D01*
X157903761Y-104378390D01*
X157886168Y-104426728D01*
X157866161Y-104443514D01*
X157837260Y-104460201D01*
X157837259Y-104460200D01*
X157826974Y-104466139D01*
X157826972Y-104466140D01*
X157752624Y-104540489D01*
X157532089Y-104761024D01*
X157504114Y-104788998D01*
X157476140Y-104816972D01*
X157476139Y-104816974D01*
X157436578Y-104885495D01*
X157434692Y-104890050D01*
X157433651Y-104889619D01*
X157433039Y-104890680D01*
X157432570Y-104896044D01*
X157417590Y-104917438D01*
X157335489Y-104999540D01*
X157335487Y-104999540D01*
X157279543Y-105055484D01*
X157279541Y-105055487D01*
X157245481Y-105114480D01*
X157206075Y-105147544D01*
X157199825Y-105149515D01*
X157190310Y-105152065D01*
X157190301Y-105152068D01*
X157087575Y-105211377D01*
X157003699Y-105295253D01*
X156944390Y-105397979D01*
X156944387Y-105397987D01*
X156942091Y-105406558D01*
X156938077Y-105413509D01*
X156937608Y-105418874D01*
X156922628Y-105440267D01*
X156821315Y-105541580D01*
X156787605Y-105561043D01*
X156740327Y-105573712D01*
X156716118Y-105580198D01*
X156716111Y-105580201D01*
X156613385Y-105639510D01*
X156519510Y-105733385D01*
X156460201Y-105836111D01*
X156460201Y-105836113D01*
X156455974Y-105851888D01*
X156429500Y-105950691D01*
X156429500Y-106529309D01*
X156457791Y-106634890D01*
X156460201Y-106643885D01*
X156460201Y-106643887D01*
X156519508Y-106746609D01*
X156519509Y-106746610D01*
X156519511Y-106746613D01*
X156521578Y-106748680D01*
X156541043Y-106782391D01*
X156544805Y-106796428D01*
X156560200Y-106853883D01*
X156560201Y-106853887D01*
X156619510Y-106956613D01*
X156703388Y-107040491D01*
X156735678Y-107059133D01*
X156737887Y-107061766D01*
X156741209Y-107062656D01*
X156754191Y-107081195D01*
X156768744Y-107098537D01*
X156768744Y-107101975D01*
X156770716Y-107104792D01*
X156768744Y-107127343D01*
X156768744Y-107149977D01*
X156766449Y-107153578D01*
X156766235Y-107156036D01*
X156751256Y-107177430D01*
X156738942Y-107189745D01*
X156692322Y-107211487D01*
X156685765Y-107211773D01*
X156477811Y-107211773D01*
X156430561Y-107211770D01*
X156430494Y-107211773D01*
X156425099Y-107211773D01*
X156425073Y-107211779D01*
X156420226Y-107211786D01*
X156420211Y-107211780D01*
X156420128Y-107211786D01*
X156398632Y-107211785D01*
X156398628Y-107211785D01*
X156398627Y-107211785D01*
X156398625Y-107211785D01*
X156275209Y-107236325D01*
X156275201Y-107236327D01*
X156158943Y-107284475D01*
X156158938Y-107284478D01*
X156054311Y-107354380D01*
X156054307Y-107354384D01*
X156038838Y-107369851D01*
X156035570Y-107373117D01*
X156035562Y-107373123D01*
X156015616Y-107393068D01*
X156009811Y-107398873D01*
X156009812Y-107398873D01*
X155972064Y-107436616D01*
X155972041Y-107436642D01*
X155763523Y-107645161D01*
X155716902Y-107666901D01*
X155667215Y-107653587D01*
X155645223Y-107629587D01*
X155590489Y-107534785D01*
X155495214Y-107439510D01*
X155392488Y-107380201D01*
X155379279Y-107376662D01*
X155366071Y-107373123D01*
X155366070Y-107373122D01*
X155324048Y-107361863D01*
X155277909Y-107349500D01*
X155277906Y-107349500D01*
X150963703Y-107349500D01*
X150915365Y-107331907D01*
X150910529Y-107327474D01*
X150331929Y-106748874D01*
X150310189Y-106702254D01*
X150323503Y-106652567D01*
X150365640Y-106623062D01*
X150385103Y-106620500D01*
X150447990Y-106620500D01*
X150447993Y-106620500D01*
X150560027Y-106590481D01*
X150660473Y-106532488D01*
X150742488Y-106450473D01*
X150800481Y-106350027D01*
X150824252Y-106261305D01*
X150843714Y-106227597D01*
X152376415Y-104694898D01*
X152412844Y-104631803D01*
X152431700Y-104561428D01*
X152431700Y-104510761D01*
X152437315Y-104495333D01*
X152438746Y-104478980D01*
X152448160Y-104465535D01*
X152449293Y-104462423D01*
X152453726Y-104457587D01*
X152558787Y-104352526D01*
X152605407Y-104330786D01*
X152611961Y-104330500D01*
X152687990Y-104330500D01*
X152687993Y-104330500D01*
X152800027Y-104300481D01*
X152900473Y-104242488D01*
X152982488Y-104160473D01*
X153040481Y-104060027D01*
X153070500Y-103947993D01*
X153070500Y-103832007D01*
X153040481Y-103719973D01*
X153030555Y-103702780D01*
X152982488Y-103619526D01*
X152900473Y-103537511D01*
X152800027Y-103479519D01*
X152778989Y-103473882D01*
X152687993Y-103449500D01*
X152572007Y-103449500D01*
X152459973Y-103479519D01*
X152459971Y-103479519D01*
X152359526Y-103537511D01*
X152277511Y-103619526D01*
X152219519Y-103719971D01*
X152219519Y-103719973D01*
X152189500Y-103832007D01*
X152189500Y-103832009D01*
X152189500Y-103908039D01*
X152171907Y-103956377D01*
X152167474Y-103961213D01*
X151933585Y-104195101D01*
X151933583Y-104195103D01*
X151897156Y-104258194D01*
X151896804Y-104259509D01*
X151896803Y-104259515D01*
X151878300Y-104328572D01*
X151878300Y-104384765D01*
X151877493Y-104390228D01*
X151867727Y-104408285D01*
X151860707Y-104427576D01*
X151856274Y-104432412D01*
X150558502Y-105730183D01*
X150511882Y-105751923D01*
X150485867Y-105749647D01*
X150447993Y-105739500D01*
X150332007Y-105739500D01*
X150219973Y-105769519D01*
X150219971Y-105769519D01*
X150119526Y-105827511D01*
X150037511Y-105909526D01*
X149979519Y-106009971D01*
X149979519Y-106009973D01*
X149949500Y-106122007D01*
X149949500Y-106122009D01*
X149949500Y-106184897D01*
X149931907Y-106233235D01*
X149887358Y-106258955D01*
X149836700Y-106250022D01*
X149821126Y-106238071D01*
X149559126Y-105976071D01*
X149537386Y-105929451D01*
X149537100Y-105922897D01*
X149537100Y-105449936D01*
X149554693Y-105401598D01*
X149559126Y-105396762D01*
X149663030Y-105292858D01*
X149790489Y-105165399D01*
X149790490Y-105165398D01*
X149800489Y-105155399D01*
X149854025Y-105062671D01*
X149859799Y-105052671D01*
X149890500Y-104938094D01*
X149890500Y-102585700D01*
X149908093Y-102537362D01*
X149952642Y-102511642D01*
X149965700Y-102510500D01*
X150259310Y-102510500D01*
X150266777Y-102508498D01*
X150270533Y-102507491D01*
X150309465Y-102507491D01*
X150320690Y-102510499D01*
X150320691Y-102510499D01*
X150439308Y-102510499D01*
X150439309Y-102510499D01*
X150553887Y-102479799D01*
X150559870Y-102476345D01*
X150656614Y-102420489D01*
X151050489Y-102026614D01*
X151050778Y-102026113D01*
X151109799Y-101923887D01*
X151119920Y-101886113D01*
X151140500Y-101809309D01*
X151140500Y-101690691D01*
X151109799Y-101576114D01*
X151109799Y-101576113D01*
X151104161Y-101566348D01*
X151050489Y-101473385D01*
X150966614Y-101389510D01*
X150863888Y-101330201D01*
X150851780Y-101326957D01*
X150839673Y-101323713D01*
X150839672Y-101323712D01*
X150796601Y-101312171D01*
X150749309Y-101299500D01*
X150630691Y-101299500D01*
X150540326Y-101323713D01*
X150540325Y-101323712D01*
X150516118Y-101330198D01*
X150516111Y-101330201D01*
X150413387Y-101389509D01*
X150362500Y-101440397D01*
X150215422Y-101587474D01*
X150168803Y-101609214D01*
X150162249Y-101609500D01*
X149520691Y-101609500D01*
X149446812Y-101629296D01*
X149406113Y-101640201D01*
X149406105Y-101640204D01*
X149303385Y-101699510D01*
X149079510Y-101923385D01*
X149020200Y-102026113D01*
X149020201Y-102026114D01*
X148989500Y-102140691D01*
X148989500Y-102140693D01*
X148989500Y-104661033D01*
X148971907Y-104709371D01*
X148967474Y-104714207D01*
X148726110Y-104955570D01*
X148666801Y-105058296D01*
X148666799Y-105058302D01*
X148665628Y-105062671D01*
X148665629Y-105062672D01*
X148636100Y-105172876D01*
X148636100Y-106199957D01*
X148643506Y-106227595D01*
X148656640Y-106276613D01*
X148666801Y-106314534D01*
X148666801Y-106314536D01*
X148726110Y-106417262D01*
X150469337Y-108160489D01*
X150469336Y-108160489D01*
X150572057Y-108219795D01*
X150572060Y-108219796D01*
X150572065Y-108219799D01*
X150595839Y-108226169D01*
X150686643Y-108250500D01*
X153864793Y-108250500D01*
X153913131Y-108268093D01*
X153938851Y-108312642D01*
X153929918Y-108363300D01*
X153927321Y-108367476D01*
X153886386Y-108428744D01*
X153886385Y-108428747D01*
X153839420Y-108542154D01*
X153838232Y-108545022D01*
X153838230Y-108545028D01*
X153813693Y-108668446D01*
X153813693Y-108668448D01*
X153813699Y-108722668D01*
X153813699Y-108729085D01*
X153813694Y-108729100D01*
X153813699Y-108766400D01*
X153813699Y-108772967D01*
X153813698Y-108772968D01*
X153813057Y-108782775D01*
X153812083Y-108790179D01*
X153807003Y-108809144D01*
X153806048Y-108811450D01*
X153796229Y-108828457D01*
X153791796Y-108834234D01*
X153785313Y-108841627D01*
X153754182Y-108872759D01*
X153754177Y-108872764D01*
X153754173Y-108872769D01*
X153754172Y-108872770D01*
X153662770Y-108964172D01*
X153652163Y-108974779D01*
X153644767Y-108981265D01*
X153638841Y-108985812D01*
X153621834Y-108995630D01*
X153619535Y-108996582D01*
X153600574Y-109001660D01*
X153593012Y-109002655D01*
X153583193Y-109003298D01*
X153532898Y-109003292D01*
X153532808Y-109003300D01*
X150950106Y-109003300D01*
X150943634Y-109003298D01*
X150943624Y-109003295D01*
X150929004Y-109003296D01*
X150926002Y-109003296D01*
X150925903Y-109003260D01*
X150831910Y-109003269D01*
X150831908Y-109003269D01*
X150708490Y-109027834D01*
X150708477Y-109027838D01*
X150592229Y-109076005D01*
X150592222Y-109076009D01*
X150487603Y-109145934D01*
X150487601Y-109145935D01*
X150471006Y-109162534D01*
X150461583Y-109171960D01*
X150461582Y-109171961D01*
X150435340Y-109198207D01*
X149747139Y-109886408D01*
X149700519Y-109908148D01*
X149679295Y-109906989D01*
X149566231Y-109884500D01*
X149566229Y-109884500D01*
X149393771Y-109884500D01*
X149393770Y-109884500D01*
X149224623Y-109918145D01*
X149224622Y-109918146D01*
X149065296Y-109984141D01*
X148921898Y-110079957D01*
X148921895Y-110079959D01*
X148799959Y-110201895D01*
X148799957Y-110201898D01*
X148704141Y-110345296D01*
X148638146Y-110504622D01*
X148638145Y-110504623D01*
X148604500Y-110673770D01*
X148604500Y-110846229D01*
X148638145Y-111015376D01*
X148638146Y-111015377D01*
X148704142Y-111174705D01*
X148799955Y-111318099D01*
X148799957Y-111318101D01*
X148799959Y-111318104D01*
X148921895Y-111440040D01*
X148921898Y-111440042D01*
X148921901Y-111440045D01*
X149065295Y-111535858D01*
X149224622Y-111601853D01*
X149224623Y-111601854D01*
X149224624Y-111601854D01*
X149224626Y-111601855D01*
X149337896Y-111624385D01*
X149393770Y-111635500D01*
X149393771Y-111635500D01*
X149566230Y-111635500D01*
X149608229Y-111627145D01*
X149735374Y-111601855D01*
X149894705Y-111535858D01*
X150038099Y-111440045D01*
X150160045Y-111318099D01*
X150255858Y-111174705D01*
X150321855Y-111015374D01*
X150355500Y-110846229D01*
X150355500Y-110673771D01*
X150355500Y-110673770D01*
X150604500Y-110673770D01*
X150604500Y-110846229D01*
X150638145Y-111015376D01*
X150638146Y-111015377D01*
X150704142Y-111174705D01*
X150799955Y-111318099D01*
X150799957Y-111318101D01*
X150799959Y-111318104D01*
X150921895Y-111440040D01*
X150921898Y-111440042D01*
X150921901Y-111440045D01*
X151065295Y-111535858D01*
X151224622Y-111601853D01*
X151224623Y-111601854D01*
X151224624Y-111601854D01*
X151224626Y-111601855D01*
X151337896Y-111624385D01*
X151393770Y-111635500D01*
X151393771Y-111635500D01*
X151566230Y-111635500D01*
X151608229Y-111627145D01*
X151735374Y-111601855D01*
X151894705Y-111535858D01*
X152038099Y-111440045D01*
X152160045Y-111318099D01*
X152255858Y-111174705D01*
X152321855Y-111015374D01*
X152355500Y-110846229D01*
X152355500Y-110673771D01*
X152321855Y-110504626D01*
X152255858Y-110345295D01*
X152160045Y-110201901D01*
X152160042Y-110201898D01*
X152160040Y-110201895D01*
X152038104Y-110079959D01*
X152038101Y-110079957D01*
X152038100Y-110079956D01*
X152038099Y-110079955D01*
X151894705Y-109984142D01*
X151894703Y-109984141D01*
X151735377Y-109918146D01*
X151735376Y-109918145D01*
X151566230Y-109884500D01*
X151566229Y-109884500D01*
X151393771Y-109884500D01*
X151393770Y-109884500D01*
X151224623Y-109918145D01*
X151224622Y-109918146D01*
X151065296Y-109984141D01*
X150921898Y-110079957D01*
X150921895Y-110079959D01*
X150799959Y-110201895D01*
X150799957Y-110201898D01*
X150704141Y-110345296D01*
X150638146Y-110504622D01*
X150638145Y-110504623D01*
X150604500Y-110673770D01*
X150355500Y-110673770D01*
X150321855Y-110504626D01*
X150255858Y-110345295D01*
X150216051Y-110285721D01*
X150203826Y-110235756D01*
X150225404Y-110190770D01*
X150799969Y-109616205D01*
X150799984Y-109616199D01*
X150827485Y-109588689D01*
X150831002Y-109585171D01*
X150838379Y-109578701D01*
X150839257Y-109578026D01*
X150844316Y-109574144D01*
X150861334Y-109564318D01*
X150863658Y-109563356D01*
X150882591Y-109558283D01*
X150889729Y-109557343D01*
X150899540Y-109556700D01*
X153629545Y-109556700D01*
X153629813Y-109556681D01*
X153651146Y-109556684D01*
X153651151Y-109556683D01*
X153774569Y-109532146D01*
X153774569Y-109532145D01*
X153774574Y-109532145D01*
X153890842Y-109483995D01*
X153995480Y-109414084D01*
X154014212Y-109395352D01*
X154014219Y-109395349D01*
X154039974Y-109369594D01*
X154074475Y-109335095D01*
X154074475Y-109335093D01*
X154080661Y-109328908D01*
X154080664Y-109328903D01*
X154158454Y-109251114D01*
X154158516Y-109251085D01*
X154180008Y-109229590D01*
X154180009Y-109229591D01*
X154224501Y-109185095D01*
X154294414Y-109080453D01*
X154342567Y-108964181D01*
X154367107Y-108840748D01*
X154367100Y-108780115D01*
X154367106Y-108780100D01*
X154367100Y-108736219D01*
X154367741Y-108726435D01*
X154368717Y-108719014D01*
X154373794Y-108700060D01*
X154374753Y-108697744D01*
X154384562Y-108680752D01*
X154389027Y-108674933D01*
X154395495Y-108667558D01*
X154467850Y-108595204D01*
X154475220Y-108588741D01*
X154481166Y-108584178D01*
X154498147Y-108574375D01*
X154499274Y-108573907D01*
X154500448Y-108573421D01*
X154519430Y-108568336D01*
X154520712Y-108568167D01*
X154526992Y-108567342D01*
X154536794Y-108566700D01*
X154539842Y-108566700D01*
X154580500Y-108566705D01*
X154580501Y-108566704D01*
X154586922Y-108566705D01*
X154586993Y-108566700D01*
X155311210Y-108566700D01*
X155328844Y-108566700D01*
X155328863Y-108566707D01*
X155360000Y-108566707D01*
X155422922Y-108566707D01*
X155546348Y-108542154D01*
X155662611Y-108493991D01*
X155767244Y-108424071D01*
X155794510Y-108396802D01*
X156397622Y-107793688D01*
X156405007Y-107787211D01*
X156410947Y-107782653D01*
X156427936Y-107772845D01*
X156430252Y-107771886D01*
X156449212Y-107766807D01*
X156456758Y-107765814D01*
X156466560Y-107765173D01*
X156473704Y-107765173D01*
X156510296Y-107765176D01*
X156510297Y-107765175D01*
X156517031Y-107765176D01*
X156517076Y-107765173D01*
X156867954Y-107765173D01*
X156867955Y-107765173D01*
X156938330Y-107746317D01*
X156973738Y-107725873D01*
X157024393Y-107716940D01*
X157068942Y-107742659D01*
X157086537Y-107790996D01*
X157068945Y-107839334D01*
X157064511Y-107844172D01*
X156935299Y-107973383D01*
X156935293Y-107973387D01*
X156914594Y-107994088D01*
X156904284Y-108004399D01*
X156896886Y-108010888D01*
X156890959Y-108015436D01*
X156873964Y-108025249D01*
X156871659Y-108026204D01*
X156852684Y-108031289D01*
X156845600Y-108032221D01*
X156835807Y-108032863D01*
X156812385Y-108032867D01*
X156811760Y-108032898D01*
X156791610Y-108032898D01*
X156768123Y-108041446D01*
X156757084Y-108044534D01*
X156692281Y-108057432D01*
X156692279Y-108057432D01*
X156576021Y-108105606D01*
X156576016Y-108105608D01*
X156471393Y-108175536D01*
X156471392Y-108175537D01*
X156437483Y-108209455D01*
X156437482Y-108209454D01*
X156420775Y-108226168D01*
X156420765Y-108226177D01*
X155572163Y-109074778D01*
X155564767Y-109081265D01*
X155558841Y-109085812D01*
X155541834Y-109095630D01*
X155539535Y-109096582D01*
X155520574Y-109101660D01*
X155513012Y-109102655D01*
X155503193Y-109103298D01*
X155452898Y-109103292D01*
X155452808Y-109103300D01*
X155401160Y-109103300D01*
X155401130Y-109103289D01*
X155370000Y-109103289D01*
X155307077Y-109103289D01*
X155183649Y-109127843D01*
X155077154Y-109171959D01*
X155067387Y-109176005D01*
X155015070Y-109210965D01*
X154962752Y-109245927D01*
X154962749Y-109245929D01*
X154953792Y-109254886D01*
X154953793Y-109254887D01*
X154904396Y-109304290D01*
X154903370Y-109305316D01*
X154903366Y-109305319D01*
X154361592Y-109847091D01*
X154361503Y-109847190D01*
X154345935Y-109862758D01*
X154276012Y-109967394D01*
X154227852Y-110083652D01*
X154227850Y-110083660D01*
X154224429Y-110100856D01*
X154197742Y-110144831D01*
X154149032Y-110161364D01*
X154101090Y-110142718D01*
X154097501Y-110139356D01*
X154038104Y-110079959D01*
X154038101Y-110079957D01*
X154038100Y-110079956D01*
X154038099Y-110079955D01*
X153894705Y-109984142D01*
X153894703Y-109984141D01*
X153735377Y-109918146D01*
X153735376Y-109918145D01*
X153566230Y-109884500D01*
X153566229Y-109884500D01*
X153393771Y-109884500D01*
X153393770Y-109884500D01*
X153224623Y-109918145D01*
X153224622Y-109918146D01*
X153065296Y-109984141D01*
X152921898Y-110079957D01*
X152921895Y-110079959D01*
X152799959Y-110201895D01*
X152799957Y-110201898D01*
X152704141Y-110345296D01*
X152638146Y-110504622D01*
X152638145Y-110504623D01*
X152604500Y-110673770D01*
X152604500Y-110846229D01*
X152638145Y-111015376D01*
X152638146Y-111015377D01*
X152704142Y-111174705D01*
X152799955Y-111318099D01*
X152799957Y-111318101D01*
X152799959Y-111318104D01*
X152884581Y-111402726D01*
X152906321Y-111449346D01*
X152893007Y-111499033D01*
X152850870Y-111528538D01*
X152831407Y-111531100D01*
X152613360Y-111531100D01*
X152613330Y-111531089D01*
X152582200Y-111531089D01*
X152519277Y-111531089D01*
X152395849Y-111555643D01*
X152284294Y-111601855D01*
X152279587Y-111603805D01*
X152232157Y-111635500D01*
X152174954Y-111673726D01*
X152165993Y-111682688D01*
X152130463Y-111718221D01*
X152104722Y-111743965D01*
X152104720Y-111743965D01*
X152104719Y-111743968D01*
X151908907Y-111939778D01*
X151862287Y-111961517D01*
X151826955Y-111956079D01*
X151735377Y-111918146D01*
X151735376Y-111918145D01*
X151566230Y-111884500D01*
X151566229Y-111884500D01*
X151393771Y-111884500D01*
X151393770Y-111884500D01*
X151224623Y-111918145D01*
X151224622Y-111918146D01*
X151065296Y-111984141D01*
X150921898Y-112079957D01*
X150921895Y-112079959D01*
X150799959Y-112201895D01*
X150799957Y-112201898D01*
X150704141Y-112345296D01*
X150638146Y-112504622D01*
X150638145Y-112504623D01*
X150604500Y-112673770D01*
X150604500Y-112846229D01*
X150638145Y-113015376D01*
X150638146Y-113015377D01*
X150704142Y-113174705D01*
X150799955Y-113318099D01*
X150799957Y-113318101D01*
X150799959Y-113318104D01*
X150921895Y-113440040D01*
X150921898Y-113440042D01*
X150921901Y-113440045D01*
X151065295Y-113535858D01*
X151224622Y-113601853D01*
X151224623Y-113601854D01*
X151224624Y-113601854D01*
X151224626Y-113601855D01*
X151337896Y-113624385D01*
X151393770Y-113635500D01*
X151393771Y-113635500D01*
X151566230Y-113635500D01*
X151608229Y-113627145D01*
X151735374Y-113601855D01*
X151894705Y-113535858D01*
X152038099Y-113440045D01*
X152160045Y-113318099D01*
X152255858Y-113174705D01*
X152321855Y-113015374D01*
X152355500Y-112846229D01*
X152355500Y-112673771D01*
X152355499Y-112673768D01*
X152327935Y-112535194D01*
X152321855Y-112504626D01*
X152283918Y-112413040D01*
X152281676Y-112361650D01*
X152300219Y-112331091D01*
X152487298Y-112144013D01*
X152487304Y-112144011D01*
X152510376Y-112120936D01*
X152518328Y-112112982D01*
X152525703Y-112106513D01*
X152531644Y-112101955D01*
X152548646Y-112092141D01*
X152550969Y-112091179D01*
X152569904Y-112086107D01*
X152577238Y-112085142D01*
X152587042Y-112084500D01*
X152630990Y-112084500D01*
X153580034Y-112084500D01*
X153580037Y-112084501D01*
X153597661Y-112084500D01*
X153597713Y-112084518D01*
X153628826Y-112084517D01*
X153628826Y-112084518D01*
X153691749Y-112084515D01*
X153815173Y-112059957D01*
X153931435Y-112011791D01*
X154036065Y-111941868D01*
X154076718Y-111901208D01*
X154595348Y-111382579D01*
X154595379Y-111382525D01*
X154614053Y-111363855D01*
X154660768Y-111293952D01*
X154661829Y-111292518D01*
X154681872Y-111279241D01*
X154701256Y-111265031D01*
X154703139Y-111265154D01*
X154704714Y-111264112D01*
X154728597Y-111266824D01*
X154752586Y-111268399D01*
X154754172Y-111269730D01*
X154755826Y-111269918D01*
X154761435Y-111275825D01*
X154784820Y-111295449D01*
X154799951Y-111318095D01*
X154799959Y-111318104D01*
X154921895Y-111440040D01*
X154921898Y-111440042D01*
X154921901Y-111440045D01*
X155065295Y-111535858D01*
X155224622Y-111601853D01*
X155224623Y-111601854D01*
X155224624Y-111601854D01*
X155224626Y-111601855D01*
X155337896Y-111624385D01*
X155393770Y-111635500D01*
X155393771Y-111635500D01*
X155566230Y-111635500D01*
X155608229Y-111627145D01*
X155735374Y-111601855D01*
X155894705Y-111535858D01*
X156038099Y-111440045D01*
X156160045Y-111318099D01*
X156255858Y-111174705D01*
X156321855Y-111015374D01*
X156355500Y-110846229D01*
X156355500Y-110673771D01*
X156335344Y-110572441D01*
X156343169Y-110521602D01*
X156371498Y-110492648D01*
X156402089Y-110474984D01*
X156435780Y-110455533D01*
X156548629Y-110342683D01*
X156595247Y-110320945D01*
X156644934Y-110334259D01*
X156674439Y-110376395D01*
X156671277Y-110424637D01*
X156638146Y-110504622D01*
X156638145Y-110504623D01*
X156604500Y-110673770D01*
X156604500Y-110846229D01*
X156638145Y-111015376D01*
X156638146Y-111015377D01*
X156704142Y-111174705D01*
X156799955Y-111318099D01*
X156799957Y-111318101D01*
X156799959Y-111318104D01*
X156921895Y-111440040D01*
X156921898Y-111440042D01*
X156921901Y-111440045D01*
X157065295Y-111535858D01*
X157140480Y-111567000D01*
X157171438Y-111579824D01*
X157209363Y-111614577D01*
X157216077Y-111665576D01*
X157188439Y-111708960D01*
X157142660Y-111724500D01*
X156792043Y-111724500D01*
X156792035Y-111724500D01*
X156792026Y-111724501D01*
X156762156Y-111727113D01*
X156762068Y-111727121D01*
X156753083Y-111727896D01*
X156752325Y-111727692D01*
X156750075Y-111727894D01*
X156746387Y-111728560D01*
X156737709Y-111730908D01*
X156736660Y-111731093D01*
X156730613Y-111732161D01*
X156730477Y-111732190D01*
X156729108Y-111732433D01*
X156729106Y-111732432D01*
X156729079Y-111732438D01*
X156718782Y-111734259D01*
X156718663Y-111734302D01*
X156717959Y-111734794D01*
X156715886Y-111735293D01*
X156715614Y-111735390D01*
X156685409Y-111750873D01*
X156685408Y-111750872D01*
X156681362Y-111752946D01*
X156662762Y-111759805D01*
X156660562Y-111761239D01*
X156661720Y-111763016D01*
X156640034Y-111774134D01*
X156640034Y-111774135D01*
X156634231Y-111777110D01*
X156634230Y-111777110D01*
X156630704Y-111780069D01*
X156623473Y-111785431D01*
X156619620Y-111787945D01*
X156619612Y-111787951D01*
X156567556Y-111836682D01*
X156567553Y-111836685D01*
X156564835Y-111840306D01*
X156551222Y-111860912D01*
X156551205Y-111860940D01*
X156532905Y-111892636D01*
X156520957Y-111908208D01*
X156502945Y-111926220D01*
X156502939Y-111926227D01*
X156483857Y-111948225D01*
X156483850Y-111948234D01*
X156480665Y-111952479D01*
X156450102Y-112010796D01*
X156450098Y-112010804D01*
X156435055Y-112055918D01*
X156435050Y-112055937D01*
X156424500Y-112120936D01*
X156424500Y-113494255D01*
X156425097Y-113509902D01*
X156425971Y-113521334D01*
X156427762Y-113536918D01*
X156457124Y-113727773D01*
X156457392Y-113729456D01*
X156457655Y-113731064D01*
X156457655Y-113731065D01*
X156482208Y-113800105D01*
X156482211Y-113800112D01*
X156482212Y-113800114D01*
X156507815Y-113844730D01*
X156538564Y-113885547D01*
X156579928Y-113912418D01*
X156607713Y-113930468D01*
X156615258Y-113935369D01*
X156663549Y-113953090D01*
X156663550Y-113953090D01*
X156665220Y-113953703D01*
X156704537Y-113986872D01*
X156713336Y-114037554D01*
X156687498Y-114082034D01*
X156639313Y-114099500D01*
X147345700Y-114099500D01*
X147297362Y-114081907D01*
X147271642Y-114037358D01*
X147270500Y-114024300D01*
X147270500Y-93923572D01*
X147773300Y-93923572D01*
X147773300Y-111503572D01*
X147773300Y-111576428D01*
X147787101Y-111627939D01*
X147789127Y-111635500D01*
X147792156Y-111646803D01*
X147828585Y-111709898D01*
X147828586Y-111709899D01*
X148607261Y-112488574D01*
X148629001Y-112535194D01*
X148627842Y-112556418D01*
X148604500Y-112673768D01*
X148604500Y-112846229D01*
X148638145Y-113015376D01*
X148638146Y-113015377D01*
X148704142Y-113174705D01*
X148799955Y-113318099D01*
X148799957Y-113318101D01*
X148799959Y-113318104D01*
X148921895Y-113440040D01*
X148921898Y-113440042D01*
X148921901Y-113440045D01*
X149065295Y-113535858D01*
X149224622Y-113601853D01*
X149224623Y-113601854D01*
X149224624Y-113601854D01*
X149224626Y-113601855D01*
X149337896Y-113624385D01*
X149393770Y-113635500D01*
X149393771Y-113635500D01*
X149566230Y-113635500D01*
X149608229Y-113627145D01*
X149735374Y-113601855D01*
X149894705Y-113535858D01*
X150038099Y-113440045D01*
X150160045Y-113318099D01*
X150255858Y-113174705D01*
X150321855Y-113015374D01*
X150355500Y-112846229D01*
X150355500Y-112673771D01*
X150355499Y-112673768D01*
X150327935Y-112535194D01*
X150321855Y-112504626D01*
X150255858Y-112345295D01*
X150160045Y-112201901D01*
X150160042Y-112201898D01*
X150160040Y-112201895D01*
X150038104Y-112079959D01*
X150038101Y-112079957D01*
X150038099Y-112079955D01*
X149894705Y-111984142D01*
X149873378Y-111975308D01*
X149735377Y-111918146D01*
X149735376Y-111918145D01*
X149566230Y-111884500D01*
X149566229Y-111884500D01*
X149393771Y-111884500D01*
X149393770Y-111884500D01*
X149224623Y-111918145D01*
X149224622Y-111918146D01*
X149065293Y-111984142D01*
X149008801Y-112021889D01*
X148958835Y-112034115D01*
X148913849Y-112012536D01*
X148348726Y-111447413D01*
X148326986Y-111400793D01*
X148326700Y-111394239D01*
X148326700Y-94105761D01*
X148344293Y-94057423D01*
X148348726Y-94052587D01*
X149220622Y-93180691D01*
X155679500Y-93180691D01*
X155679500Y-93299309D01*
X155710201Y-93413885D01*
X155710201Y-93413887D01*
X155769510Y-93516613D01*
X155853382Y-93600485D01*
X155853385Y-93600487D01*
X155853387Y-93600489D01*
X155858204Y-93603270D01*
X155860703Y-93604713D01*
X155888226Y-93632235D01*
X155889540Y-93634511D01*
X155889542Y-93634513D01*
X155889545Y-93634517D01*
X156301137Y-94046108D01*
X156537800Y-94282771D01*
X156537805Y-94282780D01*
X156564730Y-94309701D01*
X156564734Y-94309705D01*
X156567474Y-94312445D01*
X156589214Y-94359065D01*
X156589500Y-94365619D01*
X156589500Y-103154377D01*
X156571907Y-103202715D01*
X156567470Y-103207555D01*
X156533948Y-103241071D01*
X156533903Y-103241123D01*
X156432626Y-103342399D01*
X156432552Y-103342482D01*
X156417453Y-103357580D01*
X156417450Y-103357584D01*
X156417447Y-103357587D01*
X156417447Y-103357588D01*
X156389153Y-103399930D01*
X156344922Y-103466120D01*
X156294968Y-103586707D01*
X156294967Y-103586712D01*
X156269499Y-103714733D01*
X156269499Y-103812250D01*
X156251906Y-103860588D01*
X156247473Y-103865424D01*
X156209510Y-103903386D01*
X156150201Y-104006112D01*
X156150201Y-104006114D01*
X156119500Y-104120691D01*
X156119500Y-104239309D01*
X156149837Y-104352526D01*
X156150201Y-104353885D01*
X156150201Y-104353887D01*
X156209510Y-104456613D01*
X156293386Y-104540489D01*
X156352696Y-104574731D01*
X156396114Y-104599799D01*
X156510691Y-104630500D01*
X156510694Y-104630500D01*
X156629306Y-104630500D01*
X156629309Y-104630500D01*
X156743886Y-104599799D01*
X156846613Y-104540489D01*
X156930489Y-104456613D01*
X156989799Y-104353886D01*
X157020500Y-104239309D01*
X157020500Y-104120691D01*
X156989799Y-104006114D01*
X156956241Y-103947990D01*
X156930489Y-103903386D01*
X156892526Y-103865423D01*
X156885588Y-103850546D01*
X156875035Y-103837969D01*
X156872184Y-103821801D01*
X156870786Y-103818803D01*
X156870500Y-103812249D01*
X156870500Y-103785617D01*
X156888093Y-103737279D01*
X156892513Y-103732456D01*
X156922194Y-103702780D01*
X156922194Y-103702778D01*
X156927071Y-103697903D01*
X156927093Y-103697875D01*
X157024393Y-103600578D01*
X157024394Y-103600575D01*
X157028210Y-103596760D01*
X157028267Y-103596693D01*
X157042551Y-103582412D01*
X157115076Y-103473882D01*
X157165032Y-103353289D01*
X157190499Y-103225266D01*
X157190499Y-103208322D01*
X157190500Y-103208313D01*
X157190500Y-94391158D01*
X157190509Y-94391130D01*
X157190509Y-94360000D01*
X157190510Y-94360000D01*
X157190509Y-94294733D01*
X157188129Y-94282771D01*
X157182057Y-94252246D01*
X157165041Y-94166707D01*
X157115084Y-94046111D01*
X157115082Y-94046108D01*
X157042561Y-93937584D01*
X157042558Y-93937582D01*
X157042557Y-93937580D01*
X156996404Y-93891432D01*
X156989672Y-93884701D01*
X156573960Y-93468989D01*
X156552220Y-93422369D01*
X156554496Y-93396353D01*
X156580500Y-93299309D01*
X156580500Y-93180691D01*
X156549799Y-93066114D01*
X156549798Y-93066112D01*
X156490489Y-92963386D01*
X156406613Y-92879510D01*
X156303886Y-92820201D01*
X156189309Y-92789500D01*
X156070691Y-92789500D01*
X155956114Y-92820201D01*
X155956112Y-92820201D01*
X155853386Y-92879510D01*
X155769510Y-92963386D01*
X155710201Y-93066112D01*
X155710201Y-93066114D01*
X155679500Y-93180691D01*
X149220622Y-93180691D01*
X149382587Y-93018726D01*
X149429207Y-92996986D01*
X149435761Y-92996700D01*
X149648450Y-92996700D01*
X149696788Y-93014293D01*
X149701613Y-93018715D01*
X149749010Y-93066112D01*
X149763388Y-93080490D01*
X149814750Y-93110144D01*
X149866114Y-93139799D01*
X149980691Y-93170500D01*
X149980694Y-93170500D01*
X150099306Y-93170500D01*
X150099309Y-93170500D01*
X150213886Y-93139799D01*
X150316613Y-93080489D01*
X150400489Y-92996613D01*
X150459799Y-92893886D01*
X150490500Y-92779309D01*
X150490500Y-92660691D01*
X150459799Y-92546114D01*
X150459798Y-92546112D01*
X150400489Y-92443386D01*
X150316613Y-92359510D01*
X150213886Y-92300201D01*
X150099309Y-92269500D01*
X149980691Y-92269500D01*
X149866114Y-92300201D01*
X149866112Y-92300201D01*
X149763388Y-92359509D01*
X149732506Y-92390391D01*
X149701623Y-92421274D01*
X149655005Y-92443014D01*
X149648450Y-92443300D01*
X149326428Y-92443300D01*
X149253572Y-92443300D01*
X149227816Y-92450200D01*
X149183199Y-92462155D01*
X149120100Y-92498586D01*
X147828586Y-93790100D01*
X147792155Y-93853198D01*
X147781910Y-93891436D01*
X147774412Y-93919422D01*
X147773300Y-93923572D01*
X147270500Y-93923572D01*
X147270500Y-87975700D01*
X147288093Y-87927362D01*
X147332642Y-87901642D01*
X147345700Y-87900500D01*
X161794300Y-87900500D01*
X161842638Y-87918093D01*
G37*
%TD.AperFunction*%
%TA.AperFunction,Conductor*%
G36*
X159170231Y-105404249D02*
G01*
X159255429Y-105427078D01*
X159255432Y-105427078D01*
X159371412Y-105427078D01*
X159371415Y-105427078D01*
X159458640Y-105403706D01*
X159509881Y-105408190D01*
X159546254Y-105444563D01*
X159553300Y-105476344D01*
X159553300Y-105524300D01*
X159535707Y-105572638D01*
X159491158Y-105598358D01*
X159478100Y-105599500D01*
X159422007Y-105599500D01*
X159309973Y-105629519D01*
X159309971Y-105629519D01*
X159209526Y-105687511D01*
X159127511Y-105769526D01*
X159069519Y-105869971D01*
X159069519Y-105869973D01*
X159039500Y-105982007D01*
X159039500Y-106097993D01*
X159044993Y-106118497D01*
X159040510Y-106169739D01*
X159025530Y-106191132D01*
X158825518Y-106391144D01*
X158825518Y-106391145D01*
X158822885Y-106393778D01*
X158822882Y-106393780D01*
X158812371Y-106404291D01*
X158791865Y-106424797D01*
X158791862Y-106424798D01*
X158784471Y-106431281D01*
X158778552Y-106435823D01*
X158761551Y-106445639D01*
X158759248Y-106446593D01*
X158740289Y-106451674D01*
X158732917Y-106452645D01*
X158723097Y-106453289D01*
X158657077Y-106453289D01*
X158533649Y-106477843D01*
X158417389Y-106526004D01*
X158417387Y-106526005D01*
X158412443Y-106529309D01*
X158312752Y-106595927D01*
X158312749Y-106595929D01*
X158303789Y-106604890D01*
X158251444Y-106657242D01*
X158251440Y-106657246D01*
X157915697Y-106992988D01*
X157869077Y-107014727D01*
X157819390Y-107001413D01*
X157789885Y-106959276D01*
X157794369Y-106908032D01*
X157797384Y-106902238D01*
X157817844Y-106866803D01*
X157836700Y-106796428D01*
X157836700Y-106723572D01*
X157836700Y-106715760D01*
X157854293Y-106667422D01*
X157858715Y-106662597D01*
X159097598Y-105423713D01*
X159144217Y-105401974D01*
X159170231Y-105404249D01*
G37*
%TD.AperFunction*%
%TA.AperFunction,Conductor*%
G36*
X159005285Y-103217566D02*
G01*
X159034790Y-103259703D01*
X159035907Y-103293838D01*
X159030458Y-103321229D01*
X159028300Y-103332079D01*
X159028300Y-103358572D01*
X159028300Y-104098572D01*
X159028300Y-104171428D01*
X159047156Y-104241803D01*
X159081035Y-104300481D01*
X159083586Y-104304899D01*
X159218011Y-104439324D01*
X159239751Y-104485944D01*
X159226437Y-104535631D01*
X159184301Y-104565135D01*
X159143400Y-104576094D01*
X159143393Y-104576097D01*
X159042948Y-104634089D01*
X158960933Y-104716104D01*
X158902941Y-104816549D01*
X158902939Y-104816556D01*
X158901129Y-104823311D01*
X158881666Y-104857019D01*
X157929362Y-105809323D01*
X157882742Y-105831063D01*
X157833055Y-105817749D01*
X157803550Y-105775612D01*
X157803550Y-105736686D01*
X157814689Y-105695120D01*
X157814689Y-105512558D01*
X157814688Y-105512556D01*
X157814045Y-105507669D01*
X157814560Y-105507601D01*
X157812854Y-105488979D01*
X157813398Y-105482118D01*
X157820500Y-105455618D01*
X157820500Y-105392642D01*
X157820736Y-105389669D01*
X157830253Y-105368821D01*
X157838093Y-105347281D01*
X157842065Y-105342946D01*
X157842098Y-105342875D01*
X157842156Y-105342847D01*
X157842514Y-105342456D01*
X157957060Y-105227911D01*
X157966605Y-105211378D01*
X157996621Y-105159389D01*
X157998446Y-105152577D01*
X158002674Y-105144778D01*
X158008669Y-105139466D01*
X158015610Y-105127443D01*
X158137443Y-105005610D01*
X158165267Y-104989547D01*
X158164837Y-104988507D01*
X158169386Y-104986622D01*
X158169386Y-104986621D01*
X158169389Y-104986621D01*
X158237911Y-104947060D01*
X158293860Y-104891111D01*
X158444721Y-104740250D01*
X158484283Y-104671727D01*
X158504761Y-104595301D01*
X158504761Y-104516177D01*
X158504761Y-103661357D01*
X158522354Y-103613019D01*
X158526776Y-103608194D01*
X158908979Y-103225991D01*
X158955598Y-103204252D01*
X159005285Y-103217566D01*
G37*
%TD.AperFunction*%
%TD*%
%TA.AperFunction,Conductor*%
%TO.N,VDD*%
G36*
X160505846Y-111947593D02*
G01*
X160512268Y-111953660D01*
X160627225Y-112075802D01*
X160629560Y-112078282D01*
X160649878Y-112125540D01*
X160650000Y-112129822D01*
X160650000Y-113539974D01*
X160632407Y-113588312D01*
X160629320Y-113591768D01*
X160482316Y-113746508D01*
X160436268Y-113769435D01*
X160427598Y-113769914D01*
X156734344Y-113760169D01*
X156686053Y-113742448D01*
X156660450Y-113697832D01*
X156660216Y-113696404D01*
X156630874Y-113505681D01*
X156630000Y-113494246D01*
X156630000Y-112120936D01*
X156645050Y-112075802D01*
X156648248Y-112071539D01*
X156692401Y-112027387D01*
X156729182Y-111963677D01*
X156731893Y-111960066D01*
X156749874Y-111948336D01*
X156766322Y-111934535D01*
X156772777Y-111933396D01*
X156774977Y-111931962D01*
X156778501Y-111932387D01*
X156792043Y-111930000D01*
X160457508Y-111930000D01*
X160505846Y-111947593D01*
G37*
%TD.AperFunction*%
%TD*%
M02*
