%TF.GenerationSoftware,KiCad,Pcbnew,9.0.4-9.0.4-0~ubuntu22.04.1*%
%TF.CreationDate,2025-08-28T19:05:07+08:00*%
%TF.ProjectId,LoRa-TW,4c6f5261-2d54-4572-9e6b-696361645f70,0.1*%
%TF.SameCoordinates,Original*%
%TF.FileFunction,Legend,Bot*%
%TF.FilePolarity,Positive*%
%FSLAX46Y46*%
G04 Gerber Fmt 4.6, Leading zero omitted, Abs format (unit mm)*
G04 Created by KiCad (PCBNEW 9.0.4-9.0.4-0~ubuntu22.04.1) date 2025-08-28 19:05:07*
%MOMM*%
%LPD*%
G01*
G04 APERTURE LIST*
%ADD10C,0.000000*%
%ADD11C,0.150000*%
%ADD12C,0.100000*%
%ADD13C,0.120000*%
%ADD14R,1.350000X1.350000*%
%ADD15C,1.350000*%
G04 APERTURE END LIST*
D10*
G36*
X153955945Y-100302326D02*
G01*
X153978039Y-100303586D01*
X153999053Y-100305648D01*
X154019012Y-100308481D01*
X154037939Y-100312055D01*
X154055859Y-100316339D01*
X154072796Y-100321302D01*
X154088774Y-100326913D01*
X154103817Y-100333142D01*
X154117949Y-100339958D01*
X154131194Y-100347330D01*
X154143577Y-100355228D01*
X154155120Y-100363620D01*
X154165849Y-100372475D01*
X154175788Y-100381764D01*
X154184960Y-100391456D01*
X154193389Y-100401518D01*
X154201100Y-100411922D01*
X154208117Y-100422636D01*
X154214464Y-100433629D01*
X154220165Y-100444870D01*
X154225243Y-100456330D01*
X154233631Y-100479779D01*
X154239819Y-100503730D01*
X154244001Y-100527937D01*
X154246369Y-100552154D01*
X154247116Y-100576135D01*
X154246770Y-100591630D01*
X154245722Y-100607019D01*
X154243954Y-100622279D01*
X154241447Y-100637389D01*
X154238183Y-100652327D01*
X154234145Y-100667072D01*
X154229315Y-100681602D01*
X154223674Y-100695896D01*
X154217204Y-100709932D01*
X154209888Y-100723688D01*
X154201707Y-100737143D01*
X154192645Y-100750276D01*
X154182681Y-100763064D01*
X154171800Y-100775486D01*
X154159982Y-100787521D01*
X154147209Y-100799147D01*
X154070501Y-100708977D01*
X154077395Y-100701953D01*
X154083911Y-100694614D01*
X154090040Y-100686987D01*
X154095772Y-100679099D01*
X154101098Y-100670976D01*
X154106009Y-100662645D01*
X154110495Y-100654133D01*
X154114549Y-100645466D01*
X154118160Y-100636672D01*
X154121319Y-100627776D01*
X154124018Y-100618805D01*
X154126246Y-100609786D01*
X154127995Y-100600746D01*
X154129256Y-100591711D01*
X154130019Y-100582708D01*
X154130276Y-100573764D01*
X154130126Y-100565833D01*
X154129676Y-100558045D01*
X154128926Y-100550407D01*
X154127877Y-100542928D01*
X154126529Y-100535613D01*
X154124882Y-100528470D01*
X154122936Y-100521506D01*
X154120691Y-100514728D01*
X154118148Y-100508143D01*
X154115308Y-100501759D01*
X154112169Y-100495582D01*
X154108733Y-100489620D01*
X154104999Y-100483879D01*
X154100969Y-100478367D01*
X154096641Y-100473091D01*
X154092017Y-100468058D01*
X154087096Y-100463275D01*
X154081880Y-100458749D01*
X154076367Y-100454487D01*
X154070558Y-100450497D01*
X154064455Y-100446785D01*
X154058055Y-100443358D01*
X154051361Y-100440225D01*
X154044372Y-100437390D01*
X154037089Y-100434863D01*
X154029511Y-100432650D01*
X154021639Y-100430757D01*
X154013473Y-100429193D01*
X154005014Y-100427964D01*
X153996261Y-100427078D01*
X153987215Y-100426541D01*
X153977876Y-100426360D01*
X153977876Y-100811255D01*
X153875513Y-100811255D01*
X153860716Y-100810911D01*
X153846269Y-100809893D01*
X153832181Y-100808218D01*
X153818459Y-100805906D01*
X153805111Y-100802974D01*
X153792144Y-100799440D01*
X153779568Y-100795323D01*
X153767389Y-100790642D01*
X153755615Y-100785415D01*
X153744255Y-100779659D01*
X153733315Y-100773394D01*
X153722804Y-100766637D01*
X153712730Y-100759408D01*
X153703100Y-100751724D01*
X153693922Y-100743603D01*
X153685204Y-100735065D01*
X153676954Y-100726127D01*
X153669180Y-100716808D01*
X153661889Y-100707126D01*
X153655089Y-100697099D01*
X153648789Y-100686746D01*
X153642995Y-100676085D01*
X153637716Y-100665135D01*
X153632959Y-100653913D01*
X153628733Y-100642439D01*
X153625045Y-100630730D01*
X153621903Y-100618804D01*
X153619315Y-100606681D01*
X153617288Y-100594379D01*
X153615831Y-100581915D01*
X153614951Y-100569308D01*
X153614656Y-100556577D01*
X153731750Y-100556577D01*
X153731896Y-100563377D01*
X153732334Y-100570056D01*
X153733062Y-100576609D01*
X153734080Y-100583030D01*
X153735386Y-100589314D01*
X153736979Y-100595455D01*
X153738858Y-100601448D01*
X153741022Y-100607287D01*
X153743470Y-100612968D01*
X153746201Y-100618483D01*
X153749214Y-100623828D01*
X153752507Y-100628997D01*
X153756080Y-100633985D01*
X153759931Y-100638786D01*
X153764059Y-100643395D01*
X153768463Y-100647806D01*
X153773143Y-100652013D01*
X153778097Y-100656012D01*
X153783323Y-100659796D01*
X153788821Y-100663360D01*
X153794590Y-100666699D01*
X153800629Y-100669806D01*
X153806936Y-100672678D01*
X153813510Y-100675307D01*
X153820351Y-100677688D01*
X153827457Y-100679817D01*
X153834826Y-100681687D01*
X153842459Y-100683293D01*
X153850354Y-100684629D01*
X153858510Y-100685690D01*
X153866925Y-100686470D01*
X153875598Y-100686964D01*
X153875598Y-100426191D01*
X153866925Y-100426566D01*
X153858509Y-100427242D01*
X153850354Y-100428213D01*
X153842459Y-100429473D01*
X153834826Y-100431016D01*
X153827456Y-100432835D01*
X153820351Y-100434924D01*
X153813510Y-100437277D01*
X153806936Y-100439887D01*
X153800629Y-100442748D01*
X153794590Y-100445855D01*
X153788821Y-100449200D01*
X153783323Y-100452777D01*
X153778096Y-100456581D01*
X153773143Y-100460604D01*
X153768463Y-100464841D01*
X153764059Y-100469286D01*
X153759930Y-100473931D01*
X153756079Y-100478771D01*
X153752507Y-100483800D01*
X153749214Y-100489012D01*
X153746201Y-100494399D01*
X153743470Y-100499956D01*
X153741022Y-100505677D01*
X153738858Y-100511555D01*
X153736979Y-100517584D01*
X153735386Y-100523757D01*
X153734080Y-100530069D01*
X153733062Y-100536514D01*
X153732334Y-100543084D01*
X153731896Y-100549774D01*
X153731750Y-100556577D01*
X153614656Y-100556577D01*
X153615591Y-100534030D01*
X153618479Y-100511334D01*
X153620693Y-100500000D01*
X153623442Y-100488712D01*
X153626740Y-100477498D01*
X153630603Y-100466384D01*
X153635047Y-100455400D01*
X153640086Y-100444572D01*
X153645736Y-100433928D01*
X153652013Y-100423496D01*
X153658931Y-100413304D01*
X153666507Y-100403378D01*
X153674755Y-100393747D01*
X153683691Y-100384439D01*
X153693330Y-100375481D01*
X153703687Y-100366900D01*
X153714779Y-100358724D01*
X153726620Y-100350982D01*
X153739225Y-100343700D01*
X153752611Y-100336906D01*
X153766792Y-100330628D01*
X153781784Y-100324893D01*
X153797601Y-100319730D01*
X153814261Y-100315165D01*
X153831777Y-100311227D01*
X153850165Y-100307943D01*
X153869441Y-100305340D01*
X153875598Y-100304763D01*
X153889620Y-100303447D01*
X153910717Y-100302291D01*
X153932748Y-100301900D01*
X153955945Y-100302326D01*
G37*
G36*
X155044157Y-98578491D02*
G01*
X155053977Y-98579193D01*
X155063625Y-98580358D01*
X155073093Y-98581981D01*
X155082369Y-98584059D01*
X155091444Y-98586587D01*
X155100307Y-98589561D01*
X155108947Y-98592976D01*
X155117356Y-98596829D01*
X155125522Y-98601115D01*
X155133435Y-98605830D01*
X155141085Y-98610970D01*
X155148462Y-98616530D01*
X155155555Y-98622507D01*
X155162355Y-98628895D01*
X155168851Y-98635692D01*
X155175032Y-98642892D01*
X155180888Y-98650491D01*
X155186410Y-98658485D01*
X155191587Y-98666871D01*
X155196409Y-98675643D01*
X155200865Y-98684797D01*
X155204946Y-98694329D01*
X155208640Y-98704236D01*
X155211938Y-98714512D01*
X155214830Y-98725154D01*
X155217305Y-98736157D01*
X155219353Y-98747517D01*
X155220963Y-98759229D01*
X155222126Y-98771291D01*
X155222832Y-98783696D01*
X155223069Y-98796442D01*
X155222840Y-98811726D01*
X155222149Y-98826076D01*
X155220991Y-98839527D01*
X155219360Y-98852115D01*
X155217250Y-98863876D01*
X155214657Y-98874844D01*
X155211575Y-98885057D01*
X155207999Y-98894549D01*
X155203922Y-98903357D01*
X155199339Y-98911516D01*
X155194246Y-98919061D01*
X155188636Y-98926029D01*
X155182505Y-98932456D01*
X155175846Y-98938376D01*
X155168654Y-98943826D01*
X155160924Y-98948842D01*
X155160924Y-98951213D01*
X155215787Y-98951213D01*
X155215787Y-98951297D01*
X155215787Y-99075588D01*
X154794147Y-99075588D01*
X154780162Y-99075283D01*
X154766760Y-99074374D01*
X154753933Y-99072871D01*
X154741670Y-99070787D01*
X154729963Y-99068130D01*
X154718803Y-99064911D01*
X154708180Y-99061141D01*
X154698086Y-99056830D01*
X154688511Y-99051990D01*
X154679446Y-99046629D01*
X154670882Y-99040759D01*
X154662811Y-99034391D01*
X154655221Y-99027534D01*
X154648106Y-99020200D01*
X154641455Y-99012398D01*
X154635259Y-99004140D01*
X154629510Y-98995435D01*
X154624198Y-98986295D01*
X154619313Y-98976729D01*
X154614848Y-98966749D01*
X154610792Y-98956364D01*
X154607137Y-98945586D01*
X154603873Y-98934425D01*
X154600992Y-98922890D01*
X154598484Y-98910994D01*
X154596339Y-98898745D01*
X154593107Y-98873235D01*
X154591221Y-98846444D01*
X154590608Y-98818455D01*
X154590897Y-98801373D01*
X154591781Y-98784856D01*
X154593285Y-98768901D01*
X154595434Y-98753500D01*
X154598254Y-98738649D01*
X154601770Y-98724342D01*
X154606008Y-98710574D01*
X154610992Y-98697339D01*
X154616748Y-98684633D01*
X154623301Y-98672448D01*
X154630677Y-98660781D01*
X154638900Y-98649625D01*
X154647997Y-98638975D01*
X154657992Y-98628825D01*
X154668911Y-98619171D01*
X154680779Y-98610006D01*
X154755116Y-98707542D01*
X154751873Y-98709623D01*
X154748763Y-98711759D01*
X154745785Y-98713954D01*
X154742935Y-98716212D01*
X154740212Y-98718539D01*
X154737615Y-98720939D01*
X154735140Y-98723417D01*
X154732787Y-98725978D01*
X154730552Y-98728626D01*
X154728436Y-98731366D01*
X154726434Y-98734203D01*
X154724545Y-98737141D01*
X154722768Y-98740185D01*
X154721101Y-98743340D01*
X154719540Y-98746611D01*
X154718085Y-98750002D01*
X154716734Y-98753518D01*
X154715483Y-98757164D01*
X154714333Y-98760944D01*
X154713280Y-98764864D01*
X154712322Y-98768927D01*
X154711458Y-98773139D01*
X154710686Y-98777504D01*
X154710003Y-98782027D01*
X154708899Y-98791566D01*
X154708130Y-98801794D01*
X154707680Y-98812748D01*
X154707533Y-98824466D01*
X154707781Y-98840554D01*
X154708539Y-98855461D01*
X154709833Y-98869207D01*
X154711689Y-98881811D01*
X154714130Y-98893294D01*
X154717182Y-98903674D01*
X154720870Y-98912973D01*
X154722960Y-98917222D01*
X154725218Y-98921209D01*
X154727648Y-98924934D01*
X154730252Y-98928402D01*
X154733034Y-98931614D01*
X154735997Y-98934572D01*
X154739144Y-98937280D01*
X154742477Y-98939739D01*
X154746001Y-98941952D01*
X154749717Y-98943922D01*
X154753631Y-98945651D01*
X154757743Y-98947141D01*
X154762058Y-98948395D01*
X154766579Y-98949416D01*
X154771309Y-98950206D01*
X154776250Y-98950767D01*
X154786782Y-98951213D01*
X154851382Y-98951213D01*
X154851382Y-98802622D01*
X154953743Y-98802622D01*
X154953743Y-98951297D01*
X154998871Y-98951297D01*
X155007656Y-98951193D01*
X155015954Y-98950875D01*
X155023778Y-98950339D01*
X155031143Y-98949578D01*
X155038062Y-98948585D01*
X155044549Y-98947356D01*
X155050617Y-98945883D01*
X155056280Y-98944161D01*
X155061552Y-98942184D01*
X155066445Y-98939946D01*
X155070975Y-98937440D01*
X155075154Y-98934661D01*
X155078996Y-98931603D01*
X155082515Y-98928259D01*
X155085725Y-98924623D01*
X155088639Y-98920690D01*
X155091270Y-98916454D01*
X155093633Y-98911907D01*
X155095740Y-98907045D01*
X155097607Y-98901861D01*
X155099245Y-98896350D01*
X155100670Y-98890504D01*
X155101894Y-98884319D01*
X155102931Y-98877788D01*
X155104500Y-98863664D01*
X155105486Y-98848083D01*
X155105997Y-98830998D01*
X155106143Y-98812359D01*
X155105722Y-98797190D01*
X155104491Y-98783193D01*
X155102495Y-98770341D01*
X155099781Y-98758608D01*
X155098170Y-98753152D01*
X155096397Y-98747966D01*
X155094467Y-98743047D01*
X155092387Y-98738390D01*
X155090163Y-98733993D01*
X155087799Y-98729852D01*
X155085303Y-98725965D01*
X155082680Y-98722327D01*
X155079935Y-98718935D01*
X155077075Y-98715786D01*
X155074106Y-98712877D01*
X155071032Y-98710204D01*
X155067861Y-98707764D01*
X155064597Y-98705554D01*
X155061247Y-98703570D01*
X155057816Y-98701810D01*
X155050736Y-98698943D01*
X155043403Y-98696929D01*
X155035864Y-98695740D01*
X155028165Y-98695350D01*
X155023981Y-98695450D01*
X155019893Y-98695751D01*
X155015902Y-98696253D01*
X155012011Y-98696959D01*
X155008223Y-98697868D01*
X155004540Y-98698981D01*
X155000964Y-98700299D01*
X154997499Y-98701824D01*
X154994146Y-98703556D01*
X154990908Y-98705496D01*
X154987787Y-98707645D01*
X154984786Y-98710003D01*
X154981908Y-98712573D01*
X154979154Y-98715354D01*
X154976528Y-98718347D01*
X154974032Y-98721554D01*
X154971667Y-98724975D01*
X154969438Y-98728612D01*
X154967345Y-98732464D01*
X154965392Y-98736534D01*
X154963581Y-98740821D01*
X154961915Y-98745327D01*
X154960396Y-98750053D01*
X154959026Y-98755000D01*
X154957808Y-98760168D01*
X154956744Y-98765559D01*
X154955838Y-98771172D01*
X154955090Y-98777010D01*
X154954505Y-98783074D01*
X154954083Y-98789363D01*
X154953829Y-98795879D01*
X154953743Y-98802622D01*
X154851382Y-98802622D01*
X154851382Y-98779339D01*
X154851627Y-98767082D01*
X154852351Y-98755203D01*
X154853544Y-98743703D01*
X154855191Y-98732583D01*
X154857280Y-98721843D01*
X154859799Y-98711484D01*
X154862734Y-98701507D01*
X154866073Y-98691913D01*
X154869803Y-98682702D01*
X154873912Y-98673874D01*
X154878385Y-98665432D01*
X154883212Y-98657375D01*
X154888379Y-98649703D01*
X154893873Y-98642419D01*
X154899681Y-98635522D01*
X154905791Y-98629014D01*
X154912190Y-98622894D01*
X154918865Y-98617164D01*
X154925804Y-98611824D01*
X154932994Y-98606876D01*
X154940421Y-98602319D01*
X154948074Y-98598154D01*
X154955939Y-98594383D01*
X154964003Y-98591006D01*
X154972255Y-98588024D01*
X154980681Y-98585437D01*
X154989268Y-98583245D01*
X154998004Y-98581451D01*
X155006875Y-98580054D01*
X155015870Y-98579056D01*
X155024975Y-98578456D01*
X155028165Y-98578387D01*
X155034178Y-98578256D01*
X155044157Y-98578491D01*
G37*
G36*
X155044157Y-96080824D02*
G01*
X155053977Y-96081526D01*
X155063625Y-96082691D01*
X155073093Y-96084314D01*
X155082369Y-96086392D01*
X155091444Y-96088920D01*
X155100307Y-96091893D01*
X155108947Y-96095308D01*
X155117356Y-96099160D01*
X155125522Y-96103446D01*
X155133435Y-96108160D01*
X155141085Y-96113299D01*
X155148462Y-96118858D01*
X155155555Y-96124833D01*
X155162355Y-96131220D01*
X155168851Y-96138014D01*
X155175032Y-96145212D01*
X155180888Y-96152809D01*
X155186410Y-96160801D01*
X155191587Y-96169183D01*
X155196409Y-96177952D01*
X155200865Y-96187103D01*
X155204946Y-96196631D01*
X155208640Y-96206534D01*
X155211938Y-96216805D01*
X155214830Y-96227442D01*
X155217305Y-96238439D01*
X155219353Y-96249793D01*
X155220963Y-96261500D01*
X155222126Y-96273554D01*
X155222832Y-96285953D01*
X155223069Y-96298691D01*
X155222840Y-96313975D01*
X155222149Y-96328325D01*
X155220991Y-96341776D01*
X155219360Y-96354363D01*
X155217250Y-96366122D01*
X155214657Y-96377089D01*
X155211575Y-96387299D01*
X155207999Y-96396787D01*
X155203922Y-96405591D01*
X155199339Y-96413744D01*
X155194246Y-96421282D01*
X155188636Y-96428242D01*
X155182505Y-96434659D01*
X155175846Y-96440568D01*
X155168654Y-96446005D01*
X155160924Y-96451006D01*
X155160924Y-96453461D01*
X155215787Y-96453461D01*
X155215787Y-96453546D01*
X155215787Y-96577837D01*
X154794147Y-96577837D01*
X154780162Y-96577531D01*
X154766760Y-96576622D01*
X154753933Y-96575120D01*
X154741670Y-96573035D01*
X154729963Y-96570378D01*
X154718803Y-96567159D01*
X154708180Y-96563390D01*
X154698086Y-96559079D01*
X154688511Y-96554238D01*
X154679446Y-96548878D01*
X154670882Y-96543008D01*
X154662811Y-96536639D01*
X154655221Y-96529783D01*
X154648106Y-96522448D01*
X154641455Y-96514647D01*
X154635259Y-96506388D01*
X154629510Y-96497684D01*
X154624198Y-96488544D01*
X154619313Y-96478978D01*
X154614848Y-96468998D01*
X154610792Y-96458613D01*
X154607137Y-96447835D01*
X154603873Y-96436673D01*
X154600992Y-96425139D01*
X154598484Y-96413242D01*
X154596339Y-96400994D01*
X154593107Y-96375484D01*
X154591221Y-96348692D01*
X154590608Y-96320704D01*
X154590897Y-96303621D01*
X154591781Y-96287105D01*
X154593285Y-96271150D01*
X154595434Y-96255750D01*
X154598254Y-96240900D01*
X154601770Y-96226595D01*
X154606008Y-96212830D01*
X154610992Y-96199599D01*
X154616748Y-96186896D01*
X154623301Y-96174718D01*
X154630677Y-96163057D01*
X154638900Y-96151909D01*
X154647997Y-96141269D01*
X154657992Y-96131130D01*
X154668911Y-96121489D01*
X154680779Y-96112339D01*
X154755116Y-96209791D01*
X154751873Y-96211872D01*
X154748763Y-96214009D01*
X154745785Y-96216204D01*
X154742935Y-96218465D01*
X154740212Y-96220793D01*
X154737615Y-96223196D01*
X154735140Y-96225676D01*
X154732787Y-96228240D01*
X154730552Y-96230891D01*
X154728436Y-96233634D01*
X154726434Y-96236474D01*
X154724545Y-96239416D01*
X154722768Y-96242464D01*
X154721101Y-96245623D01*
X154719540Y-96248898D01*
X154718085Y-96252293D01*
X154716734Y-96255813D01*
X154715483Y-96259463D01*
X154714333Y-96263247D01*
X154713280Y-96267170D01*
X154712322Y-96271237D01*
X154711458Y-96275453D01*
X154710686Y-96279821D01*
X154710003Y-96284347D01*
X154708899Y-96293892D01*
X154708130Y-96304124D01*
X154707680Y-96315081D01*
X154707533Y-96326800D01*
X154707781Y-96342888D01*
X154708539Y-96357794D01*
X154709833Y-96371540D01*
X154711689Y-96384144D01*
X154714130Y-96395627D01*
X154717182Y-96406008D01*
X154720870Y-96415306D01*
X154722960Y-96419556D01*
X154725218Y-96423542D01*
X154727648Y-96427268D01*
X154730252Y-96430735D01*
X154733034Y-96433947D01*
X154735997Y-96436905D01*
X154739144Y-96439613D01*
X154742477Y-96442072D01*
X154746001Y-96444285D01*
X154749717Y-96446255D01*
X154753631Y-96447984D01*
X154757743Y-96449475D01*
X154762058Y-96450729D01*
X154766579Y-96451750D01*
X154771309Y-96452539D01*
X154776250Y-96453100D01*
X154786782Y-96453546D01*
X154851382Y-96453546D01*
X154851382Y-96304871D01*
X154953743Y-96304871D01*
X154953743Y-96453546D01*
X154998871Y-96453546D01*
X155007656Y-96453441D01*
X155015954Y-96453124D01*
X155023778Y-96452588D01*
X155031143Y-96451826D01*
X155038062Y-96450834D01*
X155044549Y-96449605D01*
X155050617Y-96448132D01*
X155056280Y-96446410D01*
X155061552Y-96444433D01*
X155066445Y-96442195D01*
X155070975Y-96439689D01*
X155075154Y-96436910D01*
X155078996Y-96433851D01*
X155082515Y-96430507D01*
X155085725Y-96426872D01*
X155088639Y-96422939D01*
X155091270Y-96418702D01*
X155093633Y-96414156D01*
X155095740Y-96409294D01*
X155097607Y-96404110D01*
X155099245Y-96398599D01*
X155100670Y-96392753D01*
X155101894Y-96386568D01*
X155102931Y-96380037D01*
X155104500Y-96365912D01*
X155105486Y-96350332D01*
X155105997Y-96333246D01*
X155106143Y-96314608D01*
X155105722Y-96299439D01*
X155104491Y-96285442D01*
X155102495Y-96272590D01*
X155099781Y-96260856D01*
X155098170Y-96255401D01*
X155096397Y-96250215D01*
X155094467Y-96245295D01*
X155092387Y-96240639D01*
X155090163Y-96236242D01*
X155087799Y-96232101D01*
X155085303Y-96228213D01*
X155082680Y-96224575D01*
X155079935Y-96221184D01*
X155077075Y-96218035D01*
X155074106Y-96215126D01*
X155071032Y-96212453D01*
X155067861Y-96210013D01*
X155064597Y-96207803D01*
X155061247Y-96205819D01*
X155057816Y-96204058D01*
X155050736Y-96201192D01*
X155043403Y-96199178D01*
X155035864Y-96197989D01*
X155028165Y-96197598D01*
X155023981Y-96197699D01*
X155019893Y-96198000D01*
X155015902Y-96198502D01*
X155012011Y-96199207D01*
X155008223Y-96200116D01*
X155004540Y-96201230D01*
X155000964Y-96202548D01*
X154997499Y-96204073D01*
X154994146Y-96205805D01*
X154990908Y-96207745D01*
X154987787Y-96209893D01*
X154984786Y-96212252D01*
X154981908Y-96214821D01*
X154979154Y-96217602D01*
X154976528Y-96220596D01*
X154974032Y-96223803D01*
X154971667Y-96227224D01*
X154969438Y-96230860D01*
X154967345Y-96234713D01*
X154965392Y-96238783D01*
X154963581Y-96243070D01*
X154961915Y-96247576D01*
X154960396Y-96252302D01*
X154959026Y-96257249D01*
X154957808Y-96262417D01*
X154956744Y-96267807D01*
X154955838Y-96273421D01*
X154955090Y-96279259D01*
X154954505Y-96285322D01*
X154954083Y-96291611D01*
X154953829Y-96298127D01*
X154953743Y-96304871D01*
X154851382Y-96304871D01*
X154851382Y-96281673D01*
X154851627Y-96269408D01*
X154852351Y-96257523D01*
X154853544Y-96246017D01*
X154855191Y-96234892D01*
X154857280Y-96224148D01*
X154859799Y-96213786D01*
X154862734Y-96203807D01*
X154866073Y-96194211D01*
X154869803Y-96184998D01*
X154873912Y-96176170D01*
X154878385Y-96167728D01*
X154883212Y-96159671D01*
X154888379Y-96152000D01*
X154893873Y-96144717D01*
X154899681Y-96137822D01*
X154905791Y-96131315D01*
X154912190Y-96125198D01*
X154918865Y-96119470D01*
X154925804Y-96114133D01*
X154932994Y-96109187D01*
X154940421Y-96104632D01*
X154948074Y-96100471D01*
X154955939Y-96096702D01*
X154964003Y-96093328D01*
X154972255Y-96090347D01*
X154980681Y-96087763D01*
X154989268Y-96085573D01*
X154998004Y-96083781D01*
X155006875Y-96082386D01*
X155015870Y-96081388D01*
X155024975Y-96080789D01*
X155028165Y-96080720D01*
X155034178Y-96080589D01*
X155044157Y-96080824D01*
G37*
G36*
X155215787Y-99212240D02*
G01*
X155215787Y-99336530D01*
X154844100Y-99336530D01*
X154835803Y-99336703D01*
X154827803Y-99337216D01*
X154820098Y-99338056D01*
X154812684Y-99339214D01*
X154805560Y-99340679D01*
X154798724Y-99342441D01*
X154792174Y-99344488D01*
X154785907Y-99346809D01*
X154779922Y-99349395D01*
X154774216Y-99352235D01*
X154768786Y-99355317D01*
X154763632Y-99358631D01*
X154758749Y-99362167D01*
X154754138Y-99365913D01*
X154749795Y-99369860D01*
X154745717Y-99373995D01*
X154741904Y-99378310D01*
X154738352Y-99382792D01*
X154735060Y-99387431D01*
X154732026Y-99392217D01*
X154729246Y-99397138D01*
X154726720Y-99402185D01*
X154724445Y-99407346D01*
X154722418Y-99412611D01*
X154719102Y-99423409D01*
X154716755Y-99434494D01*
X154715360Y-99445779D01*
X154714899Y-99457180D01*
X154715000Y-99463008D01*
X154715309Y-99468605D01*
X154715832Y-99473999D01*
X154716577Y-99479220D01*
X154717551Y-99484296D01*
X154718761Y-99489256D01*
X154720213Y-99494128D01*
X154721915Y-99498942D01*
X154723875Y-99503726D01*
X154726098Y-99508510D01*
X154728592Y-99513321D01*
X154731365Y-99518188D01*
X154734423Y-99523141D01*
X154737773Y-99528208D01*
X154741422Y-99533418D01*
X154745378Y-99538799D01*
X154638106Y-99628969D01*
X154632759Y-99621844D01*
X154627678Y-99614625D01*
X154622876Y-99607305D01*
X154618361Y-99599876D01*
X154614146Y-99592332D01*
X154610241Y-99584666D01*
X154606656Y-99576872D01*
X154603403Y-99568941D01*
X154600492Y-99560867D01*
X154597935Y-99552644D01*
X154595741Y-99544264D01*
X154593922Y-99535720D01*
X154592488Y-99527005D01*
X154591451Y-99518113D01*
X154590820Y-99509036D01*
X154590608Y-99499768D01*
X154590893Y-99487549D01*
X154591751Y-99475569D01*
X154593179Y-99463838D01*
X154595180Y-99452368D01*
X154597752Y-99441168D01*
X154600895Y-99430250D01*
X154604610Y-99419625D01*
X154608896Y-99409302D01*
X154613754Y-99399292D01*
X154619183Y-99389607D01*
X154625184Y-99380257D01*
X154631756Y-99371252D01*
X154638900Y-99362603D01*
X154646615Y-99354322D01*
X154654902Y-99346417D01*
X154663760Y-99338901D01*
X154663760Y-99336446D01*
X154597974Y-99336446D01*
X154597974Y-99212156D01*
X155215787Y-99212156D01*
X155215787Y-99212240D01*
G37*
G36*
X153954558Y-94884818D02*
G01*
X153976921Y-94885518D01*
X153997589Y-94886698D01*
X154016685Y-94888373D01*
X154034333Y-94890554D01*
X154050655Y-94893254D01*
X154065775Y-94896486D01*
X154079815Y-94900262D01*
X154092898Y-94904594D01*
X154105149Y-94909496D01*
X154116688Y-94914979D01*
X154127641Y-94921057D01*
X154138129Y-94927741D01*
X154148276Y-94935045D01*
X154158204Y-94942980D01*
X154168037Y-94951559D01*
X154175149Y-94958233D01*
X154182281Y-94965473D01*
X154189365Y-94973303D01*
X154196337Y-94981746D01*
X154203131Y-94990825D01*
X154209679Y-95000562D01*
X154215918Y-95010983D01*
X154221779Y-95022108D01*
X154224548Y-95027942D01*
X154227199Y-95033961D01*
X154229722Y-95040168D01*
X154232109Y-95046566D01*
X154234353Y-95053158D01*
X154236446Y-95059946D01*
X154238378Y-95066933D01*
X154240141Y-95074122D01*
X154241729Y-95081517D01*
X154243131Y-95089120D01*
X154244340Y-95096933D01*
X154245348Y-95104960D01*
X154246146Y-95113204D01*
X154246726Y-95121668D01*
X154247081Y-95130354D01*
X154247200Y-95139265D01*
X154246726Y-95156862D01*
X154245348Y-95173567D01*
X154243131Y-95189404D01*
X154240141Y-95204396D01*
X154236446Y-95218568D01*
X154232109Y-95231942D01*
X154227198Y-95244542D01*
X154221779Y-95256391D01*
X154215917Y-95267513D01*
X154209679Y-95277931D01*
X154203130Y-95287669D01*
X154196337Y-95296749D01*
X154189365Y-95305196D01*
X154182280Y-95313034D01*
X154175149Y-95320284D01*
X154168037Y-95326971D01*
X154158204Y-95335552D01*
X154148276Y-95343490D01*
X154138129Y-95350797D01*
X154127641Y-95357487D01*
X154116688Y-95363571D01*
X154105149Y-95369061D01*
X154092898Y-95373971D01*
X154079815Y-95378311D01*
X154065775Y-95382095D01*
X154050655Y-95385334D01*
X154034333Y-95388042D01*
X154016685Y-95390229D01*
X153997589Y-95391909D01*
X153976921Y-95393094D01*
X153954558Y-95393796D01*
X153930378Y-95394027D01*
X153906211Y-95393797D01*
X153883886Y-95393098D01*
X153863277Y-95391917D01*
X153844257Y-95390241D01*
X153826701Y-95388059D01*
X153810480Y-95385357D01*
X153795471Y-95382122D01*
X153781544Y-95378343D01*
X153768576Y-95374006D01*
X153756438Y-95369099D01*
X153745006Y-95363608D01*
X153734151Y-95357523D01*
X153723748Y-95350829D01*
X153713671Y-95343514D01*
X153703794Y-95335566D01*
X153693989Y-95326971D01*
X153686876Y-95320298D01*
X153679742Y-95313058D01*
X153672653Y-95305228D01*
X153665676Y-95296785D01*
X153658876Y-95287706D01*
X153652320Y-95277968D01*
X153646074Y-95267548D01*
X153640204Y-95256423D01*
X153637431Y-95250589D01*
X153634777Y-95244569D01*
X153632250Y-95238362D01*
X153629859Y-95231964D01*
X153627611Y-95225373D01*
X153625515Y-95218585D01*
X153623580Y-95211598D01*
X153621813Y-95204408D01*
X153620223Y-95197014D01*
X153618818Y-95189411D01*
X153617607Y-95181598D01*
X153616597Y-95173570D01*
X153615798Y-95165326D01*
X153615216Y-95156863D01*
X153614861Y-95148177D01*
X153614741Y-95139265D01*
X153739031Y-95139265D01*
X153739256Y-95147219D01*
X153739918Y-95155060D01*
X153740997Y-95162764D01*
X153742475Y-95170306D01*
X153744330Y-95177662D01*
X153746545Y-95184807D01*
X153749100Y-95191715D01*
X153751974Y-95198363D01*
X153755150Y-95204724D01*
X153758606Y-95210776D01*
X153762324Y-95216491D01*
X153766284Y-95221847D01*
X153770467Y-95226818D01*
X153774854Y-95231379D01*
X153779424Y-95235505D01*
X153784158Y-95239172D01*
X153790237Y-95243337D01*
X153796226Y-95247142D01*
X153802233Y-95250599D01*
X153808369Y-95253721D01*
X153814742Y-95256521D01*
X153821459Y-95259011D01*
X153828631Y-95261203D01*
X153836366Y-95263111D01*
X153844773Y-95264748D01*
X153853960Y-95266125D01*
X153864036Y-95267255D01*
X153875110Y-95268152D01*
X153887291Y-95268827D01*
X153900688Y-95269294D01*
X153915409Y-95269565D01*
X153931563Y-95269652D01*
X153962043Y-95269294D01*
X153975278Y-95268827D01*
X153987319Y-95268152D01*
X153998273Y-95267255D01*
X154008248Y-95266125D01*
X154017352Y-95264748D01*
X154025691Y-95263111D01*
X154033374Y-95261203D01*
X154040507Y-95259011D01*
X154047198Y-95256521D01*
X154053554Y-95253721D01*
X154059684Y-95250599D01*
X154065693Y-95247142D01*
X154071690Y-95243337D01*
X154077783Y-95239172D01*
X154080162Y-95237397D01*
X154082503Y-95235504D01*
X154087063Y-95231375D01*
X154091442Y-95226811D01*
X154095621Y-95221835D01*
X154099579Y-95216474D01*
X154103298Y-95210753D01*
X154106756Y-95204697D01*
X154109935Y-95198331D01*
X154112814Y-95191680D01*
X154115373Y-95184770D01*
X154117593Y-95177625D01*
X154119454Y-95170271D01*
X154120936Y-95162732D01*
X154122020Y-95155035D01*
X154122684Y-95147205D01*
X154122910Y-95139265D01*
X154122685Y-95131326D01*
X154122023Y-95123495D01*
X154120944Y-95115798D01*
X154119466Y-95108260D01*
X154117611Y-95100906D01*
X154115396Y-95093761D01*
X154112841Y-95086851D01*
X154109967Y-95080200D01*
X154106791Y-95073834D01*
X154103335Y-95067777D01*
X154099617Y-95062056D01*
X154095657Y-95056696D01*
X154091474Y-95051720D01*
X154087087Y-95047155D01*
X154082517Y-95043027D01*
X154077783Y-95039359D01*
X154071690Y-95035193D01*
X154065691Y-95031388D01*
X154059676Y-95027931D01*
X154053536Y-95024809D01*
X154047162Y-95022010D01*
X154040444Y-95019520D01*
X154033274Y-95017327D01*
X154025543Y-95015419D01*
X154017141Y-95013783D01*
X154007959Y-95012406D01*
X153997888Y-95011275D01*
X153986819Y-95010379D01*
X153974642Y-95009704D01*
X153961249Y-95009237D01*
X153946531Y-95008966D01*
X153930378Y-95008879D01*
X153899554Y-95009240D01*
X153886216Y-95009711D01*
X153874110Y-95010391D01*
X153863126Y-95011292D01*
X153853150Y-95012428D01*
X153844070Y-95013810D01*
X153835774Y-95015451D01*
X153828149Y-95017362D01*
X153821084Y-95019557D01*
X153814467Y-95022047D01*
X153808184Y-95024845D01*
X153802124Y-95027963D01*
X153796175Y-95031413D01*
X153790224Y-95035207D01*
X153784158Y-95039359D01*
X153781779Y-95041133D01*
X153779438Y-95043026D01*
X153774878Y-95047152D01*
X153770499Y-95051713D01*
X153766320Y-95056684D01*
X153762362Y-95062039D01*
X153758643Y-95067755D01*
X153755185Y-95073806D01*
X153752006Y-95080168D01*
X153749127Y-95086816D01*
X153746568Y-95093724D01*
X153744348Y-95100869D01*
X153742487Y-95108224D01*
X153741005Y-95115767D01*
X153739921Y-95123471D01*
X153739257Y-95131312D01*
X153739031Y-95139265D01*
X153614741Y-95139265D01*
X153615216Y-95121668D01*
X153616597Y-95104960D01*
X153618819Y-95089120D01*
X153621813Y-95074122D01*
X153625516Y-95059946D01*
X153629859Y-95046566D01*
X153634777Y-95033961D01*
X153640205Y-95022108D01*
X153646074Y-95010983D01*
X153652320Y-95000562D01*
X153658876Y-94990825D01*
X153665676Y-94981746D01*
X153672653Y-94973303D01*
X153679742Y-94965473D01*
X153686876Y-94958233D01*
X153693989Y-94951559D01*
X153703821Y-94942980D01*
X153713744Y-94935045D01*
X153723881Y-94927741D01*
X153734353Y-94921057D01*
X153745282Y-94914979D01*
X153756788Y-94909496D01*
X153768994Y-94904594D01*
X153782021Y-94900262D01*
X153795990Y-94896486D01*
X153811024Y-94893254D01*
X153827243Y-94890554D01*
X153844769Y-94888373D01*
X153863724Y-94886698D01*
X153884230Y-94885518D01*
X153906407Y-94884818D01*
X153930378Y-94884588D01*
X153954558Y-94884818D01*
G37*
D11*
X160590000Y-101300000D02*
X148370000Y-101300000D01*
X152443333Y-101300000D02*
X152443333Y-109500000D01*
X158553333Y-101300000D02*
X158553333Y-109500000D01*
D10*
G36*
X155215787Y-96714404D02*
G01*
X155215787Y-96838694D01*
X154844100Y-96838694D01*
X154835803Y-96838868D01*
X154827803Y-96839381D01*
X154820098Y-96840222D01*
X154812684Y-96841382D01*
X154805560Y-96842849D01*
X154798724Y-96844612D01*
X154792174Y-96846661D01*
X154785907Y-96848985D01*
X154779922Y-96851574D01*
X154774216Y-96854416D01*
X154768786Y-96857501D01*
X154763632Y-96860818D01*
X154758749Y-96864356D01*
X154754138Y-96868105D01*
X154749795Y-96872053D01*
X154745717Y-96876191D01*
X154741904Y-96880507D01*
X154738352Y-96884991D01*
X154735060Y-96889631D01*
X154732026Y-96894418D01*
X154729246Y-96899340D01*
X154726720Y-96904387D01*
X154724445Y-96909547D01*
X154722418Y-96914811D01*
X154719102Y-96925605D01*
X154716755Y-96936682D01*
X154715360Y-96947957D01*
X154714899Y-96959344D01*
X154715000Y-96965158D01*
X154715309Y-96970745D01*
X154715832Y-96976132D01*
X154716577Y-96981349D01*
X154717551Y-96986423D01*
X154718761Y-96991383D01*
X154720213Y-96996257D01*
X154721915Y-97001075D01*
X154723875Y-97005863D01*
X154726098Y-97010651D01*
X154728592Y-97015467D01*
X154731365Y-97020340D01*
X154734423Y-97025298D01*
X154737773Y-97030368D01*
X154741422Y-97035581D01*
X154745378Y-97040963D01*
X154638106Y-97131133D01*
X154632759Y-97124009D01*
X154627678Y-97116792D01*
X154622876Y-97109476D01*
X154618361Y-97102052D01*
X154614146Y-97094513D01*
X154610241Y-97086852D01*
X154606656Y-97079063D01*
X154603403Y-97071136D01*
X154600492Y-97063066D01*
X154597935Y-97054845D01*
X154595741Y-97046465D01*
X154593922Y-97037919D01*
X154592488Y-97029200D01*
X154591451Y-97020301D01*
X154590820Y-97011214D01*
X154590608Y-97001932D01*
X154590893Y-96989712D01*
X154591751Y-96977729D01*
X154593179Y-96965995D01*
X154595180Y-96954520D01*
X154597752Y-96943315D01*
X154600895Y-96932392D01*
X154604610Y-96921761D01*
X154608896Y-96911434D01*
X154613754Y-96901421D01*
X154619183Y-96891734D01*
X154625184Y-96882383D01*
X154631756Y-96873380D01*
X154638900Y-96864736D01*
X154646615Y-96856461D01*
X154654902Y-96848567D01*
X154663760Y-96841065D01*
X154663760Y-96838610D01*
X154597974Y-96838610D01*
X154597974Y-96714319D01*
X155215787Y-96714319D01*
X155215787Y-96714404D01*
G37*
D11*
X156516667Y-101300000D02*
X156516667Y-109500000D01*
D10*
G36*
X155215787Y-97891186D02*
G01*
X155215787Y-98000914D01*
X154783140Y-98130031D01*
X154783140Y-98132486D01*
X155215787Y-98261687D01*
X155215787Y-98371415D01*
X154597974Y-98568773D01*
X154597974Y-98437117D01*
X155030536Y-98319007D01*
X155030536Y-98316466D01*
X154597974Y-98176343D01*
X154597974Y-98086173D01*
X155030536Y-97946050D01*
X155030536Y-97943594D01*
X154597974Y-97825400D01*
X154597974Y-97693828D01*
X155215787Y-97891186D01*
G37*
G36*
X153931563Y-95499607D02*
G01*
X155215702Y-95499607D01*
X155215702Y-95623897D01*
X154847656Y-95623897D01*
X154839871Y-95624053D01*
X154832295Y-95624515D01*
X154824933Y-95625277D01*
X154817785Y-95626332D01*
X154810855Y-95627673D01*
X154804145Y-95629294D01*
X154797658Y-95631186D01*
X154791395Y-95633344D01*
X154785360Y-95635761D01*
X154779554Y-95638429D01*
X154773980Y-95641342D01*
X154768640Y-95644494D01*
X154763538Y-95647876D01*
X154758675Y-95651482D01*
X154754053Y-95655306D01*
X154749676Y-95659341D01*
X154745545Y-95663579D01*
X154741663Y-95668014D01*
X154738033Y-95672639D01*
X154734656Y-95677446D01*
X154731536Y-95682430D01*
X154728674Y-95687584D01*
X154726073Y-95692899D01*
X154723736Y-95698371D01*
X154721665Y-95703991D01*
X154719862Y-95709753D01*
X154718330Y-95715650D01*
X154717070Y-95721674D01*
X154716087Y-95727821D01*
X154715382Y-95734081D01*
X154714956Y-95740449D01*
X154714814Y-95746918D01*
X154714956Y-95753383D01*
X154715382Y-95759742D01*
X154716087Y-95765988D01*
X154717070Y-95772114D01*
X154718330Y-95778114D01*
X154719862Y-95783981D01*
X154721665Y-95789710D01*
X154723736Y-95795293D01*
X154726073Y-95800724D01*
X154728674Y-95805997D01*
X154731536Y-95811105D01*
X154734656Y-95816041D01*
X154738033Y-95820800D01*
X154741663Y-95825374D01*
X154745545Y-95829758D01*
X154749676Y-95833945D01*
X154754053Y-95837928D01*
X154758675Y-95841700D01*
X154763538Y-95845257D01*
X154768640Y-95848590D01*
X154773980Y-95851694D01*
X154779554Y-95854561D01*
X154785360Y-95857187D01*
X154791395Y-95859563D01*
X154797658Y-95861684D01*
X154804145Y-95863543D01*
X154810855Y-95865134D01*
X154817785Y-95866450D01*
X154824933Y-95867485D01*
X154832295Y-95868232D01*
X154839871Y-95868685D01*
X154847656Y-95868838D01*
X155215702Y-95868838D01*
X155215702Y-95993129D01*
X154804985Y-95993129D01*
X154792041Y-95992811D01*
X154779485Y-95991874D01*
X154767317Y-95990339D01*
X154755539Y-95988229D01*
X154744153Y-95985567D01*
X154733160Y-95982376D01*
X154722562Y-95978676D01*
X154712361Y-95974493D01*
X154702557Y-95969847D01*
X154693153Y-95964761D01*
X154684150Y-95959258D01*
X154675550Y-95953360D01*
X154667354Y-95947090D01*
X154659564Y-95940471D01*
X154652182Y-95933525D01*
X154645208Y-95926274D01*
X154638645Y-95918741D01*
X154632494Y-95910948D01*
X154626756Y-95902919D01*
X154621434Y-95894675D01*
X154616528Y-95886239D01*
X154612041Y-95877633D01*
X154607974Y-95868881D01*
X154604328Y-95860005D01*
X154601106Y-95851026D01*
X154598308Y-95841969D01*
X154595936Y-95832854D01*
X154593992Y-95823706D01*
X154592477Y-95814545D01*
X154591393Y-95805396D01*
X154590741Y-95796280D01*
X154590524Y-95787219D01*
X154590810Y-95775000D01*
X154591670Y-95763015D01*
X154593103Y-95751274D01*
X154595108Y-95739782D01*
X154597685Y-95728547D01*
X154600833Y-95717577D01*
X154604553Y-95706877D01*
X154608843Y-95696457D01*
X154613705Y-95686322D01*
X154619136Y-95676480D01*
X154625137Y-95666938D01*
X154631707Y-95657703D01*
X154638847Y-95648783D01*
X154646555Y-95640185D01*
X154654831Y-95631915D01*
X154663676Y-95623982D01*
X154174048Y-95624405D01*
X154182111Y-95633134D01*
X154189808Y-95641962D01*
X154197116Y-95650905D01*
X154204016Y-95659976D01*
X154210486Y-95669190D01*
X154216505Y-95678561D01*
X154222051Y-95688104D01*
X154227103Y-95697832D01*
X154231640Y-95707762D01*
X154235641Y-95717906D01*
X154239085Y-95728279D01*
X154241950Y-95738896D01*
X154244215Y-95749771D01*
X154245860Y-95760918D01*
X154246862Y-95772352D01*
X154247200Y-95784087D01*
X154247101Y-95791107D01*
X154246806Y-95798006D01*
X154246319Y-95804786D01*
X154245644Y-95811445D01*
X154244785Y-95817985D01*
X154243746Y-95824404D01*
X154242532Y-95830705D01*
X154241145Y-95836886D01*
X154239591Y-95842947D01*
X154237873Y-95848890D01*
X154235996Y-95854714D01*
X154233962Y-95860419D01*
X154231777Y-95866006D01*
X154229444Y-95871474D01*
X154224351Y-95882057D01*
X154218715Y-95892168D01*
X154212569Y-95901809D01*
X154205944Y-95910981D01*
X154198873Y-95919687D01*
X154191387Y-95927927D01*
X154183520Y-95935702D01*
X154175302Y-95943014D01*
X154166767Y-95949864D01*
X154158586Y-95955979D01*
X154150344Y-95961545D01*
X154141867Y-95966582D01*
X154132982Y-95971111D01*
X154123517Y-95975155D01*
X154113299Y-95978735D01*
X154102154Y-95981872D01*
X154089911Y-95984588D01*
X154076395Y-95986904D01*
X154061434Y-95988841D01*
X154044856Y-95990422D01*
X154026487Y-95991667D01*
X153983686Y-95993236D01*
X153931648Y-95993721D01*
X153904374Y-95993604D01*
X153879558Y-95993236D01*
X153857030Y-95992598D01*
X153836621Y-95991667D01*
X153818161Y-95990422D01*
X153801481Y-95988841D01*
X153786411Y-95986904D01*
X153772781Y-95984588D01*
X153760423Y-95981872D01*
X153754667Y-95980358D01*
X153749165Y-95978735D01*
X153743897Y-95977002D01*
X153738840Y-95975155D01*
X153733974Y-95973193D01*
X153729277Y-95971111D01*
X153720307Y-95966582D01*
X153711760Y-95961545D01*
X153703467Y-95955979D01*
X153695259Y-95949864D01*
X153686723Y-95943000D01*
X153678506Y-95935677D01*
X153670638Y-95927895D01*
X153663153Y-95919651D01*
X153656082Y-95910944D01*
X153649457Y-95901772D01*
X153643310Y-95892132D01*
X153637675Y-95882025D01*
X153632582Y-95871447D01*
X153628063Y-95860397D01*
X153624152Y-95848873D01*
X153620880Y-95836874D01*
X153618279Y-95824397D01*
X153616382Y-95811442D01*
X153615219Y-95798005D01*
X153614825Y-95784087D01*
X153615163Y-95772272D01*
X153616163Y-95760619D01*
X153617802Y-95749147D01*
X153618383Y-95746241D01*
X153739032Y-95746241D01*
X153739314Y-95756888D01*
X153740150Y-95766906D01*
X153741521Y-95776311D01*
X153743408Y-95785125D01*
X153745794Y-95793365D01*
X153748659Y-95801051D01*
X153751986Y-95808203D01*
X153755756Y-95814839D01*
X153759951Y-95820979D01*
X153764552Y-95826641D01*
X153769542Y-95831846D01*
X153774902Y-95836612D01*
X153780613Y-95840958D01*
X153786658Y-95844904D01*
X153793018Y-95848469D01*
X153799674Y-95851672D01*
X153806609Y-95854532D01*
X153813803Y-95857068D01*
X153828899Y-95861247D01*
X153844815Y-95864361D01*
X153861404Y-95866565D01*
X153878520Y-95868012D01*
X153896016Y-95868855D01*
X153931563Y-95869346D01*
X153949367Y-95869249D01*
X153967059Y-95868855D01*
X153984497Y-95868012D01*
X154001538Y-95866565D01*
X154018037Y-95864361D01*
X154026039Y-95862927D01*
X154033853Y-95861247D01*
X154041460Y-95859300D01*
X154048842Y-95857068D01*
X154055981Y-95854532D01*
X154062860Y-95851672D01*
X154069461Y-95848469D01*
X154075765Y-95844904D01*
X154081756Y-95840958D01*
X154087414Y-95836612D01*
X154092723Y-95831846D01*
X154097664Y-95826641D01*
X154102219Y-95820979D01*
X154106371Y-95814839D01*
X154110101Y-95808203D01*
X154113392Y-95801051D01*
X154116226Y-95793365D01*
X154118584Y-95785125D01*
X154120450Y-95776311D01*
X154121805Y-95766906D01*
X154122631Y-95756888D01*
X154122910Y-95746241D01*
X154122617Y-95735700D01*
X154121752Y-95725784D01*
X154120335Y-95716473D01*
X154118386Y-95707748D01*
X154115927Y-95699589D01*
X154112978Y-95691979D01*
X154109560Y-95684898D01*
X154105692Y-95678327D01*
X154101396Y-95672248D01*
X154096692Y-95666640D01*
X154091600Y-95661485D01*
X154086142Y-95656765D01*
X154080337Y-95652460D01*
X154074207Y-95648551D01*
X154067771Y-95645020D01*
X154061050Y-95641847D01*
X154054066Y-95639013D01*
X154046837Y-95636499D01*
X154031732Y-95632357D01*
X154015899Y-95629269D01*
X153999502Y-95627083D01*
X153982705Y-95625647D01*
X153965674Y-95624809D01*
X153931563Y-95624321D01*
X153914542Y-95624404D01*
X153897402Y-95624760D01*
X153880312Y-95625545D01*
X153863440Y-95626916D01*
X153846953Y-95629030D01*
X153838907Y-95630415D01*
X153831020Y-95632045D01*
X153823313Y-95633939D01*
X153815807Y-95636116D01*
X153808524Y-95638598D01*
X153801484Y-95641402D01*
X153794708Y-95644549D01*
X153788217Y-95648059D01*
X153782032Y-95651951D01*
X153776175Y-95656244D01*
X153770665Y-95660959D01*
X153765525Y-95666115D01*
X153760774Y-95671731D01*
X153756435Y-95677827D01*
X153752527Y-95684424D01*
X153749072Y-95691539D01*
X153746092Y-95699194D01*
X153743606Y-95707407D01*
X153741636Y-95716199D01*
X153740203Y-95725589D01*
X153739328Y-95735596D01*
X153739032Y-95746241D01*
X153618383Y-95746241D01*
X153620056Y-95737872D01*
X153622902Y-95726812D01*
X153626318Y-95715986D01*
X153630279Y-95705410D01*
X153634764Y-95695102D01*
X153639749Y-95685080D01*
X153645211Y-95675361D01*
X153651127Y-95665963D01*
X153657473Y-95656904D01*
X153664228Y-95648201D01*
X153671367Y-95639872D01*
X153678868Y-95631934D01*
X153686707Y-95624405D01*
X153622106Y-95624405D01*
X153622106Y-95499607D01*
X153931563Y-95499607D01*
G37*
G36*
X154032740Y-98736413D02*
G01*
X154045683Y-98736731D01*
X154058240Y-98737669D01*
X154070408Y-98739206D01*
X154082185Y-98741318D01*
X154093572Y-98743984D01*
X154104564Y-98747182D01*
X154115162Y-98750888D01*
X154125364Y-98755081D01*
X154135167Y-98759738D01*
X154144571Y-98764837D01*
X154153574Y-98770355D01*
X154162174Y-98776271D01*
X154170370Y-98782561D01*
X154178160Y-98789204D01*
X154185543Y-98796177D01*
X154192516Y-98803459D01*
X154199080Y-98811025D01*
X154205231Y-98818855D01*
X154210968Y-98826925D01*
X154216290Y-98835214D01*
X154221196Y-98843699D01*
X154225683Y-98852358D01*
X154229750Y-98861169D01*
X154233396Y-98870108D01*
X154236619Y-98879155D01*
X154239417Y-98888285D01*
X154243733Y-98906711D01*
X154246331Y-98925206D01*
X154246983Y-98934424D01*
X154247200Y-98943592D01*
X154246915Y-98955589D01*
X154246057Y-98967376D01*
X154244629Y-98978941D01*
X154242628Y-98990270D01*
X154240057Y-99001352D01*
X154236913Y-99012172D01*
X154233199Y-99022719D01*
X154228912Y-99032979D01*
X154224055Y-99042940D01*
X154218625Y-99052587D01*
X154212624Y-99061910D01*
X154206052Y-99070894D01*
X154198908Y-99079527D01*
X154191193Y-99087796D01*
X154182906Y-99095687D01*
X154174048Y-99103189D01*
X154174048Y-99105560D01*
X154239919Y-99105560D01*
X154239919Y-99229851D01*
X153622022Y-99229851D01*
X153622022Y-99105560D01*
X153990068Y-99105560D01*
X153997846Y-99105408D01*
X154005415Y-99104955D01*
X154012772Y-99104207D01*
X154019915Y-99103172D01*
X154026841Y-99101856D01*
X154033547Y-99100265D01*
X154040033Y-99098406D01*
X154046294Y-99096285D01*
X154052328Y-99093909D01*
X154058133Y-99091284D01*
X154063707Y-99088416D01*
X154069047Y-99085312D01*
X154074150Y-99081979D01*
X154079015Y-99078423D01*
X154083638Y-99074650D01*
X154088017Y-99070667D01*
X154092150Y-99066480D01*
X154096034Y-99062097D01*
X154099667Y-99057522D01*
X154103046Y-99052763D01*
X154106169Y-99047827D01*
X154109034Y-99042719D01*
X154111637Y-99037446D01*
X154113977Y-99032015D01*
X154116050Y-99026432D01*
X154117856Y-99020704D01*
X154119390Y-99014836D01*
X154120651Y-99008836D01*
X154121636Y-99002710D01*
X154122342Y-98996465D01*
X154122768Y-98990106D01*
X154122910Y-98983640D01*
X154122768Y-98977172D01*
X154122342Y-98970804D01*
X154121636Y-98964543D01*
X154120651Y-98958397D01*
X154119390Y-98952372D01*
X154117856Y-98946475D01*
X154116050Y-98940713D01*
X154113977Y-98935093D01*
X154111637Y-98929622D01*
X154109034Y-98924306D01*
X154106169Y-98919153D01*
X154103046Y-98914169D01*
X154099667Y-98909361D01*
X154096034Y-98904736D01*
X154092150Y-98900301D01*
X154088017Y-98896063D01*
X154083638Y-98892029D01*
X154079015Y-98888205D01*
X154074150Y-98884598D01*
X154069047Y-98881216D01*
X154063707Y-98878065D01*
X154058133Y-98875151D01*
X154052328Y-98872483D01*
X154046294Y-98870066D01*
X154040033Y-98867908D01*
X154033547Y-98866016D01*
X154026841Y-98864396D01*
X154019915Y-98863054D01*
X154012772Y-98861999D01*
X154005415Y-98861237D01*
X153997846Y-98860775D01*
X153990068Y-98860619D01*
X153622023Y-98860619D01*
X153622023Y-98736329D01*
X154032741Y-98736329D01*
X154032740Y-98736413D01*
G37*
G36*
X154906330Y-97133760D02*
G01*
X154957932Y-97134243D01*
X155000712Y-97135813D01*
X155019143Y-97137058D01*
X155035822Y-97138638D01*
X155050914Y-97140576D01*
X155064583Y-97142892D01*
X155076996Y-97145607D01*
X155088316Y-97148744D01*
X155098710Y-97152324D01*
X155108341Y-97156368D01*
X155117376Y-97160898D01*
X155125979Y-97165935D01*
X155134316Y-97171500D01*
X155142551Y-97177615D01*
X155151086Y-97184465D01*
X155159303Y-97191774D01*
X155167171Y-97199545D01*
X155174656Y-97207779D01*
X155181727Y-97216478D01*
X155188352Y-97225644D01*
X155194498Y-97235277D01*
X155200134Y-97245380D01*
X155205227Y-97255955D01*
X155207560Y-97261419D01*
X155209745Y-97267002D01*
X155211779Y-97272704D01*
X155213657Y-97278524D01*
X155215374Y-97284464D01*
X155216929Y-97290522D01*
X155218315Y-97296700D01*
X155219530Y-97302998D01*
X155220568Y-97309416D01*
X155221427Y-97315953D01*
X155222102Y-97322611D01*
X155222589Y-97329389D01*
X155222884Y-97336288D01*
X155222984Y-97343308D01*
X155222644Y-97355123D01*
X155221642Y-97366776D01*
X155219999Y-97378248D01*
X155217741Y-97389523D01*
X155214890Y-97400582D01*
X155211469Y-97411409D01*
X155207502Y-97421985D01*
X155203013Y-97432293D01*
X155198025Y-97442315D01*
X155192561Y-97452034D01*
X155186645Y-97461431D01*
X155180300Y-97470491D01*
X155173550Y-97479194D01*
X155166418Y-97487523D01*
X155158927Y-97495461D01*
X155151102Y-97502989D01*
X155215702Y-97502989D01*
X155215787Y-97502989D01*
X155215787Y-97627280D01*
X154348038Y-97627280D01*
X154348038Y-97502989D01*
X154663676Y-97502989D01*
X154655627Y-97494261D01*
X154647941Y-97485432D01*
X154640639Y-97476490D01*
X154633743Y-97467419D01*
X154627276Y-97458205D01*
X154621257Y-97448834D01*
X154615709Y-97439291D01*
X154610653Y-97429562D01*
X154606112Y-97419633D01*
X154602106Y-97409489D01*
X154598657Y-97399116D01*
X154595786Y-97388499D01*
X154594253Y-97381154D01*
X154714899Y-97381154D01*
X154715196Y-97391694D01*
X154716071Y-97401610D01*
X154717505Y-97410922D01*
X154719475Y-97419647D01*
X154721960Y-97427805D01*
X154724940Y-97435415D01*
X154728393Y-97442496D01*
X154732297Y-97449067D01*
X154736632Y-97455147D01*
X154741376Y-97460755D01*
X154746508Y-97465909D01*
X154752006Y-97470629D01*
X154757851Y-97474934D01*
X154764020Y-97478843D01*
X154770492Y-97482375D01*
X154777245Y-97485548D01*
X154784260Y-97488382D01*
X154791514Y-97490895D01*
X154798986Y-97493107D01*
X154806656Y-97495037D01*
X154814501Y-97496703D01*
X154822500Y-97498125D01*
X154838879Y-97500312D01*
X154855621Y-97501748D01*
X154872556Y-97502586D01*
X154889516Y-97502977D01*
X154906330Y-97503074D01*
X154940148Y-97502586D01*
X154957134Y-97501748D01*
X154973940Y-97500312D01*
X154990396Y-97498125D01*
X155006326Y-97495037D01*
X155021560Y-97490895D01*
X155035923Y-97485548D01*
X155042724Y-97482375D01*
X155049243Y-97478843D01*
X155055459Y-97474934D01*
X155061348Y-97470629D01*
X155066891Y-97465909D01*
X155072065Y-97460755D01*
X155076849Y-97455147D01*
X155081221Y-97449067D01*
X155085159Y-97442496D01*
X155088643Y-97435415D01*
X155091649Y-97427805D01*
X155094158Y-97419647D01*
X155096146Y-97410922D01*
X155097593Y-97401610D01*
X155098478Y-97391694D01*
X155098777Y-97381154D01*
X155098498Y-97370610D01*
X155097673Y-97360684D01*
X155096318Y-97351357D01*
X155094453Y-97342610D01*
X155092094Y-97334425D01*
X155089259Y-97326783D01*
X155085966Y-97319666D01*
X155082233Y-97313055D01*
X155078076Y-97306932D01*
X155073515Y-97301278D01*
X155068565Y-97296075D01*
X155063246Y-97291303D01*
X155057574Y-97286945D01*
X155051568Y-97282982D01*
X155045245Y-97279396D01*
X155038622Y-97276167D01*
X155031717Y-97273278D01*
X155024548Y-97270709D01*
X155017133Y-97268443D01*
X155009489Y-97266460D01*
X155001633Y-97264743D01*
X154993585Y-97263272D01*
X154976977Y-97260996D01*
X154959806Y-97259484D01*
X154942214Y-97258588D01*
X154924342Y-97258159D01*
X154906330Y-97258048D01*
X154870490Y-97258539D01*
X154852948Y-97259382D01*
X154835843Y-97260829D01*
X154819312Y-97263033D01*
X154803493Y-97266148D01*
X154788526Y-97270326D01*
X154781404Y-97272863D01*
X154774547Y-97275723D01*
X154767972Y-97278925D01*
X154761695Y-97282490D01*
X154755735Y-97286436D01*
X154750109Y-97290782D01*
X154744833Y-97295548D01*
X154739926Y-97300753D01*
X154735404Y-97306416D01*
X154731285Y-97312555D01*
X154727586Y-97319191D01*
X154724323Y-97326343D01*
X154721516Y-97334029D01*
X154719180Y-97342270D01*
X154717333Y-97351083D01*
X154715992Y-97360489D01*
X154715175Y-97370506D01*
X154714899Y-97381154D01*
X154594253Y-97381154D01*
X154593516Y-97377624D01*
X154591868Y-97366477D01*
X154590863Y-97355043D01*
X154590524Y-97343308D01*
X154590917Y-97329389D01*
X154592077Y-97315953D01*
X154593971Y-97302998D01*
X154596567Y-97290522D01*
X154599834Y-97278524D01*
X154603740Y-97267002D01*
X154608253Y-97255955D01*
X154613341Y-97245380D01*
X154618974Y-97235277D01*
X154625118Y-97225644D01*
X154631742Y-97216478D01*
X154638815Y-97207779D01*
X154646305Y-97199545D01*
X154654180Y-97191774D01*
X154662408Y-97184465D01*
X154670957Y-97177615D01*
X154679150Y-97171500D01*
X154687429Y-97165935D01*
X154695959Y-97160898D01*
X154704909Y-97156368D01*
X154709595Y-97154287D01*
X154714448Y-97152324D01*
X154719490Y-97150477D01*
X154724742Y-97148744D01*
X154730225Y-97147122D01*
X154735959Y-97145607D01*
X154748268Y-97142892D01*
X154761836Y-97140576D01*
X154776831Y-97138638D01*
X154793420Y-97137058D01*
X154811772Y-97135813D01*
X154832055Y-97134882D01*
X154854435Y-97134243D01*
X154879081Y-97133876D01*
X154906161Y-97133758D01*
X154906330Y-97133760D01*
G37*
D11*
X150406667Y-101300000D02*
X150406667Y-109500000D01*
D10*
G36*
X153955945Y-96077883D02*
G01*
X153978039Y-96079143D01*
X153999053Y-96081205D01*
X154019012Y-96084038D01*
X154037939Y-96087612D01*
X154055859Y-96091895D01*
X154072796Y-96096858D01*
X154088774Y-96102469D01*
X154103817Y-96108698D01*
X154117949Y-96115513D01*
X154131194Y-96122884D01*
X154143577Y-96130780D01*
X154155120Y-96139171D01*
X154165849Y-96148026D01*
X154175788Y-96157313D01*
X154184960Y-96167002D01*
X154193389Y-96177063D01*
X154201100Y-96187464D01*
X154208117Y-96198175D01*
X154214464Y-96209165D01*
X154220165Y-96220404D01*
X154225243Y-96231859D01*
X154233631Y-96255300D01*
X154239819Y-96279242D01*
X154244001Y-96303437D01*
X154246369Y-96327641D01*
X154247116Y-96351607D01*
X154246770Y-96367102D01*
X154245722Y-96382488D01*
X154243954Y-96397744D01*
X154241447Y-96412849D01*
X154238183Y-96427782D01*
X154234145Y-96442522D01*
X154229315Y-96457047D01*
X154223674Y-96471336D01*
X154217204Y-96485369D01*
X154209888Y-96499123D01*
X154201707Y-96512578D01*
X154192645Y-96525712D01*
X154182681Y-96538505D01*
X154171800Y-96550934D01*
X154159982Y-96562979D01*
X154147209Y-96574619D01*
X154070501Y-96484449D01*
X154077395Y-96477425D01*
X154083911Y-96470086D01*
X154090040Y-96462459D01*
X154095772Y-96454571D01*
X154101098Y-96446448D01*
X154106009Y-96438118D01*
X154110495Y-96429605D01*
X154114549Y-96420939D01*
X154118160Y-96412144D01*
X154121319Y-96403248D01*
X154124018Y-96394277D01*
X154126246Y-96385258D01*
X154127995Y-96376218D01*
X154129256Y-96367184D01*
X154130019Y-96358181D01*
X154130276Y-96349237D01*
X154130126Y-96341305D01*
X154129676Y-96333516D01*
X154128926Y-96325877D01*
X154127877Y-96318396D01*
X154126529Y-96311079D01*
X154124882Y-96303934D01*
X154122936Y-96296968D01*
X154120691Y-96290187D01*
X154118148Y-96283599D01*
X154115308Y-96277212D01*
X154112169Y-96271031D01*
X154108733Y-96265065D01*
X154104999Y-96259321D01*
X154100969Y-96253805D01*
X154096641Y-96248525D01*
X154092017Y-96243488D01*
X154087096Y-96238701D01*
X154081880Y-96234171D01*
X154076367Y-96229905D01*
X154070558Y-96225911D01*
X154064455Y-96222195D01*
X154058055Y-96218765D01*
X154051361Y-96215628D01*
X154044372Y-96212791D01*
X154037089Y-96210261D01*
X154029511Y-96208045D01*
X154021639Y-96206150D01*
X154013473Y-96204584D01*
X154005014Y-96203354D01*
X153996261Y-96202466D01*
X153987215Y-96201928D01*
X153977876Y-96201747D01*
X153977876Y-96586811D01*
X153875513Y-96586811D01*
X153860716Y-96586468D01*
X153846269Y-96585451D01*
X153832181Y-96583777D01*
X153818459Y-96581466D01*
X153805111Y-96578536D01*
X153792144Y-96575004D01*
X153779568Y-96570890D01*
X153767389Y-96566211D01*
X153755615Y-96560986D01*
X153744255Y-96555233D01*
X153733315Y-96548970D01*
X153722804Y-96542216D01*
X153712730Y-96534989D01*
X153703100Y-96527308D01*
X153693922Y-96519190D01*
X153685204Y-96510654D01*
X153676954Y-96501718D01*
X153669180Y-96492400D01*
X153661889Y-96482719D01*
X153655089Y-96472693D01*
X153648789Y-96462341D01*
X153642995Y-96451680D01*
X153637716Y-96440729D01*
X153632959Y-96429506D01*
X153628733Y-96418030D01*
X153625045Y-96406318D01*
X153621903Y-96394390D01*
X153619315Y-96382263D01*
X153617288Y-96369955D01*
X153615831Y-96357486D01*
X153614951Y-96344873D01*
X153614656Y-96332134D01*
X153731750Y-96332134D01*
X153731896Y-96338926D01*
X153732334Y-96345599D01*
X153733062Y-96352148D01*
X153734080Y-96358565D01*
X153735386Y-96364847D01*
X153736979Y-96370987D01*
X153738858Y-96376980D01*
X153741022Y-96382820D01*
X153743470Y-96388502D01*
X153746201Y-96394019D01*
X153749214Y-96399366D01*
X153752507Y-96404539D01*
X153756080Y-96409530D01*
X153759931Y-96414335D01*
X153764059Y-96418947D01*
X153768463Y-96423362D01*
X153773143Y-96427574D01*
X153778097Y-96431576D01*
X153783323Y-96435364D01*
X153788821Y-96438931D01*
X153794590Y-96442273D01*
X153800629Y-96445383D01*
X153806936Y-96448256D01*
X153813510Y-96450887D01*
X153820351Y-96453269D01*
X153827457Y-96455397D01*
X153834826Y-96457266D01*
X153842459Y-96458870D01*
X153850354Y-96460202D01*
X153858510Y-96461259D01*
X153866925Y-96462034D01*
X153875598Y-96462520D01*
X153875598Y-96201747D01*
X153866925Y-96202130D01*
X153858509Y-96202813D01*
X153850354Y-96203792D01*
X153842459Y-96205058D01*
X153834826Y-96206606D01*
X153827456Y-96208430D01*
X153820351Y-96210524D01*
X153813510Y-96212881D01*
X153806936Y-96215495D01*
X153800629Y-96218359D01*
X153794590Y-96221468D01*
X153788821Y-96224816D01*
X153783323Y-96228395D01*
X153778096Y-96232200D01*
X153773143Y-96236224D01*
X153768463Y-96240461D01*
X153764059Y-96244905D01*
X153759930Y-96249550D01*
X153756079Y-96254389D01*
X153752507Y-96259417D01*
X153749214Y-96264626D01*
X153746201Y-96270010D01*
X153743470Y-96275564D01*
X153741022Y-96281281D01*
X153738858Y-96287155D01*
X153736979Y-96293179D01*
X153735386Y-96299347D01*
X153734080Y-96305654D01*
X153733062Y-96312092D01*
X153732334Y-96318655D01*
X153731896Y-96325338D01*
X153731750Y-96332134D01*
X153614656Y-96332134D01*
X153615591Y-96309587D01*
X153618479Y-96286891D01*
X153620693Y-96275557D01*
X153623442Y-96264269D01*
X153626740Y-96253055D01*
X153630603Y-96241941D01*
X153635047Y-96230957D01*
X153640086Y-96220129D01*
X153645736Y-96209485D01*
X153652013Y-96199053D01*
X153658931Y-96188861D01*
X153666507Y-96178935D01*
X153674755Y-96169304D01*
X153683691Y-96159996D01*
X153693330Y-96151038D01*
X153703687Y-96142457D01*
X153714779Y-96134281D01*
X153726620Y-96126539D01*
X153739225Y-96119257D01*
X153752611Y-96112463D01*
X153766792Y-96106185D01*
X153781784Y-96100450D01*
X153797601Y-96095287D01*
X153814261Y-96090722D01*
X153831777Y-96086784D01*
X153850165Y-96083500D01*
X153869441Y-96080897D01*
X153875598Y-96080320D01*
X153889620Y-96079004D01*
X153910717Y-96077848D01*
X153932748Y-96077457D01*
X153955945Y-96077883D01*
G37*
D11*
X148370000Y-101300000D02*
X148370000Y-109500000D01*
D10*
G36*
X153952410Y-99768645D02*
G01*
X153972459Y-99769827D01*
X153991719Y-99771766D01*
X154010200Y-99774440D01*
X154027909Y-99777822D01*
X154044857Y-99781890D01*
X154061051Y-99786619D01*
X154076501Y-99791984D01*
X154091215Y-99797961D01*
X154105203Y-99804527D01*
X154118474Y-99811655D01*
X154131036Y-99819324D01*
X154142898Y-99827506D01*
X154154070Y-99836180D01*
X154164560Y-99845320D01*
X154174377Y-99854902D01*
X154183530Y-99864902D01*
X154192027Y-99875295D01*
X154199879Y-99886057D01*
X154207093Y-99897164D01*
X154213679Y-99908591D01*
X154219645Y-99920315D01*
X154225001Y-99932310D01*
X154229756Y-99944553D01*
X154237495Y-99969685D01*
X154242935Y-99995515D01*
X154246146Y-100021849D01*
X154247201Y-100048492D01*
X154246679Y-100065854D01*
X154245141Y-100082759D01*
X154242627Y-100099206D01*
X154239180Y-100115191D01*
X154234840Y-100130713D01*
X154229650Y-100145769D01*
X154223649Y-100160358D01*
X154216880Y-100174476D01*
X154209383Y-100188122D01*
X154201201Y-100201294D01*
X154192373Y-100213989D01*
X154182943Y-100226205D01*
X154172950Y-100237939D01*
X154162437Y-100249191D01*
X154151444Y-100259956D01*
X154140013Y-100270234D01*
X154058394Y-100178879D01*
X154058309Y-100178879D01*
X154065258Y-100173009D01*
X154071927Y-100166834D01*
X154078293Y-100160363D01*
X154084334Y-100153606D01*
X154090025Y-100146571D01*
X154095344Y-100139267D01*
X154100267Y-100131703D01*
X154104770Y-100123888D01*
X154108831Y-100115831D01*
X154112426Y-100107541D01*
X154115533Y-100099026D01*
X154118126Y-100090296D01*
X154120184Y-100081360D01*
X154121683Y-100072227D01*
X154122215Y-100067589D01*
X154122599Y-100062905D01*
X154122832Y-100058176D01*
X154122910Y-100053403D01*
X154122741Y-100044047D01*
X154122233Y-100034937D01*
X154121383Y-100026075D01*
X154120185Y-100017466D01*
X154118637Y-100009113D01*
X154116736Y-100001018D01*
X154114478Y-99993186D01*
X154111858Y-99985619D01*
X154108874Y-99978322D01*
X154105523Y-99971297D01*
X154101800Y-99964548D01*
X154097701Y-99958079D01*
X154093224Y-99951892D01*
X154088365Y-99945991D01*
X154083120Y-99940379D01*
X154077486Y-99935060D01*
X154071459Y-99930038D01*
X154065035Y-99925314D01*
X154058212Y-99920894D01*
X154050984Y-99916780D01*
X154043350Y-99912976D01*
X154035305Y-99909485D01*
X154026845Y-99906310D01*
X154017968Y-99903456D01*
X154008669Y-99900924D01*
X153998946Y-99898719D01*
X153988793Y-99896844D01*
X153978209Y-99895302D01*
X153967189Y-99894097D01*
X153955730Y-99893232D01*
X153943827Y-99892711D01*
X153931479Y-99892536D01*
X153907217Y-99893232D01*
X153884705Y-99895302D01*
X153874097Y-99896844D01*
X153863918Y-99898719D01*
X153854163Y-99900924D01*
X153844830Y-99903456D01*
X153835916Y-99906310D01*
X153827417Y-99909485D01*
X153819330Y-99912976D01*
X153811651Y-99916780D01*
X153804379Y-99920894D01*
X153797509Y-99925314D01*
X153791038Y-99930038D01*
X153784963Y-99935060D01*
X153779281Y-99940379D01*
X153773989Y-99945991D01*
X153769084Y-99951892D01*
X153764562Y-99958079D01*
X153760419Y-99964548D01*
X153756654Y-99971297D01*
X153753263Y-99978322D01*
X153750242Y-99985619D01*
X153747588Y-99993186D01*
X153745299Y-100001018D01*
X153743371Y-100009113D01*
X153741800Y-100017466D01*
X153739719Y-100034937D01*
X153739032Y-100053403D01*
X153739342Y-100062906D01*
X153740259Y-100072230D01*
X153741757Y-100081368D01*
X153743815Y-100090308D01*
X153746409Y-100099043D01*
X153749515Y-100107563D01*
X153753110Y-100115858D01*
X153757171Y-100123920D01*
X153761675Y-100131738D01*
X153766598Y-100139304D01*
X153771916Y-100146608D01*
X153777608Y-100153642D01*
X153783648Y-100160395D01*
X153790015Y-100166858D01*
X153796684Y-100173023D01*
X153803632Y-100178879D01*
X153722013Y-100270234D01*
X153710567Y-100259942D01*
X153699562Y-100249166D01*
X153689037Y-100237908D01*
X153679035Y-100226169D01*
X153669596Y-100213951D01*
X153660762Y-100201257D01*
X153652574Y-100188087D01*
X153645073Y-100174444D01*
X153638300Y-100160330D01*
X153632297Y-100145747D01*
X153627104Y-100130696D01*
X153622763Y-100115179D01*
X153619315Y-100099199D01*
X153616801Y-100082756D01*
X153615908Y-100074362D01*
X153615263Y-100065853D01*
X153614872Y-100057230D01*
X153614741Y-100048492D01*
X153615809Y-100021849D01*
X153617157Y-100008631D01*
X153619058Y-99995515D01*
X153621522Y-99982525D01*
X153624556Y-99969685D01*
X153628170Y-99957019D01*
X153632372Y-99944553D01*
X153637169Y-99932310D01*
X153642571Y-99920315D01*
X153648587Y-99908591D01*
X153655224Y-99897164D01*
X153662491Y-99886057D01*
X153670396Y-99875295D01*
X153678949Y-99864902D01*
X153688158Y-99854902D01*
X153698030Y-99845320D01*
X153708575Y-99836180D01*
X153719800Y-99827506D01*
X153731716Y-99819323D01*
X153744329Y-99811655D01*
X153757648Y-99804527D01*
X153771683Y-99797961D01*
X153786441Y-99791984D01*
X153801931Y-99786619D01*
X153818161Y-99781890D01*
X153835140Y-99777822D01*
X153852876Y-99774440D01*
X153871378Y-99771766D01*
X153890654Y-99769827D01*
X153910713Y-99768645D01*
X153931563Y-99768246D01*
X153952410Y-99768645D01*
G37*
D11*
X154480000Y-101300000D02*
X154480000Y-109500000D01*
X160590000Y-105475000D02*
X148370000Y-105475000D01*
D10*
G36*
X154239834Y-96817189D02*
G01*
X153871873Y-96817189D01*
X153864087Y-96817342D01*
X153856512Y-96817795D01*
X153849149Y-96818543D01*
X153842002Y-96819579D01*
X153835072Y-96820898D01*
X153828362Y-96822492D01*
X153821875Y-96824356D01*
X153815612Y-96826483D01*
X153809576Y-96828867D01*
X153803770Y-96831502D01*
X153798196Y-96834382D01*
X153792857Y-96837500D01*
X153787755Y-96840850D01*
X153782891Y-96844426D01*
X153778270Y-96848222D01*
X153773892Y-96852231D01*
X153769762Y-96856447D01*
X153765880Y-96860864D01*
X153762249Y-96865475D01*
X153758873Y-96870275D01*
X153755752Y-96875258D01*
X153752891Y-96880416D01*
X153750290Y-96885743D01*
X153747953Y-96891234D01*
X153745881Y-96896882D01*
X153744079Y-96902681D01*
X153742546Y-96908625D01*
X153741287Y-96914707D01*
X153740304Y-96920921D01*
X153739598Y-96927262D01*
X153739173Y-96933721D01*
X153739031Y-96940295D01*
X153739173Y-96946864D01*
X153739598Y-96953314D01*
X153740304Y-96959638D01*
X153741287Y-96965831D01*
X153742546Y-96971886D01*
X153744079Y-96977798D01*
X153745881Y-96983561D01*
X153747953Y-96989170D01*
X153750290Y-96994617D01*
X153752891Y-96999899D01*
X153755752Y-97005008D01*
X153758873Y-97009939D01*
X153762249Y-97014686D01*
X153765880Y-97019243D01*
X153769762Y-97023605D01*
X153773892Y-97027766D01*
X153778270Y-97031719D01*
X153782891Y-97035460D01*
X153787755Y-97038982D01*
X153792857Y-97042279D01*
X153798196Y-97045346D01*
X153803770Y-97048177D01*
X153809576Y-97050765D01*
X153815612Y-97053106D01*
X153821875Y-97055194D01*
X153828362Y-97057022D01*
X153835072Y-97058584D01*
X153842002Y-97059876D01*
X153849149Y-97060890D01*
X153856512Y-97061622D01*
X153864087Y-97062066D01*
X153871873Y-97062215D01*
X154239834Y-97062215D01*
X154239834Y-97186505D01*
X153829201Y-97186505D01*
X153816250Y-97186188D01*
X153803686Y-97185250D01*
X153791511Y-97183716D01*
X153779727Y-97181606D01*
X153768335Y-97178944D01*
X153757337Y-97175752D01*
X153746734Y-97172053D01*
X153736528Y-97167869D01*
X153726720Y-97163223D01*
X153717313Y-97158137D01*
X153708306Y-97152634D01*
X153699703Y-97146737D01*
X153691504Y-97140467D01*
X153683711Y-97133848D01*
X153676326Y-97126901D01*
X153669350Y-97119650D01*
X153662785Y-97112117D01*
X153656633Y-97104325D01*
X153650894Y-97096295D01*
X153645570Y-97088051D01*
X153640664Y-97079615D01*
X153636176Y-97071010D01*
X153632108Y-97062258D01*
X153628462Y-97053381D01*
X153622440Y-97035345D01*
X153618124Y-97017082D01*
X153615525Y-96998772D01*
X153614873Y-96989656D01*
X153614656Y-96980596D01*
X153614941Y-96968376D01*
X153615799Y-96956393D01*
X153617227Y-96944659D01*
X153619228Y-96933184D01*
X153621799Y-96921979D01*
X153624943Y-96911056D01*
X153628657Y-96900425D01*
X153632944Y-96890098D01*
X153637801Y-96880085D01*
X153643231Y-96870398D01*
X153649232Y-96861047D01*
X153655804Y-96852044D01*
X153662948Y-96843400D01*
X153670663Y-96835125D01*
X153678950Y-96827231D01*
X153687808Y-96819729D01*
X153687808Y-96817274D01*
X153622022Y-96817274D01*
X153622022Y-96692983D01*
X154239834Y-96692983D01*
X154239834Y-96817189D01*
G37*
D11*
X160590000Y-109500000D02*
X160590000Y-101300000D01*
D10*
G36*
X154931822Y-99631766D02*
G01*
X154953923Y-99633026D01*
X154974943Y-99635088D01*
X154994908Y-99637921D01*
X155013842Y-99641495D01*
X155031767Y-99645779D01*
X155048709Y-99650742D01*
X155064692Y-99656353D01*
X155079739Y-99662582D01*
X155093875Y-99669398D01*
X155107124Y-99676770D01*
X155119509Y-99684667D01*
X155131056Y-99693059D01*
X155141788Y-99701915D01*
X155151728Y-99711204D01*
X155160902Y-99720895D01*
X155169334Y-99730958D01*
X155177047Y-99741362D01*
X155184065Y-99752076D01*
X155190413Y-99763069D01*
X155196115Y-99774310D01*
X155201194Y-99785770D01*
X155209583Y-99809219D01*
X155215772Y-99833170D01*
X155219955Y-99857377D01*
X155222323Y-99881594D01*
X155223069Y-99905575D01*
X155222724Y-99921069D01*
X155221676Y-99936455D01*
X155219907Y-99951711D01*
X155217400Y-99966817D01*
X155214137Y-99981750D01*
X155210099Y-99996490D01*
X155205268Y-100011015D01*
X155199627Y-100025304D01*
X155193157Y-100039337D01*
X155185841Y-100053091D01*
X155177661Y-100066546D01*
X155168598Y-100079680D01*
X155158635Y-100092473D01*
X155147753Y-100104902D01*
X155135935Y-100116947D01*
X155123162Y-100128587D01*
X155046370Y-100038417D01*
X155053278Y-100031392D01*
X155059804Y-100024050D01*
X155065940Y-100016420D01*
X155071676Y-100008527D01*
X155077004Y-100000399D01*
X155081914Y-99992063D01*
X155086399Y-99983546D01*
X155090449Y-99974874D01*
X155094056Y-99966076D01*
X155097210Y-99957178D01*
X155099903Y-99948207D01*
X155102127Y-99939190D01*
X155103871Y-99930154D01*
X155105128Y-99921127D01*
X155105889Y-99912134D01*
X155106144Y-99903204D01*
X155105994Y-99895273D01*
X155105544Y-99887485D01*
X155104795Y-99879847D01*
X155103746Y-99872367D01*
X155102398Y-99865053D01*
X155100751Y-99857910D01*
X155098805Y-99850946D01*
X155096561Y-99844168D01*
X155094019Y-99837583D01*
X155091179Y-99831199D01*
X155088041Y-99825022D01*
X155084606Y-99819060D01*
X155080874Y-99813319D01*
X155076844Y-99807807D01*
X155072519Y-99802531D01*
X155067896Y-99797498D01*
X155062978Y-99792715D01*
X155057763Y-99788189D01*
X155052253Y-99783927D01*
X155046448Y-99779937D01*
X155040347Y-99776225D01*
X155033951Y-99772798D01*
X155027261Y-99769664D01*
X155020276Y-99766830D01*
X155012998Y-99764303D01*
X155005425Y-99762090D01*
X154997558Y-99760197D01*
X154989398Y-99758633D01*
X154980945Y-99757404D01*
X154972199Y-99756518D01*
X154963160Y-99755981D01*
X154953829Y-99755800D01*
X154953829Y-100140779D01*
X154953828Y-100140609D01*
X154851382Y-100140609D01*
X154836592Y-100140266D01*
X154822153Y-100139249D01*
X154808071Y-100137575D01*
X154794355Y-100135264D01*
X154781013Y-100132334D01*
X154768053Y-100128803D01*
X154755481Y-100124689D01*
X154743307Y-100120010D01*
X154731537Y-100114786D01*
X154720181Y-100109034D01*
X154709245Y-100102772D01*
X154698737Y-100096019D01*
X154688665Y-100088793D01*
X154679038Y-100081113D01*
X154669863Y-100072997D01*
X154661147Y-100064462D01*
X154652899Y-100055528D01*
X154645126Y-100046213D01*
X154637837Y-100036535D01*
X154631038Y-100026512D01*
X154624739Y-100016163D01*
X154618946Y-100005505D01*
X154613668Y-99994558D01*
X154608912Y-99983340D01*
X154604686Y-99971868D01*
X154600998Y-99960162D01*
X154597856Y-99948239D01*
X154595268Y-99936117D01*
X154593242Y-99923816D01*
X154591784Y-99911354D01*
X154590904Y-99898748D01*
X154590609Y-99886017D01*
X154707533Y-99886017D01*
X154707679Y-99892817D01*
X154708118Y-99899497D01*
X154708847Y-99906051D01*
X154709866Y-99912473D01*
X154711174Y-99918759D01*
X154712769Y-99924902D01*
X154714651Y-99930898D01*
X154716817Y-99936739D01*
X154719268Y-99942422D01*
X154722001Y-99947940D01*
X154725016Y-99953288D01*
X154728312Y-99958459D01*
X154731887Y-99963450D01*
X154735741Y-99968254D01*
X154739872Y-99972865D01*
X154744278Y-99977278D01*
X154748960Y-99981487D01*
X154753915Y-99985487D01*
X154759142Y-99989272D01*
X154764641Y-99992837D01*
X154770411Y-99996176D01*
X154776449Y-99999284D01*
X154782756Y-100002154D01*
X154789329Y-100004782D01*
X154796168Y-100007162D01*
X154803271Y-100009288D01*
X154810638Y-100011155D01*
X154818267Y-100012757D01*
X154826157Y-100014088D01*
X154834307Y-100015144D01*
X154842715Y-100015918D01*
X154851382Y-100016404D01*
X154851382Y-99755631D01*
X154851382Y-99755630D01*
X154842715Y-99756006D01*
X154834307Y-99756682D01*
X154826157Y-99757653D01*
X154818267Y-99758913D01*
X154810638Y-99760456D01*
X154803271Y-99762275D01*
X154796168Y-99764364D01*
X154789329Y-99766717D01*
X154782756Y-99769327D01*
X154776449Y-99772188D01*
X154770411Y-99775295D01*
X154764641Y-99778640D01*
X154759142Y-99782217D01*
X154753915Y-99786021D01*
X154748960Y-99790044D01*
X154744278Y-99794281D01*
X154739872Y-99798726D01*
X154735741Y-99803371D01*
X154731887Y-99808211D01*
X154728312Y-99813240D01*
X154725016Y-99818452D01*
X154722001Y-99823839D01*
X154719268Y-99829396D01*
X154716817Y-99835117D01*
X154714651Y-99840995D01*
X154712769Y-99847024D01*
X154711174Y-99853197D01*
X154709866Y-99859509D01*
X154708847Y-99865954D01*
X154708118Y-99872524D01*
X154707679Y-99879214D01*
X154707533Y-99886017D01*
X154590609Y-99886017D01*
X154591544Y-99863469D01*
X154594429Y-99840774D01*
X154596641Y-99829440D01*
X154599388Y-99818152D01*
X154602683Y-99806938D01*
X154606544Y-99795824D01*
X154610984Y-99784840D01*
X154616020Y-99774012D01*
X154621667Y-99763368D01*
X154627940Y-99752936D01*
X154634854Y-99742744D01*
X154642426Y-99732818D01*
X154650670Y-99723187D01*
X154659602Y-99713879D01*
X154669237Y-99704921D01*
X154679591Y-99696340D01*
X154690678Y-99688164D01*
X154702515Y-99680422D01*
X154715117Y-99673139D01*
X154728499Y-99666346D01*
X154742677Y-99660068D01*
X154757666Y-99654333D01*
X154773481Y-99649170D01*
X154790137Y-99644605D01*
X154807651Y-99640667D01*
X154826038Y-99637383D01*
X154845312Y-99634780D01*
X154851382Y-99634211D01*
X154865490Y-99632887D01*
X154886586Y-99631731D01*
X154908617Y-99631339D01*
X154931822Y-99631766D01*
G37*
G36*
X154136287Y-97522547D02*
G01*
X154149783Y-97537561D01*
X154162396Y-97552880D01*
X154174127Y-97568495D01*
X154184978Y-97584396D01*
X154194951Y-97600575D01*
X154204048Y-97617023D01*
X154212271Y-97633731D01*
X154219620Y-97650690D01*
X154226098Y-97667891D01*
X154231707Y-97685325D01*
X154236448Y-97702984D01*
X154240324Y-97720858D01*
X154243335Y-97738938D01*
X154245483Y-97757215D01*
X154246771Y-97775682D01*
X154247200Y-97794327D01*
X154246391Y-97820893D01*
X154243981Y-97846601D01*
X154239998Y-97871332D01*
X154234467Y-97894970D01*
X154227416Y-97917394D01*
X154218871Y-97938488D01*
X154208858Y-97958134D01*
X154203310Y-97967376D01*
X154197405Y-97976213D01*
X154191147Y-97984628D01*
X154184539Y-97992607D01*
X154177583Y-98000135D01*
X154170285Y-98007198D01*
X154162646Y-98013781D01*
X154154670Y-98019868D01*
X154146361Y-98025446D01*
X154137722Y-98030500D01*
X154128756Y-98035014D01*
X154119466Y-98038974D01*
X154109857Y-98042366D01*
X154099930Y-98045174D01*
X154089691Y-98047383D01*
X154079140Y-98048980D01*
X154068284Y-98049949D01*
X154057123Y-98050275D01*
X154038882Y-98049669D01*
X154021194Y-98047827D01*
X154004133Y-98044712D01*
X153995859Y-98042664D01*
X153987768Y-98040284D01*
X153979869Y-98037567D01*
X153972172Y-98034507D01*
X153964685Y-98031101D01*
X153957417Y-98027343D01*
X153950377Y-98023229D01*
X153943574Y-98018755D01*
X153937018Y-98013914D01*
X153930716Y-98008703D01*
X153924678Y-98003118D01*
X153918913Y-97997152D01*
X153913430Y-97990802D01*
X153908237Y-97984063D01*
X153903345Y-97976930D01*
X153898761Y-97969398D01*
X153894494Y-97961463D01*
X153890555Y-97953120D01*
X153886951Y-97944364D01*
X153883691Y-97935190D01*
X153880785Y-97925595D01*
X153878242Y-97915573D01*
X153876070Y-97905119D01*
X153874278Y-97894228D01*
X153872876Y-97882897D01*
X153871872Y-97871120D01*
X153864591Y-97768758D01*
X153863419Y-97757600D01*
X153861765Y-97747409D01*
X153859661Y-97738149D01*
X153857140Y-97729788D01*
X153854235Y-97722290D01*
X153852648Y-97718855D01*
X153850976Y-97715623D01*
X153849225Y-97712591D01*
X153847397Y-97709753D01*
X153845498Y-97707105D01*
X153843530Y-97704644D01*
X153841499Y-97702365D01*
X153839407Y-97700264D01*
X153835060Y-97696578D01*
X153830522Y-97693552D01*
X153825824Y-97691153D01*
X153821000Y-97689346D01*
X153816081Y-97688097D01*
X153811099Y-97687373D01*
X153806087Y-97687139D01*
X153802127Y-97687219D01*
X153798234Y-97687460D01*
X153794412Y-97687868D01*
X153790665Y-97688447D01*
X153786997Y-97689202D01*
X153783412Y-97690138D01*
X153779913Y-97691259D01*
X153776505Y-97692570D01*
X153773191Y-97694075D01*
X153769974Y-97695780D01*
X153766860Y-97697689D01*
X153763851Y-97699806D01*
X153760951Y-97702137D01*
X153758165Y-97704685D01*
X153755496Y-97707456D01*
X153752948Y-97710454D01*
X153750524Y-97713685D01*
X153748230Y-97717151D01*
X153746067Y-97720859D01*
X153744041Y-97724813D01*
X153742155Y-97729018D01*
X153740413Y-97733478D01*
X153738818Y-97738198D01*
X153737376Y-97743182D01*
X153736088Y-97748436D01*
X153734960Y-97753963D01*
X153733995Y-97759769D01*
X153733197Y-97765859D01*
X153732569Y-97772236D01*
X153732116Y-97778906D01*
X153731842Y-97785873D01*
X153731749Y-97793142D01*
X153732018Y-97805519D01*
X153732813Y-97817521D01*
X153734115Y-97829169D01*
X153735906Y-97840488D01*
X153738169Y-97851499D01*
X153740884Y-97862226D01*
X153744035Y-97872692D01*
X153747603Y-97882920D01*
X153751570Y-97892933D01*
X153755917Y-97902753D01*
X153760628Y-97912404D01*
X153765682Y-97921908D01*
X153771063Y-97931289D01*
X153776753Y-97940569D01*
X153782732Y-97949771D01*
X153788984Y-97958919D01*
X153698899Y-98035627D01*
X153689512Y-98024049D01*
X153680576Y-98012154D01*
X153672111Y-97999906D01*
X153664139Y-97987272D01*
X153656682Y-97974217D01*
X153649760Y-97960707D01*
X153643396Y-97946708D01*
X153637611Y-97932185D01*
X153632425Y-97917105D01*
X153627862Y-97901434D01*
X153623942Y-97885136D01*
X153620687Y-97868178D01*
X153618117Y-97850525D01*
X153616255Y-97832143D01*
X153615122Y-97812999D01*
X153614740Y-97793057D01*
X153615496Y-97768984D01*
X153617761Y-97745726D01*
X153621529Y-97723387D01*
X153626794Y-97702067D01*
X153633552Y-97681868D01*
X153637489Y-97672221D01*
X153641797Y-97662892D01*
X153646475Y-97653894D01*
X153651523Y-97645241D01*
X153656940Y-97636943D01*
X153662725Y-97629015D01*
X153668878Y-97621470D01*
X153675397Y-97614318D01*
X153682283Y-97607574D01*
X153689534Y-97601251D01*
X153697151Y-97595360D01*
X153705131Y-97589915D01*
X153713475Y-97584928D01*
X153722182Y-97580411D01*
X153731251Y-97576379D01*
X153740681Y-97572843D01*
X153750473Y-97569816D01*
X153760624Y-97567311D01*
X153771135Y-97565341D01*
X153782004Y-97563918D01*
X153793232Y-97563054D01*
X153804817Y-97562764D01*
X153814622Y-97562984D01*
X153824163Y-97563637D01*
X153833436Y-97564715D01*
X153842442Y-97566209D01*
X153851178Y-97568110D01*
X153859644Y-97570408D01*
X153867838Y-97573096D01*
X153875758Y-97576164D01*
X153883404Y-97579603D01*
X153890773Y-97583404D01*
X153897866Y-97587559D01*
X153904679Y-97592058D01*
X153911212Y-97596892D01*
X153917464Y-97602054D01*
X153923433Y-97607533D01*
X153929118Y-97613320D01*
X153934517Y-97619408D01*
X153939630Y-97625787D01*
X153944454Y-97632447D01*
X153948989Y-97639381D01*
X153953233Y-97646579D01*
X153957184Y-97654033D01*
X153960842Y-97661733D01*
X153964205Y-97669670D01*
X153967272Y-97677836D01*
X153970041Y-97686221D01*
X153972512Y-97694818D01*
X153974681Y-97703616D01*
X153978115Y-97721782D01*
X153980330Y-97740648D01*
X153990067Y-97850376D01*
X153990870Y-97858257D01*
X153991933Y-97865873D01*
X153993287Y-97873192D01*
X153994961Y-97880179D01*
X153996986Y-97886801D01*
X153999391Y-97893025D01*
X154002208Y-97898815D01*
X154003780Y-97901538D01*
X154005466Y-97904140D01*
X154007270Y-97906617D01*
X154009195Y-97908964D01*
X154011246Y-97911178D01*
X154013426Y-97913255D01*
X154015739Y-97915189D01*
X154018188Y-97916978D01*
X154020778Y-97918616D01*
X154023512Y-97920099D01*
X154026394Y-97921424D01*
X154029428Y-97922586D01*
X154032617Y-97923581D01*
X154035966Y-97924404D01*
X154039477Y-97925052D01*
X154043156Y-97925520D01*
X154047004Y-97925803D01*
X154051028Y-97925899D01*
X154055866Y-97925750D01*
X154060553Y-97925307D01*
X154065090Y-97924575D01*
X154069476Y-97923560D01*
X154073711Y-97922268D01*
X154077795Y-97920706D01*
X154081727Y-97918878D01*
X154085507Y-97916791D01*
X154089135Y-97914450D01*
X154092611Y-97911861D01*
X154095935Y-97909030D01*
X154099106Y-97905964D01*
X154102125Y-97902666D01*
X154104991Y-97899144D01*
X154107703Y-97895404D01*
X154110262Y-97891450D01*
X154112668Y-97887290D01*
X154114920Y-97882928D01*
X154117018Y-97878370D01*
X154118962Y-97873623D01*
X154120751Y-97868692D01*
X154122386Y-97863583D01*
X154123866Y-97858302D01*
X154125191Y-97852854D01*
X154126362Y-97847246D01*
X154127376Y-97841483D01*
X154128235Y-97835571D01*
X154128939Y-97829516D01*
X154129486Y-97823323D01*
X154129877Y-97816999D01*
X154130112Y-97810549D01*
X154130191Y-97803979D01*
X154129877Y-97788718D01*
X154128939Y-97774001D01*
X154127376Y-97759798D01*
X154125191Y-97746080D01*
X154122386Y-97732820D01*
X154118962Y-97719989D01*
X154114920Y-97707559D01*
X154110262Y-97695500D01*
X154104991Y-97683784D01*
X154099106Y-97672384D01*
X154092611Y-97661269D01*
X154085507Y-97650412D01*
X154077795Y-97639785D01*
X154069476Y-97629358D01*
X154060553Y-97619103D01*
X154051028Y-97608992D01*
X154136287Y-97522463D01*
X154136287Y-97522547D01*
G37*
G36*
X153954558Y-98121118D02*
G01*
X153976921Y-98121819D01*
X153997589Y-98123004D01*
X154016685Y-98124684D01*
X154034333Y-98126872D01*
X154050655Y-98129579D01*
X154065775Y-98132819D01*
X154079815Y-98136603D01*
X154092898Y-98140943D01*
X154105149Y-98145852D01*
X154116688Y-98151343D01*
X154127641Y-98157427D01*
X154138129Y-98164116D01*
X154148276Y-98171424D01*
X154158204Y-98179362D01*
X154168037Y-98187942D01*
X154175149Y-98194615D01*
X154182281Y-98201852D01*
X154189365Y-98209678D01*
X154196337Y-98218116D01*
X154203131Y-98227188D01*
X154209679Y-98236919D01*
X154215918Y-98247331D01*
X154221779Y-98258449D01*
X154224548Y-98264279D01*
X154227199Y-98270294D01*
X154229722Y-98276498D01*
X154232109Y-98282892D01*
X154234353Y-98289479D01*
X154236446Y-98296264D01*
X154238378Y-98303248D01*
X154240141Y-98310434D01*
X154241729Y-98317826D01*
X154243131Y-98325426D01*
X154244340Y-98333237D01*
X154245348Y-98341263D01*
X154246146Y-98349505D01*
X154246726Y-98357967D01*
X154247081Y-98366653D01*
X154247200Y-98375564D01*
X154246726Y-98393161D01*
X154245348Y-98409869D01*
X154243131Y-98425710D01*
X154240141Y-98440707D01*
X154236446Y-98454884D01*
X154232109Y-98468263D01*
X154227198Y-98480868D01*
X154221779Y-98492721D01*
X154215917Y-98503847D01*
X154209679Y-98514267D01*
X154203130Y-98524005D01*
X154196337Y-98533084D01*
X154189365Y-98541526D01*
X154182280Y-98549356D01*
X154175149Y-98556597D01*
X154168037Y-98563270D01*
X154158204Y-98571849D01*
X154148276Y-98579785D01*
X154138129Y-98587088D01*
X154127641Y-98593772D01*
X154116688Y-98599850D01*
X154105149Y-98605333D01*
X154092898Y-98610235D01*
X154079815Y-98614567D01*
X154065775Y-98618343D01*
X154050655Y-98621575D01*
X154034333Y-98624275D01*
X154016685Y-98626456D01*
X153997589Y-98628131D01*
X153976921Y-98629312D01*
X153954558Y-98630011D01*
X153930378Y-98630241D01*
X153906211Y-98630011D01*
X153883886Y-98629312D01*
X153863277Y-98628131D01*
X153844257Y-98626456D01*
X153826701Y-98624275D01*
X153810480Y-98621575D01*
X153795471Y-98618343D01*
X153781544Y-98614567D01*
X153768576Y-98610235D01*
X153756438Y-98605333D01*
X153745006Y-98599850D01*
X153734151Y-98593773D01*
X153723748Y-98587088D01*
X153713671Y-98579785D01*
X153703794Y-98571849D01*
X153693989Y-98563270D01*
X153686876Y-98556597D01*
X153679742Y-98549360D01*
X153672653Y-98541534D01*
X153665676Y-98533096D01*
X153658876Y-98524022D01*
X153652320Y-98514289D01*
X153646074Y-98503874D01*
X153640204Y-98492753D01*
X153637431Y-98486921D01*
X153634777Y-98480903D01*
X153632250Y-98474697D01*
X153629859Y-98468300D01*
X153627611Y-98461709D01*
X153625515Y-98454921D01*
X153623580Y-98447933D01*
X153621813Y-98440743D01*
X153620223Y-98433346D01*
X153618818Y-98425741D01*
X153617607Y-98417924D01*
X153616597Y-98409893D01*
X153615798Y-98401644D01*
X153615216Y-98393175D01*
X153614861Y-98384483D01*
X153614741Y-98375564D01*
X153739031Y-98375564D01*
X153739256Y-98383503D01*
X153739918Y-98391334D01*
X153740997Y-98399031D01*
X153742475Y-98406569D01*
X153744330Y-98413923D01*
X153746545Y-98421068D01*
X153749100Y-98427979D01*
X153751974Y-98434630D01*
X153755150Y-98440996D01*
X153758606Y-98447052D01*
X153762324Y-98452773D01*
X153766284Y-98458134D01*
X153770467Y-98463109D01*
X153774854Y-98467674D01*
X153779424Y-98471803D01*
X153784158Y-98475470D01*
X153790237Y-98479636D01*
X153796226Y-98483441D01*
X153802233Y-98486898D01*
X153808369Y-98490020D01*
X153814742Y-98492819D01*
X153821459Y-98495309D01*
X153828631Y-98497502D01*
X153836366Y-98499410D01*
X153844773Y-98501046D01*
X153853960Y-98502423D01*
X153864036Y-98503554D01*
X153875110Y-98504450D01*
X153887291Y-98505126D01*
X153900688Y-98505592D01*
X153915409Y-98505863D01*
X153931563Y-98505951D01*
X153962043Y-98505592D01*
X153975278Y-98505126D01*
X153987319Y-98504450D01*
X153998273Y-98503554D01*
X154008248Y-98502423D01*
X154017352Y-98501046D01*
X154025691Y-98499410D01*
X154033374Y-98497502D01*
X154040507Y-98495309D01*
X154047198Y-98492820D01*
X154053554Y-98490020D01*
X154059684Y-98486898D01*
X154065693Y-98483441D01*
X154071690Y-98479636D01*
X154077783Y-98475470D01*
X154080162Y-98473696D01*
X154082503Y-98471803D01*
X154087063Y-98467677D01*
X154091442Y-98463116D01*
X154095621Y-98458145D01*
X154099579Y-98452790D01*
X154103298Y-98447074D01*
X154106756Y-98441023D01*
X154109935Y-98434661D01*
X154112814Y-98428014D01*
X154115373Y-98421105D01*
X154117593Y-98413961D01*
X154119454Y-98406605D01*
X154120936Y-98399062D01*
X154122020Y-98391358D01*
X154122684Y-98383517D01*
X154122910Y-98375564D01*
X154122685Y-98367611D01*
X154122023Y-98359770D01*
X154120944Y-98352066D01*
X154119466Y-98344524D01*
X154117611Y-98337170D01*
X154115396Y-98330027D01*
X154112841Y-98323121D01*
X154109967Y-98316477D01*
X154106791Y-98310120D01*
X154103335Y-98304074D01*
X154099617Y-98298365D01*
X154095657Y-98293018D01*
X154091474Y-98288057D01*
X154087087Y-98283507D01*
X154082517Y-98279394D01*
X154077783Y-98275742D01*
X154071690Y-98271577D01*
X154065691Y-98267772D01*
X154059676Y-98264314D01*
X154053536Y-98261192D01*
X154047162Y-98258393D01*
X154040444Y-98255903D01*
X154033274Y-98253710D01*
X154025543Y-98251802D01*
X154017141Y-98250166D01*
X154007959Y-98248789D01*
X153997888Y-98247659D01*
X153986819Y-98246762D01*
X153974642Y-98246087D01*
X153961249Y-98245620D01*
X153946531Y-98245349D01*
X153930378Y-98245262D01*
X153899554Y-98245623D01*
X153886216Y-98246094D01*
X153874110Y-98246774D01*
X153863126Y-98247676D01*
X153853150Y-98248811D01*
X153844070Y-98250193D01*
X153835774Y-98251834D01*
X153828149Y-98253746D01*
X153821084Y-98255940D01*
X153814467Y-98258430D01*
X153808184Y-98261228D01*
X153802124Y-98264346D01*
X153796175Y-98267796D01*
X153790224Y-98271590D01*
X153784158Y-98275742D01*
X153781779Y-98277509D01*
X153779438Y-98279395D01*
X153774878Y-98283511D01*
X153770499Y-98288064D01*
X153766320Y-98293030D01*
X153762362Y-98298382D01*
X153758643Y-98304097D01*
X153755185Y-98310147D01*
X153752006Y-98316509D01*
X153749127Y-98323156D01*
X153746568Y-98330064D01*
X153744348Y-98337207D01*
X153742487Y-98344560D01*
X153741005Y-98352097D01*
X153739921Y-98359794D01*
X153739257Y-98367625D01*
X153739031Y-98375564D01*
X153614741Y-98375564D01*
X153615216Y-98357954D01*
X153616597Y-98341238D01*
X153618819Y-98325394D01*
X153621813Y-98310398D01*
X153625516Y-98296226D01*
X153629859Y-98282854D01*
X153634777Y-98270259D01*
X153640205Y-98258417D01*
X153646074Y-98247304D01*
X153652320Y-98236897D01*
X153658876Y-98227171D01*
X153665676Y-98218104D01*
X153672653Y-98209671D01*
X153679742Y-98201849D01*
X153686876Y-98194614D01*
X153693989Y-98187942D01*
X153703821Y-98179362D01*
X153713744Y-98171424D01*
X153723881Y-98164116D01*
X153734353Y-98157427D01*
X153745282Y-98151343D01*
X153756788Y-98145852D01*
X153768994Y-98140943D01*
X153782021Y-98136603D01*
X153795990Y-98132819D01*
X153811024Y-98129579D01*
X153827243Y-98126872D01*
X153844769Y-98124684D01*
X153863724Y-98123004D01*
X153884230Y-98121820D01*
X153906407Y-98121118D01*
X153930378Y-98120886D01*
X153954558Y-98121118D01*
G37*
G36*
X151098785Y-95544650D02*
G01*
X151589683Y-95544650D01*
X151590999Y-95544683D01*
X151592311Y-95544781D01*
X151593616Y-95544942D01*
X151594913Y-95545165D01*
X151596200Y-95545447D01*
X151597474Y-95545788D01*
X151598734Y-95546186D01*
X151599978Y-95546639D01*
X151601204Y-95547145D01*
X151602410Y-95547703D01*
X151604754Y-95548968D01*
X151606993Y-95550420D01*
X151609114Y-95552048D01*
X151611100Y-95553837D01*
X151612935Y-95555775D01*
X151614604Y-95557849D01*
X151615371Y-95558932D01*
X151616091Y-95560045D01*
X151616762Y-95561185D01*
X151617381Y-95562351D01*
X151617947Y-95563541D01*
X151618458Y-95564753D01*
X151618911Y-95565987D01*
X151619306Y-95567240D01*
X151619639Y-95568510D01*
X151619909Y-95569796D01*
X151722610Y-96121569D01*
X151722879Y-96122865D01*
X151723208Y-96124164D01*
X151724038Y-96126765D01*
X151725087Y-96129355D01*
X151726338Y-96131915D01*
X151727777Y-96134431D01*
X151729388Y-96136885D01*
X151731156Y-96139260D01*
X151733066Y-96141540D01*
X151735104Y-96143707D01*
X151737253Y-96145746D01*
X151739499Y-96147639D01*
X151741827Y-96149370D01*
X151744221Y-96150922D01*
X151746666Y-96152277D01*
X151749148Y-96153421D01*
X151751651Y-96154335D01*
X152181927Y-96326631D01*
X152184372Y-96327701D01*
X152186961Y-96328594D01*
X152189672Y-96329311D01*
X152192483Y-96329854D01*
X152195372Y-96330224D01*
X152198316Y-96330424D01*
X152201292Y-96330453D01*
X152204279Y-96330314D01*
X152207253Y-96330009D01*
X152210194Y-96329539D01*
X152213078Y-96328904D01*
X152215883Y-96328108D01*
X152218587Y-96327151D01*
X152221168Y-96326034D01*
X152223602Y-96324760D01*
X152225869Y-96323329D01*
X152682561Y-96009893D01*
X152683665Y-96009183D01*
X152684803Y-96008528D01*
X152685970Y-96007928D01*
X152687165Y-96007383D01*
X152688386Y-96006893D01*
X152689629Y-96006457D01*
X152692173Y-96005747D01*
X152694778Y-96005254D01*
X152697423Y-96004973D01*
X152700088Y-96004905D01*
X152702754Y-96005046D01*
X152705399Y-96005396D01*
X152708005Y-96005953D01*
X152710551Y-96006714D01*
X152713017Y-96007679D01*
X152715382Y-96008845D01*
X152716521Y-96009503D01*
X152717628Y-96010211D01*
X152718699Y-96010968D01*
X152719732Y-96011774D01*
X152720726Y-96012630D01*
X152721677Y-96013534D01*
X153133326Y-96425268D01*
X153134230Y-96426219D01*
X153135086Y-96427212D01*
X153135892Y-96428246D01*
X153136650Y-96429317D01*
X153137357Y-96430423D01*
X153138015Y-96431562D01*
X153138623Y-96432731D01*
X153139181Y-96433928D01*
X153139689Y-96435149D01*
X153140146Y-96436394D01*
X153140907Y-96438939D01*
X153141464Y-96441545D01*
X153141814Y-96444191D01*
X153141955Y-96446857D01*
X153141887Y-96449522D01*
X153141607Y-96452167D01*
X153141113Y-96454772D01*
X153140785Y-96456053D01*
X153140403Y-96457316D01*
X153139968Y-96458559D01*
X153139477Y-96459779D01*
X153138932Y-96460975D01*
X153138332Y-96462142D01*
X153137677Y-96463279D01*
X153136967Y-96464384D01*
X152829034Y-96913033D01*
X152827642Y-96915294D01*
X152826420Y-96917714D01*
X152825368Y-96920272D01*
X152824487Y-96922944D01*
X152823779Y-96925709D01*
X152823243Y-96928546D01*
X152822881Y-96931433D01*
X152822694Y-96934347D01*
X152822683Y-96937268D01*
X152822848Y-96940172D01*
X152823191Y-96943039D01*
X152823712Y-96945846D01*
X152824412Y-96948572D01*
X152825291Y-96951195D01*
X152826352Y-96953692D01*
X152827595Y-96956043D01*
X152933259Y-97153909D01*
X152933827Y-97155090D01*
X152934327Y-97156281D01*
X152934759Y-97157480D01*
X152935124Y-97158685D01*
X152935423Y-97159894D01*
X152935656Y-97161106D01*
X152935825Y-97162317D01*
X152935929Y-97163526D01*
X152935971Y-97164730D01*
X152935950Y-97165928D01*
X152935868Y-97167118D01*
X152935725Y-97168297D01*
X152935521Y-97169463D01*
X152935259Y-97170614D01*
X152934938Y-97171749D01*
X152934560Y-97172864D01*
X152934125Y-97173958D01*
X152933634Y-97175030D01*
X152933088Y-97176076D01*
X152932487Y-97177094D01*
X152931833Y-97178083D01*
X152931125Y-97179041D01*
X152930366Y-97179965D01*
X152929556Y-97180853D01*
X152928695Y-97181704D01*
X152927784Y-97182514D01*
X152926824Y-97183282D01*
X152925816Y-97184007D01*
X152924761Y-97184685D01*
X152923660Y-97185315D01*
X152922513Y-97185894D01*
X152921320Y-97186421D01*
X151935547Y-97594345D01*
X151934322Y-97594821D01*
X151933078Y-97595235D01*
X151931818Y-97595587D01*
X151930544Y-97595878D01*
X151929257Y-97596108D01*
X151927961Y-97596279D01*
X151925351Y-97596445D01*
X151922731Y-97596382D01*
X151920121Y-97596097D01*
X151917539Y-97595596D01*
X151915004Y-97594885D01*
X151912537Y-97593971D01*
X151910154Y-97592859D01*
X151907876Y-97591557D01*
X151905722Y-97590071D01*
X151903709Y-97588406D01*
X151902762Y-97587509D01*
X151901858Y-97586570D01*
X151900999Y-97585589D01*
X151900188Y-97584568D01*
X151899426Y-97583507D01*
X151898717Y-97582407D01*
X151868406Y-97532877D01*
X151866133Y-97529305D01*
X151863543Y-97525494D01*
X151860691Y-97521514D01*
X151857632Y-97517436D01*
X151854423Y-97513330D01*
X151851118Y-97509267D01*
X151847774Y-97505317D01*
X151844445Y-97501550D01*
X151822008Y-97468774D01*
X151797648Y-97437493D01*
X151771449Y-97407795D01*
X151743496Y-97379763D01*
X151713875Y-97353483D01*
X151682669Y-97329041D01*
X151649964Y-97306521D01*
X151615845Y-97286010D01*
X151580397Y-97267592D01*
X151562200Y-97259195D01*
X151543703Y-97251354D01*
X151524916Y-97244078D01*
X151505850Y-97237379D01*
X151486515Y-97231267D01*
X151466922Y-97225754D01*
X151447081Y-97220849D01*
X151427004Y-97216564D01*
X151406700Y-97212908D01*
X151386180Y-97209893D01*
X151365455Y-97207530D01*
X151344536Y-97205829D01*
X151323432Y-97204800D01*
X151302156Y-97204455D01*
X151269022Y-97205293D01*
X151236324Y-97207779D01*
X151204102Y-97211874D01*
X151172396Y-97217537D01*
X151141247Y-97224727D01*
X151110694Y-97233403D01*
X151080779Y-97243526D01*
X151051542Y-97255055D01*
X151023024Y-97267949D01*
X150995264Y-97282169D01*
X150968303Y-97297672D01*
X150942182Y-97314420D01*
X150916941Y-97332371D01*
X150892621Y-97351484D01*
X150869261Y-97371721D01*
X150846903Y-97393039D01*
X150825586Y-97415399D01*
X150805352Y-97438760D01*
X150786241Y-97463082D01*
X150768292Y-97488324D01*
X150751548Y-97514445D01*
X150736047Y-97541406D01*
X150721830Y-97569165D01*
X150708938Y-97597683D01*
X150697412Y-97626918D01*
X150687291Y-97656830D01*
X150678617Y-97687380D01*
X150671428Y-97718525D01*
X150665767Y-97750226D01*
X150661674Y-97782443D01*
X150659188Y-97815134D01*
X150658350Y-97848260D01*
X150659188Y-97881386D01*
X150661675Y-97914078D01*
X150665769Y-97946294D01*
X150671432Y-97977996D01*
X150678622Y-98009141D01*
X150687299Y-98039690D01*
X150697422Y-98069603D01*
X150708950Y-98098838D01*
X150721845Y-98127356D01*
X150736064Y-98155115D01*
X150751567Y-98182075D01*
X150768315Y-98208197D01*
X150786266Y-98233439D01*
X150805380Y-98257760D01*
X150825616Y-98281121D01*
X150846935Y-98303481D01*
X150869295Y-98324800D01*
X150892656Y-98345036D01*
X150916977Y-98364150D01*
X150942219Y-98382101D01*
X150968341Y-98398849D01*
X150995301Y-98414352D01*
X151023060Y-98428571D01*
X151051578Y-98441466D01*
X151080813Y-98452994D01*
X151110726Y-98463117D01*
X151141275Y-98471794D01*
X151172420Y-98478984D01*
X151204122Y-98484647D01*
X151236338Y-98488741D01*
X151269030Y-98491228D01*
X151302156Y-98492066D01*
X151344537Y-98490692D01*
X151386183Y-98486627D01*
X151427011Y-98479957D01*
X151466934Y-98470767D01*
X151505868Y-98459142D01*
X151543726Y-98445167D01*
X151580424Y-98428928D01*
X151615877Y-98410511D01*
X151650000Y-98390000D01*
X151682707Y-98367480D01*
X151713912Y-98343038D01*
X151743532Y-98316758D01*
X151771480Y-98288726D01*
X151797672Y-98259028D01*
X151822022Y-98227747D01*
X151844445Y-98194971D01*
X151847774Y-98191232D01*
X151851118Y-98187303D01*
X151854423Y-98183255D01*
X151857632Y-98179159D01*
X151860691Y-98175087D01*
X151863543Y-98171110D01*
X151866133Y-98167300D01*
X151868406Y-98163728D01*
X151898717Y-98114198D01*
X151899434Y-98113098D01*
X151900202Y-98112037D01*
X151901019Y-98111016D01*
X151901883Y-98110036D01*
X151902791Y-98109096D01*
X151903741Y-98108199D01*
X151904730Y-98107345D01*
X151905757Y-98106535D01*
X151906819Y-98105769D01*
X151907914Y-98105048D01*
X151909038Y-98104374D01*
X151910191Y-98103746D01*
X151911370Y-98103166D01*
X151912572Y-98102635D01*
X151913794Y-98102153D01*
X151915036Y-98101721D01*
X151916294Y-98101339D01*
X151917566Y-98101010D01*
X151918850Y-98100733D01*
X151920143Y-98100509D01*
X151921443Y-98100339D01*
X151922748Y-98100224D01*
X151924055Y-98100164D01*
X151925363Y-98100161D01*
X151926668Y-98100215D01*
X151927969Y-98100327D01*
X151929262Y-98100498D01*
X151930547Y-98100728D01*
X151931820Y-98101019D01*
X151933079Y-98101370D01*
X151934322Y-98101784D01*
X151935547Y-98102260D01*
X152921320Y-98510184D01*
X152922513Y-98510711D01*
X152923660Y-98511291D01*
X152924761Y-98511921D01*
X152925816Y-98512599D01*
X152926824Y-98513323D01*
X152927784Y-98514092D01*
X152928695Y-98514902D01*
X152929556Y-98515753D01*
X152930366Y-98516641D01*
X152931125Y-98517565D01*
X152931833Y-98518522D01*
X152932487Y-98519511D01*
X152933088Y-98520530D01*
X152933634Y-98521576D01*
X152934125Y-98522647D01*
X152934560Y-98523742D01*
X152934938Y-98524857D01*
X152935259Y-98525992D01*
X152935521Y-98527143D01*
X152935725Y-98528309D01*
X152935868Y-98529488D01*
X152935950Y-98530678D01*
X152935971Y-98531876D01*
X152935929Y-98533080D01*
X152935825Y-98534289D01*
X152935656Y-98535500D01*
X152935423Y-98536711D01*
X152935124Y-98537920D01*
X152934759Y-98539126D01*
X152934327Y-98540325D01*
X152933827Y-98541516D01*
X152933259Y-98542696D01*
X152827595Y-98740562D01*
X152826366Y-98742913D01*
X152825316Y-98745411D01*
X152824443Y-98748033D01*
X152823747Y-98750759D01*
X152823228Y-98753567D01*
X152822886Y-98756433D01*
X152822718Y-98759338D01*
X152822726Y-98762258D01*
X152822909Y-98765172D01*
X152823265Y-98768059D01*
X152823795Y-98770896D01*
X152824499Y-98773662D01*
X152825375Y-98776334D01*
X152826423Y-98778891D01*
X152827643Y-98781311D01*
X152829034Y-98783573D01*
X153136967Y-99232222D01*
X153137677Y-99233326D01*
X153138332Y-99234464D01*
X153138932Y-99235631D01*
X153139477Y-99236826D01*
X153139968Y-99238047D01*
X153140403Y-99239289D01*
X153141113Y-99241833D01*
X153141606Y-99244436D01*
X153141887Y-99247079D01*
X153141955Y-99249742D01*
X153141814Y-99252404D01*
X153141464Y-99255045D01*
X153140907Y-99257646D01*
X153140146Y-99260185D01*
X153139181Y-99262642D01*
X153138015Y-99264998D01*
X153137357Y-99266131D01*
X153136649Y-99267232D01*
X153135892Y-99268297D01*
X153135086Y-99269324D01*
X153134230Y-99270310D01*
X153133326Y-99271253D01*
X152721677Y-99682987D01*
X152720725Y-99683891D01*
X152719731Y-99684748D01*
X152718697Y-99685555D01*
X152717624Y-99686314D01*
X152716516Y-99687023D01*
X152715375Y-99687683D01*
X152714204Y-99688294D01*
X152713005Y-99688854D01*
X152711781Y-99689364D01*
X152710534Y-99689824D01*
X152707983Y-99690590D01*
X152705372Y-99691152D01*
X152702722Y-99691506D01*
X152700053Y-99691651D01*
X152697385Y-99691585D01*
X152694740Y-99691305D01*
X152693432Y-99691084D01*
X152692137Y-99690809D01*
X152690858Y-99690480D01*
X152689597Y-99690096D01*
X152688357Y-99689657D01*
X152687141Y-99689162D01*
X152685951Y-99688613D01*
X152684789Y-99688007D01*
X152683658Y-99687345D01*
X152682561Y-99686628D01*
X152225869Y-99373192D01*
X152223602Y-99371790D01*
X152221168Y-99370539D01*
X152218587Y-99369441D01*
X152215883Y-99368498D01*
X152213078Y-99367711D01*
X152210194Y-99367084D01*
X152207253Y-99366617D01*
X152204279Y-99366312D01*
X152201292Y-99366173D01*
X152198316Y-99366200D01*
X152195372Y-99366396D01*
X152192483Y-99366762D01*
X152189672Y-99367301D01*
X152186961Y-99368015D01*
X152184372Y-99368905D01*
X152181927Y-99369974D01*
X151751651Y-99542271D01*
X151750398Y-99542698D01*
X151749148Y-99543184D01*
X151746666Y-99544324D01*
X151744221Y-99545676D01*
X151741827Y-99547223D01*
X151739499Y-99548949D01*
X151737253Y-99550837D01*
X151735104Y-99552871D01*
X151733066Y-99555034D01*
X151731156Y-99557310D01*
X151729388Y-99559683D01*
X151727777Y-99562137D01*
X151726338Y-99564654D01*
X151725087Y-99567219D01*
X151724038Y-99569815D01*
X151723595Y-99571120D01*
X151723208Y-99572427D01*
X151722879Y-99573733D01*
X151722610Y-99575036D01*
X151619909Y-100126809D01*
X151619639Y-100128095D01*
X151619306Y-100129364D01*
X151618911Y-100130616D01*
X151618458Y-100131848D01*
X151617947Y-100133059D01*
X151617381Y-100134246D01*
X151616762Y-100135410D01*
X151616091Y-100136547D01*
X151615371Y-100137656D01*
X151614604Y-100138737D01*
X151613791Y-100139786D01*
X151612935Y-100140803D01*
X151612037Y-100141786D01*
X151611100Y-100142733D01*
X151610125Y-100143644D01*
X151609114Y-100144515D01*
X151608070Y-100145346D01*
X151606994Y-100146134D01*
X151605888Y-100146880D01*
X151604754Y-100147579D01*
X151603594Y-100148233D01*
X151602410Y-100148837D01*
X151601204Y-100149392D01*
X151599978Y-100149895D01*
X151598734Y-100150345D01*
X151597474Y-100150740D01*
X151596200Y-100151079D01*
X151594913Y-100151359D01*
X151593616Y-100151580D01*
X151592311Y-100151740D01*
X151590999Y-100151838D01*
X151589683Y-100151870D01*
X151007515Y-100151870D01*
X151006199Y-100151845D01*
X151004888Y-100151755D01*
X151003584Y-100151602D01*
X151002289Y-100151387D01*
X151001004Y-100151113D01*
X150999732Y-100150779D01*
X150998474Y-100150389D01*
X150997232Y-100149944D01*
X150996009Y-100149445D01*
X150994806Y-100148895D01*
X150992467Y-100147644D01*
X150990232Y-100146204D01*
X150988116Y-100144589D01*
X150986134Y-100142811D01*
X150984300Y-100140884D01*
X150982632Y-100138819D01*
X150981864Y-100137739D01*
X150981143Y-100136630D01*
X150980470Y-100135494D01*
X150979849Y-100134331D01*
X150979280Y-100133143D01*
X150978765Y-100131933D01*
X150978307Y-100130701D01*
X150977907Y-100129449D01*
X150977567Y-100128180D01*
X150977289Y-100126894D01*
X150977289Y-100126470D01*
X150872133Y-99560813D01*
X150871537Y-99558213D01*
X150870712Y-99555601D01*
X150869673Y-99552993D01*
X150868433Y-99550408D01*
X150867008Y-99547862D01*
X150865414Y-99545372D01*
X150863663Y-99542955D01*
X150861772Y-99540630D01*
X150859755Y-99538413D01*
X150857627Y-99536321D01*
X150855402Y-99534372D01*
X150853095Y-99532583D01*
X150850722Y-99530971D01*
X150848296Y-99529553D01*
X150845833Y-99528346D01*
X150843347Y-99527369D01*
X150438809Y-99353972D01*
X150436381Y-99352854D01*
X150433810Y-99351915D01*
X150431118Y-99351151D01*
X150428327Y-99350563D01*
X150425458Y-99350148D01*
X150422534Y-99349907D01*
X150419576Y-99349838D01*
X150416606Y-99349940D01*
X150413646Y-99350211D01*
X150410717Y-99350650D01*
X150407843Y-99351258D01*
X150405043Y-99352031D01*
X150402341Y-99352970D01*
X150399758Y-99354072D01*
X150397316Y-99355338D01*
X150395037Y-99356766D01*
X149914638Y-99686373D01*
X149913534Y-99687084D01*
X149912397Y-99687740D01*
X149911230Y-99688341D01*
X149910037Y-99688887D01*
X149908818Y-99689379D01*
X149907577Y-99689817D01*
X149905038Y-99690531D01*
X149902438Y-99691030D01*
X149899798Y-99691316D01*
X149897138Y-99691389D01*
X149894477Y-99691252D01*
X149891834Y-99690906D01*
X149889231Y-99690351D01*
X149886685Y-99689590D01*
X149884218Y-99688623D01*
X149881848Y-99687453D01*
X149880706Y-99686792D01*
X149879595Y-99686080D01*
X149878519Y-99685318D01*
X149877480Y-99684506D01*
X149876480Y-99683644D01*
X149875522Y-99682733D01*
X149463873Y-99271083D01*
X149462968Y-99270132D01*
X149462112Y-99269139D01*
X149461304Y-99268105D01*
X149460546Y-99267034D01*
X149459836Y-99265928D01*
X149459176Y-99264789D01*
X149458566Y-99263621D01*
X149458006Y-99262425D01*
X149457495Y-99261204D01*
X149457036Y-99259960D01*
X149456269Y-99257416D01*
X149455707Y-99254813D01*
X149455353Y-99252171D01*
X149455208Y-99249510D01*
X149455275Y-99246850D01*
X149455555Y-99244212D01*
X149455775Y-99242907D01*
X149456050Y-99241615D01*
X149456380Y-99240339D01*
X149456764Y-99239081D01*
X149457203Y-99237844D01*
X149457697Y-99236629D01*
X149458247Y-99235440D01*
X149458853Y-99234279D01*
X149459514Y-99233149D01*
X149460232Y-99232052D01*
X149795681Y-98743271D01*
X149797097Y-98741004D01*
X149798358Y-98738567D01*
X149799463Y-98735983D01*
X149800409Y-98733274D01*
X149801196Y-98730464D01*
X149801822Y-98727574D01*
X149802284Y-98724629D01*
X149802582Y-98721650D01*
X149802712Y-98718660D01*
X149802675Y-98715681D01*
X149802467Y-98712737D01*
X149802087Y-98709851D01*
X149801533Y-98707044D01*
X149800805Y-98704340D01*
X149799899Y-98701761D01*
X149798814Y-98699329D01*
X149638286Y-98307238D01*
X149637843Y-98305993D01*
X149637340Y-98304751D01*
X149636781Y-98303515D01*
X149636166Y-98302285D01*
X149634779Y-98299855D01*
X149633197Y-98297476D01*
X149631437Y-98295163D01*
X149629516Y-98292931D01*
X149627450Y-98290795D01*
X149625258Y-98288770D01*
X149622955Y-98286871D01*
X149620560Y-98285113D01*
X149618088Y-98283511D01*
X149615557Y-98282080D01*
X149612984Y-98280835D01*
X149610386Y-98279791D01*
X149609082Y-98279350D01*
X149607779Y-98278964D01*
X149606478Y-98278635D01*
X149605181Y-98278367D01*
X149020135Y-98169485D01*
X149018849Y-98169215D01*
X149017579Y-98168882D01*
X149016327Y-98168488D01*
X149015096Y-98168034D01*
X149013885Y-98167524D01*
X149012697Y-98166958D01*
X149011534Y-98166339D01*
X149010397Y-98165669D01*
X149009287Y-98164950D01*
X149008207Y-98164183D01*
X149007157Y-98163371D01*
X149006140Y-98162516D01*
X149005157Y-98161619D01*
X149004210Y-98160683D01*
X149003300Y-98159710D01*
X149002429Y-98158701D01*
X149001598Y-98157659D01*
X149000809Y-98156585D01*
X149000064Y-98155481D01*
X148999364Y-98154350D01*
X148998711Y-98153194D01*
X148998106Y-98152014D01*
X148997552Y-98150812D01*
X148997048Y-98149590D01*
X148996599Y-98148351D01*
X148996204Y-98147096D01*
X148995865Y-98145827D01*
X148995584Y-98144546D01*
X148995363Y-98143255D01*
X148995203Y-98141957D01*
X148995106Y-98140652D01*
X148995073Y-98139344D01*
X148995073Y-97633968D01*
X149132741Y-97633968D01*
X149132741Y-98061281D01*
X149641672Y-98155938D01*
X149648281Y-98157416D01*
X149654592Y-98159053D01*
X149660621Y-98160840D01*
X149666383Y-98162772D01*
X149671895Y-98164842D01*
X149677172Y-98167044D01*
X149682230Y-98169369D01*
X149687085Y-98171813D01*
X149691753Y-98174368D01*
X149696248Y-98177027D01*
X149700588Y-98179784D01*
X149704787Y-98182632D01*
X149708862Y-98185564D01*
X149712828Y-98188574D01*
X149720497Y-98194800D01*
X149723890Y-98197913D01*
X149727238Y-98201100D01*
X149730539Y-98204375D01*
X149733788Y-98207750D01*
X149736981Y-98211239D01*
X149740114Y-98214855D01*
X149743183Y-98218610D01*
X149746183Y-98222518D01*
X149749110Y-98226591D01*
X149751962Y-98230844D01*
X149754732Y-98235288D01*
X149757418Y-98239937D01*
X149760015Y-98244803D01*
X149762520Y-98249901D01*
X149764927Y-98255242D01*
X149767233Y-98260840D01*
X149927168Y-98651577D01*
X149929030Y-98656123D01*
X149930715Y-98660591D01*
X149932232Y-98664984D01*
X149933590Y-98669306D01*
X149934795Y-98673562D01*
X149935857Y-98677755D01*
X149936783Y-98681891D01*
X149937582Y-98685972D01*
X149938262Y-98690004D01*
X149938831Y-98693991D01*
X149939670Y-98701845D01*
X149940163Y-98709568D01*
X149940376Y-98717193D01*
X149939872Y-98728617D01*
X149939425Y-98734316D01*
X149938820Y-98740020D01*
X149938037Y-98745739D01*
X149937054Y-98751485D01*
X149935851Y-98757266D01*
X149934407Y-98763093D01*
X149932701Y-98768977D01*
X149930712Y-98774928D01*
X149928420Y-98780956D01*
X149925803Y-98787071D01*
X149922841Y-98793284D01*
X149919513Y-98799605D01*
X149915797Y-98806044D01*
X149911674Y-98812612D01*
X149619913Y-99237639D01*
X149922173Y-99539814D01*
X150338648Y-99254064D01*
X150345031Y-99249968D01*
X150351325Y-99246271D01*
X150357535Y-99242953D01*
X150363669Y-99239995D01*
X150369731Y-99237376D01*
X150375729Y-99235078D01*
X150381668Y-99233080D01*
X150387554Y-99231363D01*
X150393393Y-99229907D01*
X150399192Y-99228691D01*
X150404957Y-99227698D01*
X150410693Y-99226906D01*
X150416407Y-99226296D01*
X150422104Y-99225849D01*
X150433475Y-99225362D01*
X150441563Y-99225577D01*
X150445630Y-99225809D01*
X150449715Y-99226132D01*
X150453822Y-99226553D01*
X150457954Y-99227080D01*
X150462114Y-99227717D01*
X150466304Y-99228474D01*
X150470529Y-99229355D01*
X150474790Y-99230368D01*
X150479090Y-99231519D01*
X150483434Y-99232816D01*
X150487822Y-99234264D01*
X150492260Y-99235870D01*
X150496749Y-99237642D01*
X150501293Y-99239586D01*
X150905830Y-99412983D01*
X150911182Y-99415316D01*
X150916292Y-99417741D01*
X150921173Y-99420254D01*
X150925837Y-99422852D01*
X150930295Y-99425532D01*
X150934561Y-99428289D01*
X150938647Y-99431120D01*
X150942565Y-99434023D01*
X150946327Y-99436993D01*
X150949945Y-99440027D01*
X150953432Y-99443122D01*
X150956801Y-99446273D01*
X150960062Y-99449478D01*
X150963230Y-99452734D01*
X150969330Y-99459380D01*
X150972430Y-99463174D01*
X150975468Y-99467041D01*
X150978439Y-99470996D01*
X150981334Y-99475056D01*
X150984147Y-99479235D01*
X150986871Y-99483549D01*
X150989498Y-99488013D01*
X150992021Y-99492644D01*
X150994433Y-99497456D01*
X150996726Y-99502465D01*
X150998894Y-99507687D01*
X151000929Y-99513137D01*
X151002825Y-99518831D01*
X151004573Y-99524783D01*
X151006167Y-99531010D01*
X151007600Y-99537527D01*
X151098616Y-100027070D01*
X151525929Y-100027070D01*
X151526014Y-100027580D01*
X151614491Y-99552007D01*
X151615916Y-99545391D01*
X151617520Y-99539059D01*
X151619294Y-99532996D01*
X151621230Y-99527189D01*
X151623319Y-99521625D01*
X151625555Y-99516288D01*
X151627927Y-99511166D01*
X151630429Y-99506245D01*
X151633052Y-99501510D01*
X151635788Y-99496947D01*
X151638629Y-99492544D01*
X151641566Y-99488285D01*
X151644591Y-99484157D01*
X151647696Y-99480146D01*
X151654115Y-99472421D01*
X151657292Y-99469016D01*
X151660544Y-99465663D01*
X151663884Y-99462366D01*
X151667323Y-99459129D01*
X151670873Y-99455956D01*
X151674546Y-99452851D01*
X151678354Y-99449818D01*
X151682309Y-99446862D01*
X151686422Y-99443985D01*
X151690707Y-99441194D01*
X151695173Y-99438490D01*
X151699835Y-99435880D01*
X151704702Y-99433366D01*
X151709788Y-99430953D01*
X151715104Y-99428645D01*
X151720663Y-99426446D01*
X152147890Y-99255420D01*
X152152591Y-99253471D01*
X152157201Y-99251716D01*
X152161725Y-99250143D01*
X152166165Y-99248744D01*
X152170525Y-99247509D01*
X152174807Y-99246427D01*
X152179016Y-99245490D01*
X152183154Y-99244688D01*
X152187225Y-99244011D01*
X152191231Y-99243449D01*
X152199064Y-99242632D01*
X152206678Y-99242161D01*
X152214100Y-99241958D01*
X152225615Y-99242469D01*
X152231355Y-99242924D01*
X152237098Y-99243540D01*
X152242852Y-99244336D01*
X152248628Y-99245333D01*
X152254436Y-99246551D01*
X152260286Y-99248011D01*
X152266187Y-99249733D01*
X152272150Y-99251737D01*
X152278184Y-99254044D01*
X152284299Y-99256674D01*
X152290506Y-99259647D01*
X152296814Y-99262983D01*
X152303233Y-99266704D01*
X152309773Y-99270829D01*
X152702626Y-99540407D01*
X153004802Y-99238232D01*
X152740642Y-98853422D01*
X152736661Y-98847145D01*
X152733058Y-98840947D01*
X152729815Y-98834825D01*
X152726915Y-98828775D01*
X152724340Y-98822792D01*
X152722074Y-98816874D01*
X152720098Y-98811016D01*
X152718395Y-98805215D01*
X152716949Y-98799466D01*
X152715741Y-98793766D01*
X152714754Y-98788111D01*
X152713972Y-98782497D01*
X152713375Y-98776920D01*
X152712948Y-98771376D01*
X152712673Y-98765862D01*
X152712532Y-98760373D01*
X152712627Y-98755744D01*
X152712824Y-98751094D01*
X152713133Y-98746420D01*
X152713564Y-98741719D01*
X152714128Y-98736987D01*
X152714836Y-98732223D01*
X152715698Y-98727421D01*
X152716723Y-98722580D01*
X152717923Y-98717697D01*
X152719309Y-98712767D01*
X152720890Y-98707789D01*
X152722676Y-98702759D01*
X152724679Y-98697674D01*
X152726909Y-98692530D01*
X152729376Y-98687326D01*
X152732090Y-98682057D01*
X152785430Y-98582150D01*
X151975170Y-98246870D01*
X151972975Y-98249860D01*
X151970766Y-98252801D01*
X151968540Y-98255700D01*
X151966291Y-98258565D01*
X151964014Y-98261402D01*
X151961704Y-98264218D01*
X151959357Y-98267020D01*
X151956967Y-98269815D01*
X151930176Y-98307996D01*
X151901145Y-98344430D01*
X151869975Y-98379020D01*
X151836767Y-98411666D01*
X151801619Y-98442269D01*
X151764633Y-98470730D01*
X151725909Y-98496950D01*
X151685547Y-98520830D01*
X151643647Y-98542272D01*
X151600309Y-98561175D01*
X151555633Y-98577442D01*
X151532825Y-98584556D01*
X151509721Y-98590974D01*
X151486332Y-98596683D01*
X151462671Y-98601670D01*
X151438751Y-98605925D01*
X151414584Y-98609433D01*
X151390184Y-98612184D01*
X151365561Y-98614164D01*
X151340730Y-98615361D01*
X151315702Y-98615763D01*
X151276187Y-98614764D01*
X151237192Y-98611800D01*
X151198765Y-98606918D01*
X151160954Y-98600168D01*
X151123808Y-98591596D01*
X151087374Y-98581253D01*
X151051701Y-98569185D01*
X151016836Y-98555440D01*
X150982829Y-98540068D01*
X150949727Y-98523116D01*
X150917578Y-98504633D01*
X150886431Y-98484666D01*
X150856333Y-98463264D01*
X150827333Y-98440475D01*
X150799479Y-98416348D01*
X150772819Y-98390930D01*
X150747401Y-98364270D01*
X150723274Y-98336416D01*
X150700485Y-98307417D01*
X150679083Y-98277319D01*
X150659115Y-98246173D01*
X150640631Y-98214025D01*
X150623678Y-98180924D01*
X150608304Y-98146918D01*
X150594557Y-98112056D01*
X150582486Y-98076386D01*
X150572139Y-98039956D01*
X150563564Y-98002814D01*
X150556809Y-97965008D01*
X150551921Y-97926586D01*
X150548951Y-97887598D01*
X150547944Y-97848090D01*
X150548943Y-97808583D01*
X150551908Y-97769595D01*
X150556789Y-97731175D01*
X150563540Y-97693370D01*
X150572111Y-97656229D01*
X150582455Y-97619801D01*
X150594523Y-97584132D01*
X150608268Y-97549272D01*
X150623641Y-97515269D01*
X150640594Y-97482170D01*
X150659078Y-97450024D01*
X150679046Y-97418879D01*
X150700449Y-97388783D01*
X150723239Y-97359784D01*
X150747368Y-97331931D01*
X150772787Y-97305271D01*
X150799449Y-97279853D01*
X150827306Y-97255725D01*
X150856308Y-97232935D01*
X150886409Y-97211531D01*
X150917559Y-97191561D01*
X150949710Y-97173074D01*
X150982815Y-97156118D01*
X151016824Y-97140740D01*
X151051691Y-97126989D01*
X151087366Y-97114913D01*
X151123802Y-97104561D01*
X151160950Y-97095980D01*
X151198763Y-97089218D01*
X151237191Y-97084325D01*
X151276186Y-97081347D01*
X151315702Y-97080333D01*
X151365574Y-97081933D01*
X151414605Y-97086666D01*
X151462695Y-97094433D01*
X151509744Y-97105135D01*
X151555654Y-97118673D01*
X151600324Y-97134947D01*
X151643654Y-97153858D01*
X151685547Y-97175308D01*
X151725901Y-97199196D01*
X151764619Y-97225424D01*
X151801599Y-97253892D01*
X151836743Y-97284501D01*
X151869951Y-97317153D01*
X151901124Y-97351746D01*
X151930163Y-97388184D01*
X151956967Y-97426366D01*
X151961657Y-97431951D01*
X151963954Y-97434757D01*
X151966227Y-97437584D01*
X151968480Y-97440443D01*
X151970719Y-97443344D01*
X151972947Y-97446296D01*
X151975170Y-97449310D01*
X152785430Y-97114030D01*
X152732090Y-97014123D01*
X152729334Y-97008776D01*
X152726836Y-97003497D01*
X152724585Y-96998283D01*
X152722569Y-96993133D01*
X152720777Y-96988045D01*
X152719197Y-96983017D01*
X152717818Y-96978047D01*
X152716628Y-96973134D01*
X152715616Y-96968276D01*
X152714769Y-96963470D01*
X152714077Y-96958715D01*
X152713529Y-96954009D01*
X152713111Y-96949350D01*
X152712814Y-96944736D01*
X152712533Y-96935637D01*
X152712688Y-96930077D01*
X152712977Y-96924506D01*
X152713415Y-96918918D01*
X152714022Y-96913309D01*
X152714814Y-96907673D01*
X152715810Y-96902005D01*
X152717026Y-96896300D01*
X152718480Y-96890552D01*
X152720191Y-96884757D01*
X152722175Y-96878909D01*
X152724450Y-96873003D01*
X152727034Y-96867034D01*
X152729945Y-96860996D01*
X152733199Y-96854884D01*
X152736816Y-96848694D01*
X152740811Y-96842419D01*
X153004802Y-96457864D01*
X152702626Y-96155604D01*
X152309688Y-96425182D01*
X152303165Y-96429279D01*
X152296764Y-96432979D01*
X152290475Y-96436301D01*
X152284287Y-96439266D01*
X152278190Y-96441892D01*
X152272173Y-96444199D01*
X152266226Y-96446208D01*
X152260338Y-96447936D01*
X152254499Y-96449405D01*
X152248698Y-96450633D01*
X152242924Y-96451641D01*
X152237167Y-96452447D01*
X152231417Y-96453072D01*
X152225663Y-96453535D01*
X152214100Y-96454053D01*
X152206511Y-96453840D01*
X152198780Y-96453344D01*
X152194854Y-96452970D01*
X152190882Y-96452500D01*
X152186864Y-96451925D01*
X152182794Y-96451238D01*
X152178671Y-96450430D01*
X152174491Y-96449493D01*
X152170252Y-96448417D01*
X152165951Y-96447195D01*
X152161584Y-96445819D01*
X152157148Y-96444279D01*
X152152641Y-96442568D01*
X152148060Y-96440676D01*
X151719900Y-96269311D01*
X151714376Y-96267096D01*
X151709097Y-96264773D01*
X151704051Y-96262345D01*
X151699226Y-96259819D01*
X151694609Y-96257198D01*
X151690188Y-96254486D01*
X151685951Y-96251689D01*
X151681885Y-96248811D01*
X151677978Y-96245856D01*
X151674217Y-96242830D01*
X151670590Y-96239737D01*
X151667084Y-96236581D01*
X151663688Y-96233366D01*
X151660388Y-96230099D01*
X151654030Y-96223421D01*
X151650804Y-96219590D01*
X151647643Y-96215674D01*
X151644552Y-96211659D01*
X151641541Y-96207529D01*
X151638618Y-96203270D01*
X151635789Y-96198866D01*
X151633064Y-96194303D01*
X151630450Y-96189565D01*
X151627955Y-96184638D01*
X151625587Y-96179506D01*
X151623354Y-96174155D01*
X151621264Y-96168569D01*
X151619324Y-96162734D01*
X151617544Y-96156634D01*
X151615930Y-96150255D01*
X151614490Y-96143581D01*
X151526098Y-95668347D01*
X151098785Y-95668347D01*
X151007600Y-96157720D01*
X151006182Y-96164225D01*
X151004601Y-96170448D01*
X151002863Y-96176401D01*
X151000977Y-96182102D01*
X150998949Y-96187563D01*
X150996786Y-96192799D01*
X150994495Y-96197826D01*
X150992084Y-96202657D01*
X150989560Y-96207308D01*
X150986931Y-96211793D01*
X150984202Y-96216126D01*
X150981382Y-96220323D01*
X150978478Y-96224398D01*
X150975496Y-96228366D01*
X150969330Y-96236037D01*
X150966315Y-96239382D01*
X150963230Y-96242684D01*
X150960062Y-96245939D01*
X150956801Y-96249143D01*
X150953432Y-96252293D01*
X150949945Y-96255386D01*
X150946327Y-96258417D01*
X150942565Y-96261384D01*
X150938647Y-96264282D01*
X150934561Y-96267108D01*
X150930295Y-96269858D01*
X150925837Y-96272529D01*
X150921173Y-96275118D01*
X150916292Y-96277620D01*
X150911182Y-96280031D01*
X150905830Y-96282349D01*
X150503579Y-96454731D01*
X150498849Y-96456810D01*
X150494181Y-96458702D01*
X150489572Y-96460414D01*
X150485018Y-96461955D01*
X150480518Y-96463332D01*
X150476067Y-96464552D01*
X150471661Y-96465623D01*
X150467299Y-96466552D01*
X150462977Y-96467348D01*
X150458691Y-96468017D01*
X150454438Y-96468567D01*
X150450215Y-96469006D01*
X150441847Y-96469581D01*
X150433559Y-96469802D01*
X150427914Y-96469621D01*
X150422277Y-96469319D01*
X150416637Y-96468878D01*
X150410987Y-96468277D01*
X150405317Y-96467498D01*
X150399619Y-96466521D01*
X150393885Y-96465327D01*
X150388104Y-96463896D01*
X150382269Y-96462209D01*
X150376371Y-96460247D01*
X150370400Y-96457990D01*
X150364349Y-96455419D01*
X150358207Y-96452514D01*
X150351967Y-96449257D01*
X150345620Y-96445628D01*
X150339156Y-96441608D01*
X149922173Y-96155434D01*
X149619998Y-96457609D01*
X149911590Y-96882467D01*
X149915713Y-96889046D01*
X149919428Y-96895488D01*
X149922756Y-96901805D01*
X149925718Y-96908008D01*
X149928335Y-96914110D01*
X149930628Y-96920122D01*
X149932617Y-96926055D01*
X149934323Y-96931923D01*
X149935767Y-96937735D01*
X149936970Y-96943505D01*
X149937953Y-96949244D01*
X149938736Y-96954964D01*
X149939341Y-96960676D01*
X149939788Y-96966393D01*
X149940292Y-96977886D01*
X149940102Y-96985503D01*
X149939618Y-96993257D01*
X149939246Y-96997194D01*
X149938775Y-97001176D01*
X149938199Y-97005206D01*
X149937508Y-97009287D01*
X149936696Y-97013422D01*
X149935753Y-97017616D01*
X149934672Y-97021870D01*
X149933445Y-97026190D01*
X149932064Y-97030577D01*
X149930521Y-97035036D01*
X149928807Y-97039569D01*
X149926914Y-97044180D01*
X149766979Y-97434832D01*
X149764688Y-97440371D01*
X149762294Y-97445660D01*
X149759802Y-97450711D01*
X149757216Y-97455538D01*
X149754541Y-97460153D01*
X149751781Y-97464568D01*
X149748940Y-97468795D01*
X149746024Y-97472848D01*
X149743036Y-97476737D01*
X149739982Y-97480476D01*
X149736864Y-97484077D01*
X149733689Y-97487553D01*
X149730460Y-97490916D01*
X149727182Y-97494178D01*
X149720497Y-97500449D01*
X149716685Y-97503609D01*
X149712798Y-97506702D01*
X149708820Y-97509723D01*
X149704736Y-97512663D01*
X149700532Y-97515517D01*
X149696193Y-97518277D01*
X149691705Y-97520937D01*
X149687054Y-97523489D01*
X149682223Y-97525927D01*
X149677200Y-97528244D01*
X149671968Y-97530434D01*
X149666514Y-97532489D01*
X149660823Y-97534402D01*
X149654880Y-97536167D01*
X149648671Y-97537778D01*
X149642180Y-97539226D01*
X149132741Y-97633968D01*
X148995073Y-97633968D01*
X148995073Y-97557092D01*
X148995106Y-97555783D01*
X148995203Y-97554479D01*
X148995363Y-97553180D01*
X148995584Y-97551890D01*
X148995865Y-97550609D01*
X148996204Y-97549340D01*
X148996599Y-97548085D01*
X148997048Y-97546846D01*
X148998106Y-97544422D01*
X148999364Y-97542085D01*
X149000809Y-97539851D01*
X149002429Y-97537735D01*
X149004210Y-97535753D01*
X149006140Y-97533920D01*
X149008207Y-97532253D01*
X149009287Y-97531486D01*
X149010397Y-97530767D01*
X149011534Y-97530097D01*
X149012697Y-97529478D01*
X149013885Y-97528912D01*
X149015096Y-97528402D01*
X149016327Y-97527948D01*
X149017579Y-97527554D01*
X149018849Y-97527221D01*
X149020135Y-97526950D01*
X149605181Y-97418069D01*
X149607779Y-97417458D01*
X149610386Y-97416620D01*
X149612984Y-97415569D01*
X149615557Y-97414320D01*
X149618088Y-97412887D01*
X149620560Y-97411286D01*
X149622955Y-97409530D01*
X149625258Y-97407634D01*
X149627450Y-97405613D01*
X149629516Y-97403482D01*
X149631437Y-97401256D01*
X149633197Y-97398948D01*
X149634779Y-97396573D01*
X149636166Y-97394147D01*
X149637340Y-97391684D01*
X149638286Y-97389198D01*
X149798814Y-96997022D01*
X149799884Y-96994576D01*
X149800777Y-96991984D01*
X149801495Y-96989269D01*
X149802039Y-96986453D01*
X149802412Y-96983559D01*
X149802615Y-96980610D01*
X149802650Y-96977629D01*
X149802518Y-96974638D01*
X149802222Y-96971660D01*
X149801762Y-96968717D01*
X149801142Y-96965833D01*
X149800362Y-96963029D01*
X149799424Y-96960330D01*
X149798330Y-96957756D01*
X149797082Y-96955332D01*
X149795681Y-96953080D01*
X149460232Y-96464299D01*
X149459514Y-96463194D01*
X149458852Y-96462057D01*
X149458245Y-96460890D01*
X149457694Y-96459694D01*
X149457198Y-96458474D01*
X149456757Y-96457231D01*
X149456038Y-96454687D01*
X149455538Y-96452082D01*
X149455252Y-96449437D01*
X149455181Y-96446772D01*
X149455321Y-96444106D01*
X149455672Y-96441460D01*
X149456232Y-96438854D01*
X149456998Y-96436309D01*
X149457970Y-96433843D01*
X149459145Y-96431477D01*
X149459808Y-96430339D01*
X149460521Y-96429232D01*
X149461285Y-96428161D01*
X149462098Y-96427128D01*
X149462961Y-96426134D01*
X149463873Y-96425183D01*
X149875522Y-96013534D01*
X149876473Y-96012629D01*
X149877466Y-96011773D01*
X149878500Y-96010966D01*
X149879571Y-96010207D01*
X149880677Y-96009497D01*
X149881816Y-96008837D01*
X149882985Y-96008227D01*
X149884182Y-96007667D01*
X149885403Y-96007157D01*
X149886647Y-96006697D01*
X149889193Y-96005930D01*
X149891799Y-96005369D01*
X149894445Y-96005014D01*
X149897111Y-96004869D01*
X149899776Y-96004936D01*
X149902421Y-96005216D01*
X149903730Y-96005437D01*
X149905026Y-96005712D01*
X149906307Y-96006041D01*
X149907570Y-96006425D01*
X149908813Y-96006864D01*
X149910033Y-96007358D01*
X149911228Y-96007908D01*
X149912396Y-96008514D01*
X149913533Y-96009175D01*
X149914638Y-96009893D01*
X150395037Y-96339501D01*
X150397302Y-96340899D01*
X150399734Y-96342142D01*
X150402310Y-96343226D01*
X150405008Y-96344151D01*
X150407805Y-96344914D01*
X150410680Y-96345515D01*
X150413610Y-96345951D01*
X150416574Y-96346221D01*
X150419548Y-96346323D01*
X150422511Y-96346257D01*
X150425441Y-96346019D01*
X150428315Y-96345609D01*
X150431111Y-96345024D01*
X150433807Y-96344264D01*
X150436380Y-96343327D01*
X150438809Y-96342210D01*
X150843347Y-96168813D01*
X150844591Y-96168354D01*
X150845833Y-96167835D01*
X150847068Y-96167260D01*
X150848296Y-96166629D01*
X150850722Y-96165211D01*
X150853095Y-96163599D01*
X150855402Y-96161810D01*
X150857627Y-96159861D01*
X150859755Y-96157769D01*
X150861772Y-96155552D01*
X150863663Y-96153227D01*
X150865414Y-96150810D01*
X150867009Y-96148320D01*
X150868433Y-96145774D01*
X150869673Y-96143189D01*
X150870712Y-96140581D01*
X150871153Y-96139275D01*
X150871537Y-96137969D01*
X150871865Y-96136667D01*
X150872133Y-96135369D01*
X150977289Y-95569712D01*
X150977567Y-95568425D01*
X150977907Y-95567156D01*
X150978307Y-95565904D01*
X150978765Y-95564672D01*
X150979280Y-95563462D01*
X150979849Y-95562274D01*
X150980471Y-95561111D01*
X150981143Y-95559974D01*
X150981864Y-95558864D01*
X150982632Y-95557784D01*
X150983445Y-95556734D01*
X150984301Y-95555717D01*
X150985197Y-95554734D01*
X150986134Y-95553787D01*
X150987107Y-95552877D01*
X150988116Y-95552006D01*
X150989158Y-95551175D01*
X150990232Y-95550386D01*
X150991336Y-95549641D01*
X150992467Y-95548941D01*
X150993624Y-95548288D01*
X150994806Y-95547683D01*
X150996009Y-95547128D01*
X150997232Y-95546625D01*
X150998474Y-95546175D01*
X150999732Y-95545780D01*
X151001004Y-95545442D01*
X151002289Y-95545161D01*
X151003584Y-95544940D01*
X151004889Y-95544780D01*
X151006199Y-95544683D01*
X151007515Y-95544650D01*
X151098785Y-95544650D01*
G37*
G36*
X153124602Y-88779146D02*
G01*
X153157682Y-88781971D01*
X153190198Y-88786323D01*
X153222142Y-88792152D01*
X153253508Y-88799408D01*
X153284288Y-88808040D01*
X153314475Y-88817997D01*
X153344063Y-88829228D01*
X153401413Y-88855311D01*
X153456281Y-88885883D01*
X153508614Y-88920538D01*
X153558354Y-88958870D01*
X153605447Y-89000474D01*
X153649837Y-89044944D01*
X153691468Y-89091874D01*
X153730286Y-89140859D01*
X153766235Y-89191492D01*
X153799258Y-89243369D01*
X153828887Y-89294077D01*
X153856875Y-89345161D01*
X153883222Y-89396621D01*
X153907929Y-89448458D01*
X153930994Y-89500671D01*
X153952419Y-89553261D01*
X153972203Y-89606227D01*
X153990347Y-89659570D01*
X154006849Y-89713289D01*
X154021711Y-89767384D01*
X154034932Y-89821856D01*
X154046512Y-89876705D01*
X154056452Y-89931929D01*
X154064751Y-89987531D01*
X154071409Y-90043508D01*
X154076426Y-90099862D01*
X154076559Y-90101266D01*
X154076734Y-90102609D01*
X154076952Y-90103891D01*
X154077212Y-90105112D01*
X154077515Y-90106272D01*
X154077861Y-90107372D01*
X154078249Y-90108410D01*
X154078680Y-90109388D01*
X154079153Y-90110305D01*
X154079669Y-90111162D01*
X154080227Y-90111957D01*
X154080828Y-90112692D01*
X154081471Y-90113365D01*
X154082157Y-90113978D01*
X154082886Y-90114530D01*
X154083657Y-90115022D01*
X154084471Y-90115452D01*
X154085327Y-90115822D01*
X154086226Y-90116131D01*
X154087168Y-90116379D01*
X154088151Y-90116566D01*
X154089178Y-90116692D01*
X154090247Y-90116758D01*
X154091359Y-90116763D01*
X154092513Y-90116707D01*
X154093710Y-90116590D01*
X154094949Y-90116412D01*
X154096231Y-90116174D01*
X154097556Y-90115874D01*
X154098923Y-90115514D01*
X154100332Y-90115093D01*
X154101784Y-90114611D01*
X154103569Y-90113919D01*
X154105262Y-90113152D01*
X154106862Y-90112311D01*
X154108370Y-90111395D01*
X154109786Y-90110406D01*
X154111110Y-90109342D01*
X154112343Y-90108204D01*
X154113482Y-90106991D01*
X154114530Y-90105705D01*
X154115486Y-90104344D01*
X154116350Y-90102908D01*
X154117121Y-90101399D01*
X154117801Y-90099815D01*
X154118388Y-90098157D01*
X154118883Y-90096425D01*
X154119287Y-90094618D01*
X154141381Y-89971710D01*
X154161947Y-89849806D01*
X154180983Y-89728906D01*
X154198490Y-89609010D01*
X154214468Y-89490117D01*
X154228917Y-89372228D01*
X154241836Y-89255343D01*
X154253227Y-89139462D01*
X154253323Y-89138531D01*
X154253469Y-89137614D01*
X154253663Y-89136714D01*
X154253904Y-89135832D01*
X154254190Y-89134967D01*
X154254519Y-89134122D01*
X154254892Y-89133298D01*
X154255306Y-89132495D01*
X154255760Y-89131715D01*
X154256253Y-89130958D01*
X154256784Y-89130226D01*
X154257351Y-89129520D01*
X154257952Y-89128841D01*
X154258588Y-89128189D01*
X154259256Y-89127566D01*
X154259954Y-89126973D01*
X154260683Y-89126412D01*
X154261440Y-89125882D01*
X154262224Y-89125385D01*
X154263034Y-89124923D01*
X154263869Y-89124495D01*
X154264727Y-89124104D01*
X154265607Y-89123750D01*
X154266507Y-89123435D01*
X154267427Y-89123159D01*
X154268365Y-89122923D01*
X154269320Y-89122729D01*
X154270290Y-89122577D01*
X154271275Y-89122469D01*
X154272272Y-89122406D01*
X154273281Y-89122388D01*
X154274300Y-89122417D01*
X154321054Y-89125894D01*
X154365773Y-89132424D01*
X154408490Y-89141872D01*
X154449241Y-89154104D01*
X154488060Y-89168983D01*
X154524981Y-89186376D01*
X154560039Y-89206148D01*
X154593268Y-89228162D01*
X154624702Y-89252285D01*
X154654376Y-89278382D01*
X154682324Y-89306316D01*
X154708581Y-89335955D01*
X154733180Y-89367161D01*
X154756158Y-89399801D01*
X154777547Y-89433739D01*
X154797382Y-89468841D01*
X154815698Y-89504972D01*
X154832528Y-89541995D01*
X154847909Y-89579778D01*
X154861873Y-89618183D01*
X154874455Y-89657078D01*
X154885690Y-89696326D01*
X154904255Y-89775343D01*
X154917843Y-89854154D01*
X154926730Y-89931680D01*
X154931191Y-90006840D01*
X154931501Y-90078556D01*
X154927841Y-90295834D01*
X154925544Y-90350105D01*
X154921858Y-90404119D01*
X154916364Y-90457757D01*
X154912807Y-90484397D01*
X154908642Y-90510899D01*
X154897804Y-90571457D01*
X154885827Y-90632342D01*
X154872712Y-90693555D01*
X154858459Y-90755096D01*
X154843067Y-90816965D01*
X154826536Y-90879162D01*
X154808867Y-90941686D01*
X154790060Y-91004538D01*
X154787773Y-91012193D01*
X154785729Y-91020017D01*
X154783917Y-91027983D01*
X154782331Y-91036061D01*
X154780959Y-91044222D01*
X154779795Y-91052436D01*
X154778828Y-91060673D01*
X154778050Y-91068906D01*
X154777025Y-91085238D01*
X154776650Y-91101198D01*
X154776851Y-91116550D01*
X154777560Y-91131062D01*
X154778086Y-91137954D01*
X154778771Y-91143963D01*
X154779615Y-91149089D01*
X154780096Y-91151320D01*
X154780618Y-91153331D01*
X154781179Y-91155120D01*
X154781780Y-91156689D01*
X154782420Y-91158037D01*
X154783101Y-91159164D01*
X154783821Y-91160070D01*
X154784581Y-91160755D01*
X154785381Y-91161220D01*
X154786220Y-91161464D01*
X154787100Y-91161486D01*
X154788019Y-91161288D01*
X154788978Y-91160869D01*
X154789976Y-91160229D01*
X154791015Y-91159368D01*
X154792093Y-91158287D01*
X154793210Y-91156984D01*
X154794368Y-91155461D01*
X154795565Y-91153717D01*
X154796803Y-91151752D01*
X154799396Y-91147159D01*
X154802149Y-91141683D01*
X154805061Y-91135323D01*
X155104373Y-90452883D01*
X155105577Y-90450289D01*
X155106870Y-90447745D01*
X155108249Y-90445254D01*
X155109714Y-90442815D01*
X155111262Y-90440431D01*
X155112891Y-90438102D01*
X155114600Y-90435831D01*
X155116385Y-90433619D01*
X155118246Y-90431467D01*
X155120180Y-90429376D01*
X155124259Y-90425385D01*
X155128608Y-90421656D01*
X155133210Y-90418200D01*
X155138049Y-90415030D01*
X155143109Y-90412156D01*
X155148376Y-90409588D01*
X155153832Y-90407339D01*
X155159462Y-90405420D01*
X155165250Y-90403841D01*
X155171180Y-90402613D01*
X155174193Y-90402135D01*
X155177237Y-90401748D01*
X155203489Y-90399895D01*
X155228425Y-90400169D01*
X155252077Y-90402474D01*
X155274479Y-90406709D01*
X155295664Y-90412779D01*
X155315665Y-90420583D01*
X155334514Y-90430025D01*
X155352246Y-90441006D01*
X155368894Y-90453427D01*
X155384490Y-90467192D01*
X155399067Y-90482201D01*
X155412660Y-90498357D01*
X155425301Y-90515561D01*
X155437022Y-90533715D01*
X155447858Y-90552722D01*
X155457842Y-90572482D01*
X155467006Y-90592898D01*
X155475384Y-90613873D01*
X155483009Y-90635306D01*
X155489914Y-90657102D01*
X155501698Y-90701384D01*
X155511000Y-90745935D01*
X155518085Y-90789969D01*
X155523219Y-90832701D01*
X155526668Y-90873347D01*
X155528696Y-90911121D01*
X155531454Y-91018805D01*
X155531425Y-91125357D01*
X155528608Y-91230777D01*
X155523004Y-91335065D01*
X155514611Y-91438221D01*
X155503432Y-91540246D01*
X155489464Y-91641139D01*
X155472709Y-91740899D01*
X155453166Y-91839528D01*
X155430836Y-91937025D01*
X155405718Y-92033390D01*
X155377812Y-92128624D01*
X155347119Y-92222725D01*
X155313638Y-92315694D01*
X155277369Y-92407532D01*
X155238313Y-92498238D01*
X154980791Y-93163634D01*
X154877567Y-93384722D01*
X154827027Y-93489121D01*
X154777201Y-93589422D01*
X154728090Y-93685626D01*
X154679693Y-93777732D01*
X154632010Y-93865742D01*
X154585041Y-93949654D01*
X154560218Y-93992162D01*
X154525287Y-94047942D01*
X154504608Y-94078638D01*
X154482093Y-94110045D01*
X154457975Y-94141296D01*
X154432483Y-94171521D01*
X154405849Y-94199853D01*
X154378302Y-94225423D01*
X154364259Y-94236900D01*
X154350075Y-94247361D01*
X154335778Y-94256698D01*
X154321397Y-94264801D01*
X154306961Y-94271561D01*
X154292499Y-94276872D01*
X154278040Y-94280623D01*
X154263612Y-94282706D01*
X154249245Y-94283013D01*
X154234967Y-94281436D01*
X154220807Y-94277864D01*
X154206794Y-94272191D01*
X154196190Y-94266549D01*
X154186589Y-94260398D01*
X154177953Y-94253767D01*
X154170249Y-94246685D01*
X154163440Y-94239179D01*
X154157491Y-94231280D01*
X154152365Y-94223015D01*
X154148028Y-94214414D01*
X154144442Y-94205505D01*
X154141574Y-94196317D01*
X154139386Y-94186879D01*
X154137844Y-94177219D01*
X154136911Y-94167367D01*
X154136552Y-94157350D01*
X154136731Y-94147198D01*
X154137413Y-94136940D01*
X154138561Y-94126604D01*
X154140140Y-94116218D01*
X154144449Y-94095416D01*
X154150053Y-94074762D01*
X154156667Y-94054487D01*
X154164005Y-94034821D01*
X154171781Y-94015994D01*
X154179710Y-93998236D01*
X154187507Y-93981776D01*
X154230807Y-93887574D01*
X154269629Y-93793195D01*
X154303972Y-93698639D01*
X154333836Y-93603906D01*
X154359222Y-93508997D01*
X154380129Y-93413911D01*
X154396558Y-93318648D01*
X154408508Y-93223209D01*
X154415979Y-93127593D01*
X154418972Y-93031800D01*
X154417486Y-92935830D01*
X154411522Y-92839684D01*
X154401079Y-92743361D01*
X154386157Y-92646862D01*
X154366757Y-92550185D01*
X154342878Y-92453332D01*
X154309655Y-92341656D01*
X154271063Y-92233616D01*
X154227103Y-92129213D01*
X154177774Y-92028446D01*
X154123076Y-91931315D01*
X154063009Y-91837820D01*
X153997574Y-91747962D01*
X153926770Y-91661740D01*
X153850597Y-91579155D01*
X153769055Y-91500205D01*
X153682144Y-91424893D01*
X153589865Y-91353216D01*
X153492217Y-91285176D01*
X153389200Y-91220772D01*
X153280814Y-91160004D01*
X153167060Y-91102873D01*
X153123934Y-91082877D01*
X153080635Y-91063862D01*
X153037163Y-91045828D01*
X152993518Y-91028774D01*
X152949700Y-91012701D01*
X152905709Y-90997609D01*
X152861545Y-90983498D01*
X152817208Y-90970367D01*
X152772698Y-90958218D01*
X152728015Y-90947049D01*
X152683159Y-90936861D01*
X152638130Y-90927653D01*
X152592927Y-90919427D01*
X152547552Y-90912181D01*
X152502004Y-90905916D01*
X152456283Y-90900632D01*
X152382850Y-90893318D01*
X152309351Y-90886947D01*
X152235784Y-90881518D01*
X152162150Y-90877032D01*
X152088449Y-90873488D01*
X152014682Y-90870886D01*
X151940847Y-90869227D01*
X151866946Y-90868510D01*
X149170281Y-90861299D01*
X149170281Y-90861298D01*
X149170281Y-90844254D01*
X149260000Y-90760000D01*
X149352266Y-90680389D01*
X149447081Y-90605420D01*
X149544443Y-90535094D01*
X149644353Y-90469411D01*
X149746810Y-90408371D01*
X149851815Y-90351974D01*
X149959368Y-90300219D01*
X150069468Y-90253107D01*
X150182116Y-90210637D01*
X150297312Y-90172810D01*
X150415055Y-90139626D01*
X150535346Y-90111085D01*
X150658185Y-90087186D01*
X150783571Y-90067930D01*
X150911505Y-90053317D01*
X150994210Y-90046891D01*
X151077010Y-90043166D01*
X151159857Y-90042051D01*
X151242706Y-90043458D01*
X151325509Y-90047299D01*
X151408219Y-90053484D01*
X151490788Y-90061926D01*
X151573170Y-90072533D01*
X151655318Y-90085220D01*
X151737184Y-90099895D01*
X151818722Y-90116471D01*
X151899884Y-90134858D01*
X152060893Y-90176712D01*
X152219834Y-90224747D01*
X152224460Y-90226115D01*
X152228696Y-90227108D01*
X152230667Y-90227463D01*
X152232541Y-90227724D01*
X152234317Y-90227890D01*
X152235996Y-90227963D01*
X152237577Y-90227942D01*
X152239060Y-90227826D01*
X152240445Y-90227616D01*
X152241733Y-90227313D01*
X152242923Y-90226915D01*
X152244015Y-90226423D01*
X152245010Y-90225837D01*
X152245907Y-90225156D01*
X152246707Y-90224382D01*
X152247409Y-90223514D01*
X152248013Y-90222551D01*
X152248519Y-90221494D01*
X152248928Y-90220344D01*
X152249239Y-90219099D01*
X152249453Y-90217760D01*
X152249568Y-90216327D01*
X152249587Y-90214799D01*
X152249507Y-90213178D01*
X152249330Y-90211463D01*
X152249055Y-90209653D01*
X152248683Y-90207749D01*
X152248212Y-90205752D01*
X152246979Y-90201474D01*
X152189895Y-90028743D01*
X152128437Y-89858097D01*
X152062952Y-89689073D01*
X151993788Y-89521205D01*
X151921292Y-89354028D01*
X151845812Y-89187078D01*
X151687288Y-88851998D01*
X151686865Y-88851085D01*
X151686488Y-88850190D01*
X151686159Y-88849313D01*
X151685876Y-88848454D01*
X151685639Y-88847613D01*
X151685450Y-88846789D01*
X151685307Y-88845984D01*
X151685211Y-88845197D01*
X151685162Y-88844427D01*
X151685159Y-88843676D01*
X151685204Y-88842942D01*
X151685295Y-88842226D01*
X151685432Y-88841528D01*
X151685617Y-88840848D01*
X151685848Y-88840186D01*
X151686126Y-88839542D01*
X151686451Y-88838916D01*
X151686822Y-88838308D01*
X151687240Y-88837718D01*
X151687705Y-88837146D01*
X151688217Y-88836591D01*
X151688775Y-88836055D01*
X151689380Y-88835536D01*
X151690032Y-88835035D01*
X151690731Y-88834553D01*
X151691476Y-88834088D01*
X151692268Y-88833641D01*
X151693107Y-88833212D01*
X151693993Y-88832801D01*
X151694925Y-88832408D01*
X151696930Y-88831676D01*
X151743979Y-88816909D01*
X151790566Y-88804731D01*
X151836689Y-88795142D01*
X151882348Y-88788142D01*
X151927545Y-88783731D01*
X151972278Y-88781909D01*
X152016549Y-88782676D01*
X152060355Y-88786032D01*
X152103699Y-88791977D01*
X152146579Y-88800511D01*
X152188997Y-88811634D01*
X152230951Y-88825345D01*
X152272441Y-88841646D01*
X152313469Y-88860536D01*
X152354033Y-88882015D01*
X152394134Y-88906082D01*
X152448216Y-88942140D01*
X152500378Y-88980210D01*
X152550642Y-89020228D01*
X152599030Y-89062132D01*
X152645563Y-89105858D01*
X152690264Y-89151344D01*
X152733155Y-89198527D01*
X152774257Y-89247344D01*
X152813593Y-89297731D01*
X152851185Y-89349627D01*
X152887055Y-89402968D01*
X152921223Y-89457692D01*
X152953714Y-89513735D01*
X152984548Y-89571035D01*
X153013747Y-89629528D01*
X153041334Y-89689152D01*
X153051548Y-89711648D01*
X153060850Y-89731036D01*
X153069240Y-89747315D01*
X153076717Y-89760485D01*
X153083281Y-89770546D01*
X153086221Y-89774411D01*
X153088933Y-89777499D01*
X153091417Y-89779809D01*
X153093673Y-89781343D01*
X153095701Y-89782099D01*
X153097500Y-89782078D01*
X153099072Y-89781279D01*
X153100415Y-89779704D01*
X153101530Y-89777351D01*
X153102417Y-89774221D01*
X153103076Y-89770314D01*
X153103507Y-89765630D01*
X153103684Y-89753929D01*
X153102949Y-89739120D01*
X153101301Y-89721202D01*
X153098741Y-89700176D01*
X153095268Y-89676040D01*
X153078408Y-89570858D01*
X153060153Y-89465584D01*
X153040503Y-89360218D01*
X153019457Y-89254760D01*
X152997017Y-89149209D01*
X152973181Y-89043566D01*
X152947950Y-88937831D01*
X152921324Y-88832003D01*
X152920934Y-88830258D01*
X152920641Y-88828505D01*
X152920445Y-88826747D01*
X152920345Y-88824988D01*
X152920340Y-88823232D01*
X152920430Y-88821481D01*
X152920614Y-88819739D01*
X152920892Y-88818008D01*
X152921263Y-88816293D01*
X152921726Y-88814597D01*
X152922281Y-88812923D01*
X152922927Y-88811273D01*
X152923664Y-88809653D01*
X152924491Y-88808064D01*
X152925406Y-88806510D01*
X152926411Y-88804994D01*
X152927497Y-88803527D01*
X152928657Y-88802121D01*
X152929888Y-88800775D01*
X152931187Y-88799493D01*
X152932550Y-88798276D01*
X152933975Y-88797126D01*
X152935459Y-88796045D01*
X152936999Y-88795035D01*
X152938592Y-88794097D01*
X152940234Y-88793233D01*
X152941924Y-88792446D01*
X152943657Y-88791737D01*
X152945431Y-88791108D01*
X152947243Y-88790561D01*
X152949090Y-88790097D01*
X152950969Y-88789719D01*
X152986770Y-88784143D01*
X153022040Y-88780348D01*
X153056774Y-88778285D01*
X153090963Y-88777901D01*
X153124602Y-88779146D01*
G37*
G36*
X154239834Y-99490454D02*
G01*
X153868148Y-99490454D01*
X153859844Y-99490627D01*
X153851837Y-99491139D01*
X153844126Y-99491980D01*
X153836707Y-99493138D01*
X153829580Y-99494603D01*
X153822741Y-99496365D01*
X153816188Y-99498411D01*
X153809919Y-99500733D01*
X153803933Y-99503319D01*
X153798226Y-99506159D01*
X153792796Y-99509241D01*
X153787642Y-99512555D01*
X153782761Y-99516091D01*
X153778150Y-99519837D01*
X153773808Y-99523784D01*
X153769733Y-99527919D01*
X153765922Y-99532233D01*
X153762372Y-99536716D01*
X153759083Y-99541355D01*
X153756051Y-99546141D01*
X153753274Y-99551062D01*
X153750751Y-99556109D01*
X153748478Y-99561270D01*
X153746454Y-99566535D01*
X153743142Y-99577333D01*
X153740799Y-99588418D01*
X153739406Y-99599704D01*
X153738946Y-99611105D01*
X153739047Y-99616933D01*
X153739356Y-99622529D01*
X153739880Y-99627924D01*
X153740625Y-99633144D01*
X153741599Y-99638220D01*
X153742808Y-99643180D01*
X153744261Y-99648053D01*
X153745963Y-99652866D01*
X153747922Y-99657651D01*
X153750146Y-99662434D01*
X153752640Y-99667245D01*
X153755413Y-99672112D01*
X153758470Y-99677065D01*
X153761821Y-99682132D01*
X153765470Y-99687342D01*
X153769426Y-99692723D01*
X153662154Y-99782893D01*
X153656807Y-99775755D01*
X153651726Y-99768528D01*
X153646923Y-99761204D01*
X153642409Y-99753776D01*
X153638194Y-99746236D01*
X153634289Y-99738575D01*
X153630704Y-99730788D01*
X153627451Y-99722865D01*
X153624540Y-99714799D01*
X153621982Y-99706583D01*
X153619789Y-99698208D01*
X153617969Y-99689667D01*
X153616536Y-99680953D01*
X153615498Y-99672058D01*
X153614868Y-99662973D01*
X153614656Y-99653692D01*
X153614941Y-99641472D01*
X153615799Y-99629489D01*
X153617227Y-99617755D01*
X153619228Y-99606280D01*
X153621799Y-99595075D01*
X153624943Y-99584152D01*
X153628657Y-99573521D01*
X153632944Y-99563194D01*
X153637801Y-99553181D01*
X153643231Y-99543494D01*
X153649232Y-99534143D01*
X153655804Y-99525140D01*
X153662948Y-99516496D01*
X153670663Y-99508221D01*
X153678950Y-99500327D01*
X153687808Y-99492825D01*
X153687808Y-99490454D01*
X153622022Y-99490454D01*
X153622022Y-99366164D01*
X154239834Y-99366164D01*
X154239834Y-99490454D01*
G37*
D12*
X159852180Y-103133333D02*
X159899800Y-103085714D01*
X159899800Y-103085714D02*
X159947419Y-102942857D01*
X159947419Y-102942857D02*
X159947419Y-102847619D01*
X159947419Y-102847619D02*
X159899800Y-102704762D01*
X159899800Y-102704762D02*
X159804561Y-102609524D01*
X159804561Y-102609524D02*
X159709323Y-102561905D01*
X159709323Y-102561905D02*
X159518847Y-102514286D01*
X159518847Y-102514286D02*
X159375990Y-102514286D01*
X159375990Y-102514286D02*
X159185514Y-102561905D01*
X159185514Y-102561905D02*
X159090276Y-102609524D01*
X159090276Y-102609524D02*
X158995038Y-102704762D01*
X158995038Y-102704762D02*
X158947419Y-102847619D01*
X158947419Y-102847619D02*
X158947419Y-102942857D01*
X158947419Y-102942857D02*
X158995038Y-103085714D01*
X158995038Y-103085714D02*
X159042657Y-103133333D01*
X159899800Y-103514286D02*
X159947419Y-103657143D01*
X159947419Y-103657143D02*
X159947419Y-103895238D01*
X159947419Y-103895238D02*
X159899800Y-103990476D01*
X159899800Y-103990476D02*
X159852180Y-104038095D01*
X159852180Y-104038095D02*
X159756942Y-104085714D01*
X159756942Y-104085714D02*
X159661704Y-104085714D01*
X159661704Y-104085714D02*
X159566466Y-104038095D01*
X159566466Y-104038095D02*
X159518847Y-103990476D01*
X159518847Y-103990476D02*
X159471228Y-103895238D01*
X159471228Y-103895238D02*
X159423609Y-103704762D01*
X159423609Y-103704762D02*
X159375990Y-103609524D01*
X159375990Y-103609524D02*
X159328371Y-103561905D01*
X159328371Y-103561905D02*
X159233133Y-103514286D01*
X159233133Y-103514286D02*
X159137895Y-103514286D01*
X159137895Y-103514286D02*
X159042657Y-103561905D01*
X159042657Y-103561905D02*
X158995038Y-103609524D01*
X158995038Y-103609524D02*
X158947419Y-103704762D01*
X158947419Y-103704762D02*
X158947419Y-103942857D01*
X158947419Y-103942857D02*
X158995038Y-104085714D01*
X154077419Y-101728572D02*
X153077419Y-101728572D01*
X153077419Y-101728572D02*
X153791704Y-102061905D01*
X153791704Y-102061905D02*
X153077419Y-102395238D01*
X153077419Y-102395238D02*
X154077419Y-102395238D01*
X154077419Y-102871429D02*
X153077419Y-102871429D01*
X154029800Y-103300000D02*
X154077419Y-103442857D01*
X154077419Y-103442857D02*
X154077419Y-103680952D01*
X154077419Y-103680952D02*
X154029800Y-103776190D01*
X154029800Y-103776190D02*
X153982180Y-103823809D01*
X153982180Y-103823809D02*
X153886942Y-103871428D01*
X153886942Y-103871428D02*
X153791704Y-103871428D01*
X153791704Y-103871428D02*
X153696466Y-103823809D01*
X153696466Y-103823809D02*
X153648847Y-103776190D01*
X153648847Y-103776190D02*
X153601228Y-103680952D01*
X153601228Y-103680952D02*
X153553609Y-103490476D01*
X153553609Y-103490476D02*
X153505990Y-103395238D01*
X153505990Y-103395238D02*
X153458371Y-103347619D01*
X153458371Y-103347619D02*
X153363133Y-103300000D01*
X153363133Y-103300000D02*
X153267895Y-103300000D01*
X153267895Y-103300000D02*
X153172657Y-103347619D01*
X153172657Y-103347619D02*
X153125038Y-103395238D01*
X153125038Y-103395238D02*
X153077419Y-103490476D01*
X153077419Y-103490476D02*
X153077419Y-103728571D01*
X153077419Y-103728571D02*
X153125038Y-103871428D01*
X153077419Y-104490476D02*
X153077419Y-104680952D01*
X153077419Y-104680952D02*
X153125038Y-104776190D01*
X153125038Y-104776190D02*
X153220276Y-104871428D01*
X153220276Y-104871428D02*
X153410752Y-104919047D01*
X153410752Y-104919047D02*
X153744085Y-104919047D01*
X153744085Y-104919047D02*
X153934561Y-104871428D01*
X153934561Y-104871428D02*
X154029800Y-104776190D01*
X154029800Y-104776190D02*
X154077419Y-104680952D01*
X154077419Y-104680952D02*
X154077419Y-104490476D01*
X154077419Y-104490476D02*
X154029800Y-104395238D01*
X154029800Y-104395238D02*
X153934561Y-104300000D01*
X153934561Y-104300000D02*
X153744085Y-104252381D01*
X153744085Y-104252381D02*
X153410752Y-104252381D01*
X153410752Y-104252381D02*
X153220276Y-104300000D01*
X153220276Y-104300000D02*
X153125038Y-104395238D01*
X153125038Y-104395238D02*
X153077419Y-104490476D01*
X149423609Y-101942857D02*
X149471228Y-102085714D01*
X149471228Y-102085714D02*
X149518847Y-102133333D01*
X149518847Y-102133333D02*
X149614085Y-102180952D01*
X149614085Y-102180952D02*
X149756942Y-102180952D01*
X149756942Y-102180952D02*
X149852180Y-102133333D01*
X149852180Y-102133333D02*
X149899800Y-102085714D01*
X149899800Y-102085714D02*
X149947419Y-101990476D01*
X149947419Y-101990476D02*
X149947419Y-101609524D01*
X149947419Y-101609524D02*
X148947419Y-101609524D01*
X148947419Y-101609524D02*
X148947419Y-101942857D01*
X148947419Y-101942857D02*
X148995038Y-102038095D01*
X148995038Y-102038095D02*
X149042657Y-102085714D01*
X149042657Y-102085714D02*
X149137895Y-102133333D01*
X149137895Y-102133333D02*
X149233133Y-102133333D01*
X149233133Y-102133333D02*
X149328371Y-102085714D01*
X149328371Y-102085714D02*
X149375990Y-102038095D01*
X149375990Y-102038095D02*
X149423609Y-101942857D01*
X149423609Y-101942857D02*
X149423609Y-101609524D01*
X148947419Y-102609524D02*
X149756942Y-102609524D01*
X149756942Y-102609524D02*
X149852180Y-102657143D01*
X149852180Y-102657143D02*
X149899800Y-102704762D01*
X149899800Y-102704762D02*
X149947419Y-102800000D01*
X149947419Y-102800000D02*
X149947419Y-102990476D01*
X149947419Y-102990476D02*
X149899800Y-103085714D01*
X149899800Y-103085714D02*
X149852180Y-103133333D01*
X149852180Y-103133333D02*
X149756942Y-103180952D01*
X149756942Y-103180952D02*
X148947419Y-103180952D01*
X149899800Y-103609524D02*
X149947419Y-103752381D01*
X149947419Y-103752381D02*
X149947419Y-103990476D01*
X149947419Y-103990476D02*
X149899800Y-104085714D01*
X149899800Y-104085714D02*
X149852180Y-104133333D01*
X149852180Y-104133333D02*
X149756942Y-104180952D01*
X149756942Y-104180952D02*
X149661704Y-104180952D01*
X149661704Y-104180952D02*
X149566466Y-104133333D01*
X149566466Y-104133333D02*
X149518847Y-104085714D01*
X149518847Y-104085714D02*
X149471228Y-103990476D01*
X149471228Y-103990476D02*
X149423609Y-103800000D01*
X149423609Y-103800000D02*
X149375990Y-103704762D01*
X149375990Y-103704762D02*
X149328371Y-103657143D01*
X149328371Y-103657143D02*
X149233133Y-103609524D01*
X149233133Y-103609524D02*
X149137895Y-103609524D01*
X149137895Y-103609524D02*
X149042657Y-103657143D01*
X149042657Y-103657143D02*
X148995038Y-103704762D01*
X148995038Y-103704762D02*
X148947419Y-103800000D01*
X148947419Y-103800000D02*
X148947419Y-104038095D01*
X148947419Y-104038095D02*
X148995038Y-104180952D01*
X149471228Y-104800000D02*
X149947419Y-104800000D01*
X148947419Y-104466667D02*
X149471228Y-104800000D01*
X149471228Y-104800000D02*
X148947419Y-105133333D01*
X151937419Y-106110000D02*
X150937419Y-106110000D01*
X150937419Y-106110000D02*
X150937419Y-106348095D01*
X150937419Y-106348095D02*
X150985038Y-106490952D01*
X150985038Y-106490952D02*
X151080276Y-106586190D01*
X151080276Y-106586190D02*
X151175514Y-106633809D01*
X151175514Y-106633809D02*
X151365990Y-106681428D01*
X151365990Y-106681428D02*
X151508847Y-106681428D01*
X151508847Y-106681428D02*
X151699323Y-106633809D01*
X151699323Y-106633809D02*
X151794561Y-106586190D01*
X151794561Y-106586190D02*
X151889800Y-106490952D01*
X151889800Y-106490952D02*
X151937419Y-106348095D01*
X151937419Y-106348095D02*
X151937419Y-106110000D01*
X151937419Y-107110000D02*
X150937419Y-107110000D01*
X150937419Y-107776666D02*
X150937419Y-107967142D01*
X150937419Y-107967142D02*
X150985038Y-108062380D01*
X150985038Y-108062380D02*
X151080276Y-108157618D01*
X151080276Y-108157618D02*
X151270752Y-108205237D01*
X151270752Y-108205237D02*
X151604085Y-108205237D01*
X151604085Y-108205237D02*
X151794561Y-108157618D01*
X151794561Y-108157618D02*
X151889800Y-108062380D01*
X151889800Y-108062380D02*
X151937419Y-107967142D01*
X151937419Y-107967142D02*
X151937419Y-107776666D01*
X151937419Y-107776666D02*
X151889800Y-107681428D01*
X151889800Y-107681428D02*
X151794561Y-107586190D01*
X151794561Y-107586190D02*
X151604085Y-107538571D01*
X151604085Y-107538571D02*
X151270752Y-107538571D01*
X151270752Y-107538571D02*
X151080276Y-107586190D01*
X151080276Y-107586190D02*
X150985038Y-107681428D01*
X150985038Y-107681428D02*
X150937419Y-107776666D01*
X151937419Y-109157618D02*
X151937419Y-108586190D01*
X151937419Y-108871904D02*
X150937419Y-108871904D01*
X150937419Y-108871904D02*
X151080276Y-108776666D01*
X151080276Y-108776666D02*
X151175514Y-108681428D01*
X151175514Y-108681428D02*
X151223133Y-108586190D01*
X149937419Y-106467142D02*
X149461228Y-106133809D01*
X149937419Y-105895714D02*
X148937419Y-105895714D01*
X148937419Y-105895714D02*
X148937419Y-106276666D01*
X148937419Y-106276666D02*
X148985038Y-106371904D01*
X148985038Y-106371904D02*
X149032657Y-106419523D01*
X149032657Y-106419523D02*
X149127895Y-106467142D01*
X149127895Y-106467142D02*
X149270752Y-106467142D01*
X149270752Y-106467142D02*
X149365990Y-106419523D01*
X149365990Y-106419523D02*
X149413609Y-106371904D01*
X149413609Y-106371904D02*
X149461228Y-106276666D01*
X149461228Y-106276666D02*
X149461228Y-105895714D01*
X148937419Y-106800476D02*
X149937419Y-107467142D01*
X148937419Y-107467142D02*
X149937419Y-106800476D01*
X149413609Y-107848095D02*
X149413609Y-108181428D01*
X149937419Y-108324285D02*
X149937419Y-107848095D01*
X149937419Y-107848095D02*
X148937419Y-107848095D01*
X148937419Y-107848095D02*
X148937419Y-108324285D01*
X149937419Y-108752857D02*
X148937419Y-108752857D01*
X148937419Y-108752857D02*
X149937419Y-109324285D01*
X149937419Y-109324285D02*
X148937419Y-109324285D01*
D11*
X156149931Y-88786779D02*
X156959454Y-88786779D01*
X156959454Y-88786779D02*
X157054692Y-88834398D01*
X157054692Y-88834398D02*
X157102312Y-88882017D01*
X157102312Y-88882017D02*
X157149931Y-88977255D01*
X157149931Y-88977255D02*
X157149931Y-89167731D01*
X157149931Y-89167731D02*
X157102312Y-89262969D01*
X157102312Y-89262969D02*
X157054692Y-89310588D01*
X157054692Y-89310588D02*
X156959454Y-89358207D01*
X156959454Y-89358207D02*
X156149931Y-89358207D01*
X156149931Y-89739160D02*
X157149931Y-89977255D01*
X157149931Y-89977255D02*
X156435645Y-90167731D01*
X156435645Y-90167731D02*
X157149931Y-90358207D01*
X157149931Y-90358207D02*
X156149931Y-90596303D01*
X157149931Y-90977255D02*
X156149931Y-90977255D01*
X157149931Y-91453445D02*
X156149931Y-91453445D01*
X156149931Y-91453445D02*
X157149931Y-92024873D01*
X157149931Y-92024873D02*
X156149931Y-92024873D01*
X156197550Y-93024873D02*
X156149931Y-92929635D01*
X156149931Y-92929635D02*
X156149931Y-92786778D01*
X156149931Y-92786778D02*
X156197550Y-92643921D01*
X156197550Y-92643921D02*
X156292788Y-92548683D01*
X156292788Y-92548683D02*
X156388026Y-92501064D01*
X156388026Y-92501064D02*
X156578502Y-92453445D01*
X156578502Y-92453445D02*
X156721359Y-92453445D01*
X156721359Y-92453445D02*
X156911835Y-92501064D01*
X156911835Y-92501064D02*
X157007073Y-92548683D01*
X157007073Y-92548683D02*
X157102312Y-92643921D01*
X157102312Y-92643921D02*
X157149931Y-92786778D01*
X157149931Y-92786778D02*
X157149931Y-92882016D01*
X157149931Y-92882016D02*
X157102312Y-93024873D01*
X157102312Y-93024873D02*
X157054692Y-93072492D01*
X157054692Y-93072492D02*
X156721359Y-93072492D01*
X156721359Y-93072492D02*
X156721359Y-92882016D01*
X157102312Y-93453445D02*
X157149931Y-93596302D01*
X157149931Y-93596302D02*
X157149931Y-93834397D01*
X157149931Y-93834397D02*
X157102312Y-93929635D01*
X157102312Y-93929635D02*
X157054692Y-93977254D01*
X157054692Y-93977254D02*
X156959454Y-94024873D01*
X156959454Y-94024873D02*
X156864216Y-94024873D01*
X156864216Y-94024873D02*
X156768978Y-93977254D01*
X156768978Y-93977254D02*
X156721359Y-93929635D01*
X156721359Y-93929635D02*
X156673740Y-93834397D01*
X156673740Y-93834397D02*
X156626121Y-93643921D01*
X156626121Y-93643921D02*
X156578502Y-93548683D01*
X156578502Y-93548683D02*
X156530883Y-93501064D01*
X156530883Y-93501064D02*
X156435645Y-93453445D01*
X156435645Y-93453445D02*
X156340407Y-93453445D01*
X156340407Y-93453445D02*
X156245169Y-93501064D01*
X156245169Y-93501064D02*
X156197550Y-93548683D01*
X156197550Y-93548683D02*
X156149931Y-93643921D01*
X156149931Y-93643921D02*
X156149931Y-93882016D01*
X156149931Y-93882016D02*
X156197550Y-94024873D01*
X158759875Y-88786779D02*
X157759875Y-88786779D01*
X158759875Y-89358207D02*
X158188446Y-88929636D01*
X157759875Y-89358207D02*
X158331303Y-88786779D01*
X157759875Y-89786779D02*
X158569398Y-89786779D01*
X158569398Y-89786779D02*
X158664636Y-89834398D01*
X158664636Y-89834398D02*
X158712256Y-89882017D01*
X158712256Y-89882017D02*
X158759875Y-89977255D01*
X158759875Y-89977255D02*
X158759875Y-90167731D01*
X158759875Y-90167731D02*
X158712256Y-90262969D01*
X158712256Y-90262969D02*
X158664636Y-90310588D01*
X158664636Y-90310588D02*
X158569398Y-90358207D01*
X158569398Y-90358207D02*
X157759875Y-90358207D01*
X158759875Y-90834398D02*
X157759875Y-90834398D01*
X157759875Y-90834398D02*
X158759875Y-91405826D01*
X158759875Y-91405826D02*
X157759875Y-91405826D01*
X158378922Y-91882017D02*
X158378922Y-92643922D01*
X158283684Y-93310588D02*
X158759875Y-93310588D01*
X157759875Y-92977255D02*
X158283684Y-93310588D01*
X158283684Y-93310588D02*
X157759875Y-93643921D01*
X158759875Y-93977255D02*
X157759875Y-93977255D01*
X160369819Y-89262969D02*
X160369819Y-88786779D01*
X160369819Y-88786779D02*
X159369819Y-88786779D01*
X160369819Y-89739160D02*
X160322200Y-89643922D01*
X160322200Y-89643922D02*
X160274580Y-89596303D01*
X160274580Y-89596303D02*
X160179342Y-89548684D01*
X160179342Y-89548684D02*
X159893628Y-89548684D01*
X159893628Y-89548684D02*
X159798390Y-89596303D01*
X159798390Y-89596303D02*
X159750771Y-89643922D01*
X159750771Y-89643922D02*
X159703152Y-89739160D01*
X159703152Y-89739160D02*
X159703152Y-89882017D01*
X159703152Y-89882017D02*
X159750771Y-89977255D01*
X159750771Y-89977255D02*
X159798390Y-90024874D01*
X159798390Y-90024874D02*
X159893628Y-90072493D01*
X159893628Y-90072493D02*
X160179342Y-90072493D01*
X160179342Y-90072493D02*
X160274580Y-90024874D01*
X160274580Y-90024874D02*
X160322200Y-89977255D01*
X160322200Y-89977255D02*
X160369819Y-89882017D01*
X160369819Y-89882017D02*
X160369819Y-89739160D01*
X160369819Y-91072493D02*
X159893628Y-90739160D01*
X160369819Y-90501065D02*
X159369819Y-90501065D01*
X159369819Y-90501065D02*
X159369819Y-90882017D01*
X159369819Y-90882017D02*
X159417438Y-90977255D01*
X159417438Y-90977255D02*
X159465057Y-91024874D01*
X159465057Y-91024874D02*
X159560295Y-91072493D01*
X159560295Y-91072493D02*
X159703152Y-91072493D01*
X159703152Y-91072493D02*
X159798390Y-91024874D01*
X159798390Y-91024874D02*
X159846009Y-90977255D01*
X159846009Y-90977255D02*
X159893628Y-90882017D01*
X159893628Y-90882017D02*
X159893628Y-90501065D01*
X160369819Y-91929636D02*
X159846009Y-91929636D01*
X159846009Y-91929636D02*
X159750771Y-91882017D01*
X159750771Y-91882017D02*
X159703152Y-91786779D01*
X159703152Y-91786779D02*
X159703152Y-91596303D01*
X159703152Y-91596303D02*
X159750771Y-91501065D01*
X160322200Y-91929636D02*
X160369819Y-91834398D01*
X160369819Y-91834398D02*
X160369819Y-91596303D01*
X160369819Y-91596303D02*
X160322200Y-91501065D01*
X160322200Y-91501065D02*
X160226961Y-91453446D01*
X160226961Y-91453446D02*
X160131723Y-91453446D01*
X160131723Y-91453446D02*
X160036485Y-91501065D01*
X160036485Y-91501065D02*
X159988866Y-91596303D01*
X159988866Y-91596303D02*
X159988866Y-91834398D01*
X159988866Y-91834398D02*
X159941247Y-91929636D01*
X159369819Y-92262970D02*
X159369819Y-92834398D01*
X160369819Y-92548684D02*
X159369819Y-92548684D01*
X159369819Y-93072494D02*
X160369819Y-93310589D01*
X160369819Y-93310589D02*
X159655533Y-93501065D01*
X159655533Y-93501065D02*
X160369819Y-93691541D01*
X160369819Y-93691541D02*
X159369819Y-93929637D01*
X160465057Y-94072494D02*
X160465057Y-94834398D01*
X159465057Y-95024875D02*
X159417438Y-95072494D01*
X159417438Y-95072494D02*
X159369819Y-95167732D01*
X159369819Y-95167732D02*
X159369819Y-95405827D01*
X159369819Y-95405827D02*
X159417438Y-95501065D01*
X159417438Y-95501065D02*
X159465057Y-95548684D01*
X159465057Y-95548684D02*
X159560295Y-95596303D01*
X159560295Y-95596303D02*
X159655533Y-95596303D01*
X159655533Y-95596303D02*
X159798390Y-95548684D01*
X159798390Y-95548684D02*
X160369819Y-94977256D01*
X160369819Y-94977256D02*
X160369819Y-95596303D01*
X159369819Y-96501065D02*
X159369819Y-96024875D01*
X159369819Y-96024875D02*
X159846009Y-95977256D01*
X159846009Y-95977256D02*
X159798390Y-96024875D01*
X159798390Y-96024875D02*
X159750771Y-96120113D01*
X159750771Y-96120113D02*
X159750771Y-96358208D01*
X159750771Y-96358208D02*
X159798390Y-96453446D01*
X159798390Y-96453446D02*
X159846009Y-96501065D01*
X159846009Y-96501065D02*
X159941247Y-96548684D01*
X159941247Y-96548684D02*
X160179342Y-96548684D01*
X160179342Y-96548684D02*
X160274580Y-96501065D01*
X160274580Y-96501065D02*
X160322200Y-96453446D01*
X160322200Y-96453446D02*
X160369819Y-96358208D01*
X160369819Y-96358208D02*
X160369819Y-96120113D01*
X160369819Y-96120113D02*
X160322200Y-96024875D01*
X160322200Y-96024875D02*
X160274580Y-95977256D01*
X159369819Y-97167732D02*
X159369819Y-97262970D01*
X159369819Y-97262970D02*
X159417438Y-97358208D01*
X159417438Y-97358208D02*
X159465057Y-97405827D01*
X159465057Y-97405827D02*
X159560295Y-97453446D01*
X159560295Y-97453446D02*
X159750771Y-97501065D01*
X159750771Y-97501065D02*
X159988866Y-97501065D01*
X159988866Y-97501065D02*
X160179342Y-97453446D01*
X160179342Y-97453446D02*
X160274580Y-97405827D01*
X160274580Y-97405827D02*
X160322200Y-97358208D01*
X160322200Y-97358208D02*
X160369819Y-97262970D01*
X160369819Y-97262970D02*
X160369819Y-97167732D01*
X160369819Y-97167732D02*
X160322200Y-97072494D01*
X160322200Y-97072494D02*
X160274580Y-97024875D01*
X160274580Y-97024875D02*
X160179342Y-96977256D01*
X160179342Y-96977256D02*
X159988866Y-96929637D01*
X159988866Y-96929637D02*
X159750771Y-96929637D01*
X159750771Y-96929637D02*
X159560295Y-96977256D01*
X159560295Y-96977256D02*
X159465057Y-97024875D01*
X159465057Y-97024875D02*
X159417438Y-97072494D01*
X159417438Y-97072494D02*
X159369819Y-97167732D01*
X159798390Y-98072494D02*
X159750771Y-97977256D01*
X159750771Y-97977256D02*
X159703152Y-97929637D01*
X159703152Y-97929637D02*
X159607914Y-97882018D01*
X159607914Y-97882018D02*
X159560295Y-97882018D01*
X159560295Y-97882018D02*
X159465057Y-97929637D01*
X159465057Y-97929637D02*
X159417438Y-97977256D01*
X159417438Y-97977256D02*
X159369819Y-98072494D01*
X159369819Y-98072494D02*
X159369819Y-98262970D01*
X159369819Y-98262970D02*
X159417438Y-98358208D01*
X159417438Y-98358208D02*
X159465057Y-98405827D01*
X159465057Y-98405827D02*
X159560295Y-98453446D01*
X159560295Y-98453446D02*
X159607914Y-98453446D01*
X159607914Y-98453446D02*
X159703152Y-98405827D01*
X159703152Y-98405827D02*
X159750771Y-98358208D01*
X159750771Y-98358208D02*
X159798390Y-98262970D01*
X159798390Y-98262970D02*
X159798390Y-98072494D01*
X159798390Y-98072494D02*
X159846009Y-97977256D01*
X159846009Y-97977256D02*
X159893628Y-97929637D01*
X159893628Y-97929637D02*
X159988866Y-97882018D01*
X159988866Y-97882018D02*
X160179342Y-97882018D01*
X160179342Y-97882018D02*
X160274580Y-97929637D01*
X160274580Y-97929637D02*
X160322200Y-97977256D01*
X160322200Y-97977256D02*
X160369819Y-98072494D01*
X160369819Y-98072494D02*
X160369819Y-98262970D01*
X160369819Y-98262970D02*
X160322200Y-98358208D01*
X160322200Y-98358208D02*
X160274580Y-98405827D01*
X160274580Y-98405827D02*
X160179342Y-98453446D01*
X160179342Y-98453446D02*
X159988866Y-98453446D01*
X159988866Y-98453446D02*
X159893628Y-98405827D01*
X159893628Y-98405827D02*
X159846009Y-98358208D01*
X159846009Y-98358208D02*
X159798390Y-98262970D01*
X159465057Y-98834399D02*
X159417438Y-98882018D01*
X159417438Y-98882018D02*
X159369819Y-98977256D01*
X159369819Y-98977256D02*
X159369819Y-99215351D01*
X159369819Y-99215351D02*
X159417438Y-99310589D01*
X159417438Y-99310589D02*
X159465057Y-99358208D01*
X159465057Y-99358208D02*
X159560295Y-99405827D01*
X159560295Y-99405827D02*
X159655533Y-99405827D01*
X159655533Y-99405827D02*
X159798390Y-99358208D01*
X159798390Y-99358208D02*
X160369819Y-98786780D01*
X160369819Y-98786780D02*
X160369819Y-99405827D01*
X159369819Y-99739161D02*
X159369819Y-100358208D01*
X159369819Y-100358208D02*
X159750771Y-100024875D01*
X159750771Y-100024875D02*
X159750771Y-100167732D01*
X159750771Y-100167732D02*
X159798390Y-100262970D01*
X159798390Y-100262970D02*
X159846009Y-100310589D01*
X159846009Y-100310589D02*
X159941247Y-100358208D01*
X159941247Y-100358208D02*
X160179342Y-100358208D01*
X160179342Y-100358208D02*
X160274580Y-100310589D01*
X160274580Y-100310589D02*
X160322200Y-100262970D01*
X160322200Y-100262970D02*
X160369819Y-100167732D01*
X160369819Y-100167732D02*
X160369819Y-99882018D01*
X160369819Y-99882018D02*
X160322200Y-99786780D01*
X160322200Y-99786780D02*
X160274580Y-99739161D01*
D12*
X152985038Y-106848096D02*
X152937419Y-106752858D01*
X152937419Y-106752858D02*
X152937419Y-106610001D01*
X152937419Y-106610001D02*
X152985038Y-106467144D01*
X152985038Y-106467144D02*
X153080276Y-106371906D01*
X153080276Y-106371906D02*
X153175514Y-106324287D01*
X153175514Y-106324287D02*
X153365990Y-106276668D01*
X153365990Y-106276668D02*
X153508847Y-106276668D01*
X153508847Y-106276668D02*
X153699323Y-106324287D01*
X153699323Y-106324287D02*
X153794561Y-106371906D01*
X153794561Y-106371906D02*
X153889800Y-106467144D01*
X153889800Y-106467144D02*
X153937419Y-106610001D01*
X153937419Y-106610001D02*
X153937419Y-106705239D01*
X153937419Y-106705239D02*
X153889800Y-106848096D01*
X153889800Y-106848096D02*
X153842180Y-106895715D01*
X153842180Y-106895715D02*
X153508847Y-106895715D01*
X153508847Y-106895715D02*
X153508847Y-106705239D01*
X153937419Y-107324287D02*
X152937419Y-107324287D01*
X152937419Y-107324287D02*
X153937419Y-107895715D01*
X153937419Y-107895715D02*
X152937419Y-107895715D01*
X153937419Y-108371906D02*
X152937419Y-108371906D01*
X152937419Y-108371906D02*
X152937419Y-108610001D01*
X152937419Y-108610001D02*
X152985038Y-108752858D01*
X152985038Y-108752858D02*
X153080276Y-108848096D01*
X153080276Y-108848096D02*
X153175514Y-108895715D01*
X153175514Y-108895715D02*
X153365990Y-108943334D01*
X153365990Y-108943334D02*
X153508847Y-108943334D01*
X153508847Y-108943334D02*
X153699323Y-108895715D01*
X153699323Y-108895715D02*
X153794561Y-108848096D01*
X153794561Y-108848096D02*
X153889800Y-108752858D01*
X153889800Y-108752858D02*
X153937419Y-108610001D01*
X153937419Y-108610001D02*
X153937419Y-108371906D01*
X156937419Y-106276668D02*
X157937419Y-106610001D01*
X157937419Y-106610001D02*
X156937419Y-106943334D01*
X157842180Y-107848096D02*
X157889800Y-107800477D01*
X157889800Y-107800477D02*
X157937419Y-107657620D01*
X157937419Y-107657620D02*
X157937419Y-107562382D01*
X157937419Y-107562382D02*
X157889800Y-107419525D01*
X157889800Y-107419525D02*
X157794561Y-107324287D01*
X157794561Y-107324287D02*
X157699323Y-107276668D01*
X157699323Y-107276668D02*
X157508847Y-107229049D01*
X157508847Y-107229049D02*
X157365990Y-107229049D01*
X157365990Y-107229049D02*
X157175514Y-107276668D01*
X157175514Y-107276668D02*
X157080276Y-107324287D01*
X157080276Y-107324287D02*
X156985038Y-107419525D01*
X156985038Y-107419525D02*
X156937419Y-107562382D01*
X156937419Y-107562382D02*
X156937419Y-107657620D01*
X156937419Y-107657620D02*
X156985038Y-107800477D01*
X156985038Y-107800477D02*
X157032657Y-107848096D01*
X157842180Y-108848096D02*
X157889800Y-108800477D01*
X157889800Y-108800477D02*
X157937419Y-108657620D01*
X157937419Y-108657620D02*
X157937419Y-108562382D01*
X157937419Y-108562382D02*
X157889800Y-108419525D01*
X157889800Y-108419525D02*
X157794561Y-108324287D01*
X157794561Y-108324287D02*
X157699323Y-108276668D01*
X157699323Y-108276668D02*
X157508847Y-108229049D01*
X157508847Y-108229049D02*
X157365990Y-108229049D01*
X157365990Y-108229049D02*
X157175514Y-108276668D01*
X157175514Y-108276668D02*
X157080276Y-108324287D01*
X157080276Y-108324287D02*
X156985038Y-108419525D01*
X156985038Y-108419525D02*
X156937419Y-108562382D01*
X156937419Y-108562382D02*
X156937419Y-108657620D01*
X156937419Y-108657620D02*
X156985038Y-108800477D01*
X156985038Y-108800477D02*
X157032657Y-108848096D01*
X152012419Y-102752379D02*
X151536228Y-102419046D01*
X152012419Y-102180951D02*
X151012419Y-102180951D01*
X151012419Y-102180951D02*
X151012419Y-102561903D01*
X151012419Y-102561903D02*
X151060038Y-102657141D01*
X151060038Y-102657141D02*
X151107657Y-102704760D01*
X151107657Y-102704760D02*
X151202895Y-102752379D01*
X151202895Y-102752379D02*
X151345752Y-102752379D01*
X151345752Y-102752379D02*
X151440990Y-102704760D01*
X151440990Y-102704760D02*
X151488609Y-102657141D01*
X151488609Y-102657141D02*
X151536228Y-102561903D01*
X151536228Y-102561903D02*
X151536228Y-102180951D01*
X151964800Y-103133332D02*
X152012419Y-103276189D01*
X152012419Y-103276189D02*
X152012419Y-103514284D01*
X152012419Y-103514284D02*
X151964800Y-103609522D01*
X151964800Y-103609522D02*
X151917180Y-103657141D01*
X151917180Y-103657141D02*
X151821942Y-103704760D01*
X151821942Y-103704760D02*
X151726704Y-103704760D01*
X151726704Y-103704760D02*
X151631466Y-103657141D01*
X151631466Y-103657141D02*
X151583847Y-103609522D01*
X151583847Y-103609522D02*
X151536228Y-103514284D01*
X151536228Y-103514284D02*
X151488609Y-103323808D01*
X151488609Y-103323808D02*
X151440990Y-103228570D01*
X151440990Y-103228570D02*
X151393371Y-103180951D01*
X151393371Y-103180951D02*
X151298133Y-103133332D01*
X151298133Y-103133332D02*
X151202895Y-103133332D01*
X151202895Y-103133332D02*
X151107657Y-103180951D01*
X151107657Y-103180951D02*
X151060038Y-103228570D01*
X151060038Y-103228570D02*
X151012419Y-103323808D01*
X151012419Y-103323808D02*
X151012419Y-103561903D01*
X151012419Y-103561903D02*
X151060038Y-103704760D01*
X151012419Y-103990475D02*
X151012419Y-104561903D01*
X152012419Y-104276189D02*
X151012419Y-104276189D01*
X150734800Y-102042856D02*
X150734800Y-104557142D01*
X157943133Y-101609524D02*
X157990752Y-101752381D01*
X157990752Y-101752381D02*
X157990752Y-101990476D01*
X157990752Y-101990476D02*
X157943133Y-102085714D01*
X157943133Y-102085714D02*
X157895513Y-102133333D01*
X157895513Y-102133333D02*
X157800275Y-102180952D01*
X157800275Y-102180952D02*
X157705037Y-102180952D01*
X157705037Y-102180952D02*
X157609799Y-102133333D01*
X157609799Y-102133333D02*
X157562180Y-102085714D01*
X157562180Y-102085714D02*
X157514561Y-101990476D01*
X157514561Y-101990476D02*
X157466942Y-101800000D01*
X157466942Y-101800000D02*
X157419323Y-101704762D01*
X157419323Y-101704762D02*
X157371704Y-101657143D01*
X157371704Y-101657143D02*
X157276466Y-101609524D01*
X157276466Y-101609524D02*
X157181228Y-101609524D01*
X157181228Y-101609524D02*
X157085990Y-101657143D01*
X157085990Y-101657143D02*
X157038371Y-101704762D01*
X157038371Y-101704762D02*
X156990752Y-101800000D01*
X156990752Y-101800000D02*
X156990752Y-102038095D01*
X156990752Y-102038095D02*
X157038371Y-102180952D01*
X157895513Y-103180952D02*
X157943133Y-103133333D01*
X157943133Y-103133333D02*
X157990752Y-102990476D01*
X157990752Y-102990476D02*
X157990752Y-102895238D01*
X157990752Y-102895238D02*
X157943133Y-102752381D01*
X157943133Y-102752381D02*
X157847894Y-102657143D01*
X157847894Y-102657143D02*
X157752656Y-102609524D01*
X157752656Y-102609524D02*
X157562180Y-102561905D01*
X157562180Y-102561905D02*
X157419323Y-102561905D01*
X157419323Y-102561905D02*
X157228847Y-102609524D01*
X157228847Y-102609524D02*
X157133609Y-102657143D01*
X157133609Y-102657143D02*
X157038371Y-102752381D01*
X157038371Y-102752381D02*
X156990752Y-102895238D01*
X156990752Y-102895238D02*
X156990752Y-102990476D01*
X156990752Y-102990476D02*
X157038371Y-103133333D01*
X157038371Y-103133333D02*
X157085990Y-103180952D01*
X157990752Y-104085714D02*
X157990752Y-103609524D01*
X157990752Y-103609524D02*
X156990752Y-103609524D01*
X157990752Y-104419048D02*
X156990752Y-104419048D01*
X157990752Y-104990476D02*
X157419323Y-104561905D01*
X156990752Y-104990476D02*
X157562180Y-104419048D01*
X154985038Y-106848096D02*
X154937419Y-106752858D01*
X154937419Y-106752858D02*
X154937419Y-106610001D01*
X154937419Y-106610001D02*
X154985038Y-106467144D01*
X154985038Y-106467144D02*
X155080276Y-106371906D01*
X155080276Y-106371906D02*
X155175514Y-106324287D01*
X155175514Y-106324287D02*
X155365990Y-106276668D01*
X155365990Y-106276668D02*
X155508847Y-106276668D01*
X155508847Y-106276668D02*
X155699323Y-106324287D01*
X155699323Y-106324287D02*
X155794561Y-106371906D01*
X155794561Y-106371906D02*
X155889800Y-106467144D01*
X155889800Y-106467144D02*
X155937419Y-106610001D01*
X155937419Y-106610001D02*
X155937419Y-106705239D01*
X155937419Y-106705239D02*
X155889800Y-106848096D01*
X155889800Y-106848096D02*
X155842180Y-106895715D01*
X155842180Y-106895715D02*
X155508847Y-106895715D01*
X155508847Y-106895715D02*
X155508847Y-106705239D01*
X155937419Y-107324287D02*
X154937419Y-107324287D01*
X154937419Y-107324287D02*
X155937419Y-107895715D01*
X155937419Y-107895715D02*
X154937419Y-107895715D01*
X155937419Y-108371906D02*
X154937419Y-108371906D01*
X154937419Y-108371906D02*
X154937419Y-108610001D01*
X154937419Y-108610001D02*
X154985038Y-108752858D01*
X154985038Y-108752858D02*
X155080276Y-108848096D01*
X155080276Y-108848096D02*
X155175514Y-108895715D01*
X155175514Y-108895715D02*
X155365990Y-108943334D01*
X155365990Y-108943334D02*
X155508847Y-108943334D01*
X155508847Y-108943334D02*
X155699323Y-108895715D01*
X155699323Y-108895715D02*
X155794561Y-108848096D01*
X155794561Y-108848096D02*
X155889800Y-108752858D01*
X155889800Y-108752858D02*
X155937419Y-108610001D01*
X155937419Y-108610001D02*
X155937419Y-108371906D01*
X158937419Y-106276668D02*
X159937419Y-106610001D01*
X159937419Y-106610001D02*
X158937419Y-106943334D01*
X159842180Y-107848096D02*
X159889800Y-107800477D01*
X159889800Y-107800477D02*
X159937419Y-107657620D01*
X159937419Y-107657620D02*
X159937419Y-107562382D01*
X159937419Y-107562382D02*
X159889800Y-107419525D01*
X159889800Y-107419525D02*
X159794561Y-107324287D01*
X159794561Y-107324287D02*
X159699323Y-107276668D01*
X159699323Y-107276668D02*
X159508847Y-107229049D01*
X159508847Y-107229049D02*
X159365990Y-107229049D01*
X159365990Y-107229049D02*
X159175514Y-107276668D01*
X159175514Y-107276668D02*
X159080276Y-107324287D01*
X159080276Y-107324287D02*
X158985038Y-107419525D01*
X158985038Y-107419525D02*
X158937419Y-107562382D01*
X158937419Y-107562382D02*
X158937419Y-107657620D01*
X158937419Y-107657620D02*
X158985038Y-107800477D01*
X158985038Y-107800477D02*
X159032657Y-107848096D01*
X159842180Y-108848096D02*
X159889800Y-108800477D01*
X159889800Y-108800477D02*
X159937419Y-108657620D01*
X159937419Y-108657620D02*
X159937419Y-108562382D01*
X159937419Y-108562382D02*
X159889800Y-108419525D01*
X159889800Y-108419525D02*
X159794561Y-108324287D01*
X159794561Y-108324287D02*
X159699323Y-108276668D01*
X159699323Y-108276668D02*
X159508847Y-108229049D01*
X159508847Y-108229049D02*
X159365990Y-108229049D01*
X159365990Y-108229049D02*
X159175514Y-108276668D01*
X159175514Y-108276668D02*
X159080276Y-108324287D01*
X159080276Y-108324287D02*
X158985038Y-108419525D01*
X158985038Y-108419525D02*
X158937419Y-108562382D01*
X158937419Y-108562382D02*
X158937419Y-108657620D01*
X158937419Y-108657620D02*
X158985038Y-108800477D01*
X158985038Y-108800477D02*
X159032657Y-108848096D01*
X156034085Y-101728572D02*
X155034085Y-101728572D01*
X155034085Y-101728572D02*
X155748370Y-102061905D01*
X155748370Y-102061905D02*
X155034085Y-102395238D01*
X155034085Y-102395238D02*
X156034085Y-102395238D01*
X155034085Y-103061905D02*
X155034085Y-103252381D01*
X155034085Y-103252381D02*
X155081704Y-103347619D01*
X155081704Y-103347619D02*
X155176942Y-103442857D01*
X155176942Y-103442857D02*
X155367418Y-103490476D01*
X155367418Y-103490476D02*
X155700751Y-103490476D01*
X155700751Y-103490476D02*
X155891227Y-103442857D01*
X155891227Y-103442857D02*
X155986466Y-103347619D01*
X155986466Y-103347619D02*
X156034085Y-103252381D01*
X156034085Y-103252381D02*
X156034085Y-103061905D01*
X156034085Y-103061905D02*
X155986466Y-102966667D01*
X155986466Y-102966667D02*
X155891227Y-102871429D01*
X155891227Y-102871429D02*
X155700751Y-102823810D01*
X155700751Y-102823810D02*
X155367418Y-102823810D01*
X155367418Y-102823810D02*
X155176942Y-102871429D01*
X155176942Y-102871429D02*
X155081704Y-102966667D01*
X155081704Y-102966667D02*
X155034085Y-103061905D01*
X155986466Y-103871429D02*
X156034085Y-104014286D01*
X156034085Y-104014286D02*
X156034085Y-104252381D01*
X156034085Y-104252381D02*
X155986466Y-104347619D01*
X155986466Y-104347619D02*
X155938846Y-104395238D01*
X155938846Y-104395238D02*
X155843608Y-104442857D01*
X155843608Y-104442857D02*
X155748370Y-104442857D01*
X155748370Y-104442857D02*
X155653132Y-104395238D01*
X155653132Y-104395238D02*
X155605513Y-104347619D01*
X155605513Y-104347619D02*
X155557894Y-104252381D01*
X155557894Y-104252381D02*
X155510275Y-104061905D01*
X155510275Y-104061905D02*
X155462656Y-103966667D01*
X155462656Y-103966667D02*
X155415037Y-103919048D01*
X155415037Y-103919048D02*
X155319799Y-103871429D01*
X155319799Y-103871429D02*
X155224561Y-103871429D01*
X155224561Y-103871429D02*
X155129323Y-103919048D01*
X155129323Y-103919048D02*
X155081704Y-103966667D01*
X155081704Y-103966667D02*
X155034085Y-104061905D01*
X155034085Y-104061905D02*
X155034085Y-104300000D01*
X155034085Y-104300000D02*
X155081704Y-104442857D01*
X156034085Y-104871429D02*
X155034085Y-104871429D01*
D13*
%TO.C,J2*%
X148370000Y-113870000D02*
X148370000Y-109650000D01*
X158480000Y-111760000D02*
X160590000Y-111760000D01*
X158480000Y-113870000D02*
X148370000Y-113870000D01*
X158480000Y-113870000D02*
X158480000Y-111760000D01*
X159480000Y-113870000D02*
X160590000Y-113870000D01*
X160590000Y-109650000D02*
X148370000Y-109650000D01*
X160590000Y-111760000D02*
X160590000Y-109650000D01*
X160590000Y-113870000D02*
X160590000Y-112760000D01*
%TD*%
%LPC*%
D14*
%TO.C,J2*%
X159480000Y-112760000D03*
D15*
X159480000Y-110760000D03*
X157480000Y-112760000D03*
X157480000Y-110760000D03*
X155480000Y-112760000D03*
X155480000Y-110760000D03*
X153480000Y-112760000D03*
X153480000Y-110760000D03*
X151480000Y-112760000D03*
X151480000Y-110760000D03*
X149480000Y-112760000D03*
X149480000Y-110760000D03*
%TD*%
%LPD*%
M02*
