%TF.GenerationSoftware,KiCad,Pcbnew,9.0.4-9.0.4-0~ubuntu22.04.1*%
%TF.CreationDate,2025-08-28T19:05:07+08:00*%
%TF.ProjectId,LoRa-TW,4c6f5261-2d54-4572-9e6b-696361645f70,0.1*%
%TF.SameCoordinates,Original*%
%TF.FileFunction,Copper,L1,Top*%
%TF.FilePolarity,Positive*%
%FSLAX46Y46*%
G04 Gerber Fmt 4.6, Leading zero omitted, Abs format (unit mm)*
G04 Created by KiCad (PCBNEW 9.0.4-9.0.4-0~ubuntu22.04.1) date 2025-08-28 19:05:07*
%MOMM*%
%LPD*%
G01*
G04 APERTURE LIST*
G04 Aperture macros list*
%AMRoundRect*
0 Rectangle with rounded corners*
0 $1 Rounding radius*
0 $2 $3 $4 $5 $6 $7 $8 $9 X,Y pos of 4 corners*
0 Add a 4 corners polygon primitive as box body*
4,1,4,$2,$3,$4,$5,$6,$7,$8,$9,$2,$3,0*
0 Add four circle primitives for the rounded corners*
1,1,$1+$1,$2,$3*
1,1,$1+$1,$4,$5*
1,1,$1+$1,$6,$7*
1,1,$1+$1,$8,$9*
0 Add four rect primitives between the rounded corners*
20,1,$1+$1,$2,$3,$4,$5,0*
20,1,$1+$1,$4,$5,$6,$7,0*
20,1,$1+$1,$6,$7,$8,$9,0*
20,1,$1+$1,$8,$9,$2,$3,0*%
G04 Aperture macros list end*
%TA.AperFunction,SMDPad,CuDef*%
%ADD10RoundRect,0.135000X0.165000X0.135000X-0.165000X0.135000X-0.165000X-0.135000X0.165000X-0.135000X0*%
%TD*%
%TA.AperFunction,SMDPad,CuDef*%
%ADD11R,0.381000X0.304800*%
%TD*%
%TA.AperFunction,SMDPad,CuDef*%
%ADD12RoundRect,0.218750X-0.218750X-0.381250X0.218750X-0.381250X0.218750X0.381250X-0.218750X0.381250X0*%
%TD*%
%TA.AperFunction,SMDPad,CuDef*%
%ADD13RoundRect,0.135000X-0.135000X0.175000X-0.135000X-0.175000X0.135000X-0.175000X0.135000X0.175000X0*%
%TD*%
%TA.AperFunction,SMDPad,CuDef*%
%ADD14RoundRect,0.135000X-0.175000X-0.135000X0.175000X-0.135000X0.175000X0.135000X-0.175000X0.135000X0*%
%TD*%
%TA.AperFunction,SMDPad,CuDef*%
%ADD15R,0.355600X0.787400*%
%TD*%
%TA.AperFunction,SMDPad,CuDef*%
%ADD16RoundRect,0.210000X0.215000X0.140000X-0.215000X0.140000X-0.215000X-0.140000X0.215000X-0.140000X0*%
%TD*%
%TA.AperFunction,SMDPad,CuDef*%
%ADD17RoundRect,0.135000X0.175000X0.135000X-0.175000X0.135000X-0.175000X-0.135000X0.175000X-0.135000X0*%
%TD*%
%TA.AperFunction,SMDPad,CuDef*%
%ADD18RoundRect,0.135000X0.135000X-0.165000X0.135000X0.165000X-0.135000X0.165000X-0.135000X-0.165000X0*%
%TD*%
%TA.AperFunction,SMDPad,CuDef*%
%ADD19RoundRect,0.135000X-0.165000X-0.135000X0.165000X-0.135000X0.165000X0.135000X-0.165000X0.135000X0*%
%TD*%
%TA.AperFunction,SMDPad,CuDef*%
%ADD20RoundRect,0.135000X0.135000X-0.175000X0.135000X0.175000X-0.135000X0.175000X-0.135000X-0.175000X0*%
%TD*%
%TA.AperFunction,SMDPad,CuDef*%
%ADD21RoundRect,0.225000X0.225000X0.250000X-0.225000X0.250000X-0.225000X-0.250000X0.225000X-0.250000X0*%
%TD*%
%TA.AperFunction,SMDPad,CuDef*%
%ADD22RoundRect,0.250000X0.250000X0.475000X-0.250000X0.475000X-0.250000X-0.475000X0.250000X-0.475000X0*%
%TD*%
%TA.AperFunction,SMDPad,CuDef*%
%ADD23R,0.840000X0.260000*%
%TD*%
%TA.AperFunction,SMDPad,CuDef*%
%ADD24R,0.260000X0.840000*%
%TD*%
%TA.AperFunction,SMDPad,CuDef*%
%ADD25R,2.600000X2.600000*%
%TD*%
%TA.AperFunction,SMDPad,CuDef*%
%ADD26R,1.050000X1.000000*%
%TD*%
%TA.AperFunction,SMDPad,CuDef*%
%ADD27R,2.200000X1.050000*%
%TD*%
%TA.AperFunction,SMDPad,CuDef*%
%ADD28RoundRect,0.250000X0.000010X-1.000000X0.000010X1.000000X-0.000010X1.000000X-0.000010X-1.000000X0*%
%TD*%
%TA.AperFunction,SMDPad,CuDef*%
%ADD29RoundRect,0.250000X-1.000000X-0.000010X1.000000X-0.000010X1.000000X0.000010X-1.000000X0.000010X0*%
%TD*%
%TA.AperFunction,SMDPad,CuDef*%
%ADD30RoundRect,0.250000X-0.500000X-0.000010X0.500000X-0.000010X0.500000X0.000010X-0.500000X0.000010X0*%
%TD*%
%TA.AperFunction,SMDPad,CuDef*%
%ADD31RoundRect,0.250000X-0.000010X0.500000X-0.000010X-0.500000X0.000010X-0.500000X0.000010X0.500000X0*%
%TD*%
%TA.AperFunction,SMDPad,CuDef*%
%ADD32RoundRect,0.250000X-0.000010X1.000000X-0.000010X-1.000000X0.000010X-1.000000X0.000010X1.000000X0*%
%TD*%
%TA.AperFunction,ComponentPad*%
%ADD33R,1.350000X1.350000*%
%TD*%
%TA.AperFunction,ComponentPad*%
%ADD34C,1.350000*%
%TD*%
%TA.AperFunction,ViaPad*%
%ADD35C,0.500000*%
%TD*%
%TA.AperFunction,ViaPad*%
%ADD36C,0.480000*%
%TD*%
%TA.AperFunction,Conductor*%
%ADD37C,0.263400*%
%TD*%
%TA.AperFunction,Conductor*%
%ADD38C,0.152400*%
%TD*%
%TA.AperFunction,Conductor*%
%ADD39C,0.349300*%
%TD*%
%TA.AperFunction,Conductor*%
%ADD40C,0.200000*%
%TD*%
%TA.AperFunction,Conductor*%
%ADD41C,0.210000*%
%TD*%
%TA.AperFunction,Conductor*%
%ADD42C,0.220000*%
%TD*%
%TA.AperFunction,Conductor*%
%ADD43C,0.500000*%
%TD*%
%TA.AperFunction,Conductor*%
%ADD44C,0.154700*%
%TD*%
G04 APERTURE END LIST*
D10*
%TO.P,R7,1*%
%TO.N,Net-(J2-Pin_8)*%
X159030000Y-101400000D03*
%TO.P,R7,2*%
%TO.N,/SPI_MISO*%
X158010000Y-101400000D03*
%TD*%
D11*
%TO.P,FL1,1,IN*%
%TO.N,Net-(FL1-IN)*%
X154780000Y-94540124D03*
%TO.P,FL1,2,GND*%
%TO.N,GND*%
X154492500Y-95040250D03*
%TO.P,FL1,3,GND*%
X154492500Y-95540125D03*
%TO.P,FL1,4,OUT*%
%TO.N,Net-(FL1-OUT)*%
X155067500Y-95540125D03*
%TO.P,FL1,5,GND*%
%TO.N,GND*%
X155067500Y-95040250D03*
%TD*%
D12*
%TO.P,L7,1*%
%TO.N,/VREG*%
X152677500Y-106770000D03*
%TO.P,L7,2*%
%TO.N,Net-(U1-DCC_SW)*%
X154802500Y-106770000D03*
%TD*%
D13*
%TO.P,C3,1*%
%TO.N,GND*%
X155340000Y-97370000D03*
%TO.P,C3,2*%
%TO.N,/RFI_P*%
X155340000Y-98330000D03*
%TD*%
D14*
%TO.P,L5,1*%
%TO.N,Net-(C13-Pad1)*%
X151665000Y-95385000D03*
%TO.P,L5,2*%
%TO.N,Net-(S1-RF1)*%
X152635000Y-95385000D03*
%TD*%
D10*
%TO.P,R9,1*%
%TO.N,Net-(J2-Pin_12)*%
X159030000Y-103430000D03*
%TO.P,R9,2*%
%TO.N,/BUSY*%
X158010000Y-103430000D03*
%TD*%
D15*
%TO.P,S1,1,RF1*%
%TO.N,Net-(S1-RF1)*%
X152690001Y-93386800D03*
%TO.P,S1,2,GND*%
%TO.N,GND*%
X153340000Y-93386800D03*
%TO.P,S1,3,RF2*%
%TO.N,Net-(FL1-IN)*%
X153989999Y-93386800D03*
%TO.P,S1,4,CTRL*%
%TO.N,Net-(S1-CTRL)*%
X153989999Y-91253200D03*
%TO.P,S1,5,RFC*%
%TO.N,Net-(S1-RFC)*%
X153340000Y-91253200D03*
%TO.P,S1,6,~{CTRL}/VDD*%
%TO.N,Net-(S1-~{CTRL}{slash}VDD)*%
X152690001Y-91253200D03*
%TD*%
D13*
%TO.P,L3,1*%
%TO.N,Net-(C10-Pad2)*%
X151730000Y-98055000D03*
%TO.P,L3,2*%
%TO.N,Net-(U1-VR_PA)*%
X151730000Y-99025000D03*
%TD*%
D14*
%TO.P,C14,1*%
%TO.N,GND*%
X151675000Y-94485000D03*
%TO.P,C14,2*%
%TO.N,Net-(S1-RF1)*%
X152635000Y-94485000D03*
%TD*%
D16*
%TO.P,X1,1,VCNT*%
%TO.N,GND*%
X151110000Y-106668200D03*
%TO.P,X1,2,GND*%
X151110000Y-104560000D03*
%TO.P,X1,3,XO*%
%TO.N,Net-(X1-XO)*%
X149586000Y-104560000D03*
%TO.P,X1,4,VCC*%
%TO.N,Net-(X1-VCC)*%
X149586000Y-106668200D03*
%TD*%
D17*
%TO.P,L4,1*%
%TO.N,Net-(C10-Pad2)*%
X150865000Y-98085000D03*
%TO.P,L4,2*%
%TO.N,Net-(C10-Pad1)*%
X149895000Y-98085000D03*
%TD*%
D18*
%TO.P,R1,1*%
%TO.N,Net-(C1-Pad2)*%
X151720000Y-103460000D03*
%TO.P,R1,2*%
%TO.N,/CLK_{32M}*%
X151720000Y-102440000D03*
%TD*%
D19*
%TO.P,FB1,1*%
%TO.N,Net-(X1-VCC)*%
X150240000Y-107840000D03*
%TO.P,FB1,2*%
%TO.N,/DIO3_CLK_{EN}*%
X151260000Y-107840000D03*
%TD*%
D17*
%TO.P,C18,1*%
%TO.N,GND*%
X153860000Y-105460000D03*
%TO.P,C18,2*%
%TO.N,/VREG*%
X152900000Y-105460000D03*
%TD*%
D20*
%TO.P,C16,1*%
%TO.N,GND*%
X155180000Y-90920000D03*
%TO.P,C16,2*%
%TO.N,Net-(C15-Pad1)*%
X155180000Y-89960000D03*
%TD*%
D13*
%TO.P,C11,1*%
%TO.N,GND*%
X152640000Y-97360000D03*
%TO.P,C11,2*%
%TO.N,Net-(C10-Pad2)*%
X152640000Y-98320000D03*
%TD*%
D14*
%TO.P,C8,1*%
%TO.N,GND*%
X150780000Y-99960000D03*
%TO.P,C8,2*%
%TO.N,Net-(U1-VR_PA)*%
X151740000Y-99960000D03*
%TD*%
D17*
%TO.P,C13,1*%
%TO.N,Net-(C13-Pad1)*%
X151530000Y-96285000D03*
%TO.P,C13,2*%
%TO.N,Net-(C10-Pad1)*%
X150570000Y-96285000D03*
%TD*%
%TO.P,C5,1*%
%TO.N,GND*%
X156050000Y-96490000D03*
%TO.P,C5,2*%
%TO.N,Net-(FL1-OUT)*%
X155090000Y-96490000D03*
%TD*%
D21*
%TO.P,C21,1*%
%TO.N,VDD*%
X151455000Y-101140000D03*
%TO.P,C21,2*%
%TO.N,GND*%
X149905000Y-101140000D03*
%TD*%
D10*
%TO.P,R5,1*%
%TO.N,Net-(J2-Pin_4)*%
X159040000Y-99590000D03*
%TO.P,R5,2*%
%TO.N,/SPI_CLK*%
X158020000Y-99590000D03*
%TD*%
D14*
%TO.P,C7,1*%
%TO.N,GND*%
X150620000Y-91800000D03*
%TO.P,C7,2*%
%TO.N,Net-(S1-~{CTRL}{slash}VDD)*%
X151580000Y-91800000D03*
%TD*%
D19*
%TO.P,R10,1*%
%TO.N,/DIO1_INT*%
X157500000Y-104360000D03*
%TO.P,R10,2*%
%TO.N,Net-(J2-Pin_9)*%
X158520000Y-104360000D03*
%TD*%
D22*
%TO.P,C20,1*%
%TO.N,GND*%
X158140000Y-106770000D03*
%TO.P,C20,2*%
%TO.N,VDD*%
X156240000Y-106770000D03*
%TD*%
D10*
%TO.P,R2,1*%
%TO.N,/DIO2_ANT_{SW}*%
X156130000Y-92730000D03*
%TO.P,R2,2*%
%TO.N,Net-(S1-CTRL)*%
X155110000Y-92730000D03*
%TD*%
D23*
%TO.P,U1,1,VDD_IN*%
%TO.N,VDD*%
X152837500Y-101020125D03*
%TO.P,U1,2,GND*%
%TO.N,GND*%
X152837500Y-101520125D03*
%TO.P,U1,3,XTA*%
%TO.N,/CLK_{32M}*%
X152837500Y-102020125D03*
%TO.P,U1,4,XTB*%
%TO.N,unconnected-(U1-XTB-Pad4)*%
X152837500Y-102520125D03*
%TO.P,U1,5,GND*%
%TO.N,GND*%
X152837500Y-103020125D03*
%TO.P,U1,6,DIO3*%
%TO.N,/DIO3_CLK_{EN}*%
X152837500Y-103520125D03*
D24*
%TO.P,U1,7,VREG*%
%TO.N,/VREG*%
X153532500Y-104215125D03*
%TO.P,U1,8,GND*%
%TO.N,GND*%
X154032500Y-104215125D03*
%TO.P,U1,9,DCC_SW*%
%TO.N,Net-(U1-DCC_SW)*%
X154532500Y-104215125D03*
%TO.P,U1,10,VBAT*%
%TO.N,VDD*%
X155032500Y-104215125D03*
%TO.P,U1,11,VBAT_IO*%
X155532500Y-104215125D03*
%TO.P,U1,12,DIO2*%
%TO.N,/DIO2_ANT_{SW}*%
X156032500Y-104215125D03*
D23*
%TO.P,U1,13,DIO1*%
%TO.N,/DIO1_INT*%
X156727500Y-103520125D03*
%TO.P,U1,14,BUSY*%
%TO.N,/BUSY*%
X156727500Y-103020125D03*
%TO.P,U1,15,~{NRESET}*%
%TO.N,/~{RESET}*%
X156727500Y-102520125D03*
%TO.P,U1,16,MISO*%
%TO.N,/SPI_MISO*%
X156727500Y-102020125D03*
%TO.P,U1,17,MOSI*%
%TO.N,/SPI_MOSI*%
X156727500Y-101520125D03*
%TO.P,U1,18,SCK*%
%TO.N,/SPI_CLK*%
X156727500Y-101020125D03*
D24*
%TO.P,U1,19,NSS*%
%TO.N,/SPI_NSS*%
X156032500Y-100325125D03*
%TO.P,U1,20,GND*%
%TO.N,GND*%
X155532500Y-100325125D03*
%TO.P,U1,21,RFI_P*%
%TO.N,/RFI_P*%
X155032500Y-100325125D03*
%TO.P,U1,22,RFI_N*%
%TO.N,/RFI_N*%
X154532500Y-100325125D03*
%TO.P,U1,23,RFO*%
%TO.N,Net-(U1-RFO)*%
X154032500Y-100325125D03*
%TO.P,U1,24,VR_PA*%
%TO.N,Net-(U1-VR_PA)*%
X153532500Y-100325125D03*
D25*
%TO.P,U1,25,EXP_GND*%
%TO.N,GND*%
X154782500Y-102270125D03*
%TD*%
D17*
%TO.P,C6,1*%
%TO.N,GND*%
X156090000Y-91800000D03*
%TO.P,C6,2*%
%TO.N,Net-(S1-CTRL)*%
X155130000Y-91800000D03*
%TD*%
D14*
%TO.P,C1,1*%
%TO.N,Net-(X1-XO)*%
X149860000Y-103390000D03*
%TO.P,C1,2*%
%TO.N,Net-(C1-Pad2)*%
X150820000Y-103390000D03*
%TD*%
D13*
%TO.P,C12,1*%
%TO.N,GND*%
X150740000Y-94455000D03*
%TO.P,C12,2*%
%TO.N,Net-(C10-Pad1)*%
X150740000Y-95415000D03*
%TD*%
D10*
%TO.P,R4,1*%
%TO.N,Net-(J2-Pin_2)*%
X159040000Y-98690000D03*
%TO.P,R4,2*%
%TO.N,/SPI_NSS*%
X158020000Y-98690000D03*
%TD*%
D20*
%TO.P,C17,1*%
%TO.N,GND*%
X156080000Y-90920000D03*
%TO.P,C17,2*%
%TO.N,Net-(C17-Pad2)*%
X156080000Y-89960000D03*
%TD*%
D14*
%TO.P,C19,1*%
%TO.N,VDD*%
X155460000Y-105340000D03*
%TO.P,C19,2*%
%TO.N,GND*%
X156420000Y-105340000D03*
%TD*%
%TO.P,L6,1*%
%TO.N,Net-(C15-Pad1)*%
X155125000Y-89080000D03*
%TO.P,L6,2*%
%TO.N,Net-(C17-Pad2)*%
X156095000Y-89080000D03*
%TD*%
%TO.P,C23,1*%
%TO.N,/~{RESET}*%
X158040000Y-102300000D03*
%TO.P,C23,2*%
%TO.N,VDD*%
X159000000Y-102300000D03*
%TD*%
D19*
%TO.P,R3,1*%
%TO.N,/MCU_ANT_{SW}*%
X150570000Y-92730000D03*
%TO.P,R3,2*%
%TO.N,Net-(S1-~{CTRL}{slash}VDD)*%
X151590000Y-92730000D03*
%TD*%
D26*
%TO.P,J1,1,1*%
%TO.N,Net-(C17-Pad2)*%
X158645000Y-90080000D03*
D27*
%TO.P,J1,2,2*%
%TO.N,GND*%
X160170000Y-91555000D03*
%TO.P,J1,3,3*%
X160170000Y-88605000D03*
%TD*%
D17*
%TO.P,L1,1*%
%TO.N,/RFI_P*%
X155395000Y-99210000D03*
%TO.P,L1,2*%
%TO.N,/RFI_N*%
X154425000Y-99210000D03*
%TD*%
%TO.P,L2,1*%
%TO.N,Net-(U1-RFO)*%
X153565000Y-99200000D03*
%TO.P,L2,2*%
%TO.N,Net-(C10-Pad2)*%
X152595000Y-99200000D03*
%TD*%
D14*
%TO.P,C10,1*%
%TO.N,Net-(C10-Pad1)*%
X150240000Y-97185000D03*
%TO.P,C10,2*%
%TO.N,Net-(C10-Pad2)*%
X151200000Y-97185000D03*
%TD*%
D13*
%TO.P,C4,1*%
%TO.N,Net-(FL1-OUT)*%
X154440000Y-97370000D03*
%TO.P,C4,2*%
%TO.N,/RFI_N*%
X154440000Y-98330000D03*
%TD*%
D17*
%TO.P,C15,1*%
%TO.N,Net-(C15-Pad1)*%
X154290000Y-90160000D03*
%TO.P,C15,2*%
%TO.N,Net-(S1-RFC)*%
X153330000Y-90160000D03*
%TD*%
D14*
%TO.P,C2,1*%
%TO.N,GND*%
X148440000Y-107820000D03*
%TO.P,C2,2*%
%TO.N,Net-(X1-VCC)*%
X149400000Y-107820000D03*
%TD*%
%TO.P,C9,1*%
%TO.N,GND*%
X149900000Y-98985000D03*
%TO.P,C9,2*%
%TO.N,Net-(U1-VR_PA)*%
X150860000Y-98985000D03*
%TD*%
D28*
%TO.P,J3,1,Shield*%
%TO.N,GND*%
X147570000Y-89180000D03*
X147570000Y-89780000D03*
X147570000Y-92780000D03*
X147570000Y-95780000D03*
X147570000Y-98780000D03*
X147570000Y-101780000D03*
X147570000Y-104780000D03*
X147570000Y-107780000D03*
D29*
X148570000Y-88180000D03*
X148570000Y-108780000D03*
X151570000Y-88180000D03*
X151570000Y-108780000D03*
X154570000Y-88180000D03*
X154570000Y-108780000D03*
X156270000Y-88180000D03*
D30*
X157120000Y-108780000D03*
D31*
X157270000Y-88680000D03*
D32*
X157270000Y-92030000D03*
D29*
X158270000Y-93030000D03*
X159420000Y-93030000D03*
X160570000Y-93030000D03*
X160570000Y-108780000D03*
D32*
X161570000Y-94030000D03*
X161570000Y-95780000D03*
X161570000Y-98780000D03*
X161570000Y-101780000D03*
X161570000Y-104780000D03*
X161570000Y-107780000D03*
%TD*%
D10*
%TO.P,R6,1*%
%TO.N,Net-(J2-Pin_6)*%
X159040000Y-100490000D03*
%TO.P,R6,2*%
%TO.N,/SPI_MOSI*%
X158020000Y-100490000D03*
%TD*%
D18*
%TO.P,R8,1*%
%TO.N,Net-(J2-Pin_10)*%
X159880000Y-104020000D03*
%TO.P,R8,2*%
%TO.N,/~{RESET}*%
X159880000Y-103000000D03*
%TD*%
D33*
%TO.P,J2,1,Pin_1*%
%TO.N,VDD*%
X159480000Y-112760000D03*
D34*
%TO.P,J2,2,Pin_2*%
%TO.N,Net-(J2-Pin_2)*%
X159480000Y-110760000D03*
%TO.P,J2,3,Pin_3*%
%TO.N,VDD*%
X157480000Y-112760000D03*
%TO.P,J2,4,Pin_4*%
%TO.N,Net-(J2-Pin_4)*%
X157480000Y-110760000D03*
%TO.P,J2,5,Pin_5*%
%TO.N,GND*%
X155480000Y-112760000D03*
%TO.P,J2,6,Pin_6*%
%TO.N,Net-(J2-Pin_6)*%
X155480000Y-110760000D03*
%TO.P,J2,7,Pin_7*%
%TO.N,GND*%
X153480000Y-112760000D03*
%TO.P,J2,8,Pin_8*%
%TO.N,Net-(J2-Pin_8)*%
X153480000Y-110760000D03*
%TO.P,J2,9,Pin_9*%
%TO.N,Net-(J2-Pin_9)*%
X151480000Y-112760000D03*
%TO.P,J2,10,Pin_10*%
%TO.N,Net-(J2-Pin_10)*%
X151480000Y-110760000D03*
%TO.P,J2,11,Pin_11*%
%TO.N,/MCU_ANT_{SW}*%
X149480000Y-112760000D03*
%TO.P,J2,12,Pin_12*%
%TO.N,Net-(J2-Pin_12)*%
X149480000Y-110760000D03*
%TD*%
D35*
%TO.N,GND*%
X154450000Y-95950000D03*
X161570000Y-96780000D03*
X147570000Y-96780000D03*
X160550000Y-93980000D03*
X152570000Y-88180000D03*
X147570000Y-113830000D03*
X154270000Y-102830000D03*
X157470000Y-94030000D03*
X157270000Y-88170000D03*
X161000000Y-91890000D03*
X152980000Y-92080000D03*
X152580000Y-108780000D03*
X157090251Y-104979765D03*
X153800000Y-105980000D03*
X159325000Y-88320000D03*
X161580000Y-108780000D03*
X158220000Y-88150000D03*
X154160000Y-92560000D03*
X148580000Y-100820000D03*
X160580000Y-97730000D03*
X154640000Y-93430000D03*
X148580000Y-95580000D03*
X147570000Y-98780000D03*
X150520000Y-89940000D03*
X156090000Y-98620000D03*
X160500000Y-101650000D03*
X148670000Y-104570000D03*
X148670000Y-108780000D03*
X149580000Y-89950000D03*
X148760000Y-107320000D03*
X158280000Y-93030000D03*
X154030000Y-104960000D03*
X151570000Y-108780000D03*
X150610000Y-90950000D03*
X150340000Y-100450000D03*
X150010000Y-95700000D03*
X148990000Y-93800000D03*
X156190000Y-94310000D03*
X153340000Y-92750000D03*
X147570000Y-94780000D03*
X155330000Y-102850000D03*
X161570000Y-101840000D03*
X157110000Y-108780000D03*
X160170000Y-88880000D03*
X154070000Y-88740000D03*
X155540000Y-101000000D03*
X149570000Y-89020000D03*
X153380000Y-98470000D03*
X147570000Y-95770000D03*
X158830000Y-106060000D03*
X154782500Y-103290000D03*
X158370000Y-96510000D03*
X149520000Y-99930000D03*
X156310000Y-94980000D03*
X150215000Y-99545000D03*
X147570000Y-108780000D03*
X156150000Y-113830000D03*
X159420000Y-96480000D03*
X154480000Y-112760000D03*
X149972752Y-94475128D03*
X147570000Y-91790000D03*
X148540000Y-89920000D03*
X161580000Y-95770000D03*
X151741887Y-106517996D03*
X148660000Y-102770000D03*
X158380000Y-97760000D03*
X153400000Y-89440000D03*
X149110000Y-109570000D03*
X154782500Y-102270125D03*
X149580000Y-108780000D03*
X149580000Y-90800000D03*
X154480000Y-113830000D03*
X150030000Y-109220000D03*
X147570000Y-93790000D03*
X153180000Y-97410000D03*
X158100000Y-91040000D03*
X151680000Y-107087600D03*
X151460000Y-106000000D03*
X157460000Y-97370000D03*
X154300000Y-89440000D03*
X154040000Y-103560000D03*
X151610000Y-91030000D03*
X158220000Y-105210000D03*
X150485033Y-104040000D03*
X148530000Y-90800000D03*
X159325000Y-91890000D03*
X154040000Y-95060000D03*
X156530000Y-104840000D03*
X157270000Y-89190000D03*
X159325000Y-88880000D03*
X155880000Y-101540000D03*
X149350000Y-100550000D03*
X156610000Y-90680000D03*
X160510000Y-100200000D03*
X154782500Y-101300000D03*
X161570000Y-102790000D03*
X148600000Y-94610000D03*
X153340000Y-94040000D03*
X152520000Y-92560000D03*
X161570000Y-100770000D03*
X147570000Y-103770000D03*
X149570000Y-88180000D03*
X149800000Y-96540000D03*
X150530000Y-89020000D03*
X160162500Y-88320000D03*
X153768683Y-107087600D03*
X149985165Y-105287015D03*
X158120000Y-89100000D03*
X153520000Y-102980000D03*
X161570000Y-106770000D03*
X153740000Y-97060000D03*
X149990000Y-93920000D03*
X153780000Y-102300000D03*
X147570000Y-110520000D03*
X154290000Y-101790000D03*
X159325000Y-91280000D03*
X155400000Y-94230000D03*
X158490000Y-110150000D03*
X160570000Y-108780000D03*
X155580000Y-108780000D03*
X161000000Y-88320000D03*
X160560000Y-95230000D03*
X150450000Y-111710000D03*
X161610000Y-113830000D03*
X147570000Y-92780000D03*
X150450000Y-113780000D03*
X147570000Y-99780000D03*
X147570000Y-106780000D03*
X152550000Y-113790000D03*
X147570000Y-100780000D03*
X160162500Y-91890000D03*
X156510000Y-91350000D03*
X147570000Y-97780000D03*
X154570000Y-88190000D03*
X161610000Y-110520000D03*
X159420000Y-93030000D03*
X155440000Y-93490000D03*
X153780000Y-97850000D03*
X161570000Y-93030000D03*
X155770000Y-103270000D03*
X155430000Y-88190000D03*
X151960000Y-96950000D03*
X159430000Y-97730000D03*
X156080000Y-97940000D03*
X150510436Y-105492721D03*
X152590000Y-89010000D03*
X149570000Y-93250000D03*
X161570000Y-99780000D03*
X147570000Y-105780000D03*
X148530000Y-91800000D03*
X157270000Y-93030000D03*
X158270000Y-91970000D03*
X148560000Y-88180000D03*
X149240000Y-98580000D03*
X150340000Y-102800000D03*
X147570000Y-102780000D03*
X150570000Y-88180000D03*
X152550000Y-89920000D03*
X151570000Y-88180000D03*
X161000000Y-91280000D03*
X153560000Y-88180000D03*
X152653422Y-104543422D03*
X161580000Y-105790000D03*
X148570000Y-99170000D03*
X157460000Y-98110000D03*
X156290000Y-88180000D03*
X148560000Y-100060000D03*
X148680000Y-103610000D03*
X150570000Y-108780000D03*
X147580000Y-89930000D03*
X153510000Y-94770000D03*
X156650000Y-91940000D03*
X155600000Y-95040000D03*
X156370000Y-111780000D03*
X149480000Y-91740000D03*
X154660000Y-90870000D03*
X148470000Y-92740000D03*
X154480000Y-111800000D03*
X156850000Y-92510000D03*
X147570000Y-90780000D03*
X151198231Y-104025341D03*
X148580000Y-98160000D03*
X151540000Y-89940000D03*
X151220000Y-93980000D03*
X147570000Y-112080000D03*
X150990000Y-102700000D03*
X149340000Y-99330000D03*
X155670000Y-95920000D03*
X156330000Y-95900000D03*
X147570000Y-107820000D03*
X159650000Y-108720000D03*
X148580000Y-96430000D03*
X161570000Y-104780000D03*
X147570000Y-101780000D03*
X149960000Y-95100000D03*
X150410557Y-104768432D03*
X152760000Y-96790000D03*
X148590000Y-106670000D03*
X161580000Y-97770000D03*
X157480000Y-95280000D03*
X157270000Y-91020000D03*
X147570000Y-104820000D03*
X152300000Y-96100000D03*
X153410000Y-95570000D03*
X151960000Y-93860000D03*
X160270000Y-98880000D03*
X161570000Y-103770000D03*
X147570000Y-88970000D03*
X159410000Y-95230000D03*
X149480000Y-97410000D03*
X149739000Y-105845538D03*
X161610000Y-112080000D03*
X153560000Y-108780000D03*
X161570000Y-107800000D03*
X148580000Y-97310000D03*
X149180000Y-101370000D03*
X156160000Y-99384413D03*
X158350000Y-94010000D03*
X154020000Y-101220000D03*
X153480000Y-101540000D03*
X155750000Y-102280000D03*
X155300000Y-101790000D03*
X152170000Y-90490000D03*
X160570000Y-96480000D03*
X151550000Y-89020000D03*
X147570000Y-88190000D03*
X156790000Y-89500000D03*
X159400000Y-93980000D03*
X161580000Y-94030000D03*
X160570000Y-93030000D03*
X153950000Y-96430000D03*
X150080000Y-92010000D03*
X150950000Y-109810000D03*
X157270000Y-91930000D03*
X150640000Y-93800000D03*
X153200000Y-96200000D03*
X160162500Y-91280000D03*
X160610000Y-107900000D03*
X158360000Y-95260000D03*
X148530000Y-88990000D03*
X161580000Y-94860000D03*
X155880000Y-97030000D03*
X157490000Y-96530000D03*
X161580000Y-98780000D03*
X154570000Y-108780000D03*
X148680000Y-101950000D03*
X153710000Y-92080000D03*
X161000000Y-88880000D03*
%TO.N,VDD*%
X149580000Y-102060000D03*
X159570000Y-102210000D03*
X158403354Y-112178315D03*
X156890000Y-106000000D03*
X156980000Y-106680000D03*
X158460000Y-112760000D03*
X160390000Y-113500000D03*
X154602433Y-107811400D03*
X155230000Y-107811400D03*
X158460000Y-113410003D03*
X150690000Y-101750000D03*
X156890000Y-113490000D03*
X150200000Y-102060000D03*
X154010000Y-107800000D03*
X157364189Y-105571867D03*
X160400000Y-112220000D03*
%TO.N,/DIO2_ANT_{SW}*%
X156570000Y-104180000D03*
X156130000Y-93240000D03*
D36*
%TO.N,/DIO3_CLK_{EN}*%
X150390000Y-106180000D03*
X152630000Y-103890000D03*
D35*
%TO.N,/MCU_ANT_{SW}*%
X150040000Y-92720000D03*
%TO.N,Net-(J2-Pin_6)*%
X159900000Y-100710000D03*
D36*
%TO.N,Net-(J2-Pin_12)*%
X159313422Y-104986578D03*
%TO.N,Net-(J2-Pin_9)*%
X159480000Y-106040000D03*
D35*
%TO.N,Net-(J2-Pin_4)*%
X159940000Y-99590000D03*
%TD*%
D37*
%TO.N,Net-(S1-CTRL)*%
X155110000Y-92730000D02*
X155110000Y-91810000D01*
X155110000Y-91810000D02*
X155120000Y-91800000D01*
D38*
X154239921Y-91800000D02*
X155120000Y-91800000D01*
X153989999Y-91550078D02*
X154239921Y-91800000D01*
X153989999Y-91253200D02*
X153989999Y-91550078D01*
D39*
%TO.N,Net-(U1-VR_PA)*%
X153370000Y-100310000D02*
X153354875Y-100325125D01*
X151740000Y-99950000D02*
X150860000Y-99070000D01*
X152860000Y-99970000D02*
X151890000Y-99970000D01*
X151450000Y-98830000D02*
X151130000Y-98830000D01*
X150975000Y-98985000D02*
X150860000Y-98985000D01*
X153215125Y-100325125D02*
X152860000Y-99970000D01*
X153354875Y-100325125D02*
X153215125Y-100325125D01*
X151695000Y-99025000D02*
X151500000Y-98830000D01*
X151730000Y-99025000D02*
X151695000Y-99025000D01*
D38*
X151740000Y-99970000D02*
X151740000Y-99950000D01*
D39*
X150860000Y-99070000D02*
X150860000Y-98985000D01*
X151130000Y-98830000D02*
X150975000Y-98985000D01*
X151500000Y-98830000D02*
X151130000Y-98830000D01*
D37*
%TO.N,GND*%
X155532500Y-100325125D02*
X155532500Y-101092500D01*
X150990000Y-102400000D02*
X150990000Y-102700000D01*
X153710000Y-92080000D02*
X153710000Y-92110000D01*
X155769044Y-108780000D02*
X155779100Y-108769944D01*
X155580000Y-108546746D02*
X156346646Y-107780100D01*
D40*
X151190000Y-102500000D02*
X150990000Y-102700000D01*
D37*
X157646746Y-106770000D02*
X158140000Y-106770000D01*
D38*
X156160000Y-99640000D02*
X156124475Y-99675525D01*
X161417200Y-114022800D02*
X161610000Y-113830000D01*
X155584364Y-99850000D02*
X155490000Y-99850000D01*
X156124475Y-99675525D02*
X155758839Y-99675525D01*
D37*
X151675000Y-94275000D02*
X151970000Y-93980000D01*
X150740000Y-94680000D02*
X150740000Y-94040000D01*
X150610000Y-90950000D02*
X150610000Y-91790000D01*
X153710000Y-92110000D02*
X154160000Y-92560000D01*
X156718574Y-107780100D02*
X157025100Y-107473574D01*
X153340000Y-94140000D02*
X153340000Y-93386800D01*
X156870000Y-107939100D02*
X156264760Y-107939100D01*
X149972752Y-95227248D02*
X149960000Y-95240000D01*
X152837500Y-101520125D02*
X153176145Y-101520125D01*
D40*
X151190000Y-101960000D02*
X151190000Y-102500000D01*
D37*
X152837500Y-101520125D02*
X152271119Y-101520125D01*
D38*
X155532500Y-99901864D02*
X155532500Y-100325125D01*
D37*
X149900000Y-99230000D02*
X150780000Y-100110000D01*
D41*
X151900000Y-101880000D02*
X151490000Y-101880000D01*
D37*
X152520000Y-92540000D02*
X152980000Y-92080000D01*
X150110000Y-93940000D02*
X149990000Y-94060000D01*
X156264761Y-107939100D02*
X156929760Y-107939100D01*
D42*
X152271119Y-101520125D02*
X151911244Y-101880000D01*
D37*
X150680000Y-93980000D02*
X150640000Y-93940000D01*
D38*
X156150000Y-113830000D02*
X156342800Y-114022800D01*
X156342800Y-114022800D02*
X161417200Y-114022800D01*
D43*
X157090251Y-104979765D02*
X156669765Y-104979765D01*
D37*
X156080000Y-90920000D02*
X156080000Y-91800000D01*
X154495000Y-95559875D02*
X154495000Y-95060000D01*
X158044923Y-111780000D02*
X156370000Y-111780000D01*
X149900000Y-99210000D02*
X149900000Y-99230000D01*
X160028615Y-111764639D02*
X158746424Y-111764639D01*
X161610000Y-113830000D02*
X161610000Y-112623254D01*
X158181708Y-111643215D02*
X158044923Y-111780000D01*
D43*
X156669765Y-104979765D02*
X156530000Y-104840000D01*
D37*
X160611646Y-111624900D02*
X160168354Y-111624900D01*
X158625000Y-111643215D02*
X158181708Y-111643215D01*
D43*
X157090251Y-104979765D02*
X156660235Y-104979765D01*
D37*
X152520000Y-92560000D02*
X152520000Y-92540000D01*
X154032500Y-105350000D02*
X154032500Y-104215125D01*
X156346646Y-107780100D02*
X156718574Y-107780100D01*
D39*
X150972400Y-102717600D02*
X150990000Y-102700000D01*
D42*
X151490000Y-101880000D02*
X151270000Y-101880000D01*
D40*
X151490000Y-101880000D02*
X151426978Y-101880000D01*
D37*
X155779100Y-108769944D02*
X155684522Y-108864522D01*
X155779100Y-108769944D02*
X155779100Y-108424760D01*
X158098860Y-106770000D02*
X158140000Y-106770000D01*
X154032500Y-104215125D02*
X154032500Y-103933731D01*
X158140000Y-106770000D02*
X158039100Y-106770000D01*
D40*
X147610000Y-107820000D02*
X147570000Y-107780000D01*
D37*
X156080000Y-90920000D02*
X155180000Y-90920000D01*
X155580000Y-108780000D02*
X155580000Y-108546746D01*
D38*
X156160000Y-99384413D02*
X156160000Y-99640000D01*
D37*
X150610000Y-91790000D02*
X150620000Y-91800000D01*
X157025100Y-107215100D02*
X157201646Y-107215100D01*
D43*
X155480000Y-112760000D02*
X153480000Y-112760000D01*
D37*
X149990000Y-94597880D02*
X149972752Y-94615128D01*
D38*
X155758839Y-99675525D02*
X155652182Y-99782182D01*
D37*
X160168354Y-111624900D02*
X160028615Y-111764639D01*
X149990000Y-94060000D02*
X149990000Y-94597880D01*
X155779100Y-108424761D02*
X155779100Y-108769944D01*
X158746424Y-111764639D02*
X158625000Y-111643215D01*
X150670000Y-102590000D02*
X150670000Y-102717600D01*
X149972752Y-94615128D02*
X149972752Y-95227248D01*
X156264760Y-107939100D02*
X155779100Y-108424761D01*
X155779100Y-108424760D02*
X156264761Y-107939100D01*
X161610000Y-112623254D02*
X160611646Y-111624900D01*
X152980000Y-92080000D02*
X152980000Y-92200000D01*
X148440000Y-107820000D02*
X147610000Y-107820000D01*
X155532500Y-101092500D02*
X155740000Y-101300000D01*
X150740000Y-94040000D02*
X150640000Y-93940000D01*
X151338489Y-101921511D02*
X150670000Y-102590000D01*
X155580000Y-108780000D02*
X155769044Y-108780000D01*
X150640000Y-93940000D02*
X150110000Y-93940000D01*
X151970000Y-93980000D02*
X150680000Y-93980000D01*
X156929760Y-107939100D02*
X158098860Y-106770000D01*
X153340000Y-93386800D02*
X153340000Y-92750000D01*
D40*
X150990000Y-102316978D02*
X150990000Y-102700000D01*
X151270000Y-101880000D02*
X151190000Y-101960000D01*
D37*
X152837500Y-103020125D02*
X153094322Y-103020125D01*
X157201646Y-107215100D02*
X157646746Y-106770000D01*
X155070000Y-95060000D02*
X154495000Y-95060000D01*
X157025100Y-107473574D02*
X157025100Y-107215100D01*
D38*
X156160000Y-99384413D02*
X156049951Y-99384413D01*
X156049951Y-99384413D02*
X155532500Y-99901864D01*
D43*
X156660235Y-104979765D02*
X156300000Y-105340000D01*
D37*
X158039100Y-106770000D02*
X156870000Y-107939100D01*
X153094322Y-103020125D02*
G75*
G02*
X153769994Y-103300006I-22J-955575D01*
G01*
X154032500Y-103933731D02*
G75*
G03*
X153770009Y-103299991I-896200J31D01*
G01*
X153176145Y-101520125D02*
G75*
G03*
X153779987Y-101269987I-45J854025D01*
G01*
%TO.N,Net-(C10-Pad2)*%
X151050000Y-97750000D02*
X151050000Y-97300000D01*
X151200000Y-97185000D02*
X151165000Y-97185000D01*
X152530000Y-98210000D02*
X152640000Y-98320000D01*
D40*
X152615000Y-98345000D02*
X152640000Y-98320000D01*
D37*
X151165000Y-97185000D02*
X151050000Y-97300000D01*
X151730000Y-98055000D02*
X151700000Y-98085000D01*
X151700000Y-98085000D02*
X150865000Y-98085000D01*
X151730000Y-98055000D02*
X151885000Y-98210000D01*
X151885000Y-98210000D02*
X152530000Y-98210000D01*
X152615000Y-99200000D02*
X152615000Y-98345000D01*
X151050000Y-97900000D02*
X151050000Y-97750000D01*
X150865000Y-98085000D02*
X151050000Y-97900000D01*
X152615000Y-98345000D02*
G75*
G03*
X152550000Y-98280000I-65000J0D01*
G01*
D38*
%TO.N,Net-(S1-~{CTRL}{slash}VDD)*%
X152450000Y-91800000D02*
X151580000Y-91800000D01*
X152670000Y-91253200D02*
X152670000Y-91580000D01*
D37*
X151590000Y-91800000D02*
X151580000Y-91800000D01*
X151590000Y-92730000D02*
X151590000Y-91800000D01*
D38*
X152690001Y-91253200D02*
X152690001Y-91559999D01*
X152690001Y-91559999D02*
X152450000Y-91800000D01*
X152670000Y-91580000D02*
X152450000Y-91800000D01*
D37*
%TO.N,Net-(C10-Pad1)*%
X150060000Y-97666746D02*
X150060000Y-98070000D01*
X150065100Y-97218354D02*
X150065100Y-97661646D01*
X150420000Y-96510000D02*
X150420000Y-97230000D01*
X150098454Y-97185000D02*
X150065100Y-97218354D01*
X150740000Y-95415000D02*
X150740000Y-96115000D01*
X150240000Y-97185000D02*
X150098454Y-97185000D01*
X150065100Y-97661646D02*
X150060000Y-97666746D01*
X150740000Y-96115000D02*
X150570000Y-96285000D01*
%TO.N,Net-(C13-Pad1)*%
X151665000Y-95385000D02*
X151665000Y-96150000D01*
X151665000Y-96150000D02*
X151530000Y-96285000D01*
%TO.N,Net-(C15-Pad1)*%
X154730000Y-89960000D02*
X155180000Y-89960000D01*
X154530000Y-90160000D02*
X154730000Y-89960000D01*
X154290000Y-90160000D02*
X154530000Y-90160000D01*
X155180000Y-89960000D02*
X155180000Y-89135000D01*
X155180000Y-89135000D02*
X155135000Y-89090000D01*
%TO.N,Net-(FL1-OUT)*%
X154460000Y-97370000D02*
X154460000Y-96844114D01*
X155070000Y-95559875D02*
X155070000Y-96461716D01*
X154882441Y-96510000D02*
X155090000Y-96510000D01*
X154527151Y-96682025D02*
X154569588Y-96639588D01*
X154569588Y-96639588D02*
G75*
G02*
X154882441Y-96510017I312812J-312812D01*
G01*
X154460000Y-96844114D02*
G75*
G02*
X154527144Y-96682018I229200J14D01*
G01*
%TO.N,Net-(S1-RF1)*%
X152635000Y-94485000D02*
X152635000Y-95385000D01*
X152700000Y-93403600D02*
X152700000Y-94553076D01*
%TO.N,Net-(S1-RFC)*%
X153340000Y-91253200D02*
X153340000Y-90150000D01*
D40*
%TO.N,/VREG*%
X153020000Y-105540000D02*
X152830000Y-105540000D01*
D37*
X153020000Y-105540000D02*
X153020000Y-105100000D01*
X153020000Y-105540000D02*
X153020000Y-105350000D01*
D40*
X152830000Y-105540000D02*
X153020000Y-105730000D01*
D37*
X153020000Y-105350000D02*
X153030000Y-105340000D01*
X153532500Y-104587500D02*
X153532500Y-104215125D01*
D40*
X153020000Y-106182500D02*
X152662500Y-106540000D01*
X153020000Y-105730000D02*
X153020000Y-106182500D01*
D37*
X153020000Y-105100000D02*
X153532500Y-104587500D01*
D43*
%TO.N,VDD*%
X156240000Y-106240000D02*
X156013400Y-106013400D01*
X156890000Y-106000000D02*
X156890000Y-106120000D01*
D38*
X151280000Y-101150000D02*
X151455000Y-101150000D01*
X150320000Y-102120000D02*
X150690000Y-101750000D01*
D43*
X157364189Y-105571867D02*
X157296056Y-105640000D01*
D37*
X155032500Y-104215125D02*
X155032500Y-105032500D01*
D43*
X156240000Y-107130000D02*
X156240000Y-106770000D01*
D40*
X159000000Y-102300000D02*
X159480000Y-102300000D01*
D43*
X150690000Y-101750000D02*
X150380000Y-102060000D01*
X155898246Y-106013400D02*
X155586600Y-105701754D01*
X157480000Y-112760000D02*
X158460000Y-112760000D01*
X155586600Y-105586600D02*
X155340000Y-105340000D01*
X157250000Y-105640000D02*
X156890000Y-106000000D01*
X158460000Y-112760000D02*
X159480000Y-112760000D01*
D37*
X151744875Y-101020125D02*
X151465000Y-101300000D01*
D43*
X155630000Y-107740000D02*
X156240000Y-107130000D01*
D40*
X159480000Y-102300000D02*
X159570000Y-102210000D01*
D43*
X156890000Y-106000000D02*
X156890000Y-106590000D01*
D37*
X155532500Y-104215125D02*
X155530000Y-104217625D01*
D43*
X156890000Y-106120000D02*
X156240000Y-106770000D01*
X155586600Y-105701754D02*
X155586600Y-105586600D01*
X155610000Y-107740000D02*
X155630000Y-107740000D01*
D37*
X151465000Y-101300000D02*
X151230000Y-101300000D01*
D43*
X150380000Y-102060000D02*
X149580000Y-102060000D01*
X154010000Y-107800000D02*
X155550000Y-107800000D01*
X157296056Y-105640000D02*
X157250000Y-105640000D01*
D37*
X155530000Y-105150000D02*
X155340000Y-105340000D01*
D43*
X156013400Y-106013400D02*
X155898246Y-106013400D01*
D37*
X155530000Y-104217625D02*
X155530000Y-105150000D01*
X155032500Y-105032500D02*
X155340000Y-105340000D01*
D38*
X150270000Y-102120000D02*
X150320000Y-102120000D01*
D43*
X151465000Y-101300000D02*
X151280000Y-101300000D01*
X156240000Y-106770000D02*
X156240000Y-106240000D01*
X155550000Y-107800000D02*
X155610000Y-107740000D01*
D37*
X152837500Y-101020125D02*
X151744875Y-101020125D01*
D43*
X156890000Y-106590000D02*
X156980000Y-106680000D01*
D40*
X155560000Y-104242625D02*
X155532500Y-104215125D01*
D37*
%TO.N,Net-(C17-Pad2)*%
X156105000Y-89935000D02*
X156080000Y-89960000D01*
X156105000Y-89090000D02*
X156105000Y-89935000D01*
X156080000Y-89960000D02*
X156200000Y-90080000D01*
X156200000Y-90080000D02*
X158905000Y-90080000D01*
%TO.N,Net-(U1-RFO)*%
X154032500Y-99725354D02*
X153585000Y-99277854D01*
X154032500Y-100325125D02*
X154032500Y-99725354D01*
X153585000Y-99277854D02*
X153585000Y-99200000D01*
D40*
%TO.N,/DIO2_ANT_{SW}*%
X156032500Y-104215125D02*
X156414875Y-104215125D01*
X156450000Y-104180000D02*
X156414875Y-104215125D01*
X156570000Y-104180000D02*
X156450000Y-104180000D01*
D37*
X156130000Y-93320000D02*
X156130000Y-92730000D01*
%TO.N,/CLK_{32M}*%
X151910000Y-102440000D02*
X152329875Y-102020125D01*
X152329875Y-102020125D02*
X152837500Y-102020125D01*
D38*
%TO.N,/DIO3_CLK_{EN}*%
X152520000Y-103837625D02*
X152837500Y-103520125D01*
X150455400Y-106846106D02*
X150455400Y-106340294D01*
X150300000Y-106160000D02*
X150467847Y-106327847D01*
X151260000Y-107800706D02*
X151260000Y-107840000D01*
X150561466Y-107102172D02*
X151260000Y-107800706D01*
X152520000Y-103890000D02*
X152520000Y-103837625D01*
X150467847Y-106327847D02*
X150455400Y-106340294D01*
X150455400Y-106846106D02*
G75*
G03*
X150561475Y-107102162I362100J6D01*
G01*
%TO.N,/~{RESET}*%
X158503933Y-102763933D02*
X158040000Y-102300000D01*
X158760000Y-102870000D02*
X159750000Y-102870000D01*
X156727500Y-102520125D02*
X157819875Y-102520125D01*
X159750000Y-102870000D02*
X159880000Y-103000000D01*
X157819875Y-102520125D02*
X158040000Y-102300000D01*
X158760000Y-102870000D02*
G75*
G02*
X158503939Y-102763926I0J362100D01*
G01*
D37*
%TO.N,Net-(C1-Pad2)*%
X150890000Y-103460000D02*
X150820000Y-103390000D01*
X151720000Y-103460000D02*
X150890000Y-103460000D01*
%TO.N,Net-(X1-XO)*%
X149860000Y-104286000D02*
X149586000Y-104560000D01*
X149860000Y-103390000D02*
X149860000Y-104286000D01*
D40*
%TO.N,Net-(X1-VCC)*%
X149420000Y-107840000D02*
X149400000Y-107820000D01*
D38*
X150240000Y-107840000D02*
X149420000Y-107840000D01*
D40*
X149400000Y-106854200D02*
X149586000Y-106668200D01*
D38*
X149400000Y-107820000D02*
X149400000Y-106854200D01*
D37*
%TO.N,Net-(FL1-IN)*%
X153989999Y-93386800D02*
X153989999Y-94052215D01*
X154780000Y-94540124D02*
X154450710Y-94540124D01*
X154450710Y-94540124D02*
G75*
G02*
X154110706Y-94399294I-10J480824D01*
G01*
X153989999Y-94052215D02*
G75*
G03*
X154147517Y-94432483I537801J15D01*
G01*
D38*
%TO.N,/SPI_NSS*%
X157900000Y-98700000D02*
X158020000Y-98700000D01*
X156124875Y-100325125D02*
X156032500Y-100325125D01*
X156380941Y-100219058D02*
X157900000Y-98700000D01*
X156124875Y-100325125D02*
G75*
G03*
X156380953Y-100219070I25J362125D01*
G01*
D40*
%TO.N,/MCU_ANT_{SW}*%
X150040000Y-92720000D02*
X150050000Y-92710000D01*
X150550000Y-92710000D02*
X150570000Y-92730000D01*
X150050000Y-92710000D02*
X150550000Y-92710000D01*
D38*
%TO.N,/DIO1_INT*%
X156727500Y-103520125D02*
X156780820Y-103573445D01*
X157393933Y-103753933D02*
X157160125Y-103520125D01*
X157500000Y-104010000D02*
X157500000Y-104360000D01*
X156727500Y-103520125D02*
X157160125Y-103520125D01*
X157500000Y-104010000D02*
G75*
G03*
X157393926Y-103753939I-362100J0D01*
G01*
%TO.N,/SPI_CLK*%
X156833566Y-100706433D02*
X157950000Y-99590000D01*
X157950000Y-99590000D02*
X158020000Y-99590000D01*
X156727500Y-100962500D02*
X156727500Y-101020125D01*
X156727500Y-100962500D02*
G75*
G02*
X156833573Y-100706440I362100J0D01*
G01*
%TO.N,/SPI_MOSI*%
X157880000Y-100490000D02*
X158020000Y-100490000D01*
X157530766Y-100839233D02*
X157880000Y-100490000D01*
X157318633Y-101421366D02*
X157219875Y-101520125D01*
X156727500Y-101520125D02*
X157219875Y-101520125D01*
X157424700Y-101165300D02*
X157424700Y-101095300D01*
X157424700Y-101165300D02*
G75*
G02*
X157318627Y-101421360I-362100J0D01*
G01*
X157424700Y-101095300D02*
G75*
G02*
X157530773Y-100839240I362100J0D01*
G01*
%TO.N,/SPI_MISO*%
X157485941Y-101914058D02*
X158010000Y-101390000D01*
X157229875Y-102020125D02*
X156727500Y-102020125D01*
X157229875Y-102020125D02*
G75*
G03*
X157485953Y-101914070I25J362125D01*
G01*
D37*
%TO.N,Net-(U1-DCC_SW)*%
X154575100Y-104735100D02*
X154575100Y-106552600D01*
X154532500Y-104215125D02*
X154532500Y-104667500D01*
X154532500Y-104667500D02*
X154520000Y-104680000D01*
D40*
X154482500Y-107090000D02*
X154802500Y-106770000D01*
X154532500Y-104215125D02*
X154532500Y-105180900D01*
D37*
X154575100Y-106552600D02*
X154802500Y-106780000D01*
X154520000Y-104680000D02*
X154575100Y-104735100D01*
D40*
X154483400Y-105230000D02*
X154483400Y-105759622D01*
X154533400Y-104693400D02*
X154520000Y-104680000D01*
X154532500Y-105180900D02*
X154483400Y-105230000D01*
X154533400Y-105168516D02*
X154533400Y-104693400D01*
X154532500Y-104215125D02*
X154540000Y-104222625D01*
D38*
%TO.N,/BUSY*%
X158010000Y-103430000D02*
X157809875Y-103430000D01*
X157250000Y-103020125D02*
X156727500Y-103020125D01*
X157506066Y-103126191D02*
X157809875Y-103430000D01*
X157506066Y-103126191D02*
G75*
G03*
X157250000Y-103020138I-256066J-256109D01*
G01*
D37*
%TO.N,/RFI_P*%
X155400000Y-98993825D02*
X155230000Y-99163825D01*
X155230000Y-98340000D02*
X155400000Y-98510000D01*
D44*
X154970000Y-99460000D02*
X154970000Y-99493950D01*
D40*
X155310925Y-99210000D02*
X155395000Y-99210000D01*
D37*
X155400000Y-98510000D02*
X155400000Y-98993825D01*
D44*
X155395000Y-99210000D02*
X155220000Y-99210000D01*
X155220000Y-99210000D02*
X154970000Y-99460000D01*
X154970000Y-99493950D02*
X154970000Y-99938675D01*
%TO.N,/RFI_N*%
X154532500Y-100035125D02*
X154662900Y-99904725D01*
X154662900Y-99904725D02*
X154662900Y-99413950D01*
X154662900Y-99904725D02*
X154662900Y-99850000D01*
X154628950Y-99413950D02*
X154425000Y-99210000D01*
X154532500Y-100325125D02*
X154532500Y-100035125D01*
D37*
X154460000Y-98330000D02*
X154460000Y-99125503D01*
D38*
%TO.N,Net-(J2-Pin_10)*%
X159883933Y-106446066D02*
X159874118Y-106446066D01*
X157185481Y-108194333D02*
X157549149Y-107830666D01*
X159990000Y-104130000D02*
X159880000Y-104020000D01*
X156140400Y-108724416D02*
X156140400Y-108769600D01*
X155580000Y-109330000D02*
X153060000Y-109330000D01*
X158701650Y-107618533D02*
X159874118Y-106446066D01*
X159990000Y-106190000D02*
X159990000Y-104130000D01*
X156246465Y-108468349D02*
X156308349Y-108406466D01*
X155836065Y-109223933D02*
X156034333Y-109025666D01*
X156564416Y-108300400D02*
X156929416Y-108300400D01*
X157805216Y-107724600D02*
X158445584Y-107724600D01*
X152803933Y-109436066D02*
X151480000Y-110760000D01*
X158701650Y-107618533D02*
G75*
G02*
X158445583Y-107724597I-256050J256033D01*
G01*
X155836065Y-109223933D02*
G75*
G02*
X155580000Y-109330008I-256065J256033D01*
G01*
X157805216Y-107724600D02*
G75*
G03*
X157549148Y-107830665I-16J-362100D01*
G01*
X156564416Y-108300400D02*
G75*
G03*
X156308348Y-108406465I-16J-362100D01*
G01*
X156140400Y-108724416D02*
G75*
G02*
X156246465Y-108468349I362100J16D01*
G01*
X152803933Y-109436066D02*
G75*
G02*
X153060000Y-109329990I256067J-256034D01*
G01*
X157185481Y-108194333D02*
G75*
G02*
X156929416Y-108300419I-256081J256033D01*
G01*
X159990000Y-106190000D02*
G75*
G02*
X159883927Y-106446060I-362100J0D01*
G01*
X156034333Y-109025666D02*
G75*
G03*
X156140409Y-108769600I-256033J256066D01*
G01*
%TO.N,Net-(J2-Pin_2)*%
X159243933Y-98496066D02*
X159040000Y-98700000D01*
X160696066Y-98496066D02*
X160936733Y-98736733D01*
X159480000Y-110760000D02*
X159042800Y-110322800D01*
X161042800Y-106404700D02*
X161042800Y-98992800D01*
X159500000Y-98390000D02*
X160440000Y-98390000D01*
X159042800Y-108704700D02*
X159042800Y-110322800D01*
X159148865Y-108448633D02*
X160936733Y-106660766D01*
X160696066Y-98496066D02*
G75*
G03*
X160440000Y-98389991I-256066J-256034D01*
G01*
X161042800Y-98992800D02*
G75*
G03*
X160936726Y-98736739I-362100J0D01*
G01*
X161042800Y-106404700D02*
G75*
G02*
X160936727Y-106660760I-362100J0D01*
G01*
X159500000Y-98390000D02*
G75*
G03*
X159243940Y-98496073I0J-362100D01*
G01*
X159148865Y-108448633D02*
G75*
G03*
X159042789Y-108704700I256035J-256067D01*
G01*
%TO.N,Net-(J2-Pin_6)*%
X159786066Y-100596066D02*
X159900000Y-100710000D01*
X159530000Y-100490000D02*
X159040000Y-100490000D01*
X159530000Y-100490000D02*
G75*
G02*
X159786059Y-100596072I0J-362100D01*
G01*
%TO.N,Net-(J2-Pin_8)*%
X159380000Y-101400000D02*
X159030000Y-101400000D01*
X158260000Y-108750000D02*
X158130000Y-108880000D01*
X159636066Y-101506066D02*
X160453933Y-102323933D01*
X158104416Y-108985584D02*
X158099600Y-108985584D01*
X158130000Y-108880000D02*
X158130000Y-108960000D01*
X160560000Y-106290000D02*
X160560000Y-102580000D01*
X154403933Y-109836066D02*
X153480000Y-110760000D01*
X157461250Y-109623933D02*
X158099600Y-108985584D01*
X158130000Y-108960000D02*
X158104416Y-108985584D01*
X160453933Y-106546066D02*
X158260000Y-108740000D01*
X157205184Y-109730000D02*
X154660000Y-109730000D01*
X158260000Y-108740000D02*
X158260000Y-108750000D01*
X154660000Y-109730000D02*
G75*
G03*
X154403940Y-109836073I0J-362100D01*
G01*
X159636066Y-101506066D02*
G75*
G03*
X159380000Y-101399991I-256066J-256034D01*
G01*
X160453933Y-102323933D02*
G75*
G02*
X160560009Y-102580000I-256033J-256067D01*
G01*
X157205184Y-109730000D02*
G75*
G03*
X157461252Y-109623935I16J362100D01*
G01*
X160560000Y-106290000D02*
G75*
G02*
X160453927Y-106546060I-362100J0D01*
G01*
%TO.N,Net-(J2-Pin_12)*%
X159170000Y-104843156D02*
X159170000Y-103570000D01*
X159170000Y-103570000D02*
X159030000Y-103430000D01*
X159313422Y-104986578D02*
X159170000Y-104843156D01*
%TO.N,Net-(J2-Pin_9)*%
X158520000Y-104360000D02*
X158720000Y-104560000D01*
X158826066Y-105386066D02*
X159020400Y-105580400D01*
X158720000Y-105130000D02*
X158720000Y-104560000D01*
X159028657Y-105580400D02*
X159309600Y-105861343D01*
X159309600Y-105861343D02*
X159309600Y-105869600D01*
X159020400Y-105580400D02*
X159028657Y-105580400D01*
X159309600Y-105869600D02*
X159480000Y-106040000D01*
X159480000Y-106040000D02*
X159511400Y-106071400D01*
X158720000Y-105130000D02*
G75*
G03*
X158826072Y-105386059I362100J0D01*
G01*
%TO.N,Net-(J2-Pin_4)*%
X159040000Y-99590000D02*
X159940000Y-99590000D01*
%TD*%
%TA.AperFunction,Conductor*%
%TO.N,VDD*%
G36*
X151148894Y-100529135D02*
G01*
X151166326Y-100549685D01*
X151179973Y-100573323D01*
X151179985Y-100573341D01*
X151195784Y-100595905D01*
X151195785Y-100595905D01*
X151195786Y-100595907D01*
X151262824Y-100642848D01*
X151311226Y-100660465D01*
X151365300Y-100670000D01*
X151698974Y-100670000D01*
X151709818Y-100670785D01*
X151736258Y-100674637D01*
X151750567Y-100678182D01*
X151773668Y-100686381D01*
X151773677Y-100686383D01*
X151806723Y-100694029D01*
X151806729Y-100694029D01*
X151806739Y-100694032D01*
X151842374Y-100698100D01*
X153026910Y-100698100D01*
X153075312Y-100715717D01*
X153080155Y-100720155D01*
X153237945Y-100877945D01*
X153259713Y-100924627D01*
X153260000Y-100931190D01*
X153260000Y-101158833D01*
X153254513Y-101173906D01*
X153253292Y-101189902D01*
X153245965Y-101197391D01*
X153242383Y-101207235D01*
X153228491Y-101215255D01*
X153217274Y-101226723D01*
X153200498Y-101231417D01*
X153197776Y-101232989D01*
X153192090Y-101233770D01*
X153188193Y-101234154D01*
X153179991Y-101234962D01*
X153172612Y-101235325D01*
X152233622Y-101235325D01*
X152161192Y-101254731D01*
X152098946Y-101290669D01*
X152098944Y-101290670D01*
X152096247Y-101292228D01*
X152078475Y-101310000D01*
X152042450Y-101310000D01*
X152027537Y-101372418D01*
X152018897Y-101387384D01*
X152018891Y-101387392D01*
X152006255Y-101409280D01*
X151994288Y-101424875D01*
X151819319Y-101599845D01*
X151772637Y-101621613D01*
X151766074Y-101621900D01*
X151569382Y-101621900D01*
X151549679Y-101617980D01*
X151549607Y-101618347D01*
X151542334Y-101616900D01*
X151217666Y-101616900D01*
X151120968Y-101656953D01*
X151120964Y-101656956D01*
X151046958Y-101730962D01*
X151046953Y-101730970D01*
X151042686Y-101741270D01*
X151026366Y-101765693D01*
X150975432Y-101816628D01*
X150935082Y-101914043D01*
X150933863Y-101915866D01*
X150933760Y-101917049D01*
X150918760Y-101938471D01*
X150889288Y-101967944D01*
X150842606Y-101989713D01*
X150836042Y-101990000D01*
X150302812Y-101990000D01*
X150254410Y-101972383D01*
X150228656Y-101927776D01*
X150227851Y-101907561D01*
X150238290Y-101797951D01*
X150260415Y-101751441D01*
X150280172Y-101737448D01*
X150352743Y-101701971D01*
X150441971Y-101612743D01*
X150497392Y-101499377D01*
X150508100Y-101425882D01*
X150508100Y-100861880D01*
X150525717Y-100813478D01*
X150545749Y-100796669D01*
X150587509Y-100772560D01*
X150662560Y-100697509D01*
X150715629Y-100605591D01*
X150724869Y-100571107D01*
X150754411Y-100528917D01*
X150796788Y-100515303D01*
X151100307Y-100512039D01*
X151148894Y-100529135D01*
G37*
%TD.AperFunction*%
%TD*%
%TA.AperFunction,Conductor*%
%TO.N,Net-(U1-VR_PA)*%
G36*
X152224882Y-99570343D02*
G01*
X152254256Y-99576752D01*
X152314271Y-99603250D01*
X152352897Y-99620305D01*
X152376989Y-99623100D01*
X152813010Y-99623099D01*
X152837103Y-99620305D01*
X152913261Y-99586678D01*
X152944703Y-99580271D01*
X153226162Y-99584153D01*
X153255534Y-99590561D01*
X153322897Y-99620305D01*
X153346989Y-99623100D01*
X153496287Y-99623099D01*
X153511734Y-99628721D01*
X153528110Y-99630154D01*
X153541575Y-99639582D01*
X153544689Y-99640716D01*
X153549532Y-99645154D01*
X153631073Y-99726695D01*
X153652841Y-99773377D01*
X153653118Y-99778695D01*
X153668735Y-100723455D01*
X153651920Y-100772142D01*
X153607745Y-100798630D01*
X153593445Y-100800000D01*
X153451190Y-100800000D01*
X153402788Y-100782383D01*
X153397945Y-100777945D01*
X153160000Y-100540000D01*
X151842374Y-100540000D01*
X151809303Y-100532349D01*
X151789379Y-100522608D01*
X151789373Y-100522607D01*
X151715886Y-100511900D01*
X151715882Y-100511900D01*
X151365300Y-100511900D01*
X151316898Y-100494283D01*
X151291144Y-100449676D01*
X151290000Y-100436600D01*
X151290000Y-99881190D01*
X151307617Y-99832788D01*
X151312055Y-99827945D01*
X151437945Y-99702055D01*
X151484627Y-99680287D01*
X151491190Y-99680000D01*
X151820000Y-99680000D01*
X152189234Y-99573116D01*
X152211204Y-99570154D01*
X152224882Y-99570343D01*
G37*
%TD.AperFunction*%
%TD*%
%TA.AperFunction,Conductor*%
%TO.N,Net-(U1-DCC_SW)*%
G36*
X154688448Y-104567617D02*
G01*
X154707583Y-104592000D01*
X154739937Y-104657618D01*
X154747700Y-104690918D01*
X154747700Y-104995002D01*
X154747699Y-104995006D01*
X154747699Y-105069994D01*
X154759090Y-105112505D01*
X154760687Y-105118468D01*
X154760688Y-105118470D01*
X154767106Y-105142425D01*
X154767107Y-105142428D01*
X154767108Y-105142429D01*
X154778402Y-105161990D01*
X154804603Y-105207372D01*
X154861917Y-105264686D01*
X154861923Y-105264691D01*
X154914845Y-105317613D01*
X154936613Y-105364295D01*
X154936900Y-105370858D01*
X154936900Y-105393071D01*
X154964369Y-105495586D01*
X155018063Y-105588588D01*
X155026511Y-105602838D01*
X155043200Y-105640635D01*
X155119364Y-105716799D01*
X155147563Y-105729250D01*
X155184725Y-105764916D01*
X155189882Y-105778644D01*
X155210969Y-105857341D01*
X155251147Y-105926931D01*
X155264039Y-105949262D01*
X155376938Y-106062161D01*
X155398706Y-106108843D01*
X155398991Y-106116008D01*
X155390283Y-107204529D01*
X155383347Y-107223119D01*
X155379593Y-107242604D01*
X155373421Y-107249727D01*
X155372279Y-107252789D01*
X155362469Y-107262368D01*
X155251188Y-107352784D01*
X155202700Y-107369636D01*
X155202514Y-107369633D01*
X155202513Y-107369633D01*
X155202511Y-107369633D01*
X154496654Y-107360222D01*
X154464992Y-107352774D01*
X154303239Y-107274893D01*
X154267271Y-107238023D01*
X154260605Y-107207088D01*
X154260001Y-105983681D01*
X154260358Y-105976341D01*
X154281632Y-105759039D01*
X154287685Y-105735980D01*
X154320305Y-105662103D01*
X154320305Y-105662102D01*
X154320306Y-105662100D01*
X154322795Y-105640636D01*
X154323100Y-105638011D01*
X154323099Y-105339161D01*
X154323457Y-105331829D01*
X154324849Y-105317613D01*
X154331163Y-105253114D01*
X154350522Y-105212160D01*
X154349558Y-105211420D01*
X154352551Y-105207517D01*
X154352560Y-105207509D01*
X154405629Y-105115591D01*
X154425966Y-105039695D01*
X154433100Y-105013071D01*
X154433100Y-104906928D01*
X154405629Y-104804410D01*
X154405629Y-104804409D01*
X154391605Y-104780118D01*
X154389189Y-104768950D01*
X154383885Y-104761206D01*
X154381875Y-104735132D01*
X154393346Y-104617963D01*
X154415595Y-104571508D01*
X154462500Y-104550223D01*
X154468288Y-104550000D01*
X154640046Y-104550000D01*
X154688448Y-104567617D01*
G37*
%TD.AperFunction*%
%TD*%
%TA.AperFunction,Conductor*%
%TO.N,/VREG*%
G36*
X153677212Y-103807617D02*
G01*
X153682055Y-103812055D01*
X153722514Y-103852514D01*
X153728101Y-103864328D01*
X153737164Y-103873196D01*
X153744207Y-103898381D01*
X153747337Y-103930173D01*
X153747699Y-103937551D01*
X153747699Y-103992700D01*
X153747700Y-103992709D01*
X153747700Y-104621110D01*
X153730083Y-104669512D01*
X153725645Y-104674355D01*
X153500000Y-104899999D01*
X153481944Y-105096019D01*
X153460207Y-105142356D01*
X153443203Y-105159360D01*
X153443200Y-105159365D01*
X153399694Y-105257898D01*
X153396900Y-105281985D01*
X153396900Y-105638006D01*
X153396901Y-105638011D01*
X153399695Y-105662103D01*
X153402362Y-105668143D01*
X153405794Y-105719537D01*
X153403391Y-105726520D01*
X153349998Y-105860004D01*
X153270000Y-106319992D01*
X153260000Y-106750016D01*
X153260000Y-107298810D01*
X153254377Y-107314257D01*
X153252945Y-107330633D01*
X153243516Y-107344098D01*
X153242383Y-107347212D01*
X153237945Y-107352055D01*
X153232055Y-107357945D01*
X153185373Y-107379713D01*
X153178810Y-107380000D01*
X152315300Y-107380000D01*
X152266898Y-107362383D01*
X152241144Y-107317776D01*
X152240000Y-107304700D01*
X152240000Y-105663062D01*
X152252914Y-105620894D01*
X152693497Y-104969072D01*
X152735195Y-104938840D01*
X152736183Y-104938565D01*
X152809013Y-104919051D01*
X152900931Y-104865982D01*
X152975982Y-104790931D01*
X153029051Y-104699013D01*
X153036956Y-104669512D01*
X153056522Y-104596493D01*
X153056522Y-104490351D01*
X153047978Y-104458468D01*
X153037195Y-104418224D01*
X153039304Y-104372620D01*
X153226468Y-103866583D01*
X153259781Y-103827300D01*
X153277680Y-103819951D01*
X153380470Y-103792541D01*
X153399866Y-103790000D01*
X153628810Y-103790000D01*
X153677212Y-103807617D01*
G37*
%TD.AperFunction*%
%TD*%
%TA.AperFunction,Conductor*%
%TO.N,GND*%
G36*
X158474176Y-108018893D02*
G01*
X158499896Y-108063442D01*
X158490963Y-108114100D01*
X158479012Y-108129674D01*
X158038588Y-108570098D01*
X158038585Y-108570100D01*
X158029869Y-108585195D01*
X158017923Y-108600762D01*
X157908586Y-108710099D01*
X157872155Y-108773198D01*
X157861678Y-108812303D01*
X157861675Y-108812314D01*
X157859609Y-108820020D01*
X157840148Y-108853720D01*
X157303803Y-109390064D01*
X157303782Y-109390082D01*
X157269078Y-109424789D01*
X157261686Y-109431273D01*
X157255756Y-109435824D01*
X157238741Y-109445646D01*
X157236437Y-109446600D01*
X157217475Y-109451679D01*
X157210040Y-109452657D01*
X157200230Y-109453299D01*
X157168563Y-109453297D01*
X157156406Y-109453297D01*
X157156405Y-109453297D01*
X157149663Y-109453297D01*
X157149629Y-109453300D01*
X156179559Y-109453300D01*
X156131221Y-109435707D01*
X156105501Y-109391158D01*
X156114434Y-109340500D01*
X156126385Y-109324925D01*
X156255748Y-109195564D01*
X156255750Y-109195559D01*
X156259384Y-109191926D01*
X156259439Y-109191862D01*
X156274465Y-109176839D01*
X156344384Y-109072208D01*
X156392546Y-108955946D01*
X156417099Y-108832521D01*
X156417099Y-108806031D01*
X156417100Y-108806028D01*
X156417100Y-108779967D01*
X156417102Y-108779937D01*
X156417101Y-108773197D01*
X156417103Y-108773194D01*
X156417100Y-108729331D01*
X156417742Y-108719524D01*
X156418718Y-108712112D01*
X156423799Y-108693148D01*
X156424757Y-108690836D01*
X156434565Y-108673850D01*
X156439128Y-108667903D01*
X156445596Y-108660529D01*
X156462281Y-108643844D01*
X156462291Y-108643837D01*
X156469511Y-108636616D01*
X156469513Y-108636616D01*
X156496322Y-108609805D01*
X156500528Y-108605597D01*
X156507925Y-108599110D01*
X156513848Y-108594565D01*
X156530844Y-108584754D01*
X156533149Y-108583799D01*
X156552109Y-108578718D01*
X156559521Y-108577742D01*
X156569331Y-108577100D01*
X156613194Y-108577103D01*
X156613197Y-108577101D01*
X156619936Y-108577102D01*
X156619971Y-108577100D01*
X156880633Y-108577100D01*
X156880638Y-108577102D01*
X156898264Y-108577100D01*
X156898316Y-108577119D01*
X156929428Y-108577118D01*
X156929428Y-108577119D01*
X156992350Y-108577116D01*
X157115775Y-108552558D01*
X157232037Y-108504391D01*
X157336667Y-108434467D01*
X157381156Y-108389971D01*
X157710310Y-108060817D01*
X157710313Y-108060816D01*
X157725215Y-108045913D01*
X157741344Y-108029782D01*
X157748724Y-108023310D01*
X157754650Y-108018763D01*
X157771644Y-108008954D01*
X157773949Y-108007999D01*
X157792909Y-108002918D01*
X157800321Y-108001942D01*
X157810131Y-108001300D01*
X157853994Y-108001303D01*
X157853997Y-108001301D01*
X157860736Y-108001302D01*
X157860771Y-108001300D01*
X158425838Y-108001300D01*
X158474176Y-108018893D01*
G37*
%TD.AperFunction*%
%TA.AperFunction,Conductor*%
G36*
X160444883Y-98667341D02*
G01*
X160452288Y-98668316D01*
X160471242Y-98673394D01*
X160473548Y-98674349D01*
X160490555Y-98684167D01*
X160496543Y-98688763D01*
X160503921Y-98695235D01*
X160509090Y-98700404D01*
X160539772Y-98731091D01*
X160539807Y-98731120D01*
X160706584Y-98897897D01*
X160706588Y-98897905D01*
X160733884Y-98925197D01*
X160737607Y-98928920D01*
X160744091Y-98936313D01*
X160748637Y-98942237D01*
X160758450Y-98959230D01*
X160759406Y-98961537D01*
X160764490Y-98980501D01*
X160765456Y-98987838D01*
X160766100Y-98997650D01*
X160766100Y-102063238D01*
X160748507Y-102111576D01*
X160703958Y-102137296D01*
X160653300Y-102128363D01*
X160637726Y-102116412D01*
X159810188Y-101288874D01*
X159788448Y-101242254D01*
X159801762Y-101192567D01*
X159843899Y-101163062D01*
X159863362Y-101160500D01*
X159959306Y-101160500D01*
X159959309Y-101160500D01*
X160073886Y-101129799D01*
X160176613Y-101070489D01*
X160260489Y-100986613D01*
X160319799Y-100883886D01*
X160350500Y-100769309D01*
X160350500Y-100650691D01*
X160319799Y-100536114D01*
X160311014Y-100520898D01*
X160260489Y-100433386D01*
X160176613Y-100349510D01*
X160073886Y-100290201D01*
X159959309Y-100259500D01*
X159840691Y-100259500D01*
X159840690Y-100259500D01*
X159821571Y-100264622D01*
X159773332Y-100261459D01*
X159716347Y-100237853D01*
X159716344Y-100237852D01*
X159592922Y-100213300D01*
X159592921Y-100213300D01*
X159566428Y-100213300D01*
X159557016Y-100213300D01*
X159508678Y-100195707D01*
X159500525Y-100187737D01*
X159493413Y-100179643D01*
X159484065Y-100159596D01*
X159415927Y-100091458D01*
X159414327Y-100089637D01*
X159405809Y-100067795D01*
X159395904Y-100046554D01*
X159396564Y-100044088D01*
X159395638Y-100041713D01*
X159403148Y-100019516D01*
X159409218Y-99996867D01*
X159411890Y-99993681D01*
X159412126Y-99992987D01*
X159412836Y-99992554D01*
X159417644Y-99986826D01*
X159484061Y-99920408D01*
X159484065Y-99920404D01*
X159486135Y-99915963D01*
X159522505Y-99879589D01*
X159573749Y-99875102D01*
X159607463Y-99894565D01*
X159663387Y-99950489D01*
X159663388Y-99950490D01*
X159714750Y-99980144D01*
X159766114Y-100009799D01*
X159880691Y-100040500D01*
X159880694Y-100040500D01*
X159999306Y-100040500D01*
X159999309Y-100040500D01*
X160113886Y-100009799D01*
X160216613Y-99950489D01*
X160300489Y-99866613D01*
X160359799Y-99763886D01*
X160390500Y-99649309D01*
X160390500Y-99530691D01*
X160359799Y-99416114D01*
X160349956Y-99399065D01*
X160300489Y-99313386D01*
X160216613Y-99229510D01*
X160113886Y-99170201D01*
X160106631Y-99168257D01*
X159999309Y-99139500D01*
X159880691Y-99139500D01*
X159766114Y-99170201D01*
X159766112Y-99170201D01*
X159663386Y-99229510D01*
X159607465Y-99285432D01*
X159560845Y-99307172D01*
X159511158Y-99293858D01*
X159498528Y-99282711D01*
X159490925Y-99274308D01*
X159484065Y-99259596D01*
X159416318Y-99191849D01*
X159415055Y-99190453D01*
X159406024Y-99168257D01*
X159395904Y-99146554D01*
X159396416Y-99144641D01*
X159395670Y-99142806D01*
X159403019Y-99120000D01*
X159409218Y-99096867D01*
X159411257Y-99094436D01*
X159411448Y-99093845D01*
X159412095Y-99093438D01*
X159417644Y-99086826D01*
X159484061Y-99020408D01*
X159484065Y-99020404D01*
X159486579Y-99015014D01*
X159520515Y-98942237D01*
X159534068Y-98913173D01*
X159540500Y-98864316D01*
X159540500Y-98741900D01*
X159558093Y-98693562D01*
X159602642Y-98667842D01*
X159615700Y-98666700D01*
X160435077Y-98666700D01*
X160444883Y-98667341D01*
G37*
%TD.AperFunction*%
%TA.AperFunction,Conductor*%
G36*
X161842638Y-87918093D02*
G01*
X161868358Y-87962642D01*
X161869500Y-87975700D01*
X161869500Y-114024300D01*
X161851907Y-114072638D01*
X161807358Y-114098358D01*
X161794300Y-114099500D01*
X160552956Y-114099500D01*
X160504618Y-114081907D01*
X160478898Y-114037358D01*
X160487831Y-113986700D01*
X160524620Y-113955474D01*
X160524434Y-113955100D01*
X160525953Y-113954343D01*
X160526442Y-113953929D01*
X160527852Y-113953397D01*
X160527860Y-113953395D01*
X160573908Y-113930468D01*
X160631303Y-113888047D01*
X160638894Y-113880055D01*
X160655816Y-113866722D01*
X160666613Y-113860489D01*
X160750489Y-113776613D01*
X160766672Y-113748582D01*
X160777292Y-113734375D01*
X160778307Y-113733307D01*
X160782582Y-113728666D01*
X160785669Y-113725210D01*
X160825515Y-113658595D01*
X160843108Y-113610257D01*
X160855500Y-113539974D01*
X160855500Y-112129822D01*
X160855417Y-112123969D01*
X160855295Y-112119687D01*
X160838669Y-112044372D01*
X160818351Y-111997114D01*
X160779205Y-111937439D01*
X160691016Y-111843739D01*
X160661901Y-111812804D01*
X160653407Y-111804295D01*
X160653406Y-111804294D01*
X160653391Y-111804279D01*
X160646969Y-111798212D01*
X160576129Y-111754485D01*
X160576128Y-111754484D01*
X160576124Y-111754482D01*
X160527793Y-111736892D01*
X160457508Y-111724500D01*
X160296888Y-111724500D01*
X160296883Y-111724500D01*
X160287915Y-111724695D01*
X160281383Y-111724980D01*
X160281375Y-111724980D01*
X160281375Y-111724981D01*
X160281374Y-111724981D01*
X160281368Y-111724982D01*
X160203484Y-111744039D01*
X160203477Y-111744042D01*
X160156868Y-111765776D01*
X160156867Y-111765777D01*
X160098407Y-111806711D01*
X160098400Y-111806717D01*
X160084184Y-111820933D01*
X160068634Y-111832869D01*
X160067741Y-111833385D01*
X160049644Y-111840894D01*
X160049395Y-111840960D01*
X160048646Y-111841161D01*
X160029125Y-111843740D01*
X159987735Y-111843740D01*
X159987672Y-111843739D01*
X159986528Y-111843739D01*
X158745912Y-111843739D01*
X158726422Y-111841169D01*
X158725427Y-111840902D01*
X158707308Y-111833392D01*
X158706418Y-111832878D01*
X158690854Y-111820934D01*
X158676637Y-111806718D01*
X158674106Y-111804295D01*
X158670185Y-111800541D01*
X158670173Y-111800530D01*
X158665353Y-111796111D01*
X158665342Y-111796103D01*
X158596773Y-111754485D01*
X158548433Y-111736891D01*
X158478150Y-111724500D01*
X158328558Y-111724500D01*
X158328553Y-111724500D01*
X158319586Y-111724695D01*
X158315006Y-111724895D01*
X158315003Y-111724895D01*
X158313045Y-111724981D01*
X158283814Y-111732131D01*
X158283316Y-111729307D01*
X158267149Y-111732158D01*
X158252140Y-111735387D01*
X158235374Y-111743981D01*
X158235179Y-111744029D01*
X158232180Y-111745427D01*
X158232252Y-111745581D01*
X158230072Y-111746698D01*
X158228687Y-111747054D01*
X158226381Y-111748128D01*
X158226382Y-111748129D01*
X158203945Y-111758589D01*
X158203938Y-111758596D01*
X158188524Y-111765785D01*
X158180965Y-111771078D01*
X158176735Y-111774039D01*
X158170754Y-111777106D01*
X158162674Y-111783883D01*
X158159979Y-111785771D01*
X158159978Y-111785773D01*
X158130080Y-111806709D01*
X158130071Y-111806717D01*
X158100493Y-111836294D01*
X158084912Y-111848248D01*
X158084018Y-111848764D01*
X158065952Y-111856255D01*
X158064959Y-111856522D01*
X158045433Y-111859101D01*
X158004043Y-111859101D01*
X158003980Y-111859100D01*
X158002836Y-111859100D01*
X156705200Y-111859100D01*
X156695776Y-111859511D01*
X156687287Y-111859881D01*
X156675543Y-111860908D01*
X156674238Y-111861023D01*
X156589393Y-111887773D01*
X156589390Y-111887774D01*
X156589389Y-111887775D01*
X156544837Y-111913496D01*
X156504103Y-111944353D01*
X156454485Y-112021178D01*
X156454483Y-112021182D01*
X156436891Y-112069516D01*
X156424500Y-112139800D01*
X156424500Y-113494255D01*
X156425097Y-113509902D01*
X156425971Y-113521334D01*
X156427762Y-113536918D01*
X156457124Y-113727773D01*
X156457392Y-113729456D01*
X156457655Y-113731064D01*
X156457655Y-113731065D01*
X156482208Y-113800105D01*
X156482211Y-113800112D01*
X156482212Y-113800114D01*
X156507815Y-113844730D01*
X156538564Y-113885547D01*
X156579928Y-113912418D01*
X156607713Y-113930468D01*
X156615258Y-113935369D01*
X156663549Y-113953090D01*
X156663550Y-113953090D01*
X156665220Y-113953703D01*
X156704537Y-113986872D01*
X156713336Y-114037554D01*
X156687498Y-114082034D01*
X156639313Y-114099500D01*
X147345700Y-114099500D01*
X147297362Y-114081907D01*
X147271642Y-114037358D01*
X147270500Y-114024300D01*
X147270500Y-112673770D01*
X148604500Y-112673770D01*
X148604500Y-112846229D01*
X148638145Y-113015376D01*
X148638146Y-113015377D01*
X148704142Y-113174705D01*
X148799955Y-113318099D01*
X148799957Y-113318101D01*
X148799959Y-113318104D01*
X148921895Y-113440040D01*
X148921898Y-113440042D01*
X148921901Y-113440045D01*
X149065295Y-113535858D01*
X149224622Y-113601853D01*
X149224623Y-113601854D01*
X149224624Y-113601854D01*
X149224626Y-113601855D01*
X149337896Y-113624385D01*
X149393770Y-113635500D01*
X149393771Y-113635500D01*
X149566230Y-113635500D01*
X149608229Y-113627145D01*
X149735374Y-113601855D01*
X149894705Y-113535858D01*
X150038099Y-113440045D01*
X150160045Y-113318099D01*
X150255858Y-113174705D01*
X150321855Y-113015374D01*
X150355500Y-112846229D01*
X150355500Y-112673771D01*
X150355500Y-112673770D01*
X150604500Y-112673770D01*
X150604500Y-112846229D01*
X150638145Y-113015376D01*
X150638146Y-113015377D01*
X150704142Y-113174705D01*
X150799955Y-113318099D01*
X150799957Y-113318101D01*
X150799959Y-113318104D01*
X150921895Y-113440040D01*
X150921898Y-113440042D01*
X150921901Y-113440045D01*
X151065295Y-113535858D01*
X151224622Y-113601853D01*
X151224623Y-113601854D01*
X151224624Y-113601854D01*
X151224626Y-113601855D01*
X151337896Y-113624385D01*
X151393770Y-113635500D01*
X151393771Y-113635500D01*
X151566230Y-113635500D01*
X151608229Y-113627145D01*
X151735374Y-113601855D01*
X151894705Y-113535858D01*
X152038099Y-113440045D01*
X152160045Y-113318099D01*
X152255858Y-113174705D01*
X152321855Y-113015374D01*
X152355500Y-112846229D01*
X152355500Y-112673771D01*
X152321855Y-112504626D01*
X152255858Y-112345295D01*
X152160045Y-112201901D01*
X152160042Y-112201898D01*
X152160040Y-112201895D01*
X152038104Y-112079959D01*
X152038101Y-112079957D01*
X152038099Y-112079955D01*
X151894705Y-111984142D01*
X151781954Y-111937439D01*
X151735377Y-111918146D01*
X151735376Y-111918145D01*
X151566230Y-111884500D01*
X151566229Y-111884500D01*
X151393771Y-111884500D01*
X151393770Y-111884500D01*
X151224623Y-111918145D01*
X151224622Y-111918146D01*
X151065296Y-111984141D01*
X150921898Y-112079957D01*
X150921895Y-112079959D01*
X150799959Y-112201895D01*
X150799957Y-112201898D01*
X150704141Y-112345296D01*
X150638146Y-112504622D01*
X150638145Y-112504623D01*
X150604500Y-112673770D01*
X150355500Y-112673770D01*
X150321855Y-112504626D01*
X150255858Y-112345295D01*
X150160045Y-112201901D01*
X150160042Y-112201898D01*
X150160040Y-112201895D01*
X150038104Y-112079959D01*
X150038101Y-112079957D01*
X150038099Y-112079955D01*
X149894705Y-111984142D01*
X149781954Y-111937439D01*
X149735377Y-111918146D01*
X149735376Y-111918145D01*
X149566230Y-111884500D01*
X149566229Y-111884500D01*
X149393771Y-111884500D01*
X149393770Y-111884500D01*
X149224623Y-111918145D01*
X149224622Y-111918146D01*
X149065296Y-111984141D01*
X148921898Y-112079957D01*
X148921895Y-112079959D01*
X148799959Y-112201895D01*
X148799957Y-112201898D01*
X148704141Y-112345296D01*
X148638146Y-112504622D01*
X148638145Y-112504623D01*
X148604500Y-112673770D01*
X147270500Y-112673770D01*
X147270500Y-110673770D01*
X148604500Y-110673770D01*
X148604500Y-110846229D01*
X148638145Y-111015376D01*
X148638146Y-111015377D01*
X148704142Y-111174705D01*
X148799955Y-111318099D01*
X148799957Y-111318101D01*
X148799959Y-111318104D01*
X148921895Y-111440040D01*
X148921898Y-111440042D01*
X148921901Y-111440045D01*
X149065295Y-111535858D01*
X149224622Y-111601853D01*
X149224623Y-111601854D01*
X149224624Y-111601854D01*
X149224626Y-111601855D01*
X149337896Y-111624385D01*
X149393770Y-111635500D01*
X149393771Y-111635500D01*
X149566230Y-111635500D01*
X149608229Y-111627145D01*
X149735374Y-111601855D01*
X149894705Y-111535858D01*
X150038099Y-111440045D01*
X150160045Y-111318099D01*
X150255858Y-111174705D01*
X150321855Y-111015374D01*
X150355500Y-110846229D01*
X150355500Y-110673771D01*
X150321855Y-110504626D01*
X150255858Y-110345295D01*
X150160045Y-110201901D01*
X150160042Y-110201898D01*
X150160040Y-110201895D01*
X150038104Y-110079959D01*
X150038101Y-110079957D01*
X150038099Y-110079955D01*
X149894705Y-109984142D01*
X149873378Y-109975308D01*
X149735377Y-109918146D01*
X149735376Y-109918145D01*
X149566230Y-109884500D01*
X149566229Y-109884500D01*
X149393771Y-109884500D01*
X149393770Y-109884500D01*
X149224623Y-109918145D01*
X149224622Y-109918146D01*
X149065296Y-109984141D01*
X148921898Y-110079957D01*
X148921895Y-110079959D01*
X148799959Y-110201895D01*
X148799957Y-110201898D01*
X148704141Y-110345296D01*
X148638146Y-110504622D01*
X148638145Y-110504623D01*
X148604500Y-110673770D01*
X147270500Y-110673770D01*
X147270500Y-107645684D01*
X148889500Y-107645684D01*
X148889500Y-107994316D01*
X148890803Y-108004210D01*
X148895931Y-108043171D01*
X148895933Y-108043177D01*
X148945932Y-108150400D01*
X148945938Y-108150408D01*
X149029591Y-108234061D01*
X149029599Y-108234067D01*
X149136822Y-108284066D01*
X149136824Y-108284066D01*
X149136827Y-108284068D01*
X149185684Y-108290500D01*
X149185686Y-108290500D01*
X149614314Y-108290500D01*
X149614316Y-108290500D01*
X149663173Y-108284068D01*
X149770404Y-108234065D01*
X149770410Y-108234058D01*
X149771165Y-108233531D01*
X149772071Y-108233287D01*
X149776367Y-108231285D01*
X149776719Y-108232041D01*
X149820850Y-108220210D01*
X149867473Y-108241942D01*
X149867481Y-108241951D01*
X149879591Y-108254061D01*
X149879599Y-108254067D01*
X149986822Y-108304066D01*
X149986824Y-108304066D01*
X149986827Y-108304068D01*
X150035684Y-108310500D01*
X150035686Y-108310500D01*
X150444314Y-108310500D01*
X150444316Y-108310500D01*
X150493173Y-108304068D01*
X150546788Y-108279066D01*
X150600400Y-108254067D01*
X150600400Y-108254066D01*
X150600404Y-108254065D01*
X150684065Y-108170404D01*
X150684067Y-108170398D01*
X150687839Y-108165014D01*
X150690286Y-108166727D01*
X150718199Y-108138799D01*
X150769442Y-108134301D01*
X150811587Y-108163793D01*
X150812908Y-108166081D01*
X150815938Y-108170408D01*
X150899591Y-108254061D01*
X150899599Y-108254067D01*
X151006822Y-108304066D01*
X151006824Y-108304066D01*
X151006827Y-108304068D01*
X151055684Y-108310500D01*
X151055686Y-108310500D01*
X151464314Y-108310500D01*
X151464316Y-108310500D01*
X151513173Y-108304068D01*
X151566788Y-108279066D01*
X151620400Y-108254067D01*
X151620400Y-108254066D01*
X151620404Y-108254065D01*
X151704065Y-108170404D01*
X151706579Y-108165014D01*
X151752278Y-108067012D01*
X151754068Y-108063173D01*
X151760500Y-108014316D01*
X151760500Y-107665684D01*
X151754068Y-107616827D01*
X151754066Y-107616822D01*
X151704067Y-107509599D01*
X151704061Y-107509591D01*
X151620408Y-107425938D01*
X151620400Y-107425932D01*
X151513177Y-107375933D01*
X151513171Y-107375931D01*
X151477178Y-107371193D01*
X151464316Y-107369500D01*
X151464314Y-107369500D01*
X151251255Y-107369500D01*
X151202917Y-107351907D01*
X151198081Y-107347474D01*
X150796333Y-106945726D01*
X150791617Y-106941010D01*
X150791611Y-106940997D01*
X150760591Y-106909982D01*
X150760590Y-106909979D01*
X150754114Y-106902597D01*
X150749564Y-106896669D01*
X150739738Y-106879649D01*
X150738782Y-106877340D01*
X150733706Y-106858392D01*
X150732742Y-106851071D01*
X150732100Y-106841265D01*
X150732100Y-106488616D01*
X150742175Y-106451016D01*
X150800268Y-106350396D01*
X150800481Y-106350027D01*
X150830500Y-106237993D01*
X150830500Y-106122007D01*
X150800481Y-106009973D01*
X150795006Y-106000490D01*
X150742488Y-105909526D01*
X150660473Y-105827511D01*
X150560027Y-105769519D01*
X150529136Y-105761242D01*
X150447993Y-105739500D01*
X150332007Y-105739500D01*
X150219973Y-105769519D01*
X150219971Y-105769519D01*
X150119526Y-105827511D01*
X150037511Y-105909526D01*
X149979519Y-106009971D01*
X149963401Y-106070127D01*
X149933896Y-106112263D01*
X149884209Y-106125577D01*
X149878999Y-106124937D01*
X149833307Y-106117700D01*
X149833306Y-106117700D01*
X149338700Y-106117700D01*
X149338689Y-106117701D01*
X149242565Y-106132925D01*
X149126705Y-106191959D01*
X149034759Y-106283905D01*
X148975725Y-106399765D01*
X148960500Y-106495891D01*
X148960500Y-106840499D01*
X148960501Y-106840510D01*
X148975725Y-106936634D01*
X149034759Y-107052494D01*
X149101274Y-107119009D01*
X149108211Y-107133885D01*
X149118765Y-107146463D01*
X149121615Y-107162630D01*
X149123014Y-107165629D01*
X149123300Y-107172183D01*
X149123300Y-107314331D01*
X149105707Y-107362669D01*
X149079882Y-107382485D01*
X149029598Y-107405933D01*
X148945935Y-107489595D01*
X148945932Y-107489599D01*
X148895933Y-107596822D01*
X148895931Y-107596828D01*
X148890346Y-107639253D01*
X148889500Y-107645684D01*
X147270500Y-107645684D01*
X147270500Y-104387691D01*
X148960500Y-104387691D01*
X148960500Y-104732299D01*
X148960501Y-104732310D01*
X148975725Y-104828434D01*
X149006588Y-104889005D01*
X149034759Y-104944294D01*
X149126706Y-105036241D01*
X149242565Y-105095274D01*
X149242567Y-105095275D01*
X149338693Y-105110500D01*
X149833306Y-105110499D01*
X149929433Y-105095275D01*
X150045294Y-105036241D01*
X150137241Y-104944294D01*
X150196275Y-104828433D01*
X150211500Y-104732307D01*
X150211499Y-104387694D01*
X150211498Y-104387687D01*
X150196276Y-104291571D01*
X150195882Y-104290357D01*
X150192201Y-104267120D01*
X150192201Y-104266085D01*
X150192201Y-104242264D01*
X150192200Y-104242260D01*
X150192200Y-103869787D01*
X150209793Y-103821449D01*
X150225897Y-103809096D01*
X150225016Y-103807837D01*
X150230398Y-103804067D01*
X150230404Y-103804065D01*
X150258296Y-103776173D01*
X150286826Y-103747644D01*
X150333446Y-103725904D01*
X150383133Y-103739218D01*
X150393174Y-103747644D01*
X150449591Y-103804061D01*
X150449599Y-103804067D01*
X150556822Y-103854066D01*
X150556824Y-103854066D01*
X150556827Y-103854068D01*
X150605684Y-103860500D01*
X150605686Y-103860500D01*
X151034314Y-103860500D01*
X151034316Y-103860500D01*
X151083173Y-103854068D01*
X151106842Y-103843031D01*
X151196367Y-103801285D01*
X151197120Y-103802901D01*
X151198515Y-103802461D01*
X151205340Y-103796735D01*
X151231060Y-103792200D01*
X151247040Y-103792200D01*
X151295378Y-103809793D01*
X151301051Y-103815984D01*
X151301284Y-103815752D01*
X151305934Y-103820402D01*
X151305935Y-103820404D01*
X151346031Y-103860500D01*
X151389595Y-103904064D01*
X151389599Y-103904067D01*
X151496822Y-103954066D01*
X151496824Y-103954066D01*
X151496827Y-103954068D01*
X151545684Y-103960500D01*
X151545686Y-103960500D01*
X151894314Y-103960500D01*
X151894316Y-103960500D01*
X151943173Y-103954068D01*
X152001102Y-103927055D01*
X152050400Y-103904067D01*
X152050400Y-103904066D01*
X152050404Y-103904065D01*
X152053969Y-103900500D01*
X152061126Y-103893344D01*
X152107746Y-103871604D01*
X152157433Y-103884918D01*
X152186938Y-103927055D01*
X152189500Y-103946518D01*
X152189500Y-103947993D01*
X152219519Y-104060026D01*
X152219519Y-104060028D01*
X152277511Y-104160473D01*
X152359526Y-104242488D01*
X152417519Y-104275969D01*
X152459973Y-104300481D01*
X152572007Y-104330500D01*
X152572010Y-104330500D01*
X152687990Y-104330500D01*
X152687993Y-104330500D01*
X152738051Y-104317087D01*
X152789293Y-104321571D01*
X152825666Y-104357944D01*
X152832055Y-104379804D01*
X152832943Y-104386477D01*
X152831914Y-104408731D01*
X152838698Y-104471413D01*
X152849722Y-104512555D01*
X152850365Y-104517383D01*
X152849958Y-104519228D01*
X152851022Y-104527304D01*
X152851022Y-104559538D01*
X152848459Y-104579001D01*
X152843803Y-104596377D01*
X152840118Y-104610129D01*
X152832606Y-104628262D01*
X152816489Y-104656178D01*
X152804538Y-104671753D01*
X152781753Y-104694538D01*
X152766179Y-104706489D01*
X152738267Y-104722604D01*
X152720132Y-104730116D01*
X152683036Y-104740056D01*
X152680977Y-104740618D01*
X152680103Y-104740861D01*
X152680087Y-104740867D01*
X152614571Y-104772466D01*
X152614566Y-104772470D01*
X152572874Y-104802697D01*
X152544970Y-104831536D01*
X152523242Y-104853992D01*
X152300663Y-105183288D01*
X152082657Y-105505817D01*
X152056423Y-105560714D01*
X152043505Y-105602895D01*
X152034500Y-105663059D01*
X152034500Y-107304710D01*
X152035280Y-107322595D01*
X152035902Y-107329699D01*
X152036426Y-107335686D01*
X152063176Y-107420526D01*
X152088930Y-107465133D01*
X152088932Y-107465136D01*
X152088933Y-107465137D01*
X152113363Y-107497390D01*
X152119787Y-107505870D01*
X152196612Y-107555490D01*
X152245014Y-107573107D01*
X152315295Y-107585499D01*
X152315296Y-107585500D01*
X152315300Y-107585500D01*
X153178813Y-107585500D01*
X153179490Y-107585485D01*
X153187788Y-107585304D01*
X153194351Y-107585017D01*
X153272220Y-107565960D01*
X153318902Y-107544192D01*
X153377365Y-107503255D01*
X153383255Y-107497365D01*
X153389452Y-107490892D01*
X153393890Y-107486049D01*
X153409496Y-107460327D01*
X153411848Y-107461974D01*
X153421277Y-107448509D01*
X153429623Y-107435586D01*
X153435410Y-107417619D01*
X153435498Y-107417475D01*
X153436631Y-107414361D01*
X153436477Y-107414305D01*
X153437276Y-107411822D01*
X153437998Y-107410602D01*
X153440936Y-107402527D01*
X153440942Y-107402511D01*
X153447480Y-107384549D01*
X153447481Y-107384550D01*
X153453104Y-107369103D01*
X153455602Y-107354934D01*
X153457664Y-107348535D01*
X153458581Y-107338041D01*
X153465500Y-107298810D01*
X153465500Y-106753272D01*
X153465520Y-106751524D01*
X153468562Y-106620691D01*
X153474956Y-106345698D01*
X153476047Y-106334579D01*
X153547432Y-105924116D01*
X153551698Y-105909076D01*
X153594187Y-105802856D01*
X153594574Y-105801814D01*
X153597707Y-105793388D01*
X153600110Y-105786405D01*
X153610837Y-105705845D01*
X153607405Y-105654451D01*
X153605281Y-105645820D01*
X153603604Y-105636519D01*
X153602900Y-105630442D01*
X153602400Y-105621786D01*
X153602400Y-105323438D01*
X153608805Y-105293068D01*
X153617825Y-105272639D01*
X153625061Y-105259821D01*
X153646253Y-105229632D01*
X153667990Y-105183295D01*
X153686578Y-105114868D01*
X153695329Y-105019856D01*
X153717036Y-104973582D01*
X153870955Y-104819666D01*
X153877152Y-104813192D01*
X153881590Y-104808349D01*
X153923190Y-104739798D01*
X153940807Y-104691396D01*
X153953199Y-104621114D01*
X153953200Y-104621114D01*
X153953200Y-103991758D01*
X153953199Y-103991682D01*
X153953199Y-103937533D01*
X153952952Y-103927481D01*
X153952591Y-103920125D01*
X153952590Y-103920102D01*
X153951848Y-103910038D01*
X153948718Y-103878246D01*
X153942114Y-103843036D01*
X153936228Y-103821989D01*
X153935070Y-103817846D01*
X153930383Y-103803221D01*
X153930382Y-103803220D01*
X153930382Y-103803218D01*
X153918470Y-103784710D01*
X153913738Y-103776186D01*
X153908287Y-103764659D01*
X153867824Y-103707204D01*
X153867822Y-103707201D01*
X153827390Y-103666769D01*
X153820873Y-103660529D01*
X153816052Y-103656112D01*
X153816048Y-103656109D01*
X153812353Y-103653867D01*
X153807138Y-103650702D01*
X153807052Y-103650573D01*
X153740731Y-103606258D01*
X153705658Y-103599281D01*
X153699096Y-103596893D01*
X153697886Y-103596679D01*
X153697885Y-103596679D01*
X153628810Y-103584500D01*
X153533200Y-103584500D01*
X153484862Y-103566907D01*
X153459142Y-103522358D01*
X153458000Y-103509300D01*
X153458000Y-103370376D01*
X153446367Y-103311895D01*
X153446366Y-103311893D01*
X153402052Y-103245573D01*
X153335731Y-103201258D01*
X153335729Y-103201257D01*
X153277249Y-103189625D01*
X153277248Y-103189625D01*
X152397752Y-103189625D01*
X152397751Y-103189625D01*
X152339270Y-103201257D01*
X152339269Y-103201258D01*
X152291844Y-103232947D01*
X152241878Y-103245173D01*
X152195743Y-103222422D01*
X152181911Y-103202201D01*
X152134067Y-103099599D01*
X152134061Y-103099591D01*
X152050408Y-103015938D01*
X152045014Y-103012161D01*
X152046727Y-103009713D01*
X152018799Y-102981801D01*
X152014301Y-102930558D01*
X152043793Y-102888413D01*
X152046081Y-102887091D01*
X152050398Y-102884067D01*
X152050404Y-102884065D01*
X152134065Y-102800404D01*
X152136263Y-102795689D01*
X152172636Y-102759316D01*
X152223880Y-102754832D01*
X152266017Y-102784336D01*
X152266928Y-102785668D01*
X152272948Y-102794677D01*
X152339269Y-102838992D01*
X152368510Y-102844808D01*
X152397751Y-102850625D01*
X152397752Y-102850625D01*
X153277249Y-102850625D01*
X153296742Y-102846747D01*
X153335731Y-102838992D01*
X153402052Y-102794677D01*
X153446367Y-102728356D01*
X153458000Y-102669873D01*
X153458000Y-102370377D01*
X153446367Y-102311894D01*
X153446365Y-102311892D01*
X153443532Y-102305051D01*
X153444590Y-102304612D01*
X153434145Y-102261947D01*
X153443834Y-102235324D01*
X153443532Y-102235199D01*
X153446364Y-102228359D01*
X153446367Y-102228356D01*
X153458000Y-102169873D01*
X153458000Y-101870377D01*
X153446367Y-101811894D01*
X153402052Y-101745573D01*
X153335731Y-101701258D01*
X153335729Y-101701257D01*
X153277249Y-101689625D01*
X153277248Y-101689625D01*
X152897481Y-101689625D01*
X152886181Y-101688137D01*
X152886125Y-101688568D01*
X152881239Y-101687925D01*
X152881235Y-101687925D01*
X152378229Y-101687925D01*
X152378221Y-101687922D01*
X152378221Y-101687924D01*
X152373610Y-101687924D01*
X152286140Y-101687924D01*
X152251747Y-101697139D01*
X152205427Y-101709550D01*
X152205348Y-101709572D01*
X152204972Y-101709673D01*
X152201650Y-101710563D01*
X152201476Y-101710663D01*
X152196970Y-101711933D01*
X152175449Y-101710326D01*
X152153897Y-101711245D01*
X152150255Y-101708445D01*
X152145673Y-101708103D01*
X152130221Y-101693039D01*
X152113119Y-101679889D01*
X152112129Y-101675402D01*
X152108839Y-101672195D01*
X152106684Y-101650726D01*
X152102036Y-101629657D01*
X152104142Y-101625391D01*
X152103703Y-101621013D01*
X152113152Y-101607144D01*
X152123408Y-101586375D01*
X152139599Y-101570185D01*
X152157319Y-101549979D01*
X152169286Y-101534384D01*
X152184227Y-101512024D01*
X152196863Y-101490136D01*
X152197830Y-101488462D01*
X152202478Y-101480410D01*
X152202989Y-101479524D01*
X152230490Y-101452011D01*
X152231923Y-101451183D01*
X152246413Y-101445188D01*
X152247249Y-101444534D01*
X152247938Y-101444557D01*
X152250135Y-101443648D01*
X152251190Y-101443365D01*
X152270573Y-101440825D01*
X153172629Y-101440825D01*
X153182696Y-101440578D01*
X153185817Y-101440424D01*
X153190088Y-101440214D01*
X153200139Y-101439472D01*
X153212238Y-101438280D01*
X153220054Y-101437358D01*
X153225740Y-101436577D01*
X153255088Y-101426520D01*
X153255871Y-101429316D01*
X153272647Y-101424622D01*
X153287288Y-101419928D01*
X153312520Y-101403680D01*
X153314235Y-101403039D01*
X153331235Y-101393225D01*
X153331236Y-101393226D01*
X153345128Y-101385206D01*
X153385883Y-101354334D01*
X153397474Y-101336383D01*
X153400183Y-101333615D01*
X153431118Y-101292898D01*
X153438154Y-101270198D01*
X153439078Y-101267660D01*
X153438955Y-101267615D01*
X153440231Y-101263496D01*
X153441169Y-101261913D01*
X153449706Y-101238466D01*
X153449721Y-101238418D01*
X153453102Y-101229131D01*
X153453239Y-101228356D01*
X153456030Y-101212530D01*
X153458196Y-101205543D01*
X153458908Y-101196209D01*
X153465500Y-101158833D01*
X153465500Y-101080700D01*
X153483093Y-101032362D01*
X153527642Y-101006642D01*
X153540700Y-101005500D01*
X153593446Y-101005500D01*
X153594854Y-101005432D01*
X153613043Y-101004563D01*
X153627343Y-101003193D01*
X153713424Y-100974875D01*
X153757599Y-100948387D01*
X153758546Y-100947644D01*
X153758800Y-100947561D01*
X153759537Y-100947055D01*
X153759686Y-100947271D01*
X153807438Y-100931662D01*
X153819620Y-100933066D01*
X153824266Y-100933990D01*
X153824269Y-100933992D01*
X153882752Y-100945625D01*
X153882753Y-100945625D01*
X154182249Y-100945625D01*
X154201742Y-100941747D01*
X154240731Y-100933992D01*
X154240734Y-100933989D01*
X154247574Y-100931157D01*
X154248012Y-100932215D01*
X154290678Y-100921770D01*
X154317300Y-100931459D01*
X154317426Y-100931157D01*
X154324267Y-100933990D01*
X154324269Y-100933992D01*
X154353510Y-100939808D01*
X154382751Y-100945625D01*
X154382752Y-100945625D01*
X154682249Y-100945625D01*
X154701742Y-100941747D01*
X154740731Y-100933992D01*
X154740734Y-100933989D01*
X154747574Y-100931157D01*
X154748012Y-100932215D01*
X154790678Y-100921770D01*
X154817300Y-100931459D01*
X154817426Y-100931157D01*
X154824267Y-100933990D01*
X154824269Y-100933992D01*
X154853510Y-100939808D01*
X154882751Y-100945625D01*
X154882752Y-100945625D01*
X155182249Y-100945625D01*
X155201742Y-100941747D01*
X155240731Y-100933992D01*
X155307052Y-100889677D01*
X155351367Y-100823356D01*
X155363000Y-100764873D01*
X155363000Y-99885377D01*
X155351367Y-99826894D01*
X155331711Y-99797478D01*
X155319486Y-99747513D01*
X155342237Y-99701378D01*
X155389321Y-99680661D01*
X155394239Y-99680500D01*
X155609314Y-99680500D01*
X155609316Y-99680500D01*
X155658173Y-99674068D01*
X155658172Y-99674068D01*
X155663878Y-99673317D01*
X155664154Y-99675415D01*
X155706823Y-99678206D01*
X155743986Y-99713773D01*
X155749593Y-99764906D01*
X155739073Y-99788821D01*
X155713633Y-99826894D01*
X155713632Y-99826895D01*
X155702000Y-99885376D01*
X155702000Y-100764873D01*
X155713632Y-100823354D01*
X155713633Y-100823356D01*
X155757948Y-100889677D01*
X155824269Y-100933992D01*
X155853510Y-100939808D01*
X155882751Y-100945625D01*
X155882752Y-100945625D01*
X156031800Y-100945625D01*
X156080138Y-100963218D01*
X156105858Y-101007767D01*
X156107000Y-101020825D01*
X156107000Y-101169873D01*
X156118632Y-101228353D01*
X156121467Y-101235196D01*
X156120410Y-101235633D01*
X156130852Y-101278317D01*
X156121165Y-101304929D01*
X156121467Y-101305054D01*
X156118632Y-101311896D01*
X156107000Y-101370376D01*
X156107000Y-101669873D01*
X156118632Y-101728353D01*
X156121467Y-101735196D01*
X156120410Y-101735633D01*
X156130852Y-101778317D01*
X156121165Y-101804929D01*
X156121467Y-101805054D01*
X156118632Y-101811896D01*
X156107000Y-101870376D01*
X156107000Y-102169873D01*
X156118632Y-102228353D01*
X156121467Y-102235196D01*
X156120410Y-102235633D01*
X156130852Y-102278317D01*
X156121165Y-102304929D01*
X156121467Y-102305054D01*
X156118632Y-102311896D01*
X156107000Y-102370376D01*
X156107000Y-102669873D01*
X156118632Y-102728353D01*
X156121467Y-102735196D01*
X156120410Y-102735633D01*
X156130852Y-102778317D01*
X156121165Y-102804929D01*
X156121467Y-102805054D01*
X156118632Y-102811896D01*
X156107000Y-102870376D01*
X156107000Y-103169873D01*
X156118632Y-103228353D01*
X156121467Y-103235196D01*
X156120410Y-103235633D01*
X156130852Y-103278317D01*
X156121165Y-103304929D01*
X156121467Y-103305054D01*
X156118632Y-103311896D01*
X156107000Y-103370376D01*
X156107000Y-103519425D01*
X156089407Y-103567763D01*
X156044858Y-103593483D01*
X156031800Y-103594625D01*
X155882751Y-103594625D01*
X155824271Y-103606257D01*
X155817429Y-103609092D01*
X155816991Y-103608035D01*
X155774308Y-103618477D01*
X155747695Y-103608790D01*
X155747571Y-103609092D01*
X155740731Y-103606258D01*
X155740729Y-103606257D01*
X155740728Y-103606257D01*
X155682249Y-103594625D01*
X155682248Y-103594625D01*
X155382752Y-103594625D01*
X155382751Y-103594625D01*
X155324271Y-103606257D01*
X155317429Y-103609092D01*
X155316991Y-103608035D01*
X155274308Y-103618477D01*
X155247695Y-103608790D01*
X155247571Y-103609092D01*
X155240731Y-103606258D01*
X155240729Y-103606257D01*
X155240728Y-103606257D01*
X155182249Y-103594625D01*
X155182248Y-103594625D01*
X154882752Y-103594625D01*
X154882751Y-103594625D01*
X154824271Y-103606257D01*
X154817429Y-103609092D01*
X154816991Y-103608035D01*
X154774308Y-103618477D01*
X154747695Y-103608790D01*
X154747571Y-103609092D01*
X154740731Y-103606258D01*
X154740729Y-103606257D01*
X154740728Y-103606257D01*
X154682249Y-103594625D01*
X154682248Y-103594625D01*
X154382752Y-103594625D01*
X154382751Y-103594625D01*
X154324270Y-103606257D01*
X154324268Y-103606258D01*
X154257948Y-103650573D01*
X154213633Y-103716893D01*
X154213632Y-103716895D01*
X154202000Y-103775376D01*
X154202000Y-104155144D01*
X154200512Y-104166443D01*
X154200943Y-104166500D01*
X154200300Y-104171386D01*
X154200300Y-104546517D01*
X154197533Y-104566727D01*
X154188824Y-104597939D01*
X154177354Y-104715094D01*
X154177352Y-104715119D01*
X154176983Y-104750919D01*
X154176984Y-104750949D01*
X154178993Y-104777001D01*
X154180745Y-104792265D01*
X154180745Y-104792267D01*
X154180746Y-104792268D01*
X154184865Y-104802699D01*
X154185640Y-104804660D01*
X154186514Y-104806986D01*
X154188439Y-104812377D01*
X154188335Y-104812401D01*
X154190751Y-104823569D01*
X154213392Y-104882236D01*
X154213728Y-104883177D01*
X154213726Y-104883421D01*
X154215547Y-104889005D01*
X154225037Y-104924420D01*
X154227600Y-104943882D01*
X154227600Y-104976116D01*
X154225037Y-104995580D01*
X154216696Y-105026707D01*
X154209184Y-105044842D01*
X154163692Y-105123636D01*
X154163204Y-105125011D01*
X154162791Y-105125698D01*
X154162545Y-105126870D01*
X154160853Y-105131648D01*
X154159946Y-105132747D01*
X154157962Y-105138657D01*
X154145377Y-105165282D01*
X154145371Y-105165299D01*
X154126641Y-105233086D01*
X154126640Y-105233094D01*
X154118936Y-105311791D01*
X154118202Y-105321797D01*
X154117844Y-105329132D01*
X154117780Y-105331737D01*
X154117602Y-105339066D01*
X154117599Y-105339182D01*
X154117599Y-105596561D01*
X154111193Y-105626931D01*
X154102852Y-105645824D01*
X154099696Y-105652973D01*
X154099691Y-105652985D01*
X154088920Y-105683798D01*
X154082865Y-105706865D01*
X154082862Y-105706879D01*
X154077113Y-105738991D01*
X154077109Y-105739022D01*
X154055838Y-105956290D01*
X154055100Y-105966377D01*
X154054743Y-105973706D01*
X154054501Y-105983770D01*
X154055105Y-107207186D01*
X154059715Y-107250371D01*
X154061458Y-107258460D01*
X154054441Y-107309419D01*
X154016310Y-107343945D01*
X153987945Y-107349500D01*
X153950691Y-107349500D01*
X153836114Y-107380201D01*
X153836112Y-107380201D01*
X153733386Y-107439510D01*
X153649510Y-107523386D01*
X153590201Y-107626112D01*
X153590201Y-107626114D01*
X153559500Y-107740691D01*
X153559500Y-107859309D01*
X153590201Y-107973885D01*
X153590201Y-107973887D01*
X153649510Y-108076613D01*
X153733386Y-108160489D01*
X153783581Y-108189469D01*
X153836114Y-108219799D01*
X153950691Y-108250500D01*
X154069309Y-108250500D01*
X154490678Y-108250500D01*
X154510140Y-108253062D01*
X154513891Y-108254067D01*
X154543124Y-108261900D01*
X154543125Y-108261900D01*
X154661741Y-108261900D01*
X154661742Y-108261900D01*
X154690975Y-108254067D01*
X154694726Y-108253062D01*
X154714188Y-108250500D01*
X155118245Y-108250500D01*
X155137707Y-108253062D01*
X155141458Y-108254067D01*
X155170691Y-108261900D01*
X155170692Y-108261900D01*
X155289308Y-108261900D01*
X155289309Y-108261900D01*
X155318542Y-108254067D01*
X155322293Y-108253062D01*
X155341755Y-108250500D01*
X155609310Y-108250500D01*
X155655260Y-108238187D01*
X155699673Y-108226286D01*
X155723887Y-108219799D01*
X155826614Y-108160489D01*
X155852292Y-108134809D01*
X155857897Y-108132195D01*
X155867864Y-108122860D01*
X155906614Y-108100489D01*
X156289577Y-107717526D01*
X156336197Y-107695786D01*
X156342751Y-107695500D01*
X156544272Y-107695500D01*
X156558312Y-107694182D01*
X156574699Y-107692646D01*
X156702882Y-107647793D01*
X156812150Y-107567150D01*
X156892793Y-107457882D01*
X156937646Y-107329699D01*
X156939548Y-107309419D01*
X156940500Y-107299273D01*
X156940500Y-107205700D01*
X156958093Y-107157362D01*
X157000904Y-107131970D01*
X157008229Y-107130500D01*
X157039309Y-107130500D01*
X157129673Y-107106286D01*
X157153887Y-107099799D01*
X157256614Y-107040489D01*
X157340489Y-106956614D01*
X157399799Y-106853887D01*
X157409558Y-106817465D01*
X157430500Y-106739309D01*
X157430500Y-106620691D01*
X157404970Y-106525413D01*
X157399799Y-106506113D01*
X157385011Y-106480500D01*
X157350575Y-106420855D01*
X157340500Y-106383255D01*
X157340500Y-106217751D01*
X157346114Y-106202325D01*
X157347545Y-106185970D01*
X157356961Y-106172522D01*
X157358093Y-106169413D01*
X157362515Y-106164586D01*
X157456699Y-106070402D01*
X157472267Y-106058456D01*
X157572670Y-106000489D01*
X157724679Y-105848481D01*
X157783988Y-105745753D01*
X157789159Y-105726454D01*
X157814689Y-105631176D01*
X157814689Y-105512558D01*
X157787936Y-105412714D01*
X157783988Y-105397980D01*
X157724679Y-105295253D01*
X157724677Y-105295251D01*
X157724675Y-105295248D01*
X157640807Y-105211380D01*
X157640801Y-105211376D01*
X157538077Y-105152068D01*
X157498030Y-105141338D01*
X157488024Y-105138657D01*
X157423498Y-105121367D01*
X157304880Y-105121367D01*
X157199694Y-105149551D01*
X157190299Y-105152069D01*
X157087579Y-105211373D01*
X157083669Y-105214374D01*
X157083470Y-105214115D01*
X157073782Y-105221546D01*
X156973384Y-105279511D01*
X156529508Y-105723387D01*
X156516644Y-105745669D01*
X156477238Y-105778733D01*
X156425799Y-105778732D01*
X156398346Y-105761242D01*
X156290014Y-105652910D01*
X156187288Y-105593601D01*
X156175180Y-105590357D01*
X156163073Y-105587113D01*
X156163072Y-105587112D01*
X156108752Y-105572556D01*
X156075042Y-105553093D01*
X156046905Y-105524956D01*
X156027441Y-105491245D01*
X156008716Y-105421360D01*
X156008716Y-105421359D01*
X156006400Y-105412717D01*
X156006399Y-105412714D01*
X156006399Y-105412713D01*
X155980574Y-105367983D01*
X155970500Y-105330384D01*
X155970500Y-105165685D01*
X155968708Y-105152069D01*
X155964068Y-105116827D01*
X155963156Y-105114871D01*
X155914067Y-105009599D01*
X155914061Y-105009591D01*
X155884226Y-104979756D01*
X155877288Y-104964879D01*
X155866735Y-104952302D01*
X155863884Y-104936134D01*
X155862486Y-104933136D01*
X155862200Y-104926582D01*
X155862200Y-104910825D01*
X155879793Y-104862487D01*
X155924342Y-104836767D01*
X155937400Y-104835625D01*
X156182249Y-104835625D01*
X156208013Y-104830500D01*
X156240731Y-104823992D01*
X156307052Y-104779677D01*
X156351367Y-104713356D01*
X156359412Y-104672909D01*
X156386097Y-104628933D01*
X156434807Y-104612398D01*
X156452625Y-104614941D01*
X156510691Y-104630500D01*
X156510694Y-104630500D01*
X156629306Y-104630500D01*
X156629309Y-104630500D01*
X156743886Y-104599799D01*
X156846613Y-104540489D01*
X156874604Y-104512497D01*
X156921223Y-104490758D01*
X156970910Y-104504071D01*
X157000415Y-104546208D01*
X157002334Y-104555855D01*
X157005930Y-104583166D01*
X157005933Y-104583177D01*
X157055932Y-104690400D01*
X157055938Y-104690408D01*
X157139591Y-104774061D01*
X157139599Y-104774067D01*
X157246822Y-104824066D01*
X157246824Y-104824066D01*
X157246827Y-104824068D01*
X157295684Y-104830500D01*
X157295686Y-104830500D01*
X157704314Y-104830500D01*
X157704316Y-104830500D01*
X157753173Y-104824068D01*
X157860404Y-104774065D01*
X157944065Y-104690404D01*
X157944067Y-104690398D01*
X157947839Y-104685014D01*
X157950286Y-104686727D01*
X157978199Y-104658799D01*
X158029442Y-104654301D01*
X158071587Y-104683793D01*
X158072908Y-104686081D01*
X158075938Y-104690408D01*
X158159591Y-104774061D01*
X158159599Y-104774067D01*
X158266822Y-104824066D01*
X158266824Y-104824066D01*
X158266827Y-104824068D01*
X158315684Y-104830500D01*
X158368100Y-104830500D01*
X158416438Y-104848093D01*
X158442158Y-104892642D01*
X158443300Y-104905700D01*
X158443300Y-105098843D01*
X158443292Y-105098864D01*
X158443292Y-105192922D01*
X158467844Y-105316346D01*
X158477256Y-105339066D01*
X158516007Y-105432611D01*
X158585927Y-105537243D01*
X158585928Y-105537244D01*
X158585929Y-105537246D01*
X158609400Y-105560714D01*
X158609404Y-105560717D01*
X158609405Y-105560718D01*
X158850502Y-105801815D01*
X158860814Y-105807769D01*
X158861469Y-105808147D01*
X158877041Y-105820097D01*
X159017474Y-105960530D01*
X159039214Y-106007150D01*
X159039500Y-106013704D01*
X159039500Y-106097993D01*
X159069519Y-106210026D01*
X159069519Y-106210028D01*
X159127511Y-106310473D01*
X159209526Y-106392488D01*
X159258660Y-106420855D01*
X159309973Y-106450481D01*
X159316987Y-106452360D01*
X159359124Y-106481865D01*
X159372438Y-106531552D01*
X159350699Y-106578172D01*
X159350698Y-106578172D01*
X158543761Y-107385107D01*
X158543761Y-107385108D01*
X158540490Y-107388379D01*
X158540485Y-107388382D01*
X158526357Y-107402511D01*
X158512099Y-107416769D01*
X158509469Y-107419399D01*
X158502078Y-107425882D01*
X158496160Y-107430424D01*
X158479148Y-107440246D01*
X158476842Y-107441201D01*
X158457878Y-107446280D01*
X158454834Y-107446681D01*
X158450465Y-107447256D01*
X158440654Y-107447898D01*
X158408723Y-107447896D01*
X158396806Y-107447896D01*
X158396805Y-107447896D01*
X158390259Y-107447896D01*
X158390213Y-107447900D01*
X157805228Y-107447900D01*
X157742306Y-107447898D01*
X157742305Y-107447898D01*
X157742302Y-107447898D01*
X157618884Y-107472443D01*
X157618875Y-107472446D01*
X157502611Y-107520604D01*
X157397976Y-107590521D01*
X157353486Y-107635014D01*
X157353485Y-107635015D01*
X157318986Y-107669515D01*
X157318985Y-107669516D01*
X157028202Y-107960297D01*
X157028158Y-107960335D01*
X156993292Y-107995207D01*
X156985899Y-108001691D01*
X156979968Y-108006243D01*
X156962956Y-108016066D01*
X156960650Y-108017021D01*
X156941701Y-108022099D01*
X156936283Y-108022812D01*
X156934444Y-108023055D01*
X156924626Y-108023699D01*
X156905014Y-108023699D01*
X156905009Y-108023700D01*
X156564428Y-108023700D01*
X156501506Y-108023698D01*
X156501505Y-108023698D01*
X156501502Y-108023698D01*
X156378084Y-108048243D01*
X156378075Y-108048246D01*
X156261811Y-108096404D01*
X156157176Y-108166321D01*
X156112685Y-108210815D01*
X156092745Y-108230756D01*
X156092739Y-108230762D01*
X156074740Y-108248757D01*
X156074736Y-108248763D01*
X156040237Y-108283261D01*
X156040236Y-108283260D01*
X156006323Y-108317173D01*
X156006317Y-108317181D01*
X155936405Y-108421810D01*
X155936403Y-108421814D01*
X155888246Y-108538076D01*
X155888243Y-108538085D01*
X155863698Y-108661503D01*
X155863698Y-108661504D01*
X155863700Y-108708884D01*
X155863700Y-108714741D01*
X155863699Y-108714755D01*
X155863699Y-108764669D01*
X155863055Y-108774490D01*
X155862080Y-108781892D01*
X155856997Y-108800855D01*
X155856042Y-108803160D01*
X155846225Y-108820161D01*
X155841637Y-108826139D01*
X155835153Y-108833531D01*
X155799915Y-108868765D01*
X155799892Y-108868792D01*
X155679190Y-108989493D01*
X155674899Y-108993783D01*
X155674893Y-108993787D01*
X155646672Y-109022011D01*
X155646669Y-109022015D01*
X155646667Y-109022015D01*
X155643882Y-109024801D01*
X155636494Y-109031282D01*
X155630567Y-109035831D01*
X155613537Y-109045661D01*
X155611227Y-109046617D01*
X155592297Y-109051687D01*
X155586101Y-109052503D01*
X155584957Y-109052654D01*
X155575134Y-109053299D01*
X155525154Y-109053299D01*
X155525142Y-109053300D01*
X153114855Y-109053300D01*
X153108792Y-109053299D01*
X153108790Y-109053299D01*
X153091155Y-109053299D01*
X153091130Y-109053290D01*
X153060000Y-109053290D01*
X152997078Y-109053290D01*
X152873649Y-109077844D01*
X152757389Y-109126005D01*
X152757387Y-109126006D01*
X152751566Y-109129896D01*
X152652752Y-109195928D01*
X152652750Y-109195929D01*
X152611985Y-109236700D01*
X151908908Y-109939777D01*
X151862288Y-109961517D01*
X151826956Y-109956079D01*
X151735377Y-109918146D01*
X151735376Y-109918145D01*
X151566230Y-109884500D01*
X151566229Y-109884500D01*
X151393771Y-109884500D01*
X151393770Y-109884500D01*
X151224623Y-109918145D01*
X151224622Y-109918146D01*
X151065296Y-109984141D01*
X150921898Y-110079957D01*
X150921895Y-110079959D01*
X150799959Y-110201895D01*
X150799957Y-110201898D01*
X150704141Y-110345296D01*
X150638146Y-110504622D01*
X150638145Y-110504623D01*
X150604500Y-110673770D01*
X150604500Y-110846229D01*
X150638145Y-111015376D01*
X150638146Y-111015377D01*
X150704142Y-111174705D01*
X150799955Y-111318099D01*
X150799957Y-111318101D01*
X150799959Y-111318104D01*
X150921895Y-111440040D01*
X150921898Y-111440042D01*
X150921901Y-111440045D01*
X151065295Y-111535858D01*
X151224622Y-111601853D01*
X151224623Y-111601854D01*
X151224624Y-111601854D01*
X151224626Y-111601855D01*
X151337896Y-111624385D01*
X151393770Y-111635500D01*
X151393771Y-111635500D01*
X151566230Y-111635500D01*
X151608229Y-111627145D01*
X151735374Y-111601855D01*
X151894705Y-111535858D01*
X152038099Y-111440045D01*
X152160045Y-111318099D01*
X152255858Y-111174705D01*
X152321855Y-111015374D01*
X152355500Y-110846229D01*
X152355500Y-110673771D01*
X152321855Y-110504626D01*
X152283918Y-110413041D01*
X152281675Y-110361651D01*
X152300219Y-110331092D01*
X152965095Y-109666216D01*
X152965105Y-109666212D01*
X152996125Y-109635187D01*
X153003500Y-109628718D01*
X153009445Y-109624156D01*
X153026444Y-109614343D01*
X153028761Y-109613383D01*
X153047706Y-109608308D01*
X153055043Y-109607342D01*
X153064850Y-109606700D01*
X154060436Y-109606700D01*
X154108774Y-109624293D01*
X154134494Y-109668842D01*
X154125561Y-109719500D01*
X154113610Y-109735074D01*
X153908907Y-109939777D01*
X153862287Y-109961517D01*
X153826955Y-109956079D01*
X153735377Y-109918146D01*
X153735376Y-109918145D01*
X153566230Y-109884500D01*
X153566229Y-109884500D01*
X153393771Y-109884500D01*
X153393770Y-109884500D01*
X153224623Y-109918145D01*
X153224622Y-109918146D01*
X153065296Y-109984141D01*
X152921898Y-110079957D01*
X152921895Y-110079959D01*
X152799959Y-110201895D01*
X152799957Y-110201898D01*
X152704141Y-110345296D01*
X152638146Y-110504622D01*
X152638145Y-110504623D01*
X152604500Y-110673770D01*
X152604500Y-110846229D01*
X152638145Y-111015376D01*
X152638146Y-111015377D01*
X152704142Y-111174705D01*
X152799955Y-111318099D01*
X152799957Y-111318101D01*
X152799959Y-111318104D01*
X152921895Y-111440040D01*
X152921898Y-111440042D01*
X152921901Y-111440045D01*
X153065295Y-111535858D01*
X153224622Y-111601853D01*
X153224623Y-111601854D01*
X153224624Y-111601854D01*
X153224626Y-111601855D01*
X153337896Y-111624385D01*
X153393770Y-111635500D01*
X153393771Y-111635500D01*
X153566230Y-111635500D01*
X153608229Y-111627145D01*
X153735374Y-111601855D01*
X153894705Y-111535858D01*
X154038099Y-111440045D01*
X154160045Y-111318099D01*
X154255858Y-111174705D01*
X154321855Y-111015374D01*
X154355500Y-110846229D01*
X154355500Y-110673771D01*
X154321855Y-110504626D01*
X154283918Y-110413040D01*
X154281676Y-110361650D01*
X154300219Y-110331091D01*
X154565098Y-110066213D01*
X154565104Y-110066211D01*
X154585520Y-110045791D01*
X154596128Y-110035182D01*
X154603503Y-110028713D01*
X154609439Y-110024158D01*
X154626446Y-110014341D01*
X154628769Y-110013379D01*
X154647704Y-110008307D01*
X154655038Y-110007342D01*
X154664842Y-110006700D01*
X154708790Y-110006700D01*
X154813607Y-110006700D01*
X154861945Y-110024293D01*
X154887665Y-110068842D01*
X154878732Y-110119500D01*
X154866781Y-110135074D01*
X154799959Y-110201895D01*
X154799957Y-110201898D01*
X154704141Y-110345296D01*
X154638146Y-110504622D01*
X154638145Y-110504623D01*
X154604500Y-110673770D01*
X154604500Y-110846229D01*
X154638145Y-111015376D01*
X154638146Y-111015377D01*
X154704142Y-111174705D01*
X154799955Y-111318099D01*
X154799957Y-111318101D01*
X154799959Y-111318104D01*
X154921895Y-111440040D01*
X154921898Y-111440042D01*
X154921901Y-111440045D01*
X155065295Y-111535858D01*
X155224622Y-111601853D01*
X155224623Y-111601854D01*
X155224624Y-111601854D01*
X155224626Y-111601855D01*
X155337896Y-111624385D01*
X155393770Y-111635500D01*
X155393771Y-111635500D01*
X155566230Y-111635500D01*
X155608229Y-111627145D01*
X155735374Y-111601855D01*
X155894705Y-111535858D01*
X156038099Y-111440045D01*
X156160045Y-111318099D01*
X156255858Y-111174705D01*
X156321855Y-111015374D01*
X156355500Y-110846229D01*
X156355500Y-110673771D01*
X156321855Y-110504626D01*
X156255858Y-110345295D01*
X156160045Y-110201901D01*
X156160042Y-110201898D01*
X156160040Y-110201895D01*
X156093219Y-110135074D01*
X156071479Y-110088454D01*
X156084793Y-110038767D01*
X156126930Y-110009262D01*
X156146393Y-110006700D01*
X156813607Y-110006700D01*
X156861945Y-110024293D01*
X156887665Y-110068842D01*
X156878732Y-110119500D01*
X156866781Y-110135074D01*
X156799959Y-110201895D01*
X156799957Y-110201898D01*
X156704141Y-110345296D01*
X156638146Y-110504622D01*
X156638145Y-110504623D01*
X156604500Y-110673770D01*
X156604500Y-110846229D01*
X156638145Y-111015376D01*
X156638146Y-111015377D01*
X156704142Y-111174705D01*
X156799955Y-111318099D01*
X156799957Y-111318101D01*
X156799959Y-111318104D01*
X156921895Y-111440040D01*
X156921898Y-111440042D01*
X156921901Y-111440045D01*
X157065295Y-111535858D01*
X157224622Y-111601853D01*
X157224623Y-111601854D01*
X157224624Y-111601854D01*
X157224626Y-111601855D01*
X157337896Y-111624385D01*
X157393770Y-111635500D01*
X157393771Y-111635500D01*
X157566230Y-111635500D01*
X157608229Y-111627145D01*
X157735374Y-111601855D01*
X157894705Y-111535858D01*
X158038099Y-111440045D01*
X158160045Y-111318099D01*
X158255858Y-111174705D01*
X158321855Y-111015374D01*
X158355500Y-110846229D01*
X158355500Y-110673771D01*
X158321855Y-110504626D01*
X158255858Y-110345295D01*
X158160045Y-110201901D01*
X158160042Y-110201898D01*
X158160040Y-110201895D01*
X158038104Y-110079959D01*
X158038101Y-110079957D01*
X158038099Y-110079955D01*
X157894705Y-109984142D01*
X157735374Y-109918145D01*
X157725704Y-109916221D01*
X157681729Y-109889535D01*
X157665195Y-109840825D01*
X157683840Y-109792883D01*
X157687203Y-109789293D01*
X157869796Y-109606700D01*
X158255918Y-109220577D01*
X158271491Y-109208628D01*
X158274314Y-109206999D01*
X158351415Y-109129898D01*
X158363720Y-109108585D01*
X158387844Y-109066802D01*
X158403355Y-109008911D01*
X158405096Y-109004618D01*
X158411005Y-108998071D01*
X158421609Y-108979703D01*
X158481415Y-108919898D01*
X158490129Y-108904804D01*
X158502070Y-108889241D01*
X158637727Y-108753584D01*
X158684346Y-108731846D01*
X158734033Y-108745160D01*
X158763538Y-108787297D01*
X158766100Y-108806760D01*
X158766100Y-110229755D01*
X158753427Y-110271533D01*
X158704142Y-110345293D01*
X158638146Y-110504622D01*
X158638145Y-110504623D01*
X158604500Y-110673770D01*
X158604500Y-110846229D01*
X158638145Y-111015376D01*
X158638146Y-111015377D01*
X158704142Y-111174705D01*
X158799955Y-111318099D01*
X158799957Y-111318101D01*
X158799959Y-111318104D01*
X158921895Y-111440040D01*
X158921898Y-111440042D01*
X158921901Y-111440045D01*
X159065295Y-111535858D01*
X159224622Y-111601853D01*
X159224623Y-111601854D01*
X159224624Y-111601854D01*
X159224626Y-111601855D01*
X159337896Y-111624385D01*
X159393770Y-111635500D01*
X159393771Y-111635500D01*
X159566230Y-111635500D01*
X159608229Y-111627145D01*
X159735374Y-111601855D01*
X159894705Y-111535858D01*
X160038099Y-111440045D01*
X160160045Y-111318099D01*
X160255858Y-111174705D01*
X160321855Y-111015374D01*
X160355500Y-110846229D01*
X160355500Y-110673771D01*
X160321855Y-110504626D01*
X160255858Y-110345295D01*
X160160045Y-110201901D01*
X160160042Y-110201898D01*
X160160040Y-110201895D01*
X160038104Y-110079959D01*
X160038101Y-110079957D01*
X160038099Y-110079955D01*
X159894705Y-109984142D01*
X159873378Y-109975308D01*
X159735377Y-109918146D01*
X159735376Y-109918145D01*
X159566230Y-109884500D01*
X159566229Y-109884500D01*
X159394700Y-109884500D01*
X159346362Y-109866907D01*
X159320642Y-109822358D01*
X159319500Y-109809300D01*
X159319500Y-108709622D01*
X159320142Y-108699813D01*
X159321116Y-108692409D01*
X159326194Y-108673457D01*
X159327150Y-108671148D01*
X159336969Y-108654141D01*
X159341572Y-108648144D01*
X159348042Y-108640769D01*
X159379011Y-108609805D01*
X159379011Y-108609803D01*
X159384393Y-108604423D01*
X159384420Y-108604389D01*
X161158148Y-106830664D01*
X161158148Y-106830663D01*
X161161718Y-106827094D01*
X161161780Y-106827021D01*
X161176865Y-106811939D01*
X161246785Y-106707308D01*
X161294947Y-106591046D01*
X161319500Y-106467621D01*
X161319500Y-106404700D01*
X161319500Y-106355910D01*
X161319500Y-99023959D01*
X161319510Y-99023931D01*
X161319510Y-98929876D01*
X161307518Y-98869596D01*
X161294956Y-98806450D01*
X161253860Y-98707245D01*
X161246795Y-98690190D01*
X161246794Y-98690188D01*
X161246793Y-98690186D01*
X161176872Y-98585553D01*
X161132376Y-98541062D01*
X161123806Y-98532493D01*
X160865964Y-98274651D01*
X160865963Y-98274650D01*
X160862637Y-98271324D01*
X160862572Y-98271267D01*
X160847243Y-98255937D01*
X160847243Y-98255936D01*
X160802343Y-98225932D01*
X160742608Y-98186014D01*
X160742607Y-98186013D01*
X160742605Y-98186012D01*
X160626346Y-98137852D01*
X160502921Y-98113299D01*
X160440000Y-98113299D01*
X160391210Y-98113299D01*
X160385154Y-98113299D01*
X160385142Y-98113300D01*
X159531160Y-98113300D01*
X159531130Y-98113289D01*
X159500000Y-98113289D01*
X159437077Y-98113289D01*
X159313649Y-98137843D01*
X159197388Y-98186004D01*
X159188399Y-98192011D01*
X159166231Y-98206824D01*
X159124451Y-98219500D01*
X158835684Y-98219500D01*
X158824318Y-98220996D01*
X158786828Y-98225931D01*
X158786822Y-98225933D01*
X158679599Y-98275932D01*
X158679591Y-98275938D01*
X158595938Y-98359591D01*
X158592161Y-98364986D01*
X158589716Y-98363274D01*
X158561779Y-98391210D01*
X158510535Y-98395692D01*
X158468399Y-98366187D01*
X158467078Y-98363900D01*
X158464061Y-98359591D01*
X158380408Y-98275938D01*
X158380400Y-98275932D01*
X158273177Y-98225933D01*
X158273171Y-98225931D01*
X158237178Y-98221193D01*
X158224316Y-98219500D01*
X157815684Y-98219500D01*
X157804318Y-98220996D01*
X157766828Y-98225931D01*
X157766822Y-98225933D01*
X157659599Y-98275932D01*
X157659591Y-98275938D01*
X157575938Y-98359591D01*
X157575932Y-98359599D01*
X157525933Y-98466822D01*
X157525931Y-98466828D01*
X157519500Y-98515685D01*
X157519500Y-98658037D01*
X157501907Y-98706375D01*
X157497474Y-98711211D01*
X156428345Y-99780339D01*
X156381725Y-99802079D01*
X156332038Y-99788765D01*
X156312645Y-99768944D01*
X156309947Y-99764906D01*
X156307052Y-99760573D01*
X156240731Y-99716258D01*
X156240729Y-99716257D01*
X156182249Y-99704625D01*
X156182248Y-99704625D01*
X155882752Y-99704625D01*
X155882751Y-99704625D01*
X155878833Y-99705404D01*
X155827993Y-99697573D01*
X155794080Y-99658895D01*
X155792963Y-99607467D01*
X155810994Y-99578474D01*
X155849065Y-99540404D01*
X155899068Y-99433173D01*
X155905500Y-99384316D01*
X155905500Y-99035684D01*
X155899068Y-98986827D01*
X155887275Y-98961537D01*
X155849067Y-98879599D01*
X155849061Y-98879591D01*
X155764010Y-98794540D01*
X155742270Y-98747920D01*
X155753169Y-98707245D01*
X155751285Y-98706367D01*
X155804066Y-98593177D01*
X155804068Y-98593173D01*
X155810500Y-98544316D01*
X155810500Y-98115684D01*
X155804068Y-98066827D01*
X155804066Y-98066822D01*
X155754067Y-97959599D01*
X155754061Y-97959591D01*
X155670408Y-97875938D01*
X155670400Y-97875932D01*
X155563177Y-97825933D01*
X155563171Y-97825931D01*
X155527178Y-97821193D01*
X155514316Y-97819500D01*
X155165684Y-97819500D01*
X155154318Y-97820996D01*
X155116828Y-97825931D01*
X155116822Y-97825933D01*
X155009599Y-97875932D01*
X155009591Y-97875938D01*
X154943174Y-97942356D01*
X154925469Y-97950612D01*
X154909463Y-97961820D01*
X154902703Y-97961228D01*
X154896554Y-97964096D01*
X154877681Y-97959039D01*
X154858219Y-97957336D01*
X154850094Y-97951646D01*
X154846867Y-97950782D01*
X154836826Y-97942356D01*
X154797644Y-97903174D01*
X154775904Y-97856554D01*
X154789218Y-97806867D01*
X154797644Y-97796826D01*
X154854061Y-97740408D01*
X154854065Y-97740404D01*
X154861520Y-97724418D01*
X154904066Y-97633177D01*
X154904068Y-97633173D01*
X154910500Y-97584316D01*
X154910500Y-97155684D01*
X154904068Y-97106827D01*
X154885721Y-97067481D01*
X154881237Y-97016237D01*
X154910742Y-96974100D01*
X154953875Y-96960500D01*
X155304314Y-96960500D01*
X155304316Y-96960500D01*
X155353173Y-96954068D01*
X155437126Y-96914920D01*
X155460400Y-96904067D01*
X155460400Y-96904066D01*
X155460404Y-96904065D01*
X155544065Y-96820404D01*
X155594068Y-96713173D01*
X155600500Y-96664316D01*
X155600500Y-96315684D01*
X155594068Y-96266827D01*
X155593665Y-96265962D01*
X155544067Y-96159599D01*
X155544064Y-96159595D01*
X155544059Y-96159590D01*
X155460404Y-96075935D01*
X155445615Y-96069038D01*
X155443185Y-96066607D01*
X155439800Y-96066011D01*
X155425250Y-96048672D01*
X155409244Y-96032664D01*
X155408319Y-96028494D01*
X155406735Y-96026606D01*
X155402200Y-96000886D01*
X155402200Y-95860415D01*
X155414873Y-95818637D01*
X155446867Y-95770756D01*
X155458500Y-95712273D01*
X155458500Y-95367977D01*
X155446867Y-95309494D01*
X155402552Y-95243173D01*
X155336231Y-95198858D01*
X155336229Y-95198857D01*
X155277749Y-95187225D01*
X155277748Y-95187225D01*
X154857252Y-95187225D01*
X154857251Y-95187225D01*
X154798770Y-95198857D01*
X154798768Y-95198858D01*
X154732448Y-95243173D01*
X154688133Y-95309493D01*
X154688132Y-95309495D01*
X154676500Y-95367976D01*
X154676500Y-95712273D01*
X154688132Y-95770754D01*
X154688133Y-95770756D01*
X154725126Y-95826119D01*
X154737800Y-95867898D01*
X154737800Y-96026582D01*
X154720207Y-96074920D01*
X154715774Y-96079756D01*
X154635939Y-96159590D01*
X154635933Y-96159598D01*
X154615643Y-96203109D01*
X154579269Y-96239481D01*
X154576266Y-96240803D01*
X154515519Y-96265962D01*
X154388639Y-96350737D01*
X154388638Y-96350738D01*
X154368247Y-96371128D01*
X154365614Y-96373760D01*
X154365612Y-96373762D01*
X154314302Y-96425072D01*
X154314279Y-96425082D01*
X154253153Y-96486203D01*
X154253150Y-96486205D01*
X154191703Y-96578157D01*
X154191703Y-96578159D01*
X154149374Y-96680343D01*
X154149373Y-96680348D01*
X154127798Y-96788832D01*
X154127800Y-96837284D01*
X154127800Y-96866582D01*
X154110207Y-96914920D01*
X154105774Y-96919756D01*
X154025938Y-96999591D01*
X154025932Y-96999599D01*
X153975933Y-97106822D01*
X153975931Y-97106828D01*
X153969500Y-97155685D01*
X153969500Y-97584314D01*
X153975931Y-97633171D01*
X153975933Y-97633177D01*
X154025932Y-97740400D01*
X154025938Y-97740408D01*
X154082356Y-97796826D01*
X154104096Y-97843446D01*
X154090782Y-97893133D01*
X154082356Y-97903174D01*
X154025938Y-97959591D01*
X154025932Y-97959599D01*
X153975933Y-98066822D01*
X153975931Y-98066828D01*
X153970816Y-98105684D01*
X153969500Y-98115684D01*
X153969500Y-98544316D01*
X153970126Y-98549068D01*
X153975931Y-98593171D01*
X153975933Y-98593177D01*
X154014737Y-98676392D01*
X154019221Y-98727636D01*
X153989716Y-98769773D01*
X153940029Y-98783087D01*
X153914802Y-98776327D01*
X153828177Y-98735933D01*
X153828171Y-98735931D01*
X153791401Y-98731091D01*
X153779316Y-98729500D01*
X153350684Y-98729500D01*
X153339318Y-98730996D01*
X153301828Y-98735931D01*
X153301822Y-98735933D01*
X153194599Y-98785932D01*
X153194591Y-98785938D01*
X153133174Y-98847356D01*
X153115469Y-98855611D01*
X153099466Y-98866819D01*
X153092704Y-98866227D01*
X153086554Y-98869096D01*
X153067685Y-98864039D01*
X153048222Y-98862338D01*
X153040092Y-98856646D01*
X153036867Y-98855782D01*
X153026828Y-98847359D01*
X153026825Y-98847356D01*
X153015144Y-98835675D01*
X152993403Y-98789057D01*
X153006715Y-98739370D01*
X153015137Y-98729331D01*
X153054065Y-98690404D01*
X153054835Y-98688754D01*
X153104066Y-98583177D01*
X153104068Y-98583173D01*
X153110500Y-98534316D01*
X153110500Y-98105684D01*
X153104068Y-98056827D01*
X153060827Y-97964096D01*
X153054067Y-97949599D01*
X153054061Y-97949591D01*
X152970408Y-97865938D01*
X152970400Y-97865932D01*
X152863177Y-97815933D01*
X152863171Y-97815931D01*
X152827178Y-97811193D01*
X152814316Y-97809500D01*
X152465684Y-97809500D01*
X152455209Y-97810879D01*
X152416828Y-97815931D01*
X152416822Y-97815933D01*
X152303633Y-97868715D01*
X152302308Y-97865873D01*
X152264547Y-97875975D01*
X152217936Y-97854216D01*
X152196576Y-97810879D01*
X152196394Y-97809500D01*
X152194068Y-97791827D01*
X152194066Y-97791822D01*
X152144067Y-97684599D01*
X152144061Y-97684591D01*
X152060408Y-97600938D01*
X152060400Y-97600932D01*
X151953177Y-97550933D01*
X151953171Y-97550931D01*
X151917178Y-97546193D01*
X151904316Y-97544500D01*
X151904314Y-97544500D01*
X151758538Y-97544500D01*
X151710200Y-97526907D01*
X151684480Y-97482358D01*
X151690384Y-97437518D01*
X151704068Y-97408173D01*
X151710500Y-97359316D01*
X151710500Y-97010684D01*
X151704068Y-96961827D01*
X151703449Y-96960500D01*
X151657742Y-96862481D01*
X151653258Y-96811237D01*
X151682763Y-96769100D01*
X151725896Y-96755500D01*
X151744314Y-96755500D01*
X151744316Y-96755500D01*
X151793173Y-96749068D01*
X151900404Y-96699065D01*
X151984065Y-96615404D01*
X152034068Y-96508173D01*
X152040500Y-96459316D01*
X152040500Y-96110684D01*
X152034068Y-96061827D01*
X152004246Y-95997873D01*
X152003321Y-95993702D01*
X152001735Y-95991812D01*
X151997200Y-95966092D01*
X151997200Y-95864787D01*
X152014793Y-95816449D01*
X152030897Y-95804096D01*
X152030016Y-95802837D01*
X152035398Y-95799067D01*
X152035404Y-95799065D01*
X152063715Y-95770754D01*
X152096826Y-95737644D01*
X152143446Y-95715904D01*
X152193133Y-95729218D01*
X152203174Y-95737644D01*
X152264591Y-95799061D01*
X152264599Y-95799067D01*
X152371822Y-95849066D01*
X152371824Y-95849066D01*
X152371827Y-95849068D01*
X152420684Y-95855500D01*
X152420686Y-95855500D01*
X152849314Y-95855500D01*
X152849316Y-95855500D01*
X152898173Y-95849068D01*
X153005404Y-95799065D01*
X153089065Y-95715404D01*
X153139068Y-95608173D01*
X153145500Y-95559316D01*
X153145500Y-95210684D01*
X153139068Y-95161827D01*
X153139066Y-95161822D01*
X153089067Y-95054599D01*
X153089061Y-95054591D01*
X153022644Y-94988174D01*
X153000904Y-94941554D01*
X153014218Y-94891867D01*
X153022644Y-94881826D01*
X153089061Y-94815408D01*
X153089065Y-94815404D01*
X153090298Y-94812761D01*
X153136081Y-94714578D01*
X153139068Y-94708173D01*
X153145500Y-94659316D01*
X153145500Y-94310684D01*
X153139068Y-94261827D01*
X153136325Y-94255944D01*
X153089067Y-94154599D01*
X153089061Y-94154591D01*
X153054226Y-94119756D01*
X153047288Y-94104879D01*
X153036735Y-94092302D01*
X153033884Y-94076134D01*
X153032486Y-94073136D01*
X153032200Y-94066582D01*
X153032200Y-93918161D01*
X153044874Y-93876382D01*
X153056666Y-93858734D01*
X153056666Y-93858733D01*
X153056668Y-93858731D01*
X153068301Y-93800248D01*
X153068301Y-92973352D01*
X153068301Y-92973351D01*
X153611699Y-92973351D01*
X153611699Y-93800248D01*
X153623331Y-93858729D01*
X153623332Y-93858731D01*
X153635126Y-93876382D01*
X153645125Y-93891345D01*
X153648146Y-93901306D01*
X153653264Y-93907405D01*
X153657799Y-93933125D01*
X153657799Y-93994356D01*
X153657797Y-93994386D01*
X153657797Y-94021071D01*
X153657792Y-94021084D01*
X153657794Y-94120689D01*
X153657795Y-94120694D01*
X153679219Y-94255941D01*
X153721535Y-94386171D01*
X153721542Y-94386186D01*
X153783704Y-94508185D01*
X153783706Y-94508187D01*
X153812538Y-94547870D01*
X153814246Y-94550322D01*
X153816697Y-94553994D01*
X153838603Y-94596987D01*
X153859030Y-94617414D01*
X153859045Y-94617436D01*
X153921045Y-94679434D01*
X153921052Y-94679441D01*
X153934264Y-94689040D01*
X153949817Y-94704593D01*
X153969415Y-94714578D01*
X154024587Y-94754663D01*
X154138615Y-94812762D01*
X154260328Y-94852307D01*
X154386729Y-94872325D01*
X154450717Y-94872324D01*
X154474887Y-94872324D01*
X154503421Y-94880978D01*
X154504425Y-94878556D01*
X154511267Y-94881389D01*
X154511269Y-94881391D01*
X154540510Y-94887207D01*
X154569751Y-94893024D01*
X154569752Y-94893024D01*
X154990249Y-94893024D01*
X155009742Y-94889146D01*
X155048731Y-94881391D01*
X155115052Y-94837076D01*
X155159367Y-94770755D01*
X155171000Y-94712272D01*
X155171000Y-94367976D01*
X155159367Y-94309493D01*
X155115052Y-94243172D01*
X155048731Y-94198857D01*
X155048729Y-94198856D01*
X154990249Y-94187224D01*
X154990248Y-94187224D01*
X154569752Y-94187224D01*
X154569751Y-94187224D01*
X154511268Y-94198857D01*
X154504427Y-94201691D01*
X154503963Y-94200572D01*
X154500608Y-94203388D01*
X154474888Y-94207923D01*
X154455632Y-94207923D01*
X154445818Y-94207280D01*
X154422048Y-94204151D01*
X154403088Y-94199071D01*
X154393069Y-94194921D01*
X154362188Y-94171226D01*
X154355766Y-94162857D01*
X154345950Y-94145856D01*
X154332988Y-94114564D01*
X154327908Y-94095611D01*
X154322841Y-94057127D01*
X154322199Y-94047324D01*
X154322199Y-93933125D01*
X154334873Y-93891345D01*
X154356666Y-93858731D01*
X154368299Y-93800248D01*
X154368299Y-92973352D01*
X154356666Y-92914869D01*
X154312351Y-92848548D01*
X154246030Y-92804233D01*
X154246028Y-92804232D01*
X154187548Y-92792600D01*
X154187547Y-92792600D01*
X153792451Y-92792600D01*
X153792450Y-92792600D01*
X153733969Y-92804232D01*
X153733967Y-92804233D01*
X153667647Y-92848548D01*
X153623332Y-92914868D01*
X153623331Y-92914870D01*
X153611699Y-92973351D01*
X153068301Y-92973351D01*
X153056668Y-92914869D01*
X153012353Y-92848548D01*
X152946032Y-92804233D01*
X152946030Y-92804232D01*
X152887550Y-92792600D01*
X152887549Y-92792600D01*
X152492453Y-92792600D01*
X152492452Y-92792600D01*
X152433971Y-92804232D01*
X152433969Y-92804233D01*
X152367649Y-92848548D01*
X152323334Y-92914868D01*
X152323333Y-92914870D01*
X152311701Y-92973351D01*
X152311701Y-93800248D01*
X152323333Y-93858729D01*
X152323334Y-93858731D01*
X152355126Y-93906311D01*
X152358147Y-93916270D01*
X152363265Y-93922369D01*
X152367800Y-93948089D01*
X152367800Y-93974901D01*
X152350207Y-94023239D01*
X152324382Y-94043055D01*
X152264598Y-94070933D01*
X152180935Y-94154595D01*
X152180932Y-94154599D01*
X152130933Y-94261822D01*
X152130931Y-94261828D01*
X152124500Y-94310685D01*
X152124500Y-94659314D01*
X152130931Y-94708171D01*
X152130933Y-94708177D01*
X152180932Y-94815400D01*
X152180938Y-94815408D01*
X152247356Y-94881826D01*
X152255612Y-94899530D01*
X152266820Y-94915537D01*
X152266228Y-94922296D01*
X152269096Y-94928446D01*
X152264039Y-94947318D01*
X152262336Y-94966781D01*
X152256646Y-94974905D01*
X152255782Y-94978133D01*
X152247356Y-94988174D01*
X152203174Y-95032356D01*
X152156554Y-95054096D01*
X152106867Y-95040782D01*
X152096826Y-95032356D01*
X152035408Y-94970938D01*
X152035400Y-94970932D01*
X151928177Y-94920933D01*
X151928171Y-94920931D01*
X151892178Y-94916193D01*
X151879316Y-94914500D01*
X151450684Y-94914500D01*
X151439318Y-94915996D01*
X151401828Y-94920931D01*
X151401822Y-94920933D01*
X151294599Y-94970932D01*
X151294591Y-94970938D01*
X151240674Y-95024856D01*
X151194054Y-95046596D01*
X151144367Y-95033282D01*
X151134326Y-95024856D01*
X151070408Y-94960938D01*
X151070400Y-94960932D01*
X150963177Y-94910933D01*
X150963171Y-94910931D01*
X150927178Y-94906193D01*
X150914316Y-94904500D01*
X150565684Y-94904500D01*
X150554318Y-94905996D01*
X150516828Y-94910931D01*
X150516822Y-94910933D01*
X150409599Y-94960932D01*
X150409591Y-94960938D01*
X150325938Y-95044591D01*
X150325932Y-95044599D01*
X150275933Y-95151822D01*
X150275931Y-95151828D01*
X150269500Y-95200685D01*
X150269500Y-95629314D01*
X150275931Y-95678171D01*
X150275933Y-95678177D01*
X150304348Y-95739113D01*
X150308832Y-95790357D01*
X150279327Y-95832494D01*
X150267975Y-95839048D01*
X150199599Y-95870932D01*
X150199591Y-95870938D01*
X150115938Y-95954591D01*
X150115932Y-95954599D01*
X150065933Y-96061822D01*
X150065931Y-96061828D01*
X150059500Y-96110685D01*
X150059500Y-96459314D01*
X150065931Y-96508171D01*
X150065932Y-96508173D01*
X150080754Y-96539960D01*
X150081679Y-96544129D01*
X150083265Y-96546019D01*
X150087800Y-96571739D01*
X150087800Y-96640373D01*
X150070207Y-96688711D01*
X150025658Y-96714431D01*
X150022416Y-96714930D01*
X149976827Y-96720931D01*
X149976822Y-96720933D01*
X149869599Y-96770932D01*
X149869591Y-96770938D01*
X149785938Y-96854591D01*
X149785932Y-96854599D01*
X149735933Y-96961822D01*
X149735931Y-96961828D01*
X149729500Y-97010685D01*
X149729500Y-97359314D01*
X149732257Y-97380257D01*
X149732900Y-97390072D01*
X149732900Y-97541676D01*
X149715307Y-97590014D01*
X149670758Y-97615734D01*
X149667516Y-97616233D01*
X149631828Y-97620931D01*
X149631822Y-97620933D01*
X149524599Y-97670932D01*
X149524591Y-97670938D01*
X149440938Y-97754591D01*
X149440932Y-97754599D01*
X149390933Y-97861822D01*
X149390931Y-97861828D01*
X149384500Y-97910685D01*
X149384500Y-98259314D01*
X149390931Y-98308171D01*
X149390933Y-98308177D01*
X149440932Y-98415400D01*
X149440938Y-98415408D01*
X149524591Y-98499061D01*
X149524599Y-98499067D01*
X149631822Y-98549066D01*
X149631824Y-98549066D01*
X149631827Y-98549068D01*
X149680684Y-98555500D01*
X149680686Y-98555500D01*
X150109314Y-98555500D01*
X150109316Y-98555500D01*
X150158173Y-98549068D01*
X150265404Y-98499065D01*
X150285143Y-98479326D01*
X150326826Y-98437644D01*
X150344530Y-98429387D01*
X150360537Y-98418180D01*
X150367296Y-98418771D01*
X150373446Y-98415904D01*
X150392318Y-98420960D01*
X150411781Y-98422664D01*
X150419905Y-98428353D01*
X150423133Y-98429218D01*
X150433174Y-98437644D01*
X150474856Y-98479326D01*
X150496596Y-98525946D01*
X150483282Y-98575633D01*
X150474856Y-98585674D01*
X150405938Y-98654591D01*
X150405932Y-98654599D01*
X150355933Y-98761822D01*
X150355931Y-98761828D01*
X150349500Y-98810685D01*
X150349500Y-99159314D01*
X150355931Y-99208171D01*
X150355933Y-99208177D01*
X150405932Y-99315400D01*
X150405938Y-99315408D01*
X150489591Y-99399061D01*
X150489599Y-99399067D01*
X150596822Y-99449066D01*
X150596824Y-99449066D01*
X150596827Y-99449068D01*
X150645684Y-99455500D01*
X150683810Y-99455500D01*
X150732148Y-99473093D01*
X150736984Y-99477526D01*
X151065234Y-99805776D01*
X151086974Y-99852396D01*
X151086119Y-99872001D01*
X151084500Y-99881188D01*
X151084500Y-100232301D01*
X151066907Y-100280639D01*
X151022358Y-100306359D01*
X151010109Y-100307497D01*
X150794572Y-100309815D01*
X150733937Y-100319650D01*
X150733927Y-100319652D01*
X150691568Y-100333260D01*
X150691547Y-100333268D01*
X150653888Y-100349680D01*
X150586072Y-100411049D01*
X150556537Y-100453230D01*
X150556535Y-100453234D01*
X150526368Y-100517925D01*
X150525248Y-100521003D01*
X150524962Y-100520898D01*
X150519183Y-100534843D01*
X150503066Y-100562758D01*
X150491115Y-100578332D01*
X150468333Y-100601114D01*
X150452763Y-100613063D01*
X150443013Y-100618692D01*
X150443003Y-100618698D01*
X150443003Y-100618699D01*
X150434891Y-100624379D01*
X150413644Y-100639255D01*
X150393626Y-100656052D01*
X150382233Y-100666363D01*
X150382226Y-100666372D01*
X150332612Y-100743187D01*
X150332611Y-100743188D01*
X150314992Y-100791595D01*
X150302600Y-100861875D01*
X150302600Y-101405542D01*
X150301814Y-101416388D01*
X150300363Y-101426343D01*
X150293508Y-101448524D01*
X150277920Y-101480410D01*
X150263535Y-101500557D01*
X150240556Y-101523536D01*
X150220411Y-101537920D01*
X150189930Y-101552822D01*
X150189923Y-101552825D01*
X150161398Y-101569749D01*
X150161393Y-101569752D01*
X150141633Y-101583747D01*
X150127688Y-101594285D01*
X150125921Y-101591947D01*
X150088894Y-101609214D01*
X150082340Y-101609500D01*
X149639309Y-101609500D01*
X149520691Y-101609500D01*
X149406114Y-101640201D01*
X149406112Y-101640201D01*
X149303386Y-101699510D01*
X149219510Y-101783386D01*
X149160201Y-101886112D01*
X149160201Y-101886114D01*
X149129500Y-102000691D01*
X149129500Y-102119309D01*
X149160201Y-102233885D01*
X149160201Y-102233887D01*
X149219510Y-102336613D01*
X149303386Y-102420489D01*
X149362696Y-102454731D01*
X149406114Y-102479799D01*
X149520691Y-102510500D01*
X149520694Y-102510500D01*
X150439306Y-102510500D01*
X150439309Y-102510500D01*
X150539339Y-102483697D01*
X150553887Y-102479799D01*
X150656614Y-102420489D01*
X150877101Y-102200000D01*
X150912397Y-102180132D01*
X150929457Y-102175958D01*
X150976139Y-102154189D01*
X151034601Y-102113252D01*
X151064073Y-102083779D01*
X151087095Y-102056342D01*
X151102095Y-102034920D01*
X151110477Y-102021936D01*
X151110477Y-102021935D01*
X151110790Y-102021273D01*
X151113199Y-102015006D01*
X151114245Y-102012680D01*
X151124940Y-101992683D01*
X151144360Y-101945794D01*
X151144828Y-101944757D01*
X151146405Y-101943136D01*
X151160226Y-101922453D01*
X151171678Y-101911002D01*
X151197230Y-101879868D01*
X151210354Y-101860226D01*
X151219706Y-101848833D01*
X151224120Y-101844420D01*
X151270742Y-101822685D01*
X151277288Y-101822400D01*
X151422537Y-101822400D01*
X151470875Y-101839993D01*
X151496595Y-101884542D01*
X151487662Y-101935200D01*
X151454318Y-101965754D01*
X151389599Y-101995932D01*
X151389591Y-101995938D01*
X151305938Y-102079591D01*
X151305932Y-102079599D01*
X151255933Y-102186822D01*
X151255931Y-102186828D01*
X151250861Y-102225344D01*
X151249548Y-102235324D01*
X151249500Y-102235685D01*
X151249500Y-102644314D01*
X151255931Y-102693171D01*
X151255933Y-102693177D01*
X151305932Y-102800400D01*
X151305938Y-102800408D01*
X151389591Y-102884061D01*
X151389594Y-102884063D01*
X151389596Y-102884065D01*
X151389598Y-102884065D01*
X151394986Y-102887839D01*
X151393274Y-102890283D01*
X151421210Y-102918221D01*
X151425692Y-102969465D01*
X151403669Y-103005617D01*
X151395205Y-103013319D01*
X151389596Y-103015935D01*
X151361925Y-103043605D01*
X151360614Y-103044799D01*
X151338354Y-103053930D01*
X151316554Y-103064096D01*
X151314749Y-103063612D01*
X151313023Y-103064321D01*
X151290106Y-103057009D01*
X151266867Y-103050782D01*
X151264583Y-103048865D01*
X151264017Y-103048685D01*
X151263620Y-103048057D01*
X151256826Y-103042356D01*
X151190408Y-102975938D01*
X151190400Y-102975932D01*
X151083177Y-102925933D01*
X151083171Y-102925931D01*
X151047178Y-102921193D01*
X151034316Y-102919500D01*
X150605684Y-102919500D01*
X150594318Y-102920996D01*
X150556828Y-102925931D01*
X150556822Y-102925933D01*
X150449599Y-102975932D01*
X150449591Y-102975938D01*
X150393174Y-103032356D01*
X150346554Y-103054096D01*
X150296867Y-103040782D01*
X150286826Y-103032356D01*
X150230408Y-102975938D01*
X150230400Y-102975932D01*
X150123177Y-102925933D01*
X150123171Y-102925931D01*
X150087178Y-102921193D01*
X150074316Y-102919500D01*
X149645684Y-102919500D01*
X149634318Y-102920996D01*
X149596828Y-102925931D01*
X149596822Y-102925933D01*
X149489599Y-102975932D01*
X149489591Y-102975938D01*
X149405938Y-103059591D01*
X149405932Y-103059599D01*
X149355933Y-103166822D01*
X149355931Y-103166828D01*
X149349500Y-103215685D01*
X149349500Y-103564314D01*
X149355931Y-103613171D01*
X149355933Y-103613177D01*
X149405932Y-103720400D01*
X149405938Y-103720408D01*
X149489591Y-103804061D01*
X149489594Y-103804063D01*
X149489596Y-103804065D01*
X149489598Y-103804065D01*
X149494984Y-103807837D01*
X149494019Y-103809214D01*
X149504739Y-103821989D01*
X149520743Y-103837981D01*
X149521672Y-103842168D01*
X149523265Y-103844067D01*
X149527800Y-103869787D01*
X149527800Y-103934300D01*
X149510207Y-103982638D01*
X149465658Y-104008358D01*
X149452601Y-104009500D01*
X149338700Y-104009500D01*
X149338689Y-104009501D01*
X149242565Y-104024725D01*
X149126705Y-104083759D01*
X149034759Y-104175705D01*
X148975725Y-104291565D01*
X148960500Y-104387691D01*
X147270500Y-104387691D01*
X147270500Y-92660691D01*
X149589500Y-92660691D01*
X149589500Y-92779309D01*
X149608053Y-92848548D01*
X149620201Y-92893885D01*
X149620201Y-92893887D01*
X149679510Y-92996613D01*
X149763386Y-93080489D01*
X149811061Y-93108014D01*
X149866114Y-93139799D01*
X149980691Y-93170500D01*
X149980694Y-93170500D01*
X150099305Y-93170500D01*
X150099309Y-93170500D01*
X150178915Y-93149169D01*
X150230154Y-93153651D01*
X150230157Y-93153652D01*
X150230157Y-93153653D01*
X150316822Y-93194066D01*
X150316824Y-93194066D01*
X150316827Y-93194068D01*
X150365684Y-93200500D01*
X150365686Y-93200500D01*
X150774314Y-93200500D01*
X150774316Y-93200500D01*
X150823173Y-93194068D01*
X150930404Y-93144065D01*
X151014065Y-93060404D01*
X151014067Y-93060398D01*
X151017839Y-93055014D01*
X151020286Y-93056727D01*
X151048199Y-93028799D01*
X151099442Y-93024301D01*
X151141587Y-93053793D01*
X151142908Y-93056081D01*
X151145938Y-93060408D01*
X151229591Y-93144061D01*
X151229599Y-93144067D01*
X151336822Y-93194066D01*
X151336824Y-93194066D01*
X151336827Y-93194068D01*
X151385684Y-93200500D01*
X151385686Y-93200500D01*
X151794314Y-93200500D01*
X151794316Y-93200500D01*
X151843173Y-93194068D01*
X151950404Y-93144065D01*
X152034065Y-93060404D01*
X152036579Y-93055014D01*
X152084066Y-92953177D01*
X152084068Y-92953173D01*
X152090500Y-92904316D01*
X152090500Y-92555684D01*
X152084068Y-92506827D01*
X152084066Y-92506822D01*
X152034067Y-92399599D01*
X152034064Y-92399595D01*
X151993979Y-92359510D01*
X151952642Y-92318173D01*
X151945222Y-92302262D01*
X151934370Y-92288461D01*
X151934651Y-92279594D01*
X151930903Y-92271555D01*
X151935446Y-92254597D01*
X151936005Y-92237047D01*
X151942984Y-92226466D01*
X151944217Y-92221867D01*
X151949776Y-92214856D01*
X151951162Y-92213306D01*
X152034065Y-92130404D01*
X152043559Y-92110043D01*
X152050975Y-92101756D01*
X152064437Y-92094543D01*
X152075237Y-92083745D01*
X152091201Y-92080205D01*
X152096318Y-92077465D01*
X152100045Y-92078245D01*
X152107016Y-92076700D01*
X152486427Y-92076700D01*
X152486428Y-92076700D01*
X152556803Y-92057844D01*
X152619898Y-92021415D01*
X152771887Y-91869426D01*
X152818507Y-91847686D01*
X152825061Y-91847400D01*
X152887550Y-91847400D01*
X152907043Y-91843522D01*
X152946032Y-91835767D01*
X152973220Y-91817599D01*
X153023185Y-91805372D01*
X153056778Y-91817598D01*
X153083969Y-91835767D01*
X153113210Y-91841583D01*
X153142451Y-91847400D01*
X153142452Y-91847400D01*
X153537549Y-91847400D01*
X153557042Y-91843522D01*
X153596031Y-91835767D01*
X153623219Y-91817599D01*
X153673184Y-91805372D01*
X153706777Y-91817598D01*
X153733968Y-91835767D01*
X153763209Y-91841583D01*
X153792450Y-91847400D01*
X153792451Y-91847400D01*
X153864860Y-91847400D01*
X153913198Y-91864993D01*
X153918034Y-91869426D01*
X154070023Y-92021415D01*
X154133118Y-92057844D01*
X154203493Y-92076700D01*
X154276349Y-92076700D01*
X154602984Y-92076700D01*
X154651322Y-92094293D01*
X154659161Y-92101908D01*
X154666484Y-92110137D01*
X154675935Y-92130404D01*
X154753904Y-92208373D01*
X154755359Y-92210008D01*
X154764096Y-92232001D01*
X154774096Y-92253446D01*
X154773499Y-92255672D01*
X154774350Y-92257814D01*
X154766907Y-92280273D01*
X154760782Y-92303133D01*
X154758385Y-92305988D01*
X154758169Y-92306643D01*
X154757479Y-92307068D01*
X154752356Y-92313174D01*
X154665938Y-92399591D01*
X154665932Y-92399599D01*
X154615933Y-92506822D01*
X154615931Y-92506828D01*
X154609500Y-92555685D01*
X154609500Y-92904314D01*
X154615931Y-92953171D01*
X154615933Y-92953177D01*
X154665932Y-93060400D01*
X154665938Y-93060408D01*
X154749591Y-93144061D01*
X154749599Y-93144067D01*
X154856822Y-93194066D01*
X154856824Y-93194066D01*
X154856827Y-93194068D01*
X154905684Y-93200500D01*
X154905686Y-93200500D01*
X155314314Y-93200500D01*
X155314316Y-93200500D01*
X155363173Y-93194068D01*
X155470404Y-93144065D01*
X155554065Y-93060404D01*
X155554067Y-93060398D01*
X155557839Y-93055014D01*
X155560286Y-93056727D01*
X155562325Y-93054687D01*
X155569173Y-93041521D01*
X155579951Y-93037051D01*
X155588199Y-93028799D01*
X155602981Y-93027501D01*
X155616690Y-93021817D01*
X155627819Y-93025321D01*
X155639442Y-93024301D01*
X155651600Y-93032809D01*
X155665755Y-93037266D01*
X155675732Y-93049696D01*
X155681587Y-93053793D01*
X155683407Y-93056514D01*
X155686284Y-93061026D01*
X155686841Y-93063535D01*
X155688164Y-93065183D01*
X155688725Y-93066387D01*
X155687592Y-93066914D01*
X155691531Y-93084651D01*
X155697790Y-93108014D01*
X155697316Y-93110697D01*
X155697438Y-93111242D01*
X155697109Y-93111873D01*
X155695515Y-93120918D01*
X155683754Y-93164812D01*
X155679500Y-93180691D01*
X155679500Y-93299309D01*
X155710201Y-93413885D01*
X155710201Y-93413887D01*
X155769510Y-93516613D01*
X155853386Y-93600489D01*
X155912696Y-93634731D01*
X155956114Y-93659799D01*
X156070691Y-93690500D01*
X156070694Y-93690500D01*
X156189306Y-93690500D01*
X156189309Y-93690500D01*
X156303886Y-93659799D01*
X156406613Y-93600489D01*
X156490489Y-93516613D01*
X156549799Y-93413886D01*
X156580500Y-93299309D01*
X156580500Y-93180691D01*
X156564484Y-93120918D01*
X156568966Y-93069676D01*
X156572992Y-93062705D01*
X156582870Y-93041521D01*
X156624068Y-92953173D01*
X156630500Y-92904316D01*
X156630500Y-92555684D01*
X156624068Y-92506827D01*
X156624066Y-92506822D01*
X156574067Y-92399599D01*
X156574061Y-92399591D01*
X156490408Y-92315938D01*
X156490400Y-92315932D01*
X156383177Y-92265933D01*
X156383171Y-92265931D01*
X156347178Y-92261193D01*
X156334316Y-92259500D01*
X155925684Y-92259500D01*
X155914318Y-92260996D01*
X155876828Y-92265931D01*
X155876822Y-92265933D01*
X155769599Y-92315932D01*
X155769591Y-92315938D01*
X155685938Y-92399591D01*
X155682161Y-92404986D01*
X155679716Y-92403274D01*
X155651779Y-92431210D01*
X155600535Y-92435692D01*
X155565593Y-92414968D01*
X155557065Y-92406031D01*
X155554065Y-92399596D01*
X155485562Y-92331093D01*
X155484980Y-92330483D01*
X155474991Y-92307680D01*
X155464473Y-92285125D01*
X155464714Y-92284221D01*
X155464340Y-92283366D01*
X155471339Y-92259495D01*
X155477786Y-92235437D01*
X155478647Y-92234575D01*
X155478815Y-92234005D01*
X155480022Y-92233201D01*
X155496260Y-92216966D01*
X155500400Y-92214066D01*
X155500404Y-92214065D01*
X155584065Y-92130404D01*
X155634068Y-92023173D01*
X155640500Y-91974316D01*
X155640500Y-91625684D01*
X155634068Y-91576827D01*
X155609108Y-91523300D01*
X155584067Y-91469599D01*
X155584061Y-91469591D01*
X155500408Y-91385938D01*
X155500400Y-91385932D01*
X155393177Y-91335933D01*
X155393171Y-91335931D01*
X155357178Y-91331193D01*
X155344316Y-91329500D01*
X154915684Y-91329500D01*
X154904318Y-91330996D01*
X154866828Y-91335931D01*
X154866822Y-91335933D01*
X154759599Y-91385932D01*
X154759591Y-91385938D01*
X154675938Y-91469591D01*
X154675933Y-91469598D01*
X154671138Y-91479882D01*
X154634763Y-91516255D01*
X154602984Y-91523300D01*
X154443499Y-91523300D01*
X154395161Y-91505707D01*
X154369441Y-91461158D01*
X154368299Y-91448100D01*
X154368299Y-90839751D01*
X154362482Y-90810510D01*
X154356666Y-90781269D01*
X154334087Y-90747478D01*
X154321861Y-90697514D01*
X154344612Y-90651379D01*
X154391695Y-90630661D01*
X154396614Y-90630500D01*
X154504314Y-90630500D01*
X154504316Y-90630500D01*
X154553173Y-90624068D01*
X154632202Y-90587216D01*
X154660400Y-90574067D01*
X154660400Y-90574066D01*
X154660404Y-90574065D01*
X154744065Y-90490404D01*
X154760372Y-90455432D01*
X154796744Y-90419060D01*
X154847988Y-90414576D01*
X154860307Y-90419060D01*
X154956822Y-90464066D01*
X154956824Y-90464066D01*
X154956827Y-90464068D01*
X155005684Y-90470500D01*
X155005686Y-90470500D01*
X155354314Y-90470500D01*
X155354316Y-90470500D01*
X155403173Y-90464068D01*
X155465968Y-90434786D01*
X155510400Y-90414067D01*
X155510400Y-90414066D01*
X155510404Y-90414065D01*
X155541298Y-90383171D01*
X155576826Y-90347644D01*
X155623446Y-90325904D01*
X155673133Y-90339218D01*
X155683174Y-90347644D01*
X155749591Y-90414061D01*
X155749599Y-90414067D01*
X155856822Y-90464066D01*
X155856824Y-90464066D01*
X155856827Y-90464068D01*
X155905684Y-90470500D01*
X155905686Y-90470500D01*
X156254314Y-90470500D01*
X156254316Y-90470500D01*
X156303173Y-90464068D01*
X156321689Y-90455434D01*
X156399295Y-90419246D01*
X156431076Y-90412200D01*
X157844300Y-90412200D01*
X157892638Y-90429793D01*
X157918358Y-90474342D01*
X157919500Y-90487400D01*
X157919500Y-90599748D01*
X157931132Y-90658229D01*
X157931133Y-90658231D01*
X157975448Y-90724552D01*
X158041769Y-90768867D01*
X158071010Y-90774683D01*
X158100251Y-90780500D01*
X158100252Y-90780500D01*
X159094800Y-90780500D01*
X159143138Y-90798093D01*
X159168858Y-90842642D01*
X159170000Y-90855700D01*
X159170000Y-91030000D01*
X161270000Y-91030000D01*
X161270000Y-89130000D01*
X159170000Y-89130000D01*
X159170000Y-89304300D01*
X159152407Y-89352638D01*
X159107858Y-89378358D01*
X159094800Y-89379500D01*
X158100251Y-89379500D01*
X158041770Y-89391132D01*
X158041768Y-89391133D01*
X157975448Y-89435448D01*
X157931133Y-89501768D01*
X157931132Y-89501770D01*
X157919500Y-89560251D01*
X157919500Y-89672600D01*
X157901907Y-89720938D01*
X157857358Y-89746658D01*
X157844300Y-89747800D01*
X156615336Y-89747800D01*
X156566998Y-89730207D01*
X156548125Y-89701282D01*
X156546500Y-89702041D01*
X156494067Y-89589599D01*
X156494062Y-89589593D01*
X156485145Y-89580676D01*
X156463403Y-89534057D01*
X156476715Y-89484369D01*
X156485137Y-89474331D01*
X156549065Y-89410404D01*
X156599068Y-89303173D01*
X156605500Y-89254316D01*
X156605500Y-88905684D01*
X156599068Y-88856827D01*
X156580000Y-88815935D01*
X156549067Y-88749599D01*
X156549061Y-88749591D01*
X156465408Y-88665938D01*
X156465400Y-88665932D01*
X156358177Y-88615933D01*
X156358171Y-88615931D01*
X156322178Y-88611193D01*
X156309316Y-88609500D01*
X155880684Y-88609500D01*
X155869318Y-88610996D01*
X155831828Y-88615931D01*
X155831822Y-88615933D01*
X155724599Y-88665932D01*
X155724591Y-88665938D01*
X155663174Y-88727356D01*
X155616554Y-88749096D01*
X155566867Y-88735782D01*
X155556826Y-88727356D01*
X155495408Y-88665938D01*
X155495400Y-88665932D01*
X155388177Y-88615933D01*
X155388171Y-88615931D01*
X155352178Y-88611193D01*
X155339316Y-88609500D01*
X154910684Y-88609500D01*
X154899318Y-88610996D01*
X154861828Y-88615931D01*
X154861822Y-88615933D01*
X154754599Y-88665932D01*
X154754591Y-88665938D01*
X154670938Y-88749591D01*
X154670932Y-88749599D01*
X154620933Y-88856822D01*
X154620931Y-88856828D01*
X154614500Y-88905685D01*
X154614500Y-89254314D01*
X154620931Y-89303171D01*
X154620933Y-89303177D01*
X154670932Y-89410400D01*
X154670938Y-89410408D01*
X154755989Y-89495459D01*
X154761125Y-89506474D01*
X154769978Y-89514807D01*
X154771661Y-89529067D01*
X154777729Y-89542079D01*
X154774643Y-89554332D01*
X154776008Y-89565892D01*
X154768168Y-89583391D01*
X154768711Y-89583644D01*
X154768363Y-89584390D01*
X154767200Y-89585551D01*
X154766244Y-89587687D01*
X154765691Y-89589884D01*
X154763089Y-89593850D01*
X154762810Y-89594057D01*
X154762167Y-89594977D01*
X154761863Y-89594764D01*
X154746566Y-89606180D01*
X154731984Y-89620758D01*
X154724939Y-89622319D01*
X154721863Y-89624615D01*
X154716071Y-89624284D01*
X154700213Y-89627799D01*
X154686265Y-89627799D01*
X154663016Y-89634027D01*
X154619629Y-89645652D01*
X154619629Y-89645653D01*
X154614845Y-89646935D01*
X154601776Y-89650437D01*
X154550689Y-89679932D01*
X154506835Y-89688661D01*
X154506770Y-89689661D01*
X154504317Y-89689500D01*
X154504316Y-89689500D01*
X154075684Y-89689500D01*
X154064318Y-89690996D01*
X154026828Y-89695931D01*
X154026822Y-89695933D01*
X153919599Y-89745932D01*
X153919591Y-89745938D01*
X153863174Y-89802356D01*
X153816554Y-89824096D01*
X153766867Y-89810782D01*
X153756826Y-89802356D01*
X153700408Y-89745938D01*
X153700400Y-89745932D01*
X153593177Y-89695933D01*
X153593171Y-89695931D01*
X153557178Y-89691193D01*
X153544316Y-89689500D01*
X153115684Y-89689500D01*
X153104318Y-89690996D01*
X153066828Y-89695931D01*
X153066822Y-89695933D01*
X152959599Y-89745932D01*
X152959591Y-89745938D01*
X152875938Y-89829591D01*
X152875932Y-89829599D01*
X152825933Y-89936822D01*
X152825931Y-89936828D01*
X152820346Y-89979253D01*
X152819500Y-89985684D01*
X152819500Y-90334316D01*
X152821193Y-90347178D01*
X152825931Y-90383171D01*
X152825933Y-90383177D01*
X152875932Y-90490400D01*
X152875938Y-90490408D01*
X152916156Y-90530626D01*
X152937896Y-90577246D01*
X152924582Y-90626933D01*
X152882445Y-90656438D01*
X152862982Y-90659000D01*
X152492452Y-90659000D01*
X152433971Y-90670632D01*
X152433969Y-90670633D01*
X152367649Y-90714948D01*
X152323334Y-90781268D01*
X152323333Y-90781270D01*
X152311701Y-90839751D01*
X152311701Y-91448100D01*
X152305018Y-91466459D01*
X152301626Y-91485700D01*
X152296429Y-91490060D01*
X152294108Y-91496438D01*
X152277185Y-91506207D01*
X152262221Y-91518765D01*
X152252452Y-91520487D01*
X152249559Y-91522158D01*
X152236501Y-91523300D01*
X152107016Y-91523300D01*
X152058678Y-91505707D01*
X152038862Y-91479882D01*
X152034066Y-91469598D01*
X152034061Y-91469591D01*
X151950408Y-91385938D01*
X151950400Y-91385932D01*
X151843177Y-91335933D01*
X151843171Y-91335931D01*
X151807178Y-91331193D01*
X151794316Y-91329500D01*
X151365684Y-91329500D01*
X151354318Y-91330996D01*
X151316828Y-91335931D01*
X151316822Y-91335933D01*
X151209599Y-91385932D01*
X151209591Y-91385938D01*
X151125938Y-91469591D01*
X151125932Y-91469599D01*
X151075933Y-91576822D01*
X151075931Y-91576828D01*
X151069500Y-91625685D01*
X151069500Y-91974314D01*
X151075931Y-92023171D01*
X151075933Y-92023177D01*
X151125932Y-92130400D01*
X151125938Y-92130408D01*
X151214248Y-92218718D01*
X151212908Y-92220057D01*
X151222164Y-92233276D01*
X151236915Y-92253371D01*
X151236857Y-92254259D01*
X151237368Y-92254989D01*
X151235194Y-92279827D01*
X151233577Y-92304702D01*
X151232935Y-92305639D01*
X151232884Y-92306233D01*
X151219079Y-92326425D01*
X151218488Y-92327042D01*
X151145935Y-92399596D01*
X151142916Y-92406068D01*
X151134349Y-92415028D01*
X151121730Y-92421259D01*
X151111779Y-92431210D01*
X151099383Y-92432294D01*
X151088226Y-92437804D01*
X151074553Y-92434465D01*
X151060535Y-92435692D01*
X151050341Y-92428554D01*
X151038254Y-92425603D01*
X151029927Y-92414259D01*
X151018399Y-92406187D01*
X151017078Y-92403900D01*
X151014061Y-92399591D01*
X150930408Y-92315938D01*
X150930400Y-92315932D01*
X150823177Y-92265933D01*
X150823171Y-92265931D01*
X150787178Y-92261193D01*
X150774316Y-92259500D01*
X150365684Y-92259500D01*
X150352822Y-92261193D01*
X150316829Y-92265931D01*
X150316825Y-92265932D01*
X150257394Y-92293645D01*
X150206151Y-92298128D01*
X150151057Y-92283366D01*
X150099309Y-92269500D01*
X149980691Y-92269500D01*
X149866114Y-92300201D01*
X149866112Y-92300201D01*
X149763386Y-92359510D01*
X149679510Y-92443386D01*
X149620201Y-92546112D01*
X149620201Y-92546114D01*
X149589500Y-92660691D01*
X147270500Y-92660691D01*
X147270500Y-87975700D01*
X147288093Y-87927362D01*
X147332642Y-87901642D01*
X147345700Y-87900500D01*
X161794300Y-87900500D01*
X161842638Y-87918093D01*
G37*
%TD.AperFunction*%
%TD*%
%TA.AperFunction,Conductor*%
%TO.N,VDD*%
G36*
X158526488Y-111947593D02*
G01*
X158531324Y-111952026D01*
X158571670Y-111992372D01*
X158571673Y-111992374D01*
X158571675Y-111992376D01*
X158636572Y-112029844D01*
X158672764Y-112039541D01*
X158708955Y-112049239D01*
X158708956Y-112049239D01*
X159986528Y-112049239D01*
X159986544Y-112049240D01*
X159991147Y-112049240D01*
X160066080Y-112049240D01*
X160066083Y-112049240D01*
X160123169Y-112033942D01*
X160138467Y-112029844D01*
X160203364Y-111992376D01*
X160243714Y-111952025D01*
X160290333Y-111930286D01*
X160296888Y-111930000D01*
X160457508Y-111930000D01*
X160505846Y-111947593D01*
X160512268Y-111953660D01*
X160617757Y-112065742D01*
X160629560Y-112078282D01*
X160649878Y-112125540D01*
X160650000Y-112129822D01*
X160650000Y-113539974D01*
X160632407Y-113588312D01*
X160629320Y-113591768D01*
X160482316Y-113746508D01*
X160436268Y-113769435D01*
X160427598Y-113769914D01*
X156734344Y-113760169D01*
X156686053Y-113742448D01*
X156660450Y-113697832D01*
X156660216Y-113696404D01*
X156630874Y-113505681D01*
X156630000Y-113494246D01*
X156630000Y-112139800D01*
X156647593Y-112091462D01*
X156692142Y-112065742D01*
X156705200Y-112064600D01*
X158002836Y-112064600D01*
X158002852Y-112064601D01*
X158007455Y-112064601D01*
X158082391Y-112064601D01*
X158139720Y-112049239D01*
X158139721Y-112049239D01*
X158147247Y-112047222D01*
X158154775Y-112045205D01*
X158219672Y-112007737D01*
X158235037Y-111992372D01*
X158275384Y-111952026D01*
X158290260Y-111945088D01*
X158302838Y-111934535D01*
X158319005Y-111931684D01*
X158322004Y-111930286D01*
X158328558Y-111930000D01*
X158478150Y-111930000D01*
X158526488Y-111947593D01*
G37*
%TD.AperFunction*%
%TD*%
M02*
